<svg xmlns="http://www.w3.org/2000/svg" xmlns:xlink="http://www.w3.org/1999/xlink" width="202.905" height="163.322" viewBox="0 0 202.905 163.322">
  <defs>
    <filter id="Trazado_14731" x="54.437" y="0" width="148.468" height="163.322" filterUnits="userSpaceOnUse">
      <feOffset input="SourceAlpha"/>
      <feGaussianBlur stdDeviation="7.37" result="blur"/>
      <feFlood flood-opacity="0.4"/>
      <feComposite operator="in" in2="blur"/>
      <feComposite in="SourceGraphic"/>
    </filter>
  </defs>
  <g id="spot" transform="translate(0 22.11)">
    <path id="Trazado_14730" data-name="Trazado 14730" d="M16.294,43.8H58.066V60.531H20.274A83.946,83.946,0,0,0,47.693,98.863a69.877,69.877,0,0,0,17.9-17.987,60.056,60.056,0,0,1,5.495-55.768,58.807,58.807,0,0,1,6.966-8.588H16.435A102.058,102.058,0,0,0,16.294,43.8Z" transform="translate(1.261 1.354)" fill="none"/>
    <g transform="matrix(1, 0, 0, 1, 0, -22.11)" filter="url(#Trazado_14731)">
      <path id="Trazado_14731-2" data-name="Trazado 14731" d="M88.93,61.9a96.92,96.92,0,0,1-18.16,35.78c1.136,1.374,2.325,2.7,3.58,3.97a58.523,58.523,0,0,0,74.458,7.409,59.92,59.92,0,0,0,8.934-91.624A58.565,58.565,0,0,0,93.473,4.522c-.573.238-1.125.519-1.687.779l.476,2.791a135.431,135.431,0,0,1,.065,37.035l16.689.032c-.151,1.471-.324,2.953-.541,4.467q-.876,6.36-2.3,12.309L88.92,61.9" transform="translate(5.78 22.12)" fill="#f3fd00"/>
    </g>
    <path id="Trazado_14732" data-name="Trazado 14732" d="M48.954,100.125A83.946,83.946,0,0,1,21.535,61.793H59.316V45.06H17.555A102.06,102.06,0,0,1,17.7,17.782h61.62A58.924,58.924,0,0,1,97.129,5.224L96.415,1.06H3.656l-1.3,6.8C-5.116,47.126,6.587,74.74,17.717,91c12.136,17.717,26.208,26.078,26.792,26.424l4.251,2.488,4.24-2.52A87.18,87.18,0,0,0,76.092,97.594a59.586,59.586,0,0,1-9.248-15.456,69.877,69.877,0,0,1-17.9,17.987Z" transform="translate(0.001 0.092)" fill="#0055b2"/>
    <path id="Trazado_14733" data-name="Trazado 14733" d="M73.33,17.478h2.542a125.056,125.056,0,0,1-1.092,27.268H91.653v-.011h.032A135.46,135.46,0,0,0,91.62,7.7L91.144,4.91A59.057,59.057,0,0,0,73.33,17.468Z" transform="translate(5.986 0.406)" fill="#0055b2"/>
    <path id="Trazado_14734" data-name="Trazado 14734" d="M71.75,57.23a79.476,79.476,0,0,1-9.94,20.324A59.586,59.586,0,0,0,71.058,93.01a96.92,96.92,0,0,0,18.16-35.78H71.75Z" transform="translate(5.045 4.676)" fill="#0055b2"/>
    <path id="Trazado_14735" data-name="Trazado 14735" d="M90.525,41.742c-.065.552-.141,1.1-.216,1.666A107.727,107.727,0,0,1,87.15,58.5l17.252.032a123.972,123.972,0,0,0,2.3-12.309c.206-1.5.379-3,.541-4.467L90.557,41.72v.011h-.032Z" transform="translate(7.113 3.411)" fill="#84b1e3"/>
    <path id="Trazado_14736" data-name="Trazado 14736" d="M90.27,41.741H90.3V41.73H90.27Z" transform="translate(7.368 3.411)" fill="#84b1e3"/>
  </g>
</svg>
