<svg width="908" height="344" viewBox="0 0 908 344" fill="none" xmlns="http://www.w3.org/2000/svg">
<path d="M70 314C108.66 314 140 282.66 140 244C140 205.34 108.66 174 70 174C31.3401 174 0 205.34 0 244C0 282.66 31.3401 314 70 314Z" fill="#E3F2FF"/>
<path d="M63.124 219.514H76.8762V241.503H63.124V219.514Z" fill="#001854"/>
<path d="M81.2146 241.517H58.7854C57.653 241.517 56.739 242.452 56.739 243.61C56.739 244.768 57.653 245.703 58.7854 245.703H81.2283C82.3607 245.703 83.2748 244.768 83.2748 243.61C83.2611 242.452 82.347 241.517 81.2146 241.517Z" fill="#001854"/>
<path d="M93.0977 235.601H46.9022C44.3646 235.601 42.3181 233.508 42.3181 230.913V199.688C42.3181 197.093 44.3646 195 46.9022 195H93.0977C95.6353 195 97.6818 197.093 97.6818 199.688V230.913C97.6818 233.494 95.6353 235.601 93.0977 235.601Z" fill="white"/>
<path d="M97.6818 231.416H42.3181C42.3181 233.732 44.1463 235.601 46.411 235.601H93.6025C95.8536 235.601 97.6818 233.732 97.6818 231.416ZM93.5888 195H46.411C44.1463 195 42.3181 196.87 42.3181 199.186H97.6818C97.6818 196.87 95.8536 195 93.5888 195Z" fill="#4AABF4"/>
<path d="M87.6542 203.05L92.3201 207.822L93.9846 201.752L87.6542 203.05Z" fill="#001854"/>
<path d="M48.0892 229.183C47.83 229.183 47.5707 229.085 47.3797 228.876C46.9841 228.472 46.9841 227.816 47.3797 227.425L53.1508 221.523C53.5464 221.119 54.1876 221.119 54.5696 221.523L59.181 226.239L68.9631 216.235C69.1541 216.04 69.4133 215.928 69.6725 215.928C69.9454 215.928 70.191 216.04 70.382 216.235L74.2566 220.198L90.0826 204.013C90.4782 203.609 91.1195 203.609 91.5015 204.013C91.8971 204.418 91.8971 205.074 91.5015 205.464L74.9797 222.388C74.7887 222.584 74.5295 222.695 74.2703 222.695C73.9974 222.695 73.7518 222.584 73.5608 222.388L69.6862 218.426L59.9041 228.43C59.5084 228.834 58.8672 228.834 58.4852 228.43L53.8738 223.714L48.8123 228.89C48.6076 229.085 48.3484 229.183 48.0892 229.183Z" fill="#001854"/>
<path d="M49.7216 269.692C49.7216 267.221 45.4236 265.928 41.1769 265.928C36.9325 265.928 32.6356 267.221 32.6356 269.692C32.6356 269.899 32.6275 270.014 32.6473 270.24C32.6718 270.464 32.6787 270.582 32.7428 270.926C32.885 271.732 33.1995 273.233 33.8066 275.033C31.6861 274.3 30.535 273.574 30.4767 273.236C30.5548 273.087 30.9404 272.922 31.6255 272.804L31.2725 271.741C30.267 271.953 29.5307 272.345 29.4142 273.032C29.194 274.37 31.5766 275.527 34.2889 276.358C34.8283 277.75 35.5379 279.252 36.4595 280.716C33.9522 280.466 32.589 279.954 32.3525 279.637C32.4853 279.439 32.9898 279.187 33.8264 278.947L33.3289 277.947C32.0939 278.345 31.2422 278.898 31.2538 279.655C31.2783 281.215 34.8015 281.728 37.2599 281.896C38.0731 283.015 39.0215 284.084 40.1271 285.04C39.9314 285.07 39.7392 285.1 39.5504 285.124C37.543 285.382 36.6668 285.18 36.4233 285.048C36.5433 284.85 36.9395 284.544 37.5861 284.191L36.8043 283.408C35.8606 283.972 35.207 284.626 35.3759 285.319C35.5985 286.235 37.0478 286.527 39.6809 286.189C40.1784 286.125 40.7062 286.037 41.2468 285.929C42.1299 286.565 43.0981 287.128 44.1642 287.59C44.4321 287.704 45.4015 288.081 46.3848 288.081C46.9662 288.081 47.5522 287.95 48.0008 287.556C48.6521 286.987 48.8385 286.064 48.5589 284.811C48.4575 284.358 48.3713 283.84 48.2967 283.28C48.8874 282.82 49.237 282.315 49.1053 281.786C49.0086 281.385 48.6707 281.106 48.101 280.945C48.0963 280.843 48.0917 280.741 48.087 280.638C48.7092 280.298 49.0867 279.884 49.0808 279.377C49.075 278.867 48.6847 278.471 48.087 278.16C48.094 277.974 48.101 277.789 48.1103 277.601C48.7232 277.369 49.1391 277.023 49.223 276.52C49.3127 275.976 48.9678 275.462 48.3503 274.988C48.5705 273.372 48.934 271.862 49.4677 270.673C49.6296 270.371 49.7216 270.043 49.7216 269.692ZM41.1769 267.414C45.511 267.414 48.2758 268.763 48.2758 269.69C48.2758 269.752 48.2618 269.815 48.2373 269.88L48.235 269.877C48.2245 269.903 48.2105 269.929 48.1989 269.955C47.748 270.855 45.1126 271.967 41.1769 271.967C36.8451 271.967 34.078 270.618 34.078 269.69C34.078 268.763 36.8451 267.414 41.1769 267.414ZM34.4835 272.119C36.1321 273 38.6615 273.454 41.1769 273.454C43.4546 273.454 45.7452 273.083 47.381 272.356C47.0361 273.735 46.8229 275.259 46.7111 276.795C45.6007 276.945 43.8496 276.978 41.4169 276.697C40.6491 276.608 39.8534 276.492 39.0588 276.351C37.7527 276.121 36.5923 275.855 35.5693 275.575C35.0672 274.26 34.7177 273.058 34.4835 272.119ZM39.2009 281.976C39.2568 281.977 39.3116 281.977 39.3582 281.977C39.6355 281.978 39.9186 281.978 40.2029 281.973C42.1043 281.943 44.7584 281.731 46.6703 281.187C46.7017 281.808 46.7472 282.403 46.8101 282.962C45.8594 283.464 44.4019 284.054 42.483 284.547C42.3268 284.587 42.1742 284.623 42.0216 284.659C40.9474 283.87 40.0118 282.956 39.2009 281.976ZM47.1538 285.144C47.2959 285.785 47.2645 286.25 47.0676 286.423C46.6761 286.766 45.4458 286.523 44.7176 286.218C44.1945 285.992 43.7016 285.736 43.2286 285.457C44.0535 285.226 45.6368 284.737 46.9569 284.091C47.0163 284.466 47.0816 284.824 47.1538 285.144ZM46.6283 280.051C45.3234 280.445 43.1342 280.812 40.1877 280.859C39.9104 280.863 39.6355 280.865 39.3652 280.862C39.004 280.86 38.6615 280.85 38.3306 280.838C37.4113 279.538 36.6773 278.168 36.0983 276.861C37.0828 277.105 38.0405 277.304 38.8735 277.451C39.6914 277.594 40.5046 277.713 41.2957 277.804C42.589 277.954 44.8644 278.148 46.6505 277.929C46.6237 278.648 46.6155 279.359 46.6283 280.051Z" fill="#4AABF4"/>
<path d="M61.9224 273.853L53.2809 267.275C52.5166 266.694 51.2688 266.694 50.5033 267.275L49.8858 267.747C50.289 268.19 50.5231 268.633 50.5732 269.02C50.6455 269.558 50.5639 270.302 50.4649 270.583C49.8858 272.082 49.654 272.799 49.3953 274.67C49.866 275.15 50.2086 275.8 50.134 276.435C50.0326 277.31 49.5911 277.685 49.1041 277.948C49.3604 278.099 49.5317 278.285 49.6621 278.478C49.7006 278.473 49.739 278.465 49.7821 278.465H54.0044C54.1617 278.465 54.3132 278.499 54.4507 278.559C54.8631 278.74 55.1544 279.162 55.1544 279.65V288.081H55.1567H57.5964H60.4357C62.0237 288.081 63.3123 286.826 63.3123 285.278V277.208V276.578V276.515V275.745V275.744C63.3111 275.285 62.6843 274.434 61.9224 273.853Z" fill="#001854"/>
<path d="M65.6065 269.854L60.9834 266.35V262.171C60.9834 261.517 60.4673 260.986 59.8323 260.986H57.96C57.3251 260.986 56.8089 261.517 56.8089 262.171V263.186L53.2834 260.515C52.5191 259.936 51.2678 259.936 50.5011 260.515L44.1794 265.305C46.2474 265.568 47.8156 266.183 48.8793 266.897L50.5011 265.669C51.2678 265.089 52.5191 265.089 53.2834 265.669L63.2181 273.196C63.9847 273.775 65.0706 273.605 65.6333 272.818L65.9747 272.341C66.5386 271.552 66.372 270.433 65.6065 269.854Z" fill="#4AABF4"/>
<path d="M96.4076 293L95.9437 288.711C95.9194 288.47 95.728 288.139 95.5227 287.973L90.9309 284.32C90.7244 284.154 90.3243 284.022 90.0401 284.029C90.0401 284.029 87.8016 284.065 91.6465 287.911L88.2006 286.341C87.9512 286.227 87.7517 285.936 87.7587 285.693L87.8631 282.116C87.6995 280.323 86.2683 280.571 86.2683 280.571C85.9922 280.619 85.7452 280.854 85.7174 281.097L85.047 286.98C85.0203 287.22 85.1421 287.572 85.3207 287.758L90.3138 293H96.4076ZM105.327 293L110.32 287.758C110.499 287.572 110.624 287.22 110.596 286.98L109.928 281.097C109.901 280.854 109.652 280.619 109.375 280.571C109.375 280.571 107.943 280.323 107.778 282.116L107.884 285.693C107.894 285.936 107.692 286.227 107.442 286.341L103.994 287.911C107.84 284.065 105.603 284.029 105.603 284.029C105.318 284.022 104.916 284.154 104.71 284.32L100.118 287.973C99.9115 288.141 99.7213 288.47 99.6947 288.711L99.2354 293H105.327ZM89.379 282.476H106.263C106.263 280.094 104.387 278.161 102.077 278.161H99.4151C99.3223 277.799 99.2017 277.437 99.0509 277.083L98.9245 276.792C98.8793 276.695 98.8248 276.603 98.7772 276.509C98.6844 276.319 98.5684 276.138 98.4559 275.96C98.3423 275.783 98.2135 275.616 98.0894 275.45C97.9537 275.292 97.8285 275.133 97.6812 274.992C97.4051 274.7 97.0966 274.454 96.795 274.245C96.6002 274.114 96.4053 274.002 96.2128 273.906C96.4436 272.173 96.4691 268.168 92.2055 266.598C89.7258 265.682 88.3664 266.58 85.3508 265.616C83.7247 265.095 85.0423 277.297 94.8627 275.058C94.8697 275.07 94.8743 275.079 94.8813 275.09C95.0124 275.315 95.1504 275.55 95.2849 275.797C95.416 276.047 95.5563 276.299 95.6839 276.57C95.7547 276.699 95.8126 276.841 95.8811 276.975C95.9124 277.042 95.9449 277.112 95.9762 277.183C96.0098 277.252 96.0469 277.319 96.0736 277.391C96.1374 277.532 96.2024 277.673 96.2638 277.817C96.3137 277.931 96.3613 278.045 96.4111 278.161H93.5683C91.2545 278.161 89.379 280.094 89.379 282.476Z" fill="#001854"/>
<path d="M105.446 263.661C102.971 265.118 101.594 264.61 99.5821 265.913C95.1059 268.814 97.7501 273.816 97.7501 273.816C108.083 274.701 106.836 262.843 105.446 263.661ZM103.383 269.038C102.653 270.11 101.831 271.316 99.0138 272.147C99.0138 272.147 102.959 269.063 104.614 265.771C104.614 265.771 104.114 267.965 103.383 269.038ZM98.4969 260.243C97.5214 258.118 96.1421 257.805 94.8666 255.309C94.1513 253.907 87.1126 262.903 95.974 267.645C95.974 267.646 100.666 264.972 98.4969 260.243ZM93.8153 260.777C93.7628 259.517 94.4734 257.469 94.4734 257.469C94.1455 261.023 95.7932 265.623 95.7932 265.623C93.9203 263.456 93.8654 262.036 93.8153 260.777Z" fill="#4AABF4"/>
<path d="M454 344C509.228 344 554 299.228 554 244C554 188.772 509.228 144 454 144C398.772 144 354 188.772 354 244C354 299.228 398.772 344 454 344Z" fill="#4AABF4"/>
<path d="M454 309.001C489.899 309.001 519 279.9 519 244.001C519 208.103 489.899 179.001 454 179.001C418.101 179.001 389 208.103 389 244.001C389 279.9 418.101 309.001 454 309.001Z" fill="white"/>
<path d="M472.737 248.888C469.105 259.896 462.85 268.525 453.972 274.654C451.066 272.396 446.263 268.122 441.945 261.711C439.201 257.638 437.062 253.364 435.488 248.848H460.953V237.598H432.825C432.058 231.792 432.058 225.663 432.906 219.251H476.127C476.409 223.445 476.531 230.098 475.401 237.598H486.781C488.597 223.888 486.821 213.163 486.741 212.679L485.934 208.001H423.462L422.574 212.558C417.57 239.009 425.44 257.598 432.946 268.525C441.138 280.461 450.582 286.066 450.985 286.308L453.85 288.001L456.716 286.308C470.437 278.203 479.92 265.34 484.481 248.929H472.737V248.888Z" fill="#0055B8"/>
<path d="M486.741 237.598C486.7 237.961 486.66 238.364 486.579 238.727C486.095 242.316 485.369 245.703 484.44 248.888L496.063 248.929C496.709 246.267 497.233 243.485 497.637 240.663C497.758 239.655 497.879 238.647 498 237.679L486.741 237.598Z" fill="#8AB7E9"/>
<path d="M838 314C876.66 314 908 282.66 908 244C908 205.34 876.66 174 838 174C799.34 174 768 205.34 768 244C768 282.66 799.34 314 838 314Z" fill="#E3F2FF"/>
<path d="M831.481 242.239V273.66H844.519V242.239H831.481ZM806.529 242.239V273.66H819.566V242.239H806.529ZM856.722 242.239V273.66H869.76V242.239H856.722Z" fill="#B9DEFF"/>
<path d="M831.481 268.432V273.66H844.519V268.432H831.481ZM856.722 268.432V273.66H869.76V268.432H856.722ZM814.532 268.432C812.199 268.434 810.892 271.823 812.331 273.66H819.566V268.432H814.532Z" fill="#B9DEFF"/>
<path d="M802.823 234.908V241.2C802.823 242.751 804.071 244 805.623 244H820.235C821.786 244 823.035 242.751 823.035 241.2V234.908H802.823ZM853.135 234.908V241.2C853.135 242.751 854.384 244 855.935 244H870.547C872.099 244 873.347 242.751 873.347 241.2V234.908H853.135ZM827.894 234.908V241.2C827.894 242.751 829.143 244 830.694 244H845.306C846.857 244 848.106 242.751 848.106 241.2V234.908H827.894Z" fill="#001854"/>
<path d="M800.2 272.961H875.8C878.127 272.961 880 274.834 880 277.161V281.8C880 284.127 878.127 286 875.8 286H800.2C797.873 286 796 284.127 796 281.8V277.161C796 274.834 797.873 272.961 800.2 272.961Z" fill="#4AABF4"/>
<path d="M802.822 234.91V239.495H823.034V234.91H802.822ZM827.893 234.91V239.495H848.105V234.91H827.893ZM853.134 234.91V239.495H865.612C868.855 239.495 868.49 234.91 865.612 234.91H853.134Z" fill="#001854"/>
<path d="M875.287 230.007C874.634 231.213 873.661 231.289 872.517 231.309H808.92C806.723 231.311 805.384 233.726 806.546 235.591H872.999C876.553 235.591 879.464 232.965 879.928 229.542C878.144 227.92 876.082 228.164 875.287 230.007Z" fill="#4AABF4"/>
<path d="M832.923 204.172C818.733 212.156 805.259 219.674 796 225.02V228.591C796 232.469 799.122 235.59 803 235.59H872.999C876.877 235.59 879.999 232.469 879.999 228.591V225.02C868.279 218.434 857.496 212.473 843.393 204.265C838.222 201.28 837.999 201.241 832.923 204.172Z" fill="#4AABF4"/>
<path d="M837.25 228.288C841.009 228.288 844.055 225.242 844.055 221.484C844.055 217.726 841.009 214.679 837.25 214.679C833.492 214.679 830.446 217.726 830.446 221.484C830.446 225.242 833.492 228.288 837.25 228.288Z" fill="#E3F2FF"/>
<path d="M839.716 222.091C839.405 223.691 838.023 224.103 836.957 224.035C835.054 223.819 833.5 225.534 833.903 227.407C834.925 227.985 836.079 228.289 837.253 228.29C841.012 228.29 844.059 225.243 844.059 221.484C844.057 221.142 844.03 220.8 843.977 220.462C841.978 219.155 839.973 220.495 839.716 222.091Z" fill="white"/>
<path d="M807.441 281.732C806.943 281.733 806.454 281.866 806.025 282.118C805.595 282.371 805.241 282.733 804.999 283.168C804.756 283.603 804.634 284.095 804.644 284.592C804.655 285.09 804.798 285.576 805.059 286H875.8C878.127 286 880 284.127 880 281.8V281.732L807.441 281.732Z" fill="#4AABF4"/>
<path d="M306 266.999L319 252.999H170" stroke="#92CCFF" stroke-width="4" stroke-miterlimit="10" stroke-linecap="round" stroke-linejoin="round"/>
<path d="M168 218.999L155 232.999L304 232.999" stroke="#92CCFF" stroke-width="4" stroke-miterlimit="10" stroke-linecap="round" stroke-linejoin="round"/>
<path d="M197.264 206.999V198.503H195.2V206.999H197.264ZM204.817 206.999V203.303C204.817 202.103 204.241 200.855 202.633 200.855C201.805 200.855 201.121 201.323 200.845 201.851H200.821V201.023H198.913V206.999H200.893V203.759C200.893 203.075 201.253 202.475 201.949 202.475C202.657 202.475 202.837 203.075 202.837 203.735V206.999H204.817ZM210.903 201.671C210.315 201.119 209.391 200.831 208.503 200.831C207.363 200.831 206.019 201.407 206.019 202.835C206.019 203.963 206.931 204.383 207.759 204.575C208.575 204.767 208.947 204.887 208.947 205.259C208.947 205.643 208.563 205.775 208.239 205.775C207.663 205.775 207.123 205.487 206.775 205.103L205.671 206.267C206.295 206.867 207.303 207.191 208.275 207.191C209.499 207.191 210.831 206.663 210.831 205.151C210.831 203.987 209.835 203.531 208.923 203.327C208.155 203.159 207.831 203.063 207.831 202.727C207.831 202.379 208.203 202.247 208.575 202.247C209.055 202.247 209.511 202.487 209.823 202.787L210.903 201.671ZM217.799 206.999V201.023H215.831V204.251C215.831 204.935 215.459 205.535 214.775 205.535C214.055 205.535 213.887 204.935 213.887 204.263V201.023H211.907V204.719C211.907 205.919 212.471 207.167 214.079 207.167C214.919 207.167 215.603 206.699 215.879 206.171H215.903V206.999H217.799ZM223.298 200.903C223.202 200.867 223.034 200.855 222.878 200.855C222.146 200.855 221.558 201.287 221.258 201.887H221.234V201.023H219.338V206.999H221.306V203.927C221.306 203.435 221.654 202.571 222.71 202.571C222.866 202.571 223.034 202.583 223.214 202.631L223.298 200.903ZM227.437 204.599C227.437 205.343 226.993 205.823 226.201 205.823C225.805 205.823 225.349 205.667 225.349 205.211C225.349 204.503 226.321 204.395 227.185 204.395H227.437V204.599ZM224.821 202.907C225.181 202.571 225.733 202.295 226.297 202.295C226.909 202.295 227.377 202.571 227.377 203.159V203.255C225.637 203.255 223.537 203.543 223.537 205.271C223.537 206.675 224.761 207.143 225.709 207.143C226.417 207.143 227.101 206.855 227.401 206.363H227.437V206.999H229.237V203.987C229.237 201.815 228.493 200.831 226.489 200.831C225.517 200.831 224.521 201.179 223.825 201.839L224.821 202.907ZM236.61 206.999V203.303C236.61 202.103 236.034 200.855 234.426 200.855C233.598 200.855 232.914 201.323 232.638 201.851H232.614V201.023H230.706V206.999H232.686V203.759C232.686 203.075 233.046 202.475 233.742 202.475C234.45 202.475 234.63 203.075 234.63 203.735V206.999H236.61ZM243.356 201.635C242.888 201.155 241.988 200.831 241.136 200.831C239.276 200.831 237.8 202.067 237.8 204.011C237.8 205.991 239.264 207.191 241.148 207.191C242.024 207.191 242.864 206.903 243.356 206.423L242.264 205.091C242.024 205.379 241.592 205.535 241.196 205.535C240.332 205.535 239.792 204.839 239.792 204.011C239.792 203.183 240.344 202.475 241.172 202.475C241.568 202.475 242 202.667 242.216 202.955L243.356 201.635ZM245.719 203.327C245.767 202.715 246.319 202.187 247.075 202.187C247.855 202.187 248.251 202.703 248.251 203.327H245.719ZM250.063 204.083C250.063 202.043 248.827 200.831 247.063 200.831C245.251 200.831 243.835 202.079 243.835 204.035C243.835 206.051 245.323 207.191 247.123 207.191C248.335 207.191 249.271 206.735 249.835 205.919L248.467 205.055C248.203 205.415 247.771 205.679 247.147 205.679C246.439 205.679 245.779 205.211 245.719 204.551H250.051C250.063 204.407 250.063 204.239 250.063 204.083ZM261.868 205.823L260.44 204.479C260.08 204.983 259.444 205.343 258.64 205.343C257.224 205.343 256.228 204.287 256.228 202.739C256.228 201.239 257.248 200.135 258.676 200.135C259.324 200.135 260.008 200.387 260.392 200.915L261.784 199.523C261.076 198.707 259.792 198.275 258.604 198.275C256.012 198.275 253.996 200.015 253.996 202.739C253.996 205.403 255.952 207.227 258.568 207.227C259.996 207.227 261.124 206.687 261.868 205.823ZM265.956 204.599C265.956 205.343 265.512 205.823 264.72 205.823C264.324 205.823 263.868 205.667 263.868 205.211C263.868 204.503 264.84 204.395 265.704 204.395H265.956V204.599ZM263.34 202.907C263.7 202.571 264.252 202.295 264.816 202.295C265.428 202.295 265.896 202.571 265.896 203.159V203.255C264.156 203.255 262.056 203.543 262.056 205.271C262.056 206.675 263.28 207.143 264.228 207.143C264.936 207.143 265.62 206.855 265.92 206.363H265.956V206.999H267.756V203.987C267.756 201.815 267.012 200.831 265.008 200.831C264.036 200.831 263.04 201.179 262.344 201.839L263.34 202.907ZM275.873 203.987C275.873 202.319 274.781 200.855 273.041 200.855C272.165 200.855 271.493 201.275 271.133 201.755H271.097V201.023H269.225V209.879H271.193V206.339H271.217C271.589 206.855 272.297 207.167 273.029 207.167C274.829 207.167 275.873 205.655 275.873 203.987ZM273.965 203.987C273.965 204.767 273.497 205.535 272.561 205.535C271.673 205.535 271.121 204.779 271.121 203.999C271.121 203.243 271.673 202.463 272.561 202.463C273.497 202.463 273.965 203.219 273.965 203.987ZM280.64 204.599C280.64 205.343 280.196 205.823 279.404 205.823C279.008 205.823 278.552 205.667 278.552 205.211C278.552 204.503 279.524 204.395 280.388 204.395H280.64V204.599ZM278.024 202.907C278.384 202.571 278.936 202.295 279.5 202.295C280.112 202.295 280.58 202.571 280.58 203.159V203.255C278.84 203.255 276.74 203.543 276.74 205.271C276.74 206.675 277.964 207.143 278.912 207.143C279.62 207.143 280.304 206.855 280.604 206.363H280.64V206.999H282.44V203.987C282.44 201.815 281.696 200.831 279.692 200.831C278.72 200.831 277.724 201.179 277.028 201.839L278.024 202.907ZM289.165 201.635C288.697 201.155 287.797 200.831 286.945 200.831C285.085 200.831 283.609 202.067 283.609 204.011C283.609 205.991 285.073 207.191 286.957 207.191C287.833 207.191 288.673 206.903 289.165 206.423L288.073 205.091C287.833 205.379 287.401 205.535 287.005 205.535C286.141 205.535 285.601 204.839 285.601 204.011C285.601 203.183 286.153 202.475 286.981 202.475C287.377 202.475 287.809 202.667 288.025 202.955L289.165 201.635ZM292.08 199.115C292.08 198.515 291.576 198.035 290.952 198.035C290.316 198.035 289.824 198.539 289.824 199.115C289.824 199.703 290.316 200.195 290.952 200.195C291.576 200.195 292.08 199.727 292.08 199.115ZM291.936 206.999V201.023H289.968V206.999H291.936ZM297.035 202.499V201.023H295.631V199.451H293.699V201.023H292.751V202.499H293.711V205.019C293.711 206.291 294.239 207.143 295.835 207.143C296.255 207.143 296.711 207.059 296.975 206.963L296.951 205.523C296.807 205.583 296.567 205.619 296.375 205.619C295.811 205.619 295.631 205.331 295.631 204.779V202.499H297.035ZM304.007 201.023H301.919L300.731 204.863H300.695L299.363 201.023H297.179L299.675 206.903L299.483 207.395C299.291 207.911 299.087 208.199 298.475 208.199C298.283 208.199 298.031 208.151 297.839 208.091L297.623 209.747C297.911 209.819 298.331 209.879 298.703 209.879C300.203 209.879 300.851 209.147 301.331 207.899L304.007 201.023Z" fill="#92CCFF"/>
<path d="M177.824 286.999L175.604 283.363C176.696 283.027 177.368 282.211 177.368 281.071C177.368 279.127 175.748 278.503 174.116 278.503H170.876V286.999H172.892V283.627H173.588L175.424 286.999H177.824ZM175.34 281.107C175.34 281.971 174.512 282.139 173.852 282.139H172.88V280.159H173.972C174.584 280.159 175.34 280.315 175.34 281.107ZM180.168 283.327C180.216 282.715 180.768 282.187 181.524 282.187C182.304 282.187 182.7 282.703 182.7 283.327H180.168ZM184.512 284.083C184.512 282.043 183.276 280.831 181.512 280.831C179.7 280.831 178.284 282.079 178.284 284.035C178.284 286.051 179.772 287.191 181.572 287.191C182.784 287.191 183.72 286.735 184.284 285.919L182.916 285.055C182.652 285.415 182.22 285.679 181.596 285.679C180.888 285.679 180.228 285.211 180.168 284.551H184.5C184.512 284.407 184.512 284.239 184.512 284.083ZM190.989 281.635C190.521 281.155 189.621 280.831 188.769 280.831C186.909 280.831 185.433 282.067 185.433 284.011C185.433 285.991 186.897 287.191 188.781 287.191C189.657 287.191 190.497 286.903 190.989 286.423L189.897 285.091C189.657 285.379 189.225 285.535 188.829 285.535C187.965 285.535 187.425 284.839 187.425 284.011C187.425 283.183 187.977 282.475 188.805 282.475C189.201 282.475 189.633 282.667 189.849 282.955L190.989 281.635ZM193.352 283.327C193.4 282.715 193.952 282.187 194.708 282.187C195.488 282.187 195.884 282.703 195.884 283.327H193.352ZM197.696 284.083C197.696 282.043 196.46 280.831 194.696 280.831C192.884 280.831 191.468 282.079 191.468 284.035C191.468 286.051 192.956 287.191 194.756 287.191C195.968 287.191 196.904 286.735 197.468 285.919L196.1 285.055C195.836 285.415 195.404 285.679 194.78 285.679C194.072 285.679 193.412 285.211 193.352 284.551H197.684C197.696 284.407 197.696 284.239 197.696 284.083ZM201.052 279.115C201.052 278.515 200.548 278.035 199.924 278.035C199.288 278.035 198.796 278.539 198.796 279.115C198.796 279.703 199.288 280.195 199.924 280.195C200.548 280.195 201.052 279.727 201.052 279.115ZM200.908 286.999V281.023H198.94V286.999H200.908ZM208.515 281.023H206.415L205.155 284.899H205.119L203.859 281.023H201.687L204.039 286.999H206.163L208.515 281.023ZM210.86 283.327C210.908 282.715 211.46 282.187 212.216 282.187C212.996 282.187 213.392 282.703 213.392 283.327H210.86ZM215.204 284.083C215.204 282.043 213.968 280.831 212.204 280.831C210.392 280.831 208.976 282.079 208.976 284.035C208.976 286.051 210.464 287.191 212.264 287.191C213.476 287.191 214.412 286.735 214.976 285.919L213.608 285.055C213.344 285.415 212.912 285.679 212.288 285.679C211.58 285.679 210.92 285.211 210.86 284.551H215.192C215.204 284.407 215.204 284.239 215.204 284.083ZM225.976 281.119C225.976 279.175 224.512 278.503 222.652 278.503H219.532V286.999H221.584V283.795H222.604C224.38 283.795 225.976 283.087 225.976 281.119ZM223.924 281.131C223.924 281.935 223.216 282.163 222.448 282.163H221.584V280.159H222.484C223.216 280.159 223.924 280.315 223.924 281.131ZM230.544 280.903C230.448 280.867 230.28 280.855 230.124 280.855C229.392 280.855 228.804 281.287 228.504 281.887H228.48V281.023H226.584V286.999H228.552V283.927C228.552 283.435 228.9 282.571 229.956 282.571C230.112 282.571 230.28 282.583 230.46 282.631L230.544 280.903ZM232.715 283.327C232.763 282.715 233.315 282.187 234.071 282.187C234.851 282.187 235.247 282.703 235.247 283.327H232.715ZM237.059 284.083C237.059 282.043 235.823 280.831 234.059 280.831C232.247 280.831 230.831 282.079 230.831 284.035C230.831 286.051 232.319 287.191 234.119 287.191C235.331 287.191 236.267 286.735 236.831 285.919L235.463 285.055C235.199 285.415 234.767 285.679 234.143 285.679C233.435 285.679 232.775 285.211 232.715 284.551H237.047C237.059 284.407 237.059 284.239 237.059 284.083ZM247.88 286.999V283.303C247.88 282.175 247.328 280.855 245.708 280.855C244.82 280.855 244.196 281.251 243.8 281.875C243.464 281.227 242.864 280.855 242 280.855C241.1 280.855 240.488 281.347 240.212 281.851H240.188V281.023H238.28V286.999H240.26V283.759C240.26 283.039 240.62 282.475 241.244 282.475C241.832 282.475 242.096 282.907 242.096 283.591V286.999H244.064V283.771C244.064 283.099 244.388 282.475 245.06 282.475C245.756 282.475 245.912 283.051 245.912 283.735V286.999H247.88ZM251.502 279.115C251.502 278.515 250.998 278.035 250.374 278.035C249.738 278.035 249.246 278.539 249.246 279.115C249.246 279.703 249.738 280.195 250.374 280.195C250.998 280.195 251.502 279.727 251.502 279.115ZM251.358 286.999V281.023H249.39V286.999H251.358ZM258.748 286.999V281.023H256.78V284.251C256.78 284.935 256.408 285.535 255.724 285.535C255.004 285.535 254.836 284.935 254.836 284.263V281.023H252.856V284.719C252.856 285.919 253.42 287.167 255.028 287.167C255.868 287.167 256.552 286.699 256.828 286.171H256.852V286.999H258.748ZM269.888 286.999V283.303C269.888 282.175 269.336 280.855 267.716 280.855C266.828 280.855 266.204 281.251 265.808 281.875C265.472 281.227 264.872 280.855 264.008 280.855C263.108 280.855 262.496 281.347 262.22 281.851H262.196V281.023H260.288V286.999H262.268V283.759C262.268 283.039 262.628 282.475 263.252 282.475C263.84 282.475 264.104 282.907 264.104 283.591V286.999H266.072V283.771C266.072 283.099 266.396 282.475 267.068 282.475C267.764 282.475 267.92 283.051 267.92 283.735V286.999H269.888ZM275.969 281.671C275.381 281.119 274.457 280.831 273.569 280.831C272.429 280.831 271.085 281.407 271.085 282.835C271.085 283.963 271.997 284.383 272.825 284.575C273.641 284.767 274.013 284.887 274.013 285.259C274.013 285.643 273.629 285.775 273.305 285.775C272.729 285.775 272.189 285.487 271.841 285.103L270.737 286.267C271.361 286.867 272.369 287.191 273.341 287.191C274.565 287.191 275.897 286.663 275.897 285.151C275.897 283.987 274.901 283.531 273.989 283.327C273.221 283.159 272.897 283.063 272.897 282.727C272.897 282.379 273.269 282.247 273.641 282.247C274.121 282.247 274.577 282.487 274.889 282.787L275.969 281.671Z" fill="#92CCFF"/>
<path d="M433 116L447 129L447 80" stroke="#92CCFF" stroke-width="4" stroke-miterlimit="10" stroke-linecap="round" stroke-linejoin="round"/>
<path d="M481 78L467 65L467 114" stroke="#92CCFF" stroke-width="4" stroke-miterlimit="10" stroke-linecap="round" stroke-linejoin="round"/>
<path d="M390.643 100V91.504H388.579V100H390.643ZM398.195 100V96.304C398.195 95.104 397.619 93.856 396.011 93.856C395.183 93.856 394.499 94.324 394.223 94.852H394.199V94.024H392.291V100H394.271V96.76C394.271 96.076 394.631 95.476 395.327 95.476C396.035 95.476 396.215 96.076 396.215 96.736V100H398.195ZM405.734 94.024H403.634L402.374 97.9H402.338L401.078 94.024H398.906L401.258 100H403.382L405.734 94.024ZM408.079 96.328C408.127 95.716 408.679 95.188 409.435 95.188C410.215 95.188 410.611 95.704 410.611 96.328H408.079ZM412.423 97.084C412.423 95.044 411.187 93.832 409.423 93.832C407.611 93.832 406.195 95.08 406.195 97.036C406.195 99.052 407.683 100.192 409.483 100.192C410.695 100.192 411.631 99.736 412.195 98.92L410.827 98.056C410.563 98.416 410.131 98.68 409.507 98.68C408.799 98.68 408.139 98.212 408.079 97.552H412.411C412.423 97.408 412.423 97.24 412.423 97.084ZM418.239 94.672C417.651 94.12 416.727 93.832 415.839 93.832C414.699 93.832 413.355 94.408 413.355 95.836C413.355 96.964 414.267 97.384 415.095 97.576C415.911 97.768 416.283 97.888 416.283 98.26C416.283 98.644 415.899 98.776 415.575 98.776C414.999 98.776 414.459 98.488 414.111 98.104L413.007 99.268C413.631 99.868 414.639 100.192 415.611 100.192C416.835 100.192 418.167 99.664 418.167 98.152C418.167 96.988 417.171 96.532 416.259 96.328C415.491 96.16 415.167 96.064 415.167 95.728C415.167 95.38 415.539 95.248 415.911 95.248C416.391 95.248 416.847 95.488 417.159 95.788L418.239 94.672ZM422.843 95.5V94.024H421.439V92.452H419.507V94.024H418.559V95.5H419.519V98.02C419.519 99.292 420.047 100.144 421.643 100.144C422.063 100.144 422.519 100.06 422.783 99.964L422.759 98.524C422.615 98.584 422.375 98.62 422.183 98.62C421.619 98.62 421.439 98.332 421.439 97.78V95.5H422.843Z" fill="#92CCFF"/>
<path d="M493.94 100V91.504H491.876V100H493.94ZM501.492 100V96.304C501.492 95.104 500.916 93.856 499.308 93.856C498.48 93.856 497.796 94.324 497.52 94.852H497.496V94.024H495.588V100H497.568V96.76C497.568 96.076 497.928 95.476 498.624 95.476C499.332 95.476 499.512 96.076 499.512 96.736V100H501.492ZM506.523 95.5V94.024H505.119V92.452H503.187V94.024H502.239V95.5H503.199V98.02C503.199 99.292 503.727 100.144 505.323 100.144C505.743 100.144 506.199 100.06 506.463 99.964L506.439 98.524C506.295 98.584 506.055 98.62 505.863 98.62C505.299 98.62 505.119 98.332 505.119 97.78V95.5H506.523ZM509.032 96.328C509.08 95.716 509.632 95.188 510.388 95.188C511.168 95.188 511.564 95.704 511.564 96.328H509.032ZM513.376 97.084C513.376 95.044 512.14 93.832 510.376 93.832C508.564 93.832 507.148 95.08 507.148 97.036C507.148 99.052 508.636 100.192 510.436 100.192C511.648 100.192 512.584 99.736 513.148 98.92L511.78 98.056C511.516 98.416 511.084 98.68 510.46 98.68C509.752 98.68 509.092 98.212 509.032 97.552H513.364C513.376 97.408 513.376 97.24 513.376 97.084ZM518.556 93.904C518.46 93.868 518.292 93.856 518.136 93.856C517.404 93.856 516.816 94.288 516.516 94.888H516.492V94.024H514.596V100H516.564V96.928C516.564 96.436 516.912 95.572 517.968 95.572C518.124 95.572 518.292 95.584 518.472 95.632L518.556 93.904ZM520.727 96.328C520.775 95.716 521.327 95.188 522.083 95.188C522.863 95.188 523.259 95.704 523.259 96.328H520.727ZM525.071 97.084C525.071 95.044 523.835 93.832 522.071 93.832C520.259 93.832 518.843 95.08 518.843 97.036C518.843 99.052 520.331 100.192 522.131 100.192C523.343 100.192 524.279 99.736 524.843 98.92L523.475 98.056C523.211 98.416 522.779 98.68 522.155 98.68C521.447 98.68 520.787 98.212 520.727 97.552H525.059C525.071 97.408 525.071 97.24 525.071 97.084ZM530.887 94.672C530.299 94.12 529.375 93.832 528.487 93.832C527.347 93.832 526.003 94.408 526.003 95.836C526.003 96.964 526.915 97.384 527.743 97.576C528.559 97.768 528.931 97.888 528.931 98.26C528.931 98.644 528.547 98.776 528.223 98.776C527.647 98.776 527.107 98.488 526.759 98.104L525.655 99.268C526.279 99.868 527.287 100.192 528.259 100.192C529.483 100.192 530.815 99.664 530.815 98.152C530.815 96.988 529.819 96.532 528.907 96.328C528.139 96.16 527.815 96.064 527.815 95.728C527.815 95.38 528.187 95.248 528.559 95.248C529.039 95.248 529.495 95.488 529.807 95.788L530.887 94.672ZM535.492 95.5V94.024H534.088V92.452H532.156V94.024H531.208V95.5H532.168V98.02C532.168 99.292 532.696 100.144 534.292 100.144C534.712 100.144 535.168 100.06 535.432 99.964L535.408 98.524C535.264 98.584 535.024 98.62 534.832 98.62C534.268 98.62 534.088 98.332 534.088 97.78V95.5H535.492Z" fill="#92CCFF"/>
<path d="M740 267.999L753 253.999H604" stroke="#92CCFF" stroke-width="4" stroke-miterlimit="10" stroke-linecap="round" stroke-linejoin="round"/>
<path d="M602 219.999L589 233.999L738 233.999" stroke="#92CCFF" stroke-width="4" stroke-miterlimit="10" stroke-linecap="round" stroke-linejoin="round"/>
<path d="M611.167 205.999V197.503H609.103V205.999H611.167ZM618.719 205.999V202.303C618.719 201.103 618.143 199.855 616.535 199.855C615.707 199.855 615.023 200.323 614.747 200.851H614.723V200.023H612.815V205.999H614.795V202.759C614.795 202.075 615.155 201.475 615.851 201.475C616.559 201.475 616.739 202.075 616.739 202.735V205.999H618.719ZM626.257 200.023H624.157L622.897 203.899H622.861L621.601 200.023H619.429L621.781 205.999H623.905L626.257 200.023ZM628.602 202.327C628.65 201.715 629.202 201.187 629.958 201.187C630.738 201.187 631.134 201.703 631.134 202.327H628.602ZM632.946 203.083C632.946 201.043 631.71 199.831 629.946 199.831C628.134 199.831 626.718 201.079 626.718 203.035C626.718 205.051 628.206 206.191 630.006 206.191C631.218 206.191 632.154 205.735 632.718 204.919L631.35 204.055C631.086 204.415 630.654 204.679 630.03 204.679C629.322 204.679 628.662 204.211 628.602 203.551H632.934C632.946 203.407 632.946 203.239 632.946 203.083ZM638.762 200.671C638.174 200.119 637.25 199.831 636.362 199.831C635.222 199.831 633.878 200.407 633.878 201.835C633.878 202.963 634.79 203.383 635.618 203.575C636.434 203.767 636.806 203.887 636.806 204.259C636.806 204.643 636.422 204.775 636.098 204.775C635.522 204.775 634.982 204.487 634.634 204.103L633.53 205.267C634.154 205.867 635.162 206.191 636.134 206.191C637.358 206.191 638.69 205.663 638.69 204.151C638.69 202.987 637.694 202.531 636.782 202.327C636.014 202.159 635.69 202.063 635.69 201.727C635.69 201.379 636.062 201.247 636.434 201.247C636.914 201.247 637.37 201.487 637.682 201.787L638.762 200.671ZM643.367 201.499V200.023H641.963V198.451H640.031V200.023H639.083V201.499H640.043V204.019C640.043 205.291 640.571 206.143 642.167 206.143C642.587 206.143 643.043 206.059 643.307 205.963L643.283 204.523C643.139 204.583 642.899 204.619 642.707 204.619C642.143 204.619 641.963 204.331 641.963 203.779V201.499H643.367ZM649.979 207.331C648.971 205.951 648.419 204.283 648.419 202.543C648.419 200.803 648.971 199.135 649.979 197.755L648.635 197.095C647.507 198.655 646.871 200.587 646.871 202.543C646.871 204.499 647.507 206.431 648.635 207.991L649.979 207.331ZM658.701 202.795V197.503H656.649V202.627C656.649 203.539 656.217 204.379 655.053 204.379C653.901 204.379 653.457 203.539 653.457 202.627V197.503H651.417V202.795C651.417 204.835 652.809 206.227 655.041 206.227C657.261 206.227 658.701 204.835 658.701 202.795ZM666.156 198.331C665.412 197.647 664.332 197.287 663.372 197.287C661.788 197.287 660.084 198.067 660.084 199.951C660.084 201.487 661.176 202.039 662.256 202.387C663.372 202.747 664.02 202.951 664.02 203.599C664.02 204.283 663.468 204.523 662.844 204.523C662.172 204.523 661.416 204.139 661.008 203.623L659.664 204.991C660.408 205.771 661.632 206.215 662.844 206.215C664.524 206.215 666.096 205.339 666.096 203.383C666.096 201.691 664.608 201.199 663.456 200.827C662.652 200.575 662.148 200.395 662.148 199.831C662.148 199.159 662.808 198.979 663.336 198.979C663.864 198.979 664.5 199.267 664.848 199.711L666.156 198.331ZM675.382 201.727C675.382 198.511 672.934 197.503 670.522 197.503H667.45V205.999H670.618C672.958 205.999 675.382 204.715 675.382 201.727ZM673.246 201.727C673.246 203.623 671.89 204.223 670.426 204.223H669.454V199.255H670.474C671.89 199.255 673.246 199.819 673.246 201.727ZM684.219 204.823L682.791 203.479C682.431 203.983 681.795 204.343 680.991 204.343C679.575 204.343 678.579 203.287 678.579 201.739C678.579 200.239 679.599 199.135 681.027 199.135C681.675 199.135 682.359 199.387 682.743 199.915L684.135 198.523C683.427 197.707 682.143 197.275 680.955 197.275C678.363 197.275 676.347 199.015 676.347 201.739C676.347 204.403 678.303 206.227 680.919 206.227C682.347 206.227 683.475 205.687 684.219 204.823ZM687.247 204.079H685.363L684.463 207.487H686.083L687.247 204.079ZM697.957 203.527C697.957 202.411 697.189 201.715 696.217 201.547V201.523C697.045 201.247 697.609 200.623 697.609 199.687C697.609 197.971 696.037 197.503 694.717 197.503H691.333V205.999H694.717C696.337 205.999 697.957 205.375 697.957 203.527ZM695.629 199.963C695.629 200.563 695.185 200.887 694.417 200.887H693.313V199.135H694.321C695.185 199.135 695.629 199.387 695.629 199.963ZM695.905 203.335C695.905 204.163 695.113 204.343 694.465 204.343H693.313V202.399H694.453C695.329 202.399 695.905 202.627 695.905 203.335ZM706.514 202.795V197.503H704.462V202.627C704.462 203.539 704.03 204.379 702.866 204.379C701.714 204.379 701.27 203.539 701.27 202.627V197.503H699.229V202.795C699.229 204.835 700.622 206.227 702.854 206.227C705.074 206.227 706.514 204.835 706.514 202.795ZM713.969 198.331C713.225 197.647 712.145 197.287 711.185 197.287C709.601 197.287 707.897 198.067 707.897 199.951C707.897 201.487 708.989 202.039 710.069 202.387C711.185 202.747 711.833 202.951 711.833 203.599C711.833 204.283 711.281 204.523 710.657 204.523C709.985 204.523 709.229 204.139 708.821 203.623L707.477 204.991C708.221 205.771 709.445 206.215 710.657 206.215C712.337 206.215 713.909 205.339 713.909 203.383C713.909 201.691 712.421 201.199 711.269 200.827C710.465 200.575 709.961 200.395 709.961 199.831C709.961 199.159 710.621 198.979 711.149 198.979C711.677 198.979 712.313 199.267 712.661 199.711L713.969 198.331ZM723.195 201.727C723.195 198.511 720.747 197.503 718.335 197.503H715.263V205.999H718.431C720.771 205.999 723.195 204.715 723.195 201.727ZM721.059 201.727C721.059 203.623 719.703 204.223 718.239 204.223H717.267V199.255H718.287C719.703 199.255 721.059 199.819 721.059 201.727ZM726.117 204.943C726.117 204.283 725.565 203.767 724.917 203.767C724.245 203.767 723.693 204.307 723.693 204.955C723.693 205.615 724.257 206.119 724.917 206.119C725.565 206.119 726.117 205.603 726.117 204.943ZM729.715 204.943C729.715 204.283 729.163 203.767 728.515 203.767C727.843 203.767 727.291 204.307 727.291 204.955C727.291 205.615 727.855 206.119 728.515 206.119C729.163 206.119 729.715 205.603 729.715 204.943ZM733.313 204.943C733.313 204.283 732.761 203.767 732.113 203.767C731.441 203.767 730.889 204.307 730.889 204.955C730.889 205.615 731.453 206.119 732.113 206.119C732.761 206.119 733.313 205.603 733.313 204.943ZM737.654 202.543C737.654 200.587 737.018 198.655 735.89 197.095L734.546 197.755C735.554 199.135 736.106 200.803 736.106 202.543C736.106 204.283 735.554 205.951 734.546 207.331L735.89 207.991C737.018 206.431 737.654 204.499 737.654 202.543Z" fill="#92CCFF"/>
<path d="M612.352 286.823L610.924 285.479C610.564 285.983 609.928 286.343 609.124 286.343C607.708 286.343 606.712 285.287 606.712 283.739C606.712 282.239 607.732 281.135 609.16 281.135C609.808 281.135 610.492 281.387 610.876 281.915L612.268 280.523C611.56 279.707 610.276 279.275 609.088 279.275C606.496 279.275 604.48 281.015 604.48 283.739C604.48 286.403 606.436 288.227 609.052 288.227C610.48 288.227 611.608 287.687 612.352 286.823ZM619.319 284.987C619.319 283.031 617.807 281.831 615.995 281.831C614.195 281.831 612.683 283.031 612.683 284.987C612.683 286.943 614.195 288.191 615.995 288.191C617.807 288.191 619.319 286.943 619.319 284.987ZM617.423 284.987C617.423 285.755 616.931 286.535 616.007 286.535C615.083 286.535 614.591 285.755 614.591 284.987C614.591 284.219 615.071 283.463 615.995 283.463C616.919 283.463 617.423 284.219 617.423 284.987ZM622.581 287.999V278.927H620.589V287.999H622.581ZM626.155 287.999V278.927H624.163V287.999H626.155ZM629.297 284.327C629.345 283.715 629.897 283.187 630.653 283.187C631.433 283.187 631.829 283.703 631.829 284.327H629.297ZM633.641 285.083C633.641 283.043 632.405 281.831 630.641 281.831C628.829 281.831 627.413 283.079 627.413 285.035C627.413 287.051 628.901 288.191 630.701 288.191C631.913 288.191 632.849 287.735 633.413 286.919L632.045 286.055C631.781 286.415 631.349 286.679 630.725 286.679C630.017 286.679 629.357 286.211 629.297 285.551H633.629C633.641 285.407 633.641 285.239 633.641 285.083ZM640.118 282.635C639.65 282.155 638.75 281.831 637.898 281.831C636.038 281.831 634.562 283.067 634.562 285.011C634.562 286.991 636.026 288.191 637.91 288.191C638.786 288.191 639.626 287.903 640.118 287.423L639.026 286.091C638.786 286.379 638.354 286.535 637.958 286.535C637.094 286.535 636.554 285.839 636.554 285.011C636.554 284.183 637.106 283.475 637.934 283.475C638.33 283.475 638.762 283.667 638.978 283.955L640.118 282.635ZM644.437 283.499V282.023H643.033V280.451H641.101V282.023H640.153V283.499H641.113V286.019C641.113 287.291 641.641 288.143 643.237 288.143C643.657 288.143 644.113 288.059 644.377 287.963L644.353 286.523C644.209 286.583 643.969 286.619 643.777 286.619C643.213 286.619 643.033 286.331 643.033 285.779V283.499H644.437ZM654.914 282.119C654.914 280.175 653.45 279.503 651.59 279.503H648.47V287.999H650.522V284.795H651.542C653.318 284.795 654.914 284.087 654.914 282.119ZM652.862 282.131C652.862 282.935 652.154 283.163 651.386 283.163H650.522V281.159H651.422C652.154 281.159 652.862 281.315 652.862 282.131ZM659.482 281.903C659.386 281.867 659.218 281.855 659.062 281.855C658.33 281.855 657.742 282.287 657.442 282.887H657.418V282.023H655.522V287.999H657.49V284.927C657.49 284.435 657.838 283.571 658.894 283.571C659.05 283.571 659.218 283.583 659.398 283.631L659.482 281.903ZM661.653 284.327C661.701 283.715 662.253 283.187 663.009 283.187C663.789 283.187 664.185 283.703 664.185 284.327H661.653ZM665.997 285.083C665.997 283.043 664.761 281.831 662.997 281.831C661.185 281.831 659.769 283.079 659.769 285.035C659.769 287.051 661.257 288.191 663.057 288.191C664.269 288.191 665.205 287.735 665.769 286.919L664.401 286.055C664.137 286.415 663.705 286.679 663.081 286.679C662.373 286.679 661.713 286.211 661.653 285.551H665.985C665.997 285.407 665.997 285.239 665.997 285.083ZM676.817 287.999V284.303C676.817 283.175 676.265 281.855 674.645 281.855C673.757 281.855 673.133 282.251 672.737 282.875C672.401 282.227 671.801 281.855 670.937 281.855C670.037 281.855 669.425 282.347 669.149 282.851H669.125V282.023H667.217V287.999H669.197V284.759C669.197 284.039 669.557 283.475 670.181 283.475C670.769 283.475 671.033 283.907 671.033 284.591V287.999H673.001V284.771C673.001 284.099 673.325 283.475 673.997 283.475C674.693 283.475 674.849 284.051 674.849 284.735V287.999H676.817ZM680.439 280.115C680.439 279.515 679.935 279.035 679.311 279.035C678.675 279.035 678.183 279.539 678.183 280.115C678.183 280.703 678.675 281.195 679.311 281.195C679.935 281.195 680.439 280.727 680.439 280.115ZM680.295 287.999V282.023H678.327V287.999H680.295ZM687.686 287.999V282.023H685.718V285.251C685.718 285.935 685.346 286.535 684.662 286.535C683.942 286.535 683.774 285.935 683.774 285.263V282.023H681.794V285.719C681.794 286.919 682.358 288.167 683.966 288.167C684.806 288.167 685.49 287.699 685.766 287.171H685.79V287.999H687.686ZM698.825 287.999V284.303C698.825 283.175 698.273 281.855 696.653 281.855C695.765 281.855 695.141 282.251 694.745 282.875C694.409 282.227 693.809 281.855 692.945 281.855C692.045 281.855 691.433 282.347 691.157 282.851H691.133V282.023H689.225V287.999H691.205V284.759C691.205 284.039 691.565 283.475 692.189 283.475C692.777 283.475 693.041 283.907 693.041 284.591V287.999H695.009V284.771C695.009 284.099 695.333 283.475 696.005 283.475C696.701 283.475 696.857 284.051 696.857 284.735V287.999H698.825ZM704.907 282.671C704.319 282.119 703.395 281.831 702.507 281.831C701.367 281.831 700.023 282.407 700.023 283.835C700.023 284.963 700.935 285.383 701.763 285.575C702.579 285.767 702.951 285.887 702.951 286.259C702.951 286.643 702.567 286.775 702.243 286.775C701.667 286.775 701.127 286.487 700.779 286.103L699.675 287.267C700.299 287.867 701.307 288.191 702.279 288.191C703.503 288.191 704.835 287.663 704.835 286.151C704.835 284.987 703.839 284.531 702.927 284.327C702.159 284.159 701.835 284.063 701.835 283.727C701.835 283.379 702.207 283.247 702.579 283.247C703.059 283.247 703.515 283.487 703.827 283.787L704.907 282.671Z" fill="#92CCFF"/>
<rect x="467" width="160" height="50" rx="10" fill="#E3F2FF"/>
<rect x="287" width="160" height="50" rx="10" fill="#E3F2FF"/>
<path fill-rule="evenodd" clip-rule="evenodd" d="M603.502 26.7875C603.502 25.2671 602.598 24.1224 601.17 24.1224C599.743 24.1224 598.837 25.2671 598.837 26.7875C598.837 28.3078 599.743 29.4525 601.17 29.4525C602.601 29.4554 603.502 28.3107 603.502 26.7875ZM603.432 23.1021V19.1191C603.432 18.856 603.61 18.6277 603.867 18.5612L606 17.9976V31.4758H603.633V30.3312C603.038 31.1896 601.969 31.6925 600.632 31.6925C597.886 31.6925 596.278 29.5103 596.278 26.7904C596.278 24.0704 597.886 21.8881 600.632 21.8881C601.967 21.8852 602.945 22.4575 603.432 23.1021ZM588.87 22.0991V23.2438C589.305 22.4373 590.28 21.8824 591.689 21.8824C593.967 21.8824 595.177 23.3853 595.177 25.6226V31.4758H592.612V25.9117C592.612 24.819 592.142 24.0675 591.004 24.0675C589.757 24.0675 589.072 24.8538 589.072 26.1082V31.4758H586.506V22.0991H588.87ZM580.508 31.6925C577.744 31.6925 576.206 30.5104 576.206 27.4696V22.0991H578.771V27.5043C578.771 28.8108 579.367 29.4177 580.505 29.4177C581.643 29.4177 582.239 28.8079 582.239 27.5043V22.0991H584.804V27.4667C584.81 30.5104 583.272 31.6925 580.508 31.6925ZM567.735 26.7875C567.735 28.4697 568.783 29.4525 570.138 29.4525C571.492 29.4525 572.54 28.4668 572.54 26.7875C572.54 25.1081 571.492 24.1224 570.138 24.1224C568.786 24.1224 567.735 25.1052 567.735 26.7875ZM570.14 31.6925C567.105 31.6925 565.17 29.4554 565.17 26.7904C565.17 24.1254 567.102 21.8881 570.14 21.8881C573.176 21.8881 575.111 24.1254 575.111 26.7904C575.108 29.4554 573.176 31.6925 570.14 31.6925ZM557.35 26.7875C557.35 28.3078 558.255 29.4525 559.683 29.4525C561.11 29.4525 562.015 28.3078 562.015 26.7875C562.015 25.2671 561.11 24.1224 559.683 24.1224C558.255 24.1224 557.35 25.2671 557.35 26.7875ZM557.423 30.4756V34.3749C557.423 34.638 557.245 34.8663 556.989 34.9327L554.858 35.4878V22.0991H557.225V23.2438C557.82 22.3853 558.889 21.8824 560.225 21.8824C562.972 21.8824 564.58 24.0646 564.58 26.7846C564.58 29.5045 562.972 31.6868 560.225 31.6868C558.886 31.6925 557.911 31.1203 557.423 30.4756ZM547.237 26.1429V31.4758H544.671V25.9117C544.671 24.874 544.292 24.0675 543.154 24.0675C541.96 24.0675 541.309 24.8364 541.309 26.0909V31.4787H538.743V22.0991H541.11V23.2438C541.545 22.4373 542.485 21.8824 543.839 21.8824C545.124 21.8824 546.043 22.3824 546.586 23.2061C547.418 22.2928 548.375 21.8824 549.73 21.8824C552.006 21.8824 553.162 23.4403 553.162 25.6226V31.4758H550.596V25.9117C550.596 24.874 550.217 24.0675 549.079 24.0675C547.867 24.0675 547.237 24.8364 547.237 26.1429ZM530.183 26.7875C530.183 28.4697 531.23 29.4525 532.585 29.4525C533.939 29.4525 534.987 28.4668 534.987 26.7875C534.987 25.1081 533.939 24.1224 532.585 24.1224C531.23 24.1224 530.183 25.1052 530.183 26.7875ZM532.585 31.6925C529.549 31.6925 527.614 29.4554 527.614 26.7904C527.614 24.1254 529.546 21.8881 532.585 21.8881C535.623 21.8881 537.555 24.1254 537.555 26.7904C537.555 29.4554 535.62 31.6925 532.585 31.6925ZM514.302 25.1052C514.302 21.1337 517.066 18.5005 520.752 18.5005C523.951 18.5005 526.482 20.3793 526.969 23.475H524.149C523.77 21.8824 522.468 20.9863 520.752 20.9863C518.402 20.9863 517.083 22.5963 517.083 25.1023C517.083 27.6083 518.402 29.2183 520.752 29.2183C522.468 29.2183 523.77 28.3223 524.149 26.7296H526.969C526.482 29.8254 523.951 31.7041 520.752 31.7041C517.066 31.7099 514.302 29.0795 514.302 25.1052Z" fill="#070A0E"/>
<path fill-rule="evenodd" clip-rule="evenodd" d="M489.054 32.2634C488.4 31.8674 488 31.1622 488 30.4048V26.1761C488 26.0142 488.044 25.8582 488.126 25.7194C488.379 25.2858 488.943 25.1385 489.381 25.3928L499.018 30.9569C499.582 31.2835 499.929 31.879 499.929 32.5264V36.9084C499.929 37.1078 499.874 37.3073 499.768 37.4778C499.45 37.9923 498.773 38.1542 498.254 37.8391L489.054 32.2634ZM503.42 24.2337C503.983 24.5603 504.33 25.1558 504.33 25.8032V34.6943C504.33 34.9573 504.187 35.2001 503.957 35.3273L501.847 36.5038C501.82 36.5182 501.791 36.5298 501.762 36.5384V31.6015C501.762 30.9627 501.423 30.3702 500.869 30.0406L492.404 25.0257V19.4529C492.404 19.291 492.448 19.1349 492.53 18.9962C492.784 18.5626 493.347 18.4152 493.785 18.6696L503.42 24.2337ZM507.637 17.6666C508.204 17.9903 508.551 18.5915 508.551 19.239V32.2259C508.551 32.4918 508.402 32.7374 508.166 32.8646L506.166 33.9341V24.8927C506.166 24.254 505.828 23.6643 505.276 23.3348L496.625 18.1956V12.9089C496.625 12.747 496.669 12.5909 496.748 12.4522C497.001 12.0186 497.565 11.8712 498.003 12.1227L507.637 17.6666Z" fill="#00D395"/>
<path d="M377.973 36.3011L368.867 14.3156C368.795 14.1152 368.757 13.9045 368.755 13.6919C368.738 13.2422 368.898 12.8037 369.202 12.4702C369.358 12.3109 369.547 12.1867 369.755 12.106C369.964 12.0253 370.187 11.99 370.41 12.0024C370.749 12.0069 371.077 12.1159 371.35 12.3143C371.637 12.5262 371.861 12.8108 371.999 13.1384L380.657 34.6561L389.317 13.1384C389.455 12.8108 389.679 12.5262 389.965 12.3143C390.238 12.1159 390.567 12.0069 390.905 12.0024C391.128 11.99 391.352 12.0253 391.56 12.106C391.769 12.1867 391.957 12.3109 392.114 12.4702C392.418 12.8044 392.579 13.2442 392.561 13.695C392.558 13.9076 392.52 14.1184 392.449 14.3187L383.342 36.3043C383.187 36.7879 382.883 37.211 382.474 37.5144C382.064 37.8179 381.57 37.9865 381.06 37.9968H380.255C379.744 37.9861 379.25 37.817 378.841 37.5129C378.432 37.2089 378.128 36.7852 377.973 36.3011Z" fill="url(#paint0_linear)"/>
<path d="M396.432 37.3264C396.277 37.1716 396.156 36.9871 396.075 36.7842C395.994 36.5813 395.956 36.3642 395.962 36.146V13.8736C395.954 13.4267 396.122 12.9945 396.432 12.6706C396.583 12.5096 396.767 12.3827 396.972 12.2982C397.176 12.2138 397.396 12.1738 397.618 12.181H412.411C412.62 12.1752 412.828 12.214 413.021 12.2946C413.214 12.3753 413.387 12.496 413.529 12.6488C413.681 12.7917 413.801 12.9645 413.882 13.1562C413.963 13.3478 414.003 13.5542 413.999 13.7621C414.005 13.967 413.966 14.1708 413.885 14.3593C413.804 14.5477 413.683 14.7164 413.529 14.8536C413.382 14.9975 413.207 15.1109 413.015 15.1874C412.823 15.264 412.618 15.302 412.411 15.2995H399.322V23.4077H411.087C411.296 23.4019 411.504 23.4406 411.697 23.5213C411.89 23.602 412.063 23.7227 412.206 23.8754C412.356 24.0197 412.475 24.1927 412.555 24.3841C412.636 24.5755 412.677 24.7812 412.676 24.9887C412.681 25.1937 412.642 25.3974 412.561 25.5859C412.48 25.7744 412.359 25.943 412.206 26.0802C412.058 26.224 411.883 26.3373 411.691 26.4137C411.499 26.4901 411.294 26.528 411.087 26.5254H399.318V34.6756H412.411C412.62 34.6699 412.828 34.7086 413.021 34.7893C413.214 34.8699 413.387 34.9907 413.529 35.1434C413.681 35.2863 413.801 35.4591 413.882 35.6508C413.963 35.8425 414.003 36.0488 413.999 36.2567C414.005 36.4617 413.966 36.6655 413.885 36.8539C413.804 37.0424 413.683 37.211 413.529 37.3482C413.382 37.492 413.207 37.6053 413.015 37.6817C412.823 37.7581 412.618 37.796 412.411 37.7934H397.618C397.397 37.8098 397.176 37.7763 396.971 37.6954C396.766 37.6145 396.581 37.4884 396.432 37.3264Z" fill="url(#paint1_linear)"/>
<path d="M370.925 35.6774L361.819 13.6919C361.662 13.209 361.358 12.7867 360.949 12.4838C360.54 12.181 360.047 12.0127 359.537 12.0024H358.732C358.222 12.0132 357.728 12.1821 357.319 12.4855C356.911 12.7889 356.607 13.2118 356.452 13.695L352.491 23.272H349.493C349.061 23.275 348.647 23.4473 348.341 23.7515C348.036 24.0557 347.863 24.4673 347.86 24.8975V24.9201C347.863 25.3503 348.036 25.762 348.341 26.0662C348.647 26.3703 349.061 26.5426 349.493 26.5456H351.104L347.323 35.6774C347.252 35.8778 347.214 36.0885 347.211 36.3011C347.193 36.752 347.354 37.1917 347.658 37.5259C347.815 37.6852 348.003 37.8093 348.211 37.89C348.42 37.9707 348.643 38.006 348.866 37.9937C349.204 37.9893 349.533 37.8803 349.806 37.6819C350.093 37.47 350.317 37.1854 350.455 36.8578L354.616 26.5456H357.48C357.912 26.543 358.326 26.3709 358.632 26.0667C358.938 25.7625 359.112 25.3506 359.115 24.9201V24.8757C359.112 24.4455 358.939 24.0338 358.633 23.7296C358.327 23.4255 357.914 23.2532 357.482 23.2502H355.935L359.134 15.3439L367.793 36.8617C367.931 37.1893 368.155 37.4739 368.441 37.6858C368.715 37.8842 369.043 37.9932 369.381 37.9976C369.604 38.0099 369.828 37.9746 370.036 37.8939C370.244 37.8132 370.433 37.6891 370.589 37.5298C370.894 37.1956 371.054 36.7559 371.036 36.305C371.046 36.0903 371.008 35.8761 370.925 35.6774Z" fill="url(#paint2_linear)"/>
<path d="M343.718 35.6782L334.612 13.6957C334.456 13.2121 334.152 12.789 333.743 12.4856C333.334 12.1821 332.84 12.0135 332.329 12.0032H331.524C331.014 12.014 330.521 12.1828 330.112 12.4863C329.703 12.7897 329.4 13.2125 329.244 13.6957L325.281 23.2727H322.284C321.852 23.2758 321.438 23.448 321.132 23.7522C320.827 24.0564 320.654 24.4681 320.651 24.8982V24.9209C320.654 25.351 320.827 25.7627 321.132 26.0669C321.438 26.3711 321.852 26.5433 322.284 26.5464H323.894L320.113 35.6782C320.042 35.8785 320.004 36.0893 320.001 36.3019C319.983 36.7527 320.144 37.1925 320.449 37.5267C320.605 37.6859 320.793 37.81 321.002 37.8907C321.21 37.9714 321.433 38.0068 321.656 37.9945C321.995 37.99 322.323 37.881 322.596 37.6826C322.883 37.4707 323.107 37.1861 323.245 36.8585L327.407 26.5464H330.294C330.726 26.5433 331.14 26.3711 331.445 26.0669C331.751 25.7627 331.924 25.351 331.927 24.9209V24.8764C331.924 24.4462 331.751 24.0346 331.445 23.7304C331.14 23.4262 330.726 23.2539 330.294 23.2509H328.75L331.927 15.3439L340.585 36.8617C340.723 37.1892 340.947 37.4738 341.234 37.6857C341.507 37.8841 341.836 37.9931 342.174 37.9976C342.397 38.0099 342.62 37.9745 342.829 37.8938C343.037 37.8132 343.225 37.689 343.382 37.5298C343.686 37.1956 343.847 36.7558 343.829 36.305C343.838 36.0905 343.8 35.8766 343.718 35.6782Z" fill="url(#paint3_linear)"/>
<rect x="155" y="162" width="112" height="20" rx="5" fill="#001854"/>
<path d="M168.82 176V168.92H166.35L164.81 173.46H164.77L163.16 168.92H160.73V176H162.34L162.3 170.99H162.33L164.12 176H165.32L167.16 170.99H167.19L167.15 176H168.82ZM177.661 172.43C177.661 170.16 176.021 168.73 173.801 168.73C171.591 168.73 169.951 170.16 169.951 172.43C169.951 174.67 171.591 176.19 173.801 176.19C176.021 176.19 177.661 174.67 177.661 172.43ZM175.831 172.43C175.831 173.71 174.991 174.63 173.801 174.63C172.611 174.63 171.781 173.71 171.781 172.43C171.781 171.19 172.601 170.27 173.801 170.27C175.001 170.27 175.831 171.19 175.831 172.43ZM184.577 176L182.727 172.97C183.637 172.69 184.197 172.01 184.197 171.06C184.197 169.44 182.847 168.92 181.487 168.92H178.787V176H180.467V173.19H181.047L182.577 176H184.577ZM182.507 171.09C182.507 171.81 181.817 171.95 181.267 171.95H180.457V170.3H181.367C181.877 170.3 182.507 170.43 182.507 171.09ZM190.358 176V174.54H187.068V173.07H190.008V171.7H187.068V170.37H190.178V168.92H185.418V176H190.358ZM200.222 175.02L199.032 173.9C198.732 174.32 198.202 174.62 197.532 174.62C196.352 174.62 195.522 173.74 195.522 172.45C195.522 171.2 196.372 170.28 197.562 170.28C198.102 170.28 198.672 170.49 198.992 170.93L200.152 169.77C199.562 169.09 198.492 168.73 197.502 168.73C195.342 168.73 193.662 170.18 193.662 172.45C193.662 174.67 195.292 176.19 197.472 176.19C198.662 176.19 199.602 175.74 200.222 175.02ZM208.217 172.43C208.217 170.16 206.577 168.73 204.357 168.73C202.147 168.73 200.507 170.16 200.507 172.43C200.507 174.67 202.147 176.19 204.357 176.19C206.577 176.19 208.217 174.67 208.217 172.43ZM206.387 172.43C206.387 173.71 205.547 174.63 204.357 174.63C203.167 174.63 202.337 173.71 202.337 172.43C202.337 171.19 203.157 170.27 204.357 170.27C205.557 170.27 206.387 171.19 206.387 172.43ZM217.433 176V168.92H214.963L213.423 173.46H213.383L211.773 168.92H209.343V176H210.953L210.913 170.99H210.943L212.733 176H213.933L215.773 170.99H215.803L215.763 176H217.433ZM224.264 171.1C224.264 169.48 223.044 168.92 221.494 168.92H218.894V176H220.604V173.33H221.454C222.934 173.33 224.264 172.74 224.264 171.1ZM222.554 171.11C222.554 171.78 221.964 171.97 221.324 171.97H220.604V170.3H221.354C221.964 170.3 222.554 170.43 222.554 171.11ZM230.231 176V174.54H226.941V173.07H229.881V171.7H226.941V170.37H230.051V168.92H225.291V176H230.231ZM236.395 170.38V168.92H230.685V170.38H232.685V176H234.395V170.38H236.395ZM238.895 176V168.92H237.175V176H238.895ZM245.389 170.38V168.92H239.679V170.38H241.679V176H243.389V170.38H245.389ZM247.889 176V168.92H246.169V176H247.889ZM255.593 168.92H253.703L252.073 173.94H252.033L250.393 168.92H248.473L251.153 176H252.863L255.593 168.92ZM261.109 176V174.54H257.819V173.07H260.759V171.7H257.819V170.37H260.929V168.92H256.169V176H261.109Z" fill="white"/>
<rect x="647" y="307" width="105" height="20" rx="5" fill="#001854"/>
<path d="M659.771 320.02L658.581 318.9C658.281 319.32 657.751 319.62 657.081 319.62C655.901 319.62 655.071 318.74 655.071 317.45C655.071 316.2 655.921 315.28 657.111 315.28C657.651 315.28 658.221 315.49 658.541 315.93L659.701 314.77C659.111 314.09 658.041 313.73 657.051 313.73C654.891 313.73 653.211 315.18 653.211 317.45C653.211 319.67 654.841 321.19 657.021 321.19C658.211 321.19 659.151 320.74 659.771 320.02ZM667.766 317.43C667.766 315.16 666.126 313.73 663.906 313.73C661.696 313.73 660.056 315.16 660.056 317.43C660.056 319.67 661.696 321.19 663.906 321.19C666.126 321.19 667.766 319.67 667.766 317.43ZM665.936 317.43C665.936 318.71 665.096 319.63 663.906 319.63C662.716 319.63 661.886 318.71 661.886 317.43C661.886 316.19 662.706 315.27 663.906 315.27C665.106 315.27 665.936 316.19 665.936 317.43ZM673.352 321V319.51H670.612V313.92H668.892V321H673.352ZM678.616 321V319.51H675.876V313.92H674.156V321H678.616ZM684.359 321V319.54H681.069V318.07H684.009V316.7H681.069V315.37H684.179V313.92H679.419V321H684.359ZM691.724 320.02L690.534 318.9C690.234 319.32 689.704 319.62 689.034 319.62C687.854 319.62 687.024 318.74 687.024 317.45C687.024 316.2 687.874 315.28 689.064 315.28C689.604 315.28 690.174 315.49 690.494 315.93L691.654 314.77C691.064 314.09 689.994 313.73 689.004 313.73C686.844 313.73 685.164 315.18 685.164 317.45C685.164 319.67 686.794 321.19 688.974 321.19C690.164 321.19 691.104 320.74 691.724 320.02ZM697.428 315.38V313.92H691.718V315.38H693.718V321H695.428V315.38H697.428ZM702.184 321V313.92H700.464V321H702.184ZM710.088 321V313.92H708.428L708.468 318.54H708.438L705.598 313.92H703.648V321H705.308L705.268 316.37H705.298L708.148 321H710.088ZM716.578 315.38V313.92H710.868V315.38H712.868V321H714.578V315.38H716.578ZM722.299 321V319.54H719.009V318.07H721.949V316.7H719.009V315.37H722.119V313.92H717.359V321H722.299ZM729.223 321L727.373 317.97C728.283 317.69 728.843 317.01 728.843 316.06C728.843 314.44 727.493 313.92 726.133 313.92H723.433V321H725.113V318.19H725.693L727.223 321H729.223ZM727.153 316.09C727.153 316.81 726.463 316.95 725.913 316.95H725.103V315.3H726.013C726.523 315.3 727.153 315.43 727.153 316.09ZM735.004 321V319.54H731.714V318.07H734.654V316.7H731.714V315.37H734.824V313.92H730.064V321H735.004ZM740.968 314.61C740.348 314.04 739.448 313.74 738.648 313.74C737.328 313.74 735.908 314.39 735.908 315.96C735.908 317.24 736.818 317.7 737.718 317.99C738.648 318.29 739.188 318.46 739.188 319C739.188 319.57 738.728 319.77 738.208 319.77C737.648 319.77 737.018 319.45 736.678 319.02L735.558 320.16C736.178 320.81 737.198 321.18 738.208 321.18C739.608 321.18 740.918 320.45 740.918 318.82C740.918 317.41 739.678 317 738.718 316.69C738.048 316.48 737.628 316.33 737.628 315.86C737.628 315.3 738.178 315.15 738.618 315.15C739.058 315.15 739.588 315.39 739.878 315.76L740.968 314.61ZM746.949 315.38V313.92H741.239V315.38H743.239V321H744.949V315.38H746.949Z" fill="white"/>
<defs>
<linearGradient id="paint0_linear" x1="321.159" y1="38.8807" x2="416.255" y2="18.6084" gradientUnits="userSpaceOnUse">
<stop stop-color="#30BAC6"/>
<stop offset="1" stop-color="#B6509E"/>
</linearGradient>
<linearGradient id="paint1_linear" x1="322.941" y1="45.8669" x2="418.765" y2="33.7887" gradientUnits="userSpaceOnUse">
<stop stop-color="#30BAC6"/>
<stop offset="1" stop-color="#B6509E"/>
</linearGradient>
<linearGradient id="paint2_linear" x1="320.451" y1="36.0762" x2="415.521" y2="15.7731" gradientUnits="userSpaceOnUse">
<stop stop-color="#30BAC6"/>
<stop offset="1" stop-color="#B6509E"/>
</linearGradient>
<linearGradient id="paint3_linear" x1="318.785" y1="29.603" x2="413.865" y2="9.27323" gradientUnits="userSpaceOnUse">
<stop stop-color="#30BAC6"/>
<stop offset="1" stop-color="#B6509E"/>
</linearGradient>
</defs>
</svg>
