<svg xmlns="http://www.w3.org/2000/svg" width="30.8" height="44" viewBox="0 0 30.8 44"><path d="M13,41.5V43H35V41.5Zm0-35H35V5H13Zm-3,6.2V5a2.869,2.869,0,0,1,.925-2.075A2.869,2.869,0,0,1,13,2H35a2.869,2.869,0,0,1,2.075.925A2.869,2.869,0,0,1,38,5v7.7H35V9.5H13v3.2ZM13,46a2.906,2.906,0,0,1-2.075-.9A2.841,2.841,0,0,1,10,43V34.7h3v3.8H35V34.7h3V43a2.841,2.841,0,0,1-.925,2.1A2.906,2.906,0,0,1,35,46ZM29.75,32.05A1.639,1.639,0,0,1,29.325,31a1.354,1.354,0,0,1,.425-1.05L35.7,24l-5.95-5.95A1.354,1.354,0,0,1,29.325,17a1.639,1.639,0,0,1,.425-1.05,1.56,1.56,0,0,1,1.075-.475A1.383,1.383,0,0,1,31.9,15.9l7.05,7.05a1.524,1.524,0,0,1,.35.5,1.563,1.563,0,0,1,0,1.1,1.524,1.524,0,0,1-.35.5L31.9,32.1a1.383,1.383,0,0,1-1.075.425,1.56,1.56,0,0,1-1.075-.475ZM16.1,32.1,9.05,25.05a1.524,1.524,0,0,1-.35-.5,1.562,1.562,0,0,1,0-1.1,1.524,1.524,0,0,1,.35-.5L16.1,15.9a1.383,1.383,0,0,1,1.075-.425,1.56,1.56,0,0,1,1.075.475A1.639,1.639,0,0,1,18.675,17a1.354,1.354,0,0,1-.425,1.05L12.3,24l5.95,5.95A1.354,1.354,0,0,1,18.675,31a1.639,1.639,0,0,1-.425,1.05,1.56,1.56,0,0,1-1.075.475A1.383,1.383,0,0,1,16.1,32.1ZM13,43v0ZM13,5V5Z" transform="translate(-8.6 -2)" fill="#06f"/></svg>