<svg id="arrow_right" xmlns="http://www.w3.org/2000/svg" width="31.4" height="30.676" viewBox="0 0 31.4 30.676">
  <path id="arrow_forward_FILL0_wght400_GRAD0_opsz48" d="M22.95,38.9a1.578,1.578,0,0,1,0-2.1l11.3-11.3H9.5a1.5,1.5,0,1,1,0-3H34.25L22.95,11.2a1.453,1.453,0,0,1-.4-1.075,1.453,1.453,0,0,1,.4-1.075,1.578,1.578,0,0,1,2.1,0l13.9,13.9a1.524,1.524,0,0,1,.35.5,1.468,1.468,0,0,1,.1.55,1.536,1.536,0,0,1-.1.525,1.449,1.449,0,0,1-.35.525l-13.9,13.9a1.342,1.342,0,0,1-1.05.375,1.506,1.506,0,0,1-1.05-.425Z" transform="translate(-8 -8.65)" fill="#a5ff76"/>
</svg>
