<svg xmlns="http://www.w3.org/2000/svg" width="234.146" height="72.557" viewBox="0 0 234.146 72.557"><g transform="translate(79.331 20.291)"><path d="M2399.17,2115.333h-18.064a6.482,6.482,0,0,0,2.358,3.607,6.907,6.907,0,0,0,4.212,1.34,7.563,7.563,0,0,0,6.159-2.912l4.484,4.175a12.473,12.473,0,0,1-4.587,3.543,15.276,15.276,0,0,1-6.545,1.328,13.976,13.976,0,0,1-6.777-1.637,11.927,11.927,0,0,1-4.754-4.7,13.961,13.961,0,0,1-1.739-7.009,14.535,14.535,0,0,1,.978-5.373,12.652,12.652,0,0,1,2.667-4.227,11.919,11.919,0,0,1,4.059-2.718,13.157,13.157,0,0,1,5.077-.98,12.874,12.874,0,0,1,6.622,1.688,11.537,11.537,0,0,1,4.458,4.665,14.2,14.2,0,0,1,1.573,6.738A10.981,10.981,0,0,1,2399.17,2115.333Zm-15.912-8.324a6,6,0,0,0-2.126,3.35H2392.5a6.21,6.21,0,0,0-1.958-3.311,5.4,5.4,0,0,0-3.608-1.2A5.911,5.911,0,0,0,2383.258,2107.01Z" transform="translate(-2373.917 -2099.769)" fill="#fff"/><path d="M2433.56,2100.374a7.711,7.711,0,0,1,4.883,5.271,16.976,16.976,0,0,1,.67,5.051V2126h-6.906v-13.581q0-3.555-1.211-5a4.605,4.605,0,0,0-3.737-1.443,5.354,5.354,0,0,0-4.264,1.83,7.71,7.71,0,0,0-1.585,5.206v12.961H2414.5v-25.768h6.906v3.324h.077a10.578,10.578,0,0,1,3.725-2.8,10.975,10.975,0,0,1,4.548-.966A11.086,11.086,0,0,1,2433.56,2100.374Z" transform="translate(-2384.877 -2099.769)" fill="#fff"/><path d="M2452.586,2122.625l3.35-4.767a10.22,10.22,0,0,0,7.138,3.015,4,4,0,0,0,2.319-.593,1.809,1.809,0,0,0,.85-1.546,1.354,1.354,0,0,0-.515-1.044,5.343,5.343,0,0,0-1.43-.837q-.914-.386-2.745-.979-1.159-.388-2.074-.774a19.579,19.579,0,0,1-1.869-.915,8.06,8.06,0,0,1-1.636-1.172,9.131,9.131,0,0,1-1.237-1.443,5.952,5.952,0,0,1-.838-1.83,8.462,8.462,0,0,1-.283-2.242,6.946,6.946,0,0,1,1.224-4.058,7.939,7.939,0,0,1,3.324-2.719,11.315,11.315,0,0,1,4.729-.953,14.447,14.447,0,0,1,9.431,3.247l-3.35,5.051a10.329,10.329,0,0,0-3.053-2.049,7.938,7.938,0,0,0-3.105-.682,3.142,3.142,0,0,0-1.752.5,1.608,1.608,0,0,0-.774,1.43,1.721,1.721,0,0,0,.916,1.391,15.3,15.3,0,0,0,2.95,1.392,33.912,33.912,0,0,1,5.72,2.5,6.08,6.08,0,0,1,2.989,4.123,8.832,8.832,0,0,1,.155,1.726,7.3,7.3,0,0,1-2.564,5.8q-2.564,2.216-7.434,2.216A15.245,15.245,0,0,1,2452.586,2122.625Z" transform="translate(-2395.16 -2099.769)" fill="#fff"/><path d="M2509.553,2100.369v25.768h-6.906v-3.143h-.1a10.149,10.149,0,0,1-3.466,2.667,9.829,9.829,0,0,1-4.187.915,11.711,11.711,0,0,1-3.84-.58,8.13,8.13,0,0,1-2.976-1.817,7.853,7.853,0,0,1-1.985-3.323,16.084,16.084,0,0,1-.683-4.973v-15.513h6.906v13.709q0,3.479,1.07,4.883a4.173,4.173,0,0,0,3.542,1.4,5.122,5.122,0,0,0,4.072-1.958,8.362,8.362,0,0,0,1.649-5.54v-12.5Z" transform="translate(-2404.023 -2099.931)" fill="#fff"/><path d="M2541.267,2099.795v7.575q-1.031-.077-1.829-.077a6.257,6.257,0,0,0-4.832,1.881,6.855,6.855,0,0,0-1.74,4.845v11.956h-6.906v-25.768h6.906V2104h.078a10.43,10.43,0,0,1,3.478-3.132,8.857,8.857,0,0,1,4.3-1.095A3.87,3.87,0,0,1,2541.267,2099.795Z" transform="translate(-2414.973 -2099.769)" fill="#fff"/><path d="M2557.588,2125.769a12.626,12.626,0,0,1-6.674-4.651,12.174,12.174,0,0,1-1.842-3.672,14.519,14.519,0,0,1-.631-4.329,14.185,14.185,0,0,1,.992-5.334,12.375,12.375,0,0,1,2.77-4.238,12.553,12.553,0,0,1,4.355-2.77,16.031,16.031,0,0,1,11.105-.025,12.781,12.781,0,0,1,4.355,2.718,12.212,12.212,0,0,1,2.821,4.227,14.176,14.176,0,0,1,1.018,5.424,13.63,13.63,0,0,1-1.752,6.931,12.048,12.048,0,0,1-4.871,4.7,14.826,14.826,0,0,1-7.086,1.663A15.734,15.734,0,0,1,2557.588,2125.769Zm9.327-7.55a7.061,7.061,0,0,0,1.933-5.1,7.14,7.14,0,0,0-1.907-5.141,6.8,6.8,0,0,0-9.649.026,7.826,7.826,0,0,0,.025,10.179,6.689,6.689,0,0,0,9.6.039Z" transform="translate(-2421.043 -2099.769)" fill="#fff"/></g><path d="M2312.124,2109.068c-3.289,9.984-8.972,17.826-17,23.388a51.267,51.267,0,0,1-16.74-23.4h23.069v-10.215h-25.5a62.244,62.244,0,0,1,.085-16.651h39.176a76.475,76.475,0,0,1-.667,16.649h10.319a82.4,82.4,0,0,0-.039-22.617l-.727-4.246h-56.632l-.791,4.151c-4.566,23.972,2.58,40.832,9.38,50.753a57.131,57.131,0,0,0,16.359,16.132l2.6,1.521,2.589-1.535c12.428-7.37,21.033-19.009,25.183-33.926Z" transform="translate(-2265.24 -2071.972)" fill="#fff"/><path d="M2346.14,2108.759c-.042.341-.084.682-.131,1.027a65.575,65.575,0,0,1-1.929,9.214l10.532.019q.87-3.632,1.409-7.517.189-1.382.328-2.725Z" transform="translate(-2286.529 -2081.906)" fill="#fff"/></svg>
