<svg xmlns="http://www.w3.org/2000/svg" width="51.12" height="35.856" viewBox="0 0 51.12 35.856"><path d="M160.224,524.6a32.834,32.834,0,0,1,8.238-9.084,17.844,17.844,0,0,1,11.024-3.756c.969,0,1.453.163,1.453.485q0,.97-2.544,3.028a36.364,36.364,0,0,0-4.723,4.6,7.97,7.97,0,0,0-2.181,5.208v.242h1.939q3.633,0,4.845,2.423a8.528,8.528,0,0,1,1.212,4.6,15.139,15.139,0,0,1-.484,3.634,15.866,15.866,0,0,1-5.088,8.238,13.842,13.842,0,0,1-9.449,3.392q-8.722,0-8.964-8.964a28.589,28.589,0,0,1,.727-5.208A29.664,29.664,0,0,1,160.224,524.6Zm38.884.727q6.055,0,6.058,7.026a15.145,15.145,0,0,1-5.572,11.871,13.516,13.516,0,0,1-9.206,3.392q-8.965,0-8.964-9.206a26.789,26.789,0,0,1,.727-5.088,30.1,30.1,0,0,1,4-8.722,32.834,32.834,0,0,1,8.238-9.084,17.508,17.508,0,0,1,10.781-3.756c.969,0,1.454.163,1.454.485q0,.97-2.544,3.028a36.431,36.431,0,0,0-4.725,4.6,7.978,7.978,0,0,0-2.18,5.208v.242Z" transform="translate(-155.5 -511.765)" fill="#017eff"/></svg>
