<svg xmlns="http://www.w3.org/2000/svg" width="59.537" height="41.76" viewBox="0 0 59.537 41.76"><path d="M161,526.719a38.24,38.24,0,0,1,9.594-10.58,20.782,20.782,0,0,1,12.839-4.374c1.128,0,1.692.19,1.692.565q0,1.129-2.963,3.526a42.351,42.351,0,0,0-5.5,5.362,9.283,9.283,0,0,0-2.54,6.066v.282h2.258q4.231,0,5.643,2.822a9.932,9.932,0,0,1,1.411,5.361,17.632,17.632,0,0,1-.564,4.232,18.479,18.479,0,0,1-5.926,9.594,16.122,16.122,0,0,1-11.005,3.95q-10.158,0-10.44-10.44a33.3,33.3,0,0,1,.847-6.066Q157.193,532.932,161,526.719Zm45.287.847q7.052,0,7.055,8.183a17.638,17.638,0,0,1-6.49,13.826,15.742,15.742,0,0,1-10.722,3.95q-10.441,0-10.44-10.722a31.2,31.2,0,0,1,.847-5.926q.845-3.948,4.655-10.158a38.24,38.24,0,0,1,9.594-10.58,20.39,20.39,0,0,1,12.556-4.374c1.129,0,1.693.19,1.693.565q0,1.129-2.963,3.526a42.428,42.428,0,0,0-5.5,5.362,9.291,9.291,0,0,0-2.539,6.066v.282Z" transform="translate(-155.5 -511.765)" fill="#eaa7fd"/></svg>
