<svg width="365" height="863" viewBox="0 0 365 863" fill="none" xmlns="http://www.w3.org/2000/svg">
<path d="M182 353.999C237.228 353.999 282 309.227 282 253.999C282 198.77 237.228 153.999 182 153.999C126.772 153.999 82 198.77 82 253.999C82 309.227 126.772 353.999 182 353.999Z" fill="#4AABF4"/>
<path d="M182 319C217.899 319 247 289.899 247 254C247 218.101 217.899 189 182 189C146.101 189 117 218.101 117 254C117 289.899 146.101 319 182 319Z" fill="white"/>
<path d="M200.737 258.887C197.105 269.895 190.85 278.524 181.972 284.653C179.066 282.395 174.263 278.121 169.945 271.71C167.201 267.637 165.062 263.363 163.488 258.847H188.953V247.597H160.825C160.058 241.79 160.058 235.661 160.906 229.25H204.127C204.409 233.444 204.531 240.097 203.401 247.597H214.781C216.597 233.887 214.821 223.161 214.741 222.677L213.934 218H151.462L150.574 222.556C145.57 249.008 153.44 267.597 160.946 278.524C169.138 290.46 178.582 296.065 178.985 296.306L181.85 298L184.716 296.306C198.437 288.202 207.92 275.339 212.481 258.927H200.737V258.887Z" fill="#0055B8"/>
<path d="M214.741 247.597C214.7 247.96 214.66 248.363 214.579 248.726C214.095 252.315 213.369 255.702 212.44 258.887L224.063 258.928C224.709 256.266 225.233 253.484 225.637 250.661C225.758 249.653 225.879 248.645 226 247.678L214.741 247.597Z" fill="#8AB7E9"/>
<path d="M158 121L172 134L172 85" stroke="#92CCFF" stroke-width="4" stroke-miterlimit="10" stroke-linecap="round" stroke-linejoin="round"/>
<path d="M206 83L192 70L192 119" stroke="#92CCFF" stroke-width="4" stroke-miterlimit="10" stroke-linecap="round" stroke-linejoin="round"/>
<path d="M115.643 105V96.504H113.579V105H115.643ZM123.195 105V101.304C123.195 100.104 122.619 98.856 121.011 98.856C120.183 98.856 119.499 99.324 119.223 99.852H119.199V99.024H117.291V105H119.271V101.76C119.271 101.076 119.631 100.476 120.327 100.476C121.035 100.476 121.215 101.076 121.215 101.736V105H123.195ZM130.734 99.024H128.634L127.374 102.9H127.338L126.078 99.024H123.906L126.258 105H128.382L130.734 99.024ZM133.079 101.328C133.127 100.716 133.679 100.188 134.435 100.188C135.215 100.188 135.611 100.704 135.611 101.328H133.079ZM137.423 102.084C137.423 100.044 136.187 98.832 134.423 98.832C132.611 98.832 131.195 100.08 131.195 102.036C131.195 104.052 132.683 105.192 134.483 105.192C135.695 105.192 136.631 104.736 137.195 103.92L135.827 103.056C135.563 103.416 135.131 103.68 134.507 103.68C133.799 103.68 133.139 103.212 133.079 102.552H137.411C137.423 102.408 137.423 102.24 137.423 102.084ZM143.239 99.672C142.651 99.12 141.727 98.832 140.839 98.832C139.699 98.832 138.355 99.408 138.355 100.836C138.355 101.964 139.267 102.384 140.095 102.576C140.911 102.768 141.283 102.888 141.283 103.26C141.283 103.644 140.899 103.776 140.575 103.776C139.999 103.776 139.459 103.488 139.111 103.104L138.007 104.268C138.631 104.868 139.639 105.192 140.611 105.192C141.835 105.192 143.167 104.664 143.167 103.152C143.167 101.988 142.171 101.532 141.259 101.328C140.491 101.16 140.167 101.064 140.167 100.728C140.167 100.38 140.539 100.248 140.911 100.248C141.391 100.248 141.847 100.488 142.159 100.788L143.239 99.672ZM147.843 100.5V99.024H146.439V97.452H144.507V99.024H143.559V100.5H144.519V103.02C144.519 104.292 145.047 105.144 146.643 105.144C147.063 105.144 147.519 105.06 147.783 104.964L147.759 103.524C147.615 103.584 147.375 103.62 147.183 103.62C146.619 103.62 146.439 103.332 146.439 102.78V100.5H147.843Z" fill="#92CCFF"/>
<path d="M218.94 105V96.504H216.876V105H218.94ZM226.492 105V101.304C226.492 100.104 225.916 98.856 224.308 98.856C223.48 98.856 222.796 99.324 222.52 99.852H222.496V99.024H220.588V105H222.568V101.76C222.568 101.076 222.928 100.476 223.624 100.476C224.332 100.476 224.512 101.076 224.512 101.736V105H226.492ZM231.523 100.5V99.024H230.119V97.452H228.187V99.024H227.239V100.5H228.199V103.02C228.199 104.292 228.727 105.144 230.323 105.144C230.743 105.144 231.199 105.06 231.463 104.964L231.439 103.524C231.295 103.584 231.055 103.62 230.863 103.62C230.299 103.62 230.119 103.332 230.119 102.78V100.5H231.523ZM234.032 101.328C234.08 100.716 234.632 100.188 235.388 100.188C236.168 100.188 236.564 100.704 236.564 101.328H234.032ZM238.376 102.084C238.376 100.044 237.14 98.832 235.376 98.832C233.564 98.832 232.148 100.08 232.148 102.036C232.148 104.052 233.636 105.192 235.436 105.192C236.648 105.192 237.584 104.736 238.148 103.92L236.78 103.056C236.516 103.416 236.084 103.68 235.46 103.68C234.752 103.68 234.092 103.212 234.032 102.552H238.364C238.376 102.408 238.376 102.24 238.376 102.084ZM243.556 98.904C243.46 98.868 243.292 98.856 243.136 98.856C242.404 98.856 241.816 99.288 241.516 99.888H241.492V99.024H239.596V105H241.564V101.928C241.564 101.436 241.912 100.572 242.968 100.572C243.124 100.572 243.292 100.584 243.472 100.632L243.556 98.904ZM245.727 101.328C245.775 100.716 246.327 100.188 247.083 100.188C247.863 100.188 248.259 100.704 248.259 101.328H245.727ZM250.071 102.084C250.071 100.044 248.835 98.832 247.071 98.832C245.259 98.832 243.843 100.08 243.843 102.036C243.843 104.052 245.331 105.192 247.131 105.192C248.343 105.192 249.279 104.736 249.843 103.92L248.475 103.056C248.211 103.416 247.779 103.68 247.155 103.68C246.447 103.68 245.787 103.212 245.727 102.552H250.059C250.071 102.408 250.071 102.24 250.071 102.084ZM255.887 99.672C255.299 99.12 254.375 98.832 253.487 98.832C252.347 98.832 251.003 99.408 251.003 100.836C251.003 101.964 251.915 102.384 252.743 102.576C253.559 102.768 253.931 102.888 253.931 103.26C253.931 103.644 253.547 103.776 253.223 103.776C252.647 103.776 252.107 103.488 251.759 103.104L250.655 104.268C251.279 104.868 252.287 105.192 253.259 105.192C254.483 105.192 255.815 104.664 255.815 103.152C255.815 101.988 254.819 101.532 253.907 101.328C253.139 101.16 252.815 101.064 252.815 100.728C252.815 100.38 253.187 100.248 253.559 100.248C254.039 100.248 254.495 100.488 254.807 100.788L255.887 99.672ZM260.492 100.5V99.024H259.088V97.452H257.156V99.024H256.208V100.5H257.168V103.02C257.168 104.292 257.696 105.144 259.292 105.144C259.712 105.144 260.168 105.06 260.432 104.964L260.408 103.524C260.264 103.584 260.024 103.62 259.832 103.62C259.268 103.62 259.088 103.332 259.088 102.78V100.5H260.492Z" fill="#92CCFF"/>
<rect x="192" width="160" height="50" rx="10" fill="#E3F2FF"/>
<rect x="12" width="160" height="50" rx="10" fill="#E3F2FF"/>
<path fill-rule="evenodd" clip-rule="evenodd" d="M328.502 26.7875C328.502 25.2671 327.598 24.1224 326.17 24.1224C324.743 24.1224 323.837 25.2671 323.837 26.7875C323.837 28.3078 324.743 29.4525 326.17 29.4525C327.601 29.4554 328.502 28.3107 328.502 26.7875ZM328.432 23.1021V19.1191C328.432 18.856 328.61 18.6277 328.867 18.5612L331 17.9976V31.4758H328.633V30.3312C328.038 31.1896 326.969 31.6925 325.632 31.6925C322.886 31.6925 321.278 29.5103 321.278 26.7904C321.278 24.0704 322.886 21.8881 325.632 21.8881C326.967 21.8852 327.945 22.4575 328.432 23.1021ZM313.87 22.0991V23.2438C314.305 22.4373 315.28 21.8824 316.689 21.8824C318.967 21.8824 320.177 23.3853 320.177 25.6226V31.4758H317.612V25.9117C317.612 24.819 317.142 24.0675 316.004 24.0675C314.757 24.0675 314.072 24.8538 314.072 26.1082V31.4758H311.506V22.0991H313.87ZM305.508 31.6925C302.744 31.6925 301.206 30.5104 301.206 27.4696V22.0991H303.771V27.5043C303.771 28.8108 304.367 29.4177 305.505 29.4177C306.643 29.4177 307.239 28.8079 307.239 27.5043V22.0991H309.804V27.4667C309.81 30.5104 308.272 31.6925 305.508 31.6925ZM292.735 26.7875C292.735 28.4697 293.783 29.4525 295.138 29.4525C296.492 29.4525 297.54 28.4668 297.54 26.7875C297.54 25.1081 296.492 24.1224 295.138 24.1224C293.786 24.1224 292.735 25.1052 292.735 26.7875ZM295.14 31.6925C292.105 31.6925 290.17 29.4554 290.17 26.7904C290.17 24.1254 292.102 21.8881 295.14 21.8881C298.176 21.8881 300.111 24.1254 300.111 26.7904C300.108 29.4554 298.176 31.6925 295.14 31.6925ZM282.35 26.7875C282.35 28.3078 283.255 29.4525 284.683 29.4525C286.11 29.4525 287.015 28.3078 287.015 26.7875C287.015 25.2671 286.11 24.1224 284.683 24.1224C283.255 24.1224 282.35 25.2671 282.35 26.7875ZM282.423 30.4756V34.3749C282.423 34.638 282.245 34.8663 281.989 34.9327L279.858 35.4878V22.0991H282.225V23.2438C282.82 22.3853 283.889 21.8824 285.225 21.8824C287.972 21.8824 289.58 24.0646 289.58 26.7846C289.58 29.5045 287.972 31.6868 285.225 31.6868C283.886 31.6925 282.911 31.1203 282.423 30.4756ZM272.237 26.1429V31.4758H269.671V25.9117C269.671 24.874 269.292 24.0675 268.154 24.0675C266.96 24.0675 266.309 24.8364 266.309 26.0909V31.4787H263.743V22.0991H266.11V23.2438C266.545 22.4373 267.485 21.8824 268.839 21.8824C270.124 21.8824 271.043 22.3824 271.586 23.2061C272.418 22.2928 273.375 21.8824 274.73 21.8824C277.006 21.8824 278.162 23.4403 278.162 25.6226V31.4758H275.596V25.9117C275.596 24.874 275.217 24.0675 274.079 24.0675C272.867 24.0675 272.237 24.8364 272.237 26.1429ZM255.183 26.7875C255.183 28.4697 256.23 29.4525 257.585 29.4525C258.939 29.4525 259.987 28.4668 259.987 26.7875C259.987 25.1081 258.939 24.1224 257.585 24.1224C256.23 24.1224 255.183 25.1052 255.183 26.7875ZM257.585 31.6925C254.549 31.6925 252.614 29.4554 252.614 26.7904C252.614 24.1254 254.546 21.8881 257.585 21.8881C260.623 21.8881 262.555 24.1254 262.555 26.7904C262.555 29.4554 260.62 31.6925 257.585 31.6925ZM239.302 25.1052C239.302 21.1337 242.066 18.5005 245.752 18.5005C248.951 18.5005 251.482 20.3793 251.969 23.475H249.149C248.77 21.8824 247.468 20.9863 245.752 20.9863C243.402 20.9863 242.083 22.5963 242.083 25.1023C242.083 27.6083 243.402 29.2183 245.752 29.2183C247.468 29.2183 248.77 28.3223 249.149 26.7296H251.969C251.482 29.8254 248.951 31.7041 245.752 31.7041C242.066 31.7099 239.302 29.0795 239.302 25.1052Z" fill="#070A0E"/>
<path fill-rule="evenodd" clip-rule="evenodd" d="M214.054 32.2634C213.4 31.8674 213 31.1622 213 30.4048V26.1761C213 26.0142 213.044 25.8582 213.126 25.7194C213.379 25.2858 213.943 25.1385 214.381 25.3928L224.018 30.9569C224.582 31.2835 224.929 31.879 224.929 32.5264V36.9084C224.929 37.1078 224.874 37.3073 224.768 37.4778C224.45 37.9923 223.773 38.1542 223.254 37.8391L214.054 32.2634ZM228.42 24.2337C228.983 24.5603 229.33 25.1558 229.33 25.8032V34.6943C229.33 34.9573 229.187 35.2001 228.957 35.3273L226.847 36.5038C226.82 36.5182 226.791 36.5298 226.762 36.5384V31.6015C226.762 30.9627 226.423 30.3702 225.869 30.0406L217.404 25.0257V19.4529C217.404 19.291 217.448 19.1349 217.53 18.9962C217.784 18.5626 218.347 18.4152 218.785 18.6696L228.42 24.2337ZM232.637 17.6666C233.204 17.9903 233.551 18.5915 233.551 19.239V32.2259C233.551 32.4918 233.402 32.7374 233.166 32.8646L231.166 33.9341V24.8927C231.166 24.254 230.828 23.6643 230.276 23.3348L221.625 18.1956V12.9089C221.625 12.747 221.669 12.5909 221.748 12.4522C222.001 12.0186 222.565 11.8712 223.003 12.1227L232.637 17.6666Z" fill="#00D395"/>
<path d="M102.973 36.3011L93.8666 14.3156C93.795 14.1152 93.7572 13.9045 93.7546 13.6919C93.7376 13.2422 93.8982 12.8037 94.2018 12.4702C94.3581 12.3109 94.5467 12.1867 94.7552 12.106C94.9637 12.0253 95.1871 11.99 95.4104 12.0024C95.7487 12.0069 96.0771 12.1159 96.3504 12.3143C96.6368 12.5262 96.8608 12.8108 96.9989 13.1384L105.657 34.6561L114.317 13.1384C114.455 12.8108 114.679 12.5262 114.965 12.3143C115.238 12.1159 115.567 12.0069 115.905 12.0024C116.128 11.99 116.352 12.0253 116.56 12.106C116.769 12.1867 116.957 12.3109 117.114 12.4702C117.418 12.8044 117.579 13.2442 117.561 13.695C117.558 13.9076 117.52 14.1184 117.449 14.3187L108.342 36.3043C108.187 36.7879 107.883 37.211 107.474 37.5144C107.064 37.8179 106.57 37.9865 106.06 37.9968H105.255C104.744 37.9861 104.25 37.817 103.841 37.5129C103.432 37.2089 103.128 36.7852 102.973 36.3011Z" fill="url(#paint0_linear)"/>
<path d="M121.432 37.3264C121.277 37.1716 121.156 36.9871 121.075 36.7842C120.994 36.5813 120.956 36.3642 120.962 36.146V13.8736C120.954 13.4267 121.122 12.9945 121.432 12.6706C121.583 12.5096 121.767 12.3827 121.972 12.2982C122.176 12.2138 122.396 12.1738 122.618 12.181H137.411C137.62 12.1752 137.828 12.214 138.021 12.2946C138.214 12.3753 138.387 12.496 138.529 12.6488C138.681 12.7917 138.801 12.9645 138.882 13.1562C138.963 13.3478 139.003 13.5542 138.999 13.7621C139.005 13.967 138.966 14.1708 138.885 14.3593C138.804 14.5477 138.683 14.7164 138.529 14.8536C138.382 14.9975 138.207 15.1109 138.015 15.1874C137.823 15.264 137.618 15.302 137.411 15.2995H124.322V23.4077H136.087C136.296 23.4019 136.504 23.4406 136.697 23.5213C136.89 23.602 137.063 23.7227 137.206 23.8754C137.356 24.0197 137.475 24.1927 137.555 24.3841C137.636 24.5755 137.677 24.7812 137.676 24.9887C137.681 25.1937 137.642 25.3974 137.561 25.5859C137.48 25.7744 137.359 25.943 137.206 26.0802C137.058 26.224 136.883 26.3373 136.691 26.4137C136.499 26.4901 136.294 26.528 136.087 26.5254H124.318V34.6756H137.411C137.62 34.6699 137.828 34.7086 138.021 34.7893C138.214 34.8699 138.387 34.9907 138.529 35.1434C138.681 35.2863 138.801 35.4591 138.882 35.6508C138.963 35.8425 139.003 36.0488 138.999 36.2567C139.005 36.4617 138.966 36.6655 138.885 36.8539C138.804 37.0424 138.683 37.211 138.529 37.3482C138.382 37.492 138.207 37.6053 138.015 37.6817C137.823 37.7581 137.618 37.796 137.411 37.7934H122.618C122.398 37.8098 122.176 37.7763 121.971 37.6954C121.766 37.6145 121.581 37.4884 121.432 37.3264Z" fill="url(#paint1_linear)"/>
<path d="M95.925 35.6774L86.8186 13.6919C86.6622 13.209 86.3583 12.7867 85.9493 12.4838C85.5403 12.181 85.0465 12.0127 84.5369 12.0024H83.7316C83.2219 12.0132 82.7282 12.1821 82.3194 12.4855C81.9107 12.7889 81.6073 13.2118 81.4515 13.695L77.4912 23.272H74.4928C74.0606 23.275 73.647 23.4473 73.3414 23.7515C73.0358 24.0557 72.8627 24.4673 72.8596 24.8975V24.9201C72.8627 25.3503 73.0358 25.762 73.3414 26.0662C73.647 26.3703 74.0606 26.5426 74.4928 26.5456H76.104L72.3231 35.6774C72.2515 35.8778 72.2137 36.0885 72.2111 36.3011C72.1932 36.752 72.3538 37.1917 72.6583 37.5259C72.8145 37.6852 73.003 37.8093 73.2114 37.89C73.4197 37.9707 73.643 38.006 73.8662 37.9937C74.2044 37.9893 74.5328 37.8803 74.8061 37.6819C75.0926 37.47 75.3166 37.1854 75.4547 36.8578L79.6163 26.5456H82.48C82.9124 26.543 83.3264 26.3709 83.6324 26.0667C83.9383 25.7625 84.1116 25.3506 84.1147 24.9201V24.8757C84.1116 24.4455 83.9385 24.0338 83.6329 23.7296C83.3273 23.4255 82.9137 23.2532 82.4815 23.2502H80.9345L84.1342 15.3439L92.7927 36.8617C92.9308 37.1893 93.1548 37.4739 93.4412 37.6858C93.7145 37.8842 94.043 37.9932 94.3812 37.9976C94.6044 38.0099 94.8277 37.9746 95.036 37.8939C95.2443 37.8132 95.4329 37.6891 95.589 37.5298C95.8935 37.1956 96.0541 36.7559 96.0363 36.305C96.0456 36.0903 96.0076 35.8761 95.925 35.6774Z" fill="url(#paint2_linear)"/>
<path d="M68.7176 35.6781L59.612 13.6957C59.4561 13.2121 59.1523 12.789 58.7431 12.4855C58.3339 12.1821 57.8397 12.0134 57.3295 12.0031H56.5242C56.0145 12.0139 55.5208 12.1828 55.112 12.4862C54.7033 12.7896 54.3999 13.2124 54.2441 13.6957L50.2815 23.2727H47.2838C46.8516 23.2757 46.438 23.448 46.1324 23.7521C45.8268 24.0563 45.6538 24.468 45.6507 24.8982V24.9208C45.6538 25.351 45.8268 25.7626 46.1324 26.0668C46.438 26.371 46.8516 26.5433 47.2838 26.5463H48.8943L45.1134 35.6781C45.0418 35.8785 45.004 36.0892 45.0013 36.3018C44.9835 36.7526 45.1441 37.1924 45.4486 37.5266C45.6047 37.6858 45.7933 37.81 46.0016 37.8907C46.21 37.9713 46.4332 38.0067 46.6564 37.9944C46.9946 37.9899 47.3231 37.881 47.5964 37.6825C47.8828 37.4706 48.1068 37.186 48.2449 36.8585L52.4065 26.5463H55.2937C55.7259 26.5433 56.1395 26.371 56.4451 26.0668C56.7507 25.7626 56.9238 25.351 56.9269 24.9208V24.8764C56.9238 24.4462 56.7507 24.0345 56.4451 23.7303C56.1395 23.4261 55.7259 23.2539 55.2937 23.2508H53.7499L56.9269 15.3438L65.5853 36.8616C65.7234 37.1892 65.9474 37.4738 66.2338 37.6857C66.5071 37.884 66.8356 37.993 67.1738 37.9975C67.397 38.0098 67.6203 37.9745 67.8286 37.8938C68.0369 37.8131 68.2255 37.689 68.3816 37.5297C68.6861 37.1955 68.8467 36.7558 68.8289 36.3049C68.8379 36.0904 68.7999 35.8766 68.7176 35.6781Z" fill="url(#paint3_linear)"/>
<path d="M104.999 494L90.999 481L90.999 630" stroke="#92CCFF" stroke-width="4" stroke-miterlimit="10" stroke-linecap="round" stroke-linejoin="round"/>
<path d="M56.9988 632L70.9988 645L70.9988 496" stroke="#92CCFF" stroke-width="4" stroke-miterlimit="10" stroke-linecap="round" stroke-linejoin="round"/>
<path d="M44.9988 602.736L36.5028 602.736L36.5028 604.8L44.9988 604.8L44.9988 602.736ZM44.9988 595.183L41.3028 595.183C40.1028 595.183 38.8548 595.759 38.8548 597.367C38.8548 598.195 39.3228 598.879 39.8508 599.155L39.8508 599.179L39.0228 599.179L39.0228 601.087L44.9988 601.087L44.9988 599.107L41.7588 599.107C41.0748 599.107 40.4748 598.747 40.4748 598.051C40.4748 597.343 41.0748 597.163 41.7348 597.163L44.9988 597.163L44.9988 595.183ZM39.6708 589.097C39.1188 589.685 38.8308 590.609 38.8308 591.497C38.8308 592.637 39.4068 593.981 40.8348 593.981C41.9628 593.981 42.3828 593.069 42.5748 592.241C42.7668 591.425 42.8868 591.053 43.2588 591.053C43.6428 591.053 43.7748 591.437 43.7748 591.761C43.7748 592.337 43.4868 592.877 43.1028 593.225L44.2668 594.329C44.8668 593.705 45.1908 592.697 45.1908 591.725C45.1908 590.501 44.6628 589.169 43.1508 589.169C41.9868 589.169 41.5308 590.165 41.3268 591.077C41.1588 591.845 41.0628 592.169 40.7268 592.169C40.3788 592.169 40.2468 591.797 40.2468 591.425C40.2468 590.945 40.4868 590.489 40.7868 590.177L39.6708 589.097ZM44.9988 582.201L39.0228 582.201L39.0228 584.169L42.2508 584.169C42.9348 584.169 43.5348 584.541 43.5348 585.225C43.5348 585.945 42.9348 586.113 42.2628 586.113L39.0228 586.113L39.0228 588.093L42.7188 588.093C43.9188 588.093 45.1668 587.529 45.1668 585.921C45.1668 585.081 44.6988 584.397 44.1708 584.121L44.1708 584.097L44.9988 584.097L44.9988 582.201ZM38.9028 576.702C38.8668 576.798 38.8548 576.966 38.8548 577.122C38.8548 577.854 39.2868 578.442 39.8868 578.742L39.8868 578.766L39.0228 578.766L39.0228 580.662L44.9988 580.662L44.9988 578.694L41.9268 578.694C41.4348 578.694 40.5708 578.346 40.5708 577.29C40.5708 577.134 40.5828 576.966 40.6308 576.786L38.9028 576.702ZM42.5988 572.563C43.3428 572.563 43.8228 573.007 43.8228 573.799C43.8228 574.195 43.6668 574.651 43.2108 574.651C42.5028 574.651 42.3948 573.679 42.3948 572.815L42.3948 572.563L42.5988 572.563ZM40.9068 575.179C40.5708 574.819 40.2948 574.267 40.2948 573.703C40.2948 573.091 40.5708 572.623 41.1588 572.623L41.2548 572.623C41.2548 574.363 41.5428 576.463 43.2708 576.463C44.6748 576.463 45.1428 575.239 45.1428 574.291C45.1428 573.583 44.8548 572.899 44.3628 572.599L44.3628 572.563L44.9988 572.563L44.9988 570.763L41.9868 570.763C39.8148 570.763 38.8308 571.507 38.8308 573.511C38.8308 574.483 39.1788 575.479 39.8388 576.175L40.9068 575.179ZM44.9988 563.39L41.3028 563.39C40.1028 563.39 38.8548 563.966 38.8548 565.574C38.8548 566.402 39.3228 567.086 39.8508 567.362L39.8508 567.386L39.0228 567.386L39.0228 569.294L44.9988 569.294L44.9988 567.314L41.7588 567.314C41.0748 567.314 40.4748 566.954 40.4748 566.258C40.4748 565.55 41.0748 565.37 41.7348 565.37L44.9988 565.37L44.9988 563.39ZM39.6348 556.644C39.1548 557.112 38.8308 558.012 38.8308 558.864C38.8308 560.724 40.0668 562.2 42.0108 562.2C43.9908 562.2 45.1908 560.736 45.1908 558.852C45.1908 557.976 44.9028 557.136 44.4228 556.644L43.0908 557.736C43.3788 557.976 43.5348 558.408 43.5348 558.804C43.5348 559.668 42.8388 560.208 42.0108 560.208C41.1828 560.208 40.4748 559.656 40.4748 558.828C40.4748 558.432 40.6668 558 40.9548 557.784L39.6348 556.644ZM41.3268 554.281C40.7148 554.233 40.1868 553.681 40.1868 552.925C40.1868 552.145 40.7028 551.749 41.3268 551.749L41.3268 554.281ZM42.0828 549.937C40.0428 549.937 38.8308 551.173 38.8308 552.937C38.8308 554.749 40.0788 556.165 42.0348 556.165C44.0508 556.165 45.1908 554.677 45.1908 552.877C45.1908 551.665 44.7348 550.729 43.9188 550.165L43.0548 551.533C43.4148 551.797 43.6788 552.229 43.6788 552.853C43.6788 553.561 43.2108 554.221 42.5508 554.281L42.5508 549.949C42.4068 549.937 42.2388 549.937 42.0828 549.937ZM43.8228 538.132L42.4788 539.56C42.9828 539.92 43.3428 540.556 43.3428 541.36C43.3428 542.776 42.2868 543.772 40.7388 543.772C39.2388 543.772 38.1348 542.752 38.1348 541.324C38.1348 540.676 38.3868 539.992 38.9148 539.608L37.5228 538.216C36.7068 538.924 36.2748 540.208 36.2748 541.396C36.2748 543.988 38.0148 546.004 40.7388 546.004C43.4028 546.004 45.2268 544.048 45.2268 541.432C45.2268 540.004 44.6868 538.876 43.8228 538.132ZM42.5988 534.044C43.3428 534.044 43.8228 534.488 43.8228 535.28C43.8228 535.676 43.6668 536.132 43.2108 536.132C42.5028 536.132 42.3948 535.16 42.3948 534.296L42.3948 534.044L42.5988 534.044ZM40.9068 536.66C40.5708 536.3 40.2948 535.748 40.2948 535.184C40.2948 534.572 40.5708 534.104 41.1588 534.104L41.2548 534.104C41.2548 535.844 41.5428 537.944 43.2708 537.944C44.6748 537.944 45.1428 536.72 45.1428 535.772C45.1428 535.064 44.8548 534.38 44.3628 534.08L44.3628 534.044L44.9988 534.044L44.9988 532.244L41.9868 532.244C39.8148 532.244 38.8308 532.988 38.8308 534.992C38.8308 535.964 39.1788 536.96 39.8388 537.656L40.9068 536.66ZM41.9868 524.127C40.3188 524.127 38.8548 525.219 38.8548 526.959C38.8548 527.835 39.2748 528.507 39.7548 528.867L39.7548 528.903L39.0228 528.903L39.0228 530.775L47.8788 530.775L47.8788 528.807L44.3388 528.807L44.3388 528.783C44.8548 528.411 45.1668 527.703 45.1668 526.971C45.1668 525.171 43.6548 524.127 41.9868 524.127ZM41.9868 526.035C42.7668 526.035 43.5348 526.503 43.5348 527.439C43.5348 528.327 42.7788 528.879 41.9988 528.879C41.2428 528.879 40.4628 528.327 40.4628 527.439C40.4628 526.503 41.2188 526.035 41.9868 526.035ZM42.5988 519.36C43.3428 519.36 43.8228 519.804 43.8228 520.596C43.8228 520.992 43.6668 521.448 43.2108 521.448C42.5028 521.448 42.3948 520.476 42.3948 519.612L42.3948 519.36L42.5988 519.36ZM40.9068 521.976C40.5708 521.616 40.2948 521.064 40.2948 520.5C40.2948 519.888 40.5708 519.42 41.1588 519.42L41.2548 519.42C41.2548 521.16 41.5428 523.26 43.2708 523.26C44.6748 523.26 45.1428 522.036 45.1428 521.088C45.1428 520.38 44.8548 519.696 44.3628 519.396L44.3628 519.36L44.9988 519.36L44.9988 517.56L41.9868 517.56C39.8148 517.56 38.8308 518.304 38.8308 520.308C38.8308 521.28 39.1788 522.276 39.8388 522.972L40.9068 521.976ZM39.6348 510.835C39.1548 511.303 38.8308 512.203 38.8308 513.055C38.8308 514.915 40.0668 516.391 42.0108 516.391C43.9908 516.391 45.1908 514.927 45.1908 513.043C45.1908 512.167 44.9028 511.327 44.4228 510.835L43.0908 511.927C43.3788 512.167 43.5348 512.599 43.5348 512.995C43.5348 513.859 42.8388 514.399 42.0108 514.399C41.1828 514.399 40.4748 513.847 40.4748 513.019C40.4748 512.623 40.6668 512.191 40.9548 511.975L39.6348 510.835ZM37.1148 507.92C36.5148 507.92 36.0348 508.424 36.0348 509.048C36.0348 509.684 36.5388 510.176 37.1148 510.176C37.7028 510.176 38.1948 509.684 38.1948 509.048C38.1948 508.424 37.7268 507.92 37.1148 507.92ZM44.9988 508.064L39.0228 508.064L39.0228 510.032L44.9988 510.032L44.9988 508.064ZM40.4988 502.965L39.0228 502.965L39.0228 504.369L37.4508 504.369L37.4508 506.301L39.0228 506.301L39.0228 507.249L40.4988 507.249L40.4988 506.289L43.0188 506.289C44.2908 506.289 45.1428 505.761 45.1428 504.165C45.1428 503.745 45.0588 503.289 44.9628 503.025L43.5228 503.049C43.5828 503.193 43.6188 503.433 43.6188 503.625C43.6188 504.189 43.3308 504.369 42.7788 504.369L40.4988 504.369L40.4988 502.965ZM39.0228 495.993L39.0228 498.081L42.8628 499.269L42.8628 499.305L39.0228 500.637L39.0228 502.821L44.9028 500.325L45.3948 500.517C45.9108 500.709 46.1988 500.913 46.1988 501.525C46.1988 501.717 46.1508 501.969 46.0908 502.161L47.7468 502.377C47.8188 502.089 47.8788 501.669 47.8788 501.297C47.8788 499.797 47.1468 499.149 45.8988 498.669L39.0228 495.993Z" fill="#92CCFF"/>
<path d="M124.999 622.176L121.363 624.396C121.027 623.304 120.211 622.632 119.071 622.632C117.127 622.632 116.503 624.252 116.503 625.884L116.503 629.124L124.999 629.124L124.999 627.108L121.627 627.108L121.627 626.412L124.999 624.576L124.999 622.176ZM119.107 624.66C119.971 624.66 120.139 625.488 120.139 626.148L120.139 627.12L118.159 627.12L118.159 626.028C118.159 625.416 118.315 624.66 119.107 624.66ZM121.327 619.832C120.715 619.784 120.187 619.232 120.187 618.476C120.187 617.696 120.703 617.3 121.327 617.3L121.327 619.832ZM122.083 615.488C120.043 615.488 118.831 616.724 118.831 618.488C118.831 620.3 120.079 621.716 122.035 621.716C124.051 621.716 125.191 620.228 125.191 618.428C125.191 617.216 124.735 616.28 123.919 615.716L123.055 617.084C123.415 617.348 123.679 617.78 123.679 618.404C123.679 619.112 123.211 619.772 122.551 619.832L122.551 615.5C122.407 615.488 122.239 615.488 122.083 615.488ZM119.635 609.011C119.155 609.479 118.831 610.379 118.831 611.231C118.831 613.091 120.067 614.567 122.011 614.567C123.991 614.567 125.191 613.103 125.191 611.219C125.191 610.343 124.903 609.503 124.423 609.011L123.091 610.103C123.379 610.343 123.535 610.775 123.535 611.171C123.535 612.035 122.839 612.575 122.011 612.575C121.183 612.575 120.475 612.023 120.475 611.195C120.475 610.799 120.667 610.367 120.955 610.151L119.635 609.011ZM121.327 606.648C120.715 606.6 120.187 606.048 120.187 605.292C120.187 604.512 120.703 604.116 121.327 604.116L121.327 606.648ZM122.083 602.304C120.043 602.304 118.831 603.54 118.831 605.304C118.831 607.116 120.079 608.532 122.035 608.532C124.051 608.532 125.191 607.044 125.191 605.244C125.191 604.032 124.735 603.096 123.919 602.532L123.055 603.9C123.415 604.164 123.679 604.596 123.679 605.22C123.679 605.928 123.211 606.588 122.551 606.648L122.551 602.316C122.407 602.304 122.239 602.304 122.083 602.304ZM117.115 598.948C116.515 598.948 116.035 599.452 116.035 600.076C116.035 600.712 116.539 601.204 117.115 601.204C117.703 601.204 118.195 600.712 118.195 600.076C118.195 599.452 117.727 598.948 117.115 598.948ZM124.999 599.092L119.023 599.092L119.023 601.06L124.999 601.06L124.999 599.092ZM119.023 591.485L119.023 593.585L122.899 594.845L122.899 594.881L119.023 596.141L119.023 598.313L124.999 595.961L124.999 593.837L119.023 591.485ZM121.327 589.14C120.715 589.092 120.187 588.54 120.187 587.784C120.187 587.004 120.703 586.608 121.327 586.608L121.327 589.14ZM122.083 584.796C120.043 584.796 118.831 586.032 118.831 587.796C118.831 589.608 120.079 591.024 122.035 591.024C124.051 591.024 125.191 589.536 125.191 587.736C125.191 586.524 124.735 585.588 123.919 585.024L123.055 586.392C123.415 586.656 123.679 587.088 123.679 587.712C123.679 588.42 123.211 589.08 122.551 589.14L122.551 584.808C122.407 584.796 122.239 584.796 122.083 584.796ZM119.119 574.024C117.175 574.024 116.503 575.488 116.503 577.348L116.503 580.468L124.999 580.468L124.999 578.416L121.795 578.416L121.795 577.396C121.795 575.62 121.087 574.024 119.119 574.024ZM119.131 576.076C119.935 576.076 120.163 576.784 120.163 577.552L120.163 578.416L118.159 578.416L118.159 577.516C118.159 576.784 118.315 576.076 119.131 576.076ZM118.903 569.456C118.867 569.552 118.855 569.72 118.855 569.876C118.855 570.608 119.287 571.196 119.887 571.496L119.887 571.52L119.023 571.52L119.023 573.416L124.999 573.416L124.999 571.448L121.927 571.448C121.435 571.448 120.571 571.1 120.571 570.044C120.571 569.888 120.583 569.72 120.631 569.54L118.903 569.456ZM121.327 567.285C120.715 567.237 120.187 566.685 120.187 565.929C120.187 565.149 120.703 564.753 121.327 564.753L121.327 567.285ZM122.083 562.941C120.043 562.941 118.831 564.177 118.831 565.941C118.831 567.753 120.079 569.169 122.035 569.169C124.051 569.169 125.191 567.681 125.191 565.881C125.191 564.669 124.735 563.733 123.919 563.169L123.055 564.537C123.415 564.801 123.679 565.233 123.679 565.857C123.679 566.565 123.211 567.225 122.551 567.285L122.551 562.953C122.407 562.941 122.239 562.941 122.083 562.941ZM124.999 552.12L121.303 552.12C120.175 552.12 118.855 552.672 118.855 554.292C118.855 555.18 119.251 555.804 119.875 556.2C119.227 556.536 118.855 557.136 118.855 558C118.855 558.9 119.347 559.512 119.851 559.788L119.851 559.812L119.023 559.812L119.023 561.72L124.999 561.72L124.999 559.74L121.759 559.74C121.039 559.74 120.475 559.38 120.475 558.756C120.475 558.168 120.907 557.904 121.591 557.904L124.999 557.904L124.999 555.936L121.771 555.936C121.099 555.936 120.475 555.612 120.475 554.94C120.475 554.244 121.051 554.088 121.735 554.088L124.999 554.088L124.999 552.12ZM117.115 548.498C116.515 548.498 116.035 549.002 116.035 549.626C116.035 550.262 116.539 550.754 117.115 550.754C117.703 550.754 118.195 550.262 118.195 549.626C118.195 549.002 117.727 548.498 117.115 548.498ZM124.999 548.642L119.023 548.642L119.023 550.61L124.999 550.61L124.999 548.642ZM124.999 541.252L119.023 541.252L119.023 543.22L122.251 543.22C122.935 543.22 123.535 543.592 123.535 544.276C123.535 544.996 122.935 545.164 122.263 545.164L119.023 545.164L119.023 547.144L122.719 547.144C123.919 547.144 125.167 546.58 125.167 544.972C125.167 544.132 124.699 543.448 124.171 543.172L124.171 543.148L124.999 543.148L124.999 541.252ZM124.999 530.112L121.303 530.112C120.175 530.112 118.855 530.664 118.855 532.284C118.855 533.172 119.251 533.796 119.875 534.192C119.227 534.528 118.855 535.128 118.855 535.992C118.855 536.892 119.347 537.504 119.851 537.78L119.851 537.804L119.023 537.804L119.023 539.712L124.999 539.712L124.999 537.732L121.759 537.732C121.039 537.732 120.475 537.372 120.475 536.748C120.475 536.16 120.907 535.896 121.591 535.896L124.999 535.896L124.999 533.928L121.771 533.928C121.099 533.928 120.475 533.604 120.475 532.932C120.475 532.236 121.051 532.08 121.735 532.08L124.999 532.08L124.999 530.112ZM119.671 524.031C119.119 524.619 118.831 525.543 118.831 526.431C118.831 527.571 119.407 528.915 120.835 528.915C121.963 528.915 122.383 528.003 122.575 527.175C122.767 526.359 122.887 525.987 123.259 525.987C123.643 525.987 123.775 526.371 123.775 526.695C123.775 527.271 123.487 527.811 123.103 528.159L124.267 529.263C124.867 528.639 125.191 527.631 125.191 526.659C125.191 525.435 124.663 524.103 123.151 524.103C121.987 524.103 121.531 525.099 121.327 526.011C121.159 526.779 121.063 527.103 120.727 527.103C120.379 527.103 120.247 526.731 120.247 526.359C120.247 525.879 120.487 525.423 120.787 525.111L119.671 524.031Z" fill="#92CCFF"/>
<rect y="645" width="112" height="20" rx="5" transform="rotate(-90 0 645)" fill="#001854"/>
<path d="M14 631.18L6.92 631.18L6.92 633.65L11.46 635.19L11.46 635.23L6.92 636.84L6.92 639.27L14 639.27L14 637.66L8.99 637.7L8.99 637.67L14 635.88L14 634.68L8.99 632.84L8.99 632.81L14 632.85L14 631.18ZM10.43 622.339C8.16 622.339 6.73 623.979 6.73 626.199C6.73 628.409 8.16 630.049 10.43 630.049C12.67 630.049 14.19 628.409 14.19 626.199C14.19 623.979 12.67 622.339 10.43 622.339ZM10.43 624.169C11.71 624.169 12.63 625.009 12.63 626.199C12.63 627.389 11.71 628.219 10.43 628.219C9.19 628.219 8.27 627.399 8.27 626.199C8.27 624.999 9.19 624.169 10.43 624.169ZM14 615.423L10.97 617.273C10.69 616.363 10.01 615.803 9.06 615.803C7.44 615.803 6.92 617.153 6.92 618.513L6.92 621.213L14 621.213L14 619.533L11.19 619.533L11.19 618.953L14 617.423L14 615.423ZM9.09 617.493C9.81 617.493 9.95 618.183 9.95 618.733L9.95 619.543L8.3 619.543L8.3 618.633C8.3 618.123 8.43 617.493 9.09 617.493ZM14 609.642L12.54 609.642L12.54 612.932L11.07 612.932L11.07 609.992L9.7 609.992L9.7 612.932L8.37 612.932L8.37 609.822L6.92 609.822L6.92 614.582L14 614.582L14 609.642ZM13.02 599.778L11.9 600.968C12.32 601.268 12.62 601.798 12.62 602.468C12.62 603.648 11.74 604.478 10.45 604.478C9.2 604.478 8.28 603.628 8.28 602.438C8.28 601.898 8.49 601.328 8.93 601.008L7.77 599.848C7.09 600.438 6.73 601.508 6.73 602.498C6.73 604.658 8.18 606.338 10.45 606.338C12.67 606.338 14.19 604.708 14.19 602.528C14.19 601.338 13.74 600.398 13.02 599.778ZM10.43 591.783C8.16 591.783 6.73 593.423 6.73 595.643C6.73 597.853 8.16 599.493 10.43 599.493C12.67 599.493 14.19 597.853 14.19 595.643C14.19 593.423 12.67 591.783 10.43 591.783ZM10.43 593.613C11.71 593.613 12.63 594.453 12.63 595.643C12.63 596.833 11.71 597.663 10.43 597.663C9.19 597.663 8.27 596.843 8.27 595.643C8.27 594.443 9.19 593.613 10.43 593.613ZM14 582.567L6.92 582.567L6.92 585.037L11.46 586.577L11.46 586.617L6.92 588.227L6.92 590.657L14 590.657L14 589.047L8.99 589.087L8.99 589.057L14 587.267L14 586.067L8.99 584.227L8.99 584.197L14 584.237L14 582.567ZM9.1 575.736C7.48 575.736 6.92 576.956 6.92 578.506L6.92 581.106L14 581.106L14 579.396L11.33 579.396L11.33 578.546C11.33 577.066 10.74 575.736 9.1 575.736ZM9.11 577.446C9.78 577.446 9.97 578.036 9.97 578.676L9.97 579.396L8.3 579.396L8.3 578.646C8.3 578.036 8.43 577.446 9.11 577.446ZM14 569.769L12.54 569.769L12.54 573.059L11.07 573.059L11.07 570.119L9.7 570.119L9.7 573.059L8.37 573.059L8.37 569.949L6.92 569.949L6.92 574.709L14 574.709L14 569.769ZM8.38 563.605L6.92 563.605L6.92 569.315L8.38 569.315L8.38 567.315L14 567.315L14 565.605L8.38 565.605L8.38 563.605ZM14 561.105L6.92 561.105L6.92 562.825L14 562.825L14 561.105ZM8.38 554.611L6.92 554.611L6.92 560.321L8.38 560.321L8.38 558.321L14 558.321L14 556.611L8.38 556.611L8.38 554.611ZM14 552.111L6.92 552.111L6.92 553.831L14 553.831L14 552.111ZM6.92 544.407L6.92 546.297L11.94 547.927L11.94 547.967L6.92 549.607L6.92 551.527L14 548.847L14 547.137L6.92 544.407ZM14 538.891L12.54 538.891L12.54 542.181L11.07 542.181L11.07 539.241L9.7 539.241L9.7 542.181L8.37 542.181L8.37 539.071L6.92 539.071L6.92 543.831L14 543.831L14 538.891Z" fill="white"/>
<path d="M305 494L291 481L291 630" stroke="#92CCFF" stroke-width="4" stroke-miterlimit="10" stroke-linecap="round" stroke-linejoin="round"/>
<path d="M257 632L271 645L271 496" stroke="#92CCFF" stroke-width="4" stroke-miterlimit="10" stroke-linecap="round" stroke-linejoin="round"/>
<path d="M243 622.833L234.504 622.833L234.504 624.897L243 624.897L243 622.833ZM243 615.281L239.304 615.281C238.104 615.281 236.856 615.857 236.856 617.465C236.856 618.293 237.324 618.977 237.852 619.253L237.852 619.277L237.024 619.277L237.024 621.185L243 621.185L243 619.205L239.76 619.205C239.076 619.205 238.476 618.845 238.476 618.149C238.476 617.441 239.076 617.261 239.736 617.261L243 617.261L243 615.281ZM237.024 607.743L237.024 609.843L240.9 611.103L240.9 611.139L237.024 612.399L237.024 614.571L243 612.219L243 610.095L237.024 607.743ZM239.328 605.398C238.716 605.35 238.188 604.798 238.188 604.042C238.188 603.262 238.704 602.866 239.328 602.866L239.328 605.398ZM240.084 601.054C238.044 601.054 236.832 602.29 236.832 604.054C236.832 605.866 238.08 607.282 240.036 607.282C242.052 607.282 243.192 605.794 243.192 603.994C243.192 602.782 242.736 601.846 241.92 601.282L241.056 602.65C241.416 602.914 241.68 603.346 241.68 603.97C241.68 604.678 241.212 605.338 240.552 605.398L240.552 601.066C240.408 601.054 240.24 601.054 240.084 601.054ZM237.672 595.238C237.12 595.826 236.832 596.75 236.832 597.638C236.832 598.778 237.408 600.122 238.836 600.122C239.964 600.122 240.384 599.21 240.576 598.382C240.768 597.566 240.888 597.194 241.26 597.194C241.644 597.194 241.776 597.578 241.776 597.902C241.776 598.478 241.488 599.018 241.104 599.366L242.268 600.47C242.868 599.846 243.192 598.838 243.192 597.866C243.192 596.642 242.664 595.31 241.152 595.31C239.988 595.31 239.532 596.306 239.328 597.218C239.16 597.986 239.064 598.31 238.728 598.31C238.38 598.31 238.248 597.938 238.248 597.566C238.248 597.086 238.488 596.63 238.788 596.318L237.672 595.238ZM238.5 590.633L237.024 590.633L237.024 592.037L235.452 592.037L235.452 593.969L237.024 593.969L237.024 594.917L238.5 594.917L238.5 593.957L241.02 593.957C242.292 593.957 243.144 593.429 243.144 591.833C243.144 591.413 243.06 590.957 242.964 590.693L241.524 590.717C241.584 590.861 241.62 591.101 241.62 591.293C241.62 591.857 241.332 592.037 240.78 592.037L238.5 592.037L238.5 590.633ZM244.332 584.021C242.952 585.029 241.284 585.581 239.544 585.581C237.804 585.581 236.136 585.029 234.756 584.021L234.096 585.365C235.656 586.493 237.588 587.129 239.544 587.129C241.5 587.129 243.432 586.493 244.992 585.365L244.332 584.021ZM239.796 575.299L234.504 575.299L234.504 577.351L239.628 577.351C240.54 577.351 241.38 577.783 241.38 578.947C241.38 580.099 240.54 580.543 239.628 580.543L234.504 580.543L234.504 582.583L239.796 582.583C241.836 582.583 243.228 581.191 243.228 578.959C243.228 576.739 241.836 575.299 239.796 575.299ZM235.332 567.844C234.648 568.588 234.288 569.668 234.288 570.628C234.288 572.212 235.068 573.916 236.952 573.916C238.488 573.916 239.04 572.824 239.388 571.744C239.748 570.628 239.952 569.98 240.6 569.98C241.284 569.98 241.524 570.532 241.524 571.156C241.524 571.828 241.14 572.584 240.624 572.992L241.992 574.336C242.772 573.592 243.216 572.368 243.216 571.156C243.216 569.476 242.34 567.904 240.384 567.904C238.692 567.904 238.2 569.392 237.828 570.544C237.576 571.348 237.396 571.852 236.832 571.852C236.16 571.852 235.98 571.192 235.98 570.664C235.98 570.136 236.268 569.5 236.712 569.152L235.332 567.844ZM238.728 558.618C235.512 558.618 234.504 561.066 234.504 563.478L234.504 566.55L243 566.55L243 563.382C243 561.042 241.716 558.618 238.728 558.618ZM238.728 560.754C240.624 560.754 241.224 562.11 241.224 563.574L241.224 564.546L236.256 564.546L236.256 563.526C236.256 562.11 236.82 560.754 238.728 560.754ZM241.824 549.781L240.48 551.209C240.984 551.569 241.344 552.205 241.344 553.009C241.344 554.425 240.288 555.421 238.74 555.421C237.24 555.421 236.136 554.401 236.136 552.973C236.136 552.325 236.388 551.641 236.916 551.257L235.524 549.865C234.708 550.573 234.276 551.857 234.276 553.045C234.276 555.637 236.016 557.653 238.74 557.653C241.404 557.653 243.228 555.697 243.228 553.081C243.228 551.653 242.688 550.525 241.824 549.781ZM241.08 546.753L241.08 548.637L244.488 549.537L244.488 547.917L241.08 546.753ZM240.528 536.043C239.412 536.043 238.716 536.811 238.548 537.783L238.524 537.783C238.248 536.955 237.624 536.391 236.688 536.391C234.972 536.391 234.504 537.963 234.504 539.283L234.504 542.667L243 542.667L243 539.283C243 537.663 242.376 536.043 240.528 536.043ZM236.964 538.371C237.564 538.371 237.888 538.815 237.888 539.583L237.888 540.687L236.136 540.687L236.136 539.679C236.136 538.815 236.388 538.371 236.964 538.371ZM240.336 538.095C241.164 538.095 241.344 538.887 241.344 539.535L241.344 540.687L239.4 540.687L239.4 539.547C239.4 538.671 239.628 538.095 240.336 538.095ZM239.796 527.486L234.504 527.486L234.504 529.538L239.628 529.538C240.54 529.538 241.38 529.97 241.38 531.134C241.38 532.286 240.54 532.73 239.628 532.73L234.504 532.73L234.504 534.77L239.796 534.77C241.836 534.77 243.228 533.378 243.228 531.146C243.228 528.926 241.836 527.486 239.796 527.486ZM235.332 520.031C234.648 520.775 234.288 521.855 234.288 522.815C234.288 524.399 235.068 526.103 236.952 526.103C238.488 526.103 239.04 525.011 239.388 523.931C239.748 522.815 239.952 522.167 240.6 522.167C241.284 522.167 241.524 522.719 241.524 523.343C241.524 524.015 241.14 524.771 240.624 525.179L241.992 526.523C242.772 525.779 243.216 524.555 243.216 523.343C243.216 521.663 242.34 520.091 240.384 520.091C238.692 520.091 238.2 521.579 237.828 522.731C237.576 523.535 237.396 524.039 236.832 524.039C236.16 524.039 235.98 523.379 235.98 522.851C235.98 522.323 236.268 521.687 236.712 521.339L235.332 520.031ZM238.728 510.805C235.512 510.805 234.504 513.253 234.504 515.665L234.504 518.737L243 518.737L243 515.569C243 513.229 241.716 510.805 238.728 510.805ZM238.728 512.941C240.624 512.941 241.224 514.297 241.224 515.761L241.224 516.733L236.256 516.733L236.256 515.713C236.256 514.297 236.82 512.941 238.728 512.941ZM241.944 507.883C241.284 507.883 240.768 508.435 240.768 509.083C240.768 509.755 241.308 510.307 241.956 510.307C242.616 510.307 243.12 509.743 243.12 509.083C243.12 508.435 242.604 507.883 241.944 507.883ZM241.944 504.285C241.284 504.285 240.768 504.837 240.768 505.485C240.768 506.157 241.308 506.709 241.956 506.709C242.616 506.709 243.12 506.145 243.12 505.485C243.12 504.837 242.604 504.285 241.944 504.285ZM241.944 500.687C241.284 500.687 240.768 501.239 240.768 501.887C240.768 502.559 241.308 503.111 241.956 503.111C242.616 503.111 243.12 502.547 243.12 501.887C243.12 501.239 242.604 500.687 241.944 500.687ZM239.544 496.346C237.588 496.346 235.656 496.982 234.096 498.11L234.756 499.454C236.136 498.446 237.804 497.894 239.544 497.894C241.284 497.894 242.952 498.446 244.332 499.454L244.992 498.11C243.432 496.982 241.5 496.346 239.544 496.346Z" fill="#92CCFF"/>
<path d="M323.824 621.648L322.48 623.076C322.984 623.436 323.344 624.072 323.344 624.876C323.344 626.292 322.288 627.288 320.74 627.288C319.24 627.288 318.136 626.268 318.136 624.84C318.136 624.192 318.388 623.508 318.916 623.124L317.524 621.732C316.708 622.44 316.276 623.724 316.276 624.912C316.276 627.504 318.016 629.52 320.74 629.52C323.404 629.52 325.228 627.564 325.228 624.948C325.228 623.52 324.688 622.392 323.824 621.648ZM321.988 614.681C320.032 614.681 318.832 616.193 318.832 618.005C318.832 619.805 320.032 621.317 321.988 621.317C323.944 621.317 325.192 619.805 325.192 618.005C325.192 616.193 323.944 614.681 321.988 614.681ZM321.988 616.577C322.756 616.577 323.536 617.069 323.536 617.993C323.536 618.917 322.756 619.409 321.988 619.409C321.22 619.409 320.464 618.929 320.464 618.005C320.464 617.081 321.22 616.577 321.988 616.577ZM325 611.419L315.928 611.419L315.928 613.411L325 613.411L325 611.419ZM325 607.845L315.928 607.845L315.928 609.837L325 609.837L325 607.845ZM321.328 604.703C320.716 604.655 320.188 604.103 320.188 603.347C320.188 602.567 320.704 602.171 321.328 602.171L321.328 604.703ZM322.084 600.359C320.044 600.359 318.832 601.595 318.832 603.359C318.832 605.171 320.08 606.587 322.036 606.587C324.052 606.587 325.192 605.099 325.192 603.299C325.192 602.087 324.736 601.151 323.92 600.587L323.056 601.955C323.416 602.219 323.68 602.651 323.68 603.275C323.68 603.983 323.212 604.643 322.552 604.703L322.552 600.371C322.408 600.359 322.24 600.359 322.084 600.359ZM319.636 593.882C319.156 594.35 318.832 595.25 318.832 596.102C318.832 597.962 320.068 599.438 322.012 599.438C323.992 599.438 325.192 597.974 325.192 596.09C325.192 595.214 324.904 594.374 324.424 593.882L323.092 594.974C323.38 595.214 323.536 595.646 323.536 596.042C323.536 596.906 322.84 597.446 322.012 597.446C321.184 597.446 320.476 596.894 320.476 596.066C320.476 595.67 320.668 595.238 320.956 595.022L319.636 593.882ZM320.5 589.563L319.024 589.563L319.024 590.967L317.452 590.967L317.452 592.899L319.024 592.899L319.024 593.847L320.5 593.847L320.5 592.887L323.02 592.887C324.292 592.887 325.144 592.359 325.144 590.763C325.144 590.343 325.06 589.887 324.964 589.623L323.524 589.647C323.584 589.791 323.62 590.031 323.62 590.223C323.62 590.787 323.332 590.967 322.78 590.967L320.5 590.967L320.5 589.563ZM319.12 579.086C317.176 579.086 316.504 580.55 316.504 582.41L316.504 585.53L325 585.53L325 583.478L321.796 583.478L321.796 582.458C321.796 580.682 321.088 579.086 319.12 579.086ZM319.132 581.138C319.936 581.138 320.164 581.846 320.164 582.614L320.164 583.478L318.16 583.478L318.16 582.578C318.16 581.846 318.316 581.138 319.132 581.138ZM318.904 574.518C318.868 574.614 318.856 574.782 318.856 574.938C318.856 575.67 319.288 576.258 319.888 576.558L319.888 576.582L319.024 576.582L319.024 578.478L325 578.478L325 576.51L321.928 576.51C321.436 576.51 320.572 576.162 320.572 575.106C320.572 574.95 320.584 574.782 320.632 574.602L318.904 574.518ZM321.328 572.347C320.716 572.299 320.188 571.747 320.188 570.991C320.188 570.211 320.704 569.815 321.328 569.815L321.328 572.347ZM322.084 568.003C320.044 568.003 318.832 569.239 318.832 571.003C318.832 572.815 320.08 574.231 322.036 574.231C324.052 574.231 325.192 572.743 325.192 570.943C325.192 569.731 324.736 568.795 323.92 568.231L323.056 569.599C323.416 569.863 323.68 570.295 323.68 570.919C323.68 571.627 323.212 572.287 322.552 572.347L322.552 568.015C322.408 568.003 322.24 568.003 322.084 568.003ZM325 557.183L321.304 557.183C320.176 557.183 318.856 557.735 318.856 559.355C318.856 560.243 319.252 560.867 319.876 561.263C319.228 561.599 318.856 562.199 318.856 563.063C318.856 563.963 319.348 564.575 319.852 564.851L319.852 564.875L319.024 564.875L319.024 566.783L325 566.783L325 564.803L321.76 564.803C321.04 564.803 320.476 564.443 320.476 563.819C320.476 563.231 320.908 562.967 321.592 562.967L325 562.967L325 560.999L321.772 560.999C321.1 560.999 320.476 560.675 320.476 560.003C320.476 559.307 321.052 559.151 321.736 559.151L325 559.151L325 557.183ZM317.116 553.561C316.516 553.561 316.036 554.065 316.036 554.689C316.036 555.325 316.54 555.817 317.116 555.817C317.704 555.817 318.196 555.325 318.196 554.689C318.196 554.065 317.728 553.561 317.116 553.561ZM325 553.705L319.024 553.705L319.024 555.673L325 555.673L325 553.705ZM325 546.314L319.024 546.314L319.024 548.282L322.252 548.282C322.936 548.282 323.536 548.654 323.536 549.338C323.536 550.058 322.936 550.226 322.264 550.226L319.024 550.226L319.024 552.206L322.72 552.206C323.92 552.206 325.168 551.642 325.168 550.034C325.168 549.194 324.7 548.51 324.172 548.234L324.172 548.21L325 548.21L325 546.314ZM325 535.175L321.304 535.175C320.176 535.175 318.856 535.727 318.856 537.347C318.856 538.235 319.252 538.859 319.876 539.255C319.228 539.591 318.856 540.191 318.856 541.055C318.856 541.955 319.348 542.567 319.852 542.843L319.852 542.867L319.024 542.867L319.024 544.775L325 544.775L325 542.795L321.76 542.795C321.04 542.795 320.476 542.435 320.476 541.811C320.476 541.223 320.908 540.959 321.592 540.959L325 540.959L325 538.991L321.772 538.991C321.1 538.991 320.476 538.667 320.476 537.995C320.476 537.299 321.052 537.143 321.736 537.143L325 537.143L325 535.175ZM319.672 529.093C319.12 529.681 318.832 530.605 318.832 531.493C318.832 532.633 319.408 533.977 320.836 533.977C321.964 533.977 322.384 533.065 322.576 532.237C322.768 531.421 322.888 531.049 323.26 531.049C323.644 531.049 323.776 531.433 323.776 531.757C323.776 532.333 323.488 532.873 323.104 533.221L324.268 534.325C324.868 533.701 325.192 532.693 325.192 531.721C325.192 530.497 324.664 529.165 323.152 529.165C321.988 529.165 321.532 530.161 321.328 531.073C321.16 531.841 321.064 532.165 320.728 532.165C320.38 532.165 320.248 531.793 320.248 531.421C320.248 530.941 320.488 530.485 320.788 530.173L319.672 529.093Z" fill="#92CCFF"/>
<rect x="344.001" y="587" width="105" height="20" rx="5" transform="rotate(-90 344.001 587)" fill="#001854"/>
<path d="M357.021 574.229L355.901 575.419C356.321 575.719 356.621 576.249 356.621 576.919C356.621 578.099 355.741 578.929 354.451 578.929C353.201 578.929 352.281 578.079 352.281 576.889C352.281 576.349 352.491 575.779 352.931 575.459L351.771 574.299C351.091 574.889 350.731 575.959 350.731 576.949C350.731 579.109 352.181 580.789 354.451 580.789C356.671 580.789 358.191 579.159 358.191 576.979C358.191 575.789 357.741 574.849 357.021 574.229ZM354.431 566.234C352.161 566.234 350.731 567.874 350.731 570.094C350.731 572.304 352.161 573.944 354.431 573.944C356.671 573.944 358.191 572.304 358.191 570.094C358.191 567.874 356.671 566.234 354.431 566.234ZM354.431 568.064C355.711 568.064 356.631 568.904 356.631 570.094C356.631 571.284 355.711 572.114 354.431 572.114C353.191 572.114 352.271 571.294 352.271 570.094C352.271 568.894 353.191 568.064 354.431 568.064ZM358.001 560.648L356.511 560.648L356.511 563.388L350.921 563.388L350.921 565.108L358.001 565.108L358.001 560.648ZM358.001 555.384L356.511 555.384L356.511 558.124L350.921 558.124L350.921 559.844L358.001 559.844L358.001 555.384ZM358.001 549.641L356.541 549.641L356.541 552.931L355.071 552.931L355.071 549.991L353.701 549.991L353.701 552.931L352.371 552.931L352.371 549.821L350.921 549.821L350.921 554.581L358.001 554.581L358.001 549.641ZM357.021 542.276L355.901 543.466C356.321 543.766 356.621 544.296 356.621 544.966C356.621 546.146 355.741 546.976 354.451 546.976C353.201 546.976 352.281 546.126 352.281 544.936C352.281 544.396 352.491 543.826 352.931 543.506L351.771 542.346C351.091 542.936 350.731 544.006 350.731 544.996C350.731 547.156 352.181 548.836 354.451 548.836C356.671 548.836 358.191 547.206 358.191 545.026C358.191 543.836 357.741 542.896 357.021 542.276ZM352.381 536.572L350.921 536.572L350.921 542.282L352.381 542.282L352.381 540.282L358.001 540.282L358.001 538.572L352.381 538.572L352.381 536.572ZM358.001 531.816L350.921 531.816L350.921 533.536L358.001 533.536L358.001 531.816ZM358.001 523.912L350.921 523.912L350.921 525.572L355.541 525.532L355.541 525.562L350.921 528.402L350.921 530.352L358.001 530.352L358.001 528.692L353.371 528.732L353.371 528.702L358.001 525.852L358.001 523.912ZM352.381 517.422L350.921 517.422L350.921 523.132L352.381 523.132L352.381 521.132L358.001 521.132L358.001 519.422L352.381 519.422L352.381 517.422ZM358.001 511.701L356.541 511.701L356.541 514.991L355.071 514.991L355.071 512.051L353.701 512.051L353.701 514.991L352.371 514.991L352.371 511.881L350.921 511.881L350.921 516.641L358.001 516.641L358.001 511.701ZM358.001 504.777L354.971 506.627C354.691 505.717 354.011 505.157 353.061 505.157C351.441 505.157 350.921 506.507 350.921 507.867L350.921 510.567L358.001 510.567L358.001 508.887L355.191 508.887L355.191 508.307L358.001 506.777L358.001 504.777ZM353.091 506.847C353.811 506.847 353.951 507.537 353.951 508.087L353.951 508.897L352.301 508.897L352.301 507.987C352.301 507.477 352.431 506.847 353.091 506.847ZM358.001 498.996L356.541 498.996L356.541 502.286L355.071 502.286L355.071 499.346L353.701 499.346L353.701 502.286L352.371 502.286L352.371 499.176L350.921 499.176L350.921 503.936L358.001 503.936L358.001 498.996ZM351.611 493.032C351.041 493.652 350.741 494.552 350.741 495.352C350.741 496.672 351.391 498.092 352.961 498.092C354.241 498.092 354.701 497.182 354.991 496.282C355.291 495.352 355.461 494.812 356.001 494.812C356.571 494.812 356.771 495.272 356.771 495.792C356.771 496.352 356.451 496.982 356.021 497.322L357.161 498.442C357.811 497.822 358.181 496.802 358.181 495.792C358.181 494.392 357.451 493.082 355.821 493.082C354.411 493.082 354.001 494.322 353.691 495.282C353.481 495.952 353.331 496.372 352.861 496.372C352.301 496.372 352.151 495.822 352.151 495.382C352.151 494.942 352.391 494.412 352.761 494.122L351.611 493.032ZM352.381 487.051L350.921 487.051L350.921 492.761L352.381 492.761L352.381 490.761L358.001 490.761L358.001 489.051L352.381 489.051L352.381 487.051Z" fill="white"/>
<path d="M100.412 394.999V392.371H94.4901V389.725H99.7821V387.259H94.4901V384.865H100.088V382.255H91.5201V394.999H100.412ZM111.148 394.999V389.455C111.148 387.655 110.284 385.783 107.872 385.783C106.63 385.783 105.604 386.485 105.19 387.277H105.154V386.035H102.292V394.999H105.262V390.139C105.262 389.113 105.802 388.213 106.846 388.213C107.908 388.213 108.178 389.113 108.178 390.103V394.999H111.148ZM120.277 387.007C119.395 386.179 118.009 385.747 116.677 385.747C114.967 385.747 112.951 386.611 112.951 388.753C112.951 390.445 114.319 391.075 115.561 391.363C116.785 391.651 117.343 391.831 117.343 392.389C117.343 392.965 116.767 393.163 116.281 393.163C115.417 393.163 114.607 392.731 114.085 392.155L112.429 393.901C113.365 394.801 114.877 395.287 116.335 395.287C118.171 395.287 120.169 394.495 120.169 392.227C120.169 390.481 118.675 389.797 117.307 389.491C116.155 389.239 115.669 389.095 115.669 388.591C115.669 388.069 116.227 387.871 116.785 387.871C117.505 387.871 118.189 388.231 118.657 388.681L120.277 387.007ZM130.622 394.999V386.035H127.67V390.877C127.67 391.903 127.112 392.803 126.086 392.803C125.006 392.803 124.754 391.903 124.754 390.895V386.035H121.784V391.579C121.784 393.379 122.63 395.251 125.042 395.251C126.302 395.251 127.328 394.549 127.742 393.757H127.778V394.999H130.622ZM138.87 385.855C138.726 385.801 138.474 385.783 138.24 385.783C137.142 385.783 136.26 386.431 135.81 387.331H135.774V386.035H132.93V394.999H135.882V390.391C135.882 389.653 136.404 388.357 137.988 388.357C138.222 388.357 138.474 388.375 138.744 388.447L138.87 385.855ZM149.255 390.481C149.255 387.547 146.987 385.747 144.269 385.747C141.569 385.747 139.301 387.547 139.301 390.481C139.301 393.415 141.569 395.287 144.269 395.287C146.987 395.287 149.255 393.415 149.255 390.481ZM146.411 390.481C146.411 391.633 145.673 392.803 144.287 392.803C142.901 392.803 142.163 391.633 142.163 390.481C142.163 389.329 142.883 388.195 144.269 388.195C145.655 388.195 146.411 389.329 146.411 390.481ZM163.814 394.999V392.317H158.882V382.255H155.786V394.999H163.814ZM168.302 383.173C168.302 382.273 167.546 381.553 166.61 381.553C165.656 381.553 164.918 382.309 164.918 383.173C164.918 384.055 165.656 384.793 166.61 384.793C167.546 384.793 168.302 384.091 168.302 383.173ZM168.086 394.999V386.035H165.134V394.999H168.086ZM179.928 399.319V386.035H177.138V387.133H177.084C176.544 386.413 175.536 385.783 174.204 385.783C171.594 385.783 169.974 387.979 169.974 390.481C169.974 392.983 171.522 395.251 174.24 395.251C175.338 395.251 176.382 394.783 176.958 394.009H176.994V399.319H179.928ZM177.102 390.499C177.102 391.669 176.274 392.803 174.942 392.803C173.538 392.803 172.818 391.651 172.818 390.481C172.818 389.329 173.538 388.195 174.942 388.195C176.274 388.195 177.102 389.365 177.102 390.499ZM191.003 394.999V386.035H188.051V390.877C188.051 391.903 187.493 392.803 186.467 392.803C185.387 392.803 185.135 391.903 185.135 390.895V386.035H182.165V391.579C182.165 393.379 183.011 395.251 185.423 395.251C186.683 395.251 187.709 394.549 188.123 393.757H188.159V394.999H191.003ZM196.515 383.173C196.515 382.273 195.759 381.553 194.823 381.553C193.869 381.553 193.131 382.309 193.131 383.173C193.131 384.055 193.869 384.793 194.823 384.793C195.759 384.793 196.515 384.091 196.515 383.173ZM196.299 394.999V386.035H193.347V394.999H196.299ZM208.141 394.999V381.391H205.189V386.989H205.153C204.649 386.395 203.731 385.783 202.417 385.783C199.807 385.783 198.187 387.979 198.187 390.481C198.187 392.983 199.753 395.251 202.453 395.251C203.641 395.251 204.811 394.729 205.387 393.829H205.423V394.999H208.141ZM205.315 390.499C205.315 391.669 204.487 392.803 203.155 392.803C201.751 392.803 201.031 391.651 201.031 390.481C201.031 389.329 201.751 388.195 203.155 388.195C204.487 388.195 205.315 389.365 205.315 390.499ZM213.689 383.173C213.689 382.273 212.933 381.553 211.997 381.553C211.043 381.553 210.305 382.309 210.305 383.173C210.305 384.055 211.043 384.793 211.997 384.793C212.933 384.793 213.689 384.091 213.689 383.173ZM213.473 394.999V386.035H210.521V394.999H213.473ZM221.121 388.249V386.035H219.015V383.677H216.117V386.035H214.695V388.249H216.135V392.029C216.135 393.937 216.927 395.215 219.321 395.215C219.951 395.215 220.635 395.089 221.031 394.945L220.995 392.785C220.779 392.875 220.419 392.929 220.131 392.929C219.285 392.929 219.015 392.497 219.015 391.669V388.249H221.121ZM231.58 386.035H228.448L226.666 391.795H226.612L224.614 386.035H221.338L225.082 394.855L224.794 395.593C224.506 396.367 224.2 396.799 223.282 396.799C222.994 396.799 222.616 396.727 222.328 396.637L222.004 399.121C222.436 399.229 223.066 399.319 223.624 399.319C225.874 399.319 226.846 398.221 227.566 396.349L231.58 386.035ZM247.049 386.179C247.049 383.263 244.853 382.255 242.063 382.255H237.383V394.999H240.461V390.193H241.991C244.655 390.193 247.049 389.131 247.049 386.179ZM243.971 386.197C243.971 387.403 242.909 387.745 241.757 387.745H240.461V384.739H241.811C242.909 384.739 243.971 384.973 243.971 386.197ZM257.343 390.481C257.343 387.547 255.075 385.747 252.357 385.747C249.657 385.747 247.389 387.547 247.389 390.481C247.389 393.415 249.657 395.287 252.357 395.287C255.075 395.287 257.343 393.415 257.343 390.481ZM254.499 390.481C254.499 391.633 253.761 392.803 252.375 392.803C250.989 392.803 250.251 391.633 250.251 390.481C250.251 389.329 250.971 388.195 252.357 388.195C253.743 388.195 254.499 389.329 254.499 390.481ZM268.716 390.481C268.716 387.547 266.448 385.747 263.73 385.747C261.03 385.747 258.762 387.547 258.762 390.481C258.762 393.415 261.03 395.287 263.73 395.287C266.448 395.287 268.716 393.415 268.716 390.481ZM265.872 390.481C265.872 391.633 265.134 392.803 263.748 392.803C262.362 392.803 261.624 391.633 261.624 390.481C261.624 389.329 262.344 388.195 263.73 388.195C265.116 388.195 265.872 389.329 265.872 390.481ZM273.609 394.999V381.391H270.621V394.999H273.609Z" fill="#001854"/>
<path d="M88.9103 434.999H90.0623V429.735H92.0783C94.3823 429.735 95.9343 428.727 95.9343 426.695C95.9343 424.663 94.4143 423.671 92.1102 423.671H88.9103V434.999ZM90.0623 424.663H92.0143C93.7583 424.663 94.7823 425.303 94.7823 426.695C94.7823 428.039 93.8063 428.759 92.0143 428.759H90.0623V424.663ZM97.5793 430.679C97.6753 429.399 98.7473 428.231 100.203 428.231C101.755 428.231 102.619 429.271 102.683 430.679H97.5793ZM103.787 431.031C103.787 428.983 102.555 427.319 100.203 427.319C98.0753 427.319 96.4273 428.999 96.4273 431.255C96.4273 433.511 98.0753 435.191 100.299 435.191C101.531 435.191 102.635 434.727 103.515 433.607L102.699 432.967C102.283 433.639 101.419 434.263 100.299 434.263C98.7633 434.263 97.5953 433.047 97.5633 431.543H103.771C103.787 431.351 103.787 431.175 103.787 431.031ZM106.128 429.159V434.999H107.216V431.159C107.216 429.159 108.256 428.327 109.408 428.327C109.696 428.327 110.048 428.375 110.176 428.423L110.32 427.399C110.096 427.335 109.872 427.319 109.6 427.319C108.544 427.319 107.616 427.927 107.2 428.791H107.168C107.168 428.471 107.136 427.911 107.104 427.511H106.064C106.112 428.023 106.128 428.759 106.128 429.159ZM112.965 428.791H112.933C112.933 428.471 112.901 427.911 112.869 427.511H111.829C111.877 428.023 111.893 428.759 111.893 429.159V434.999H112.981V431.159C112.981 429.159 114.117 428.231 115.157 428.231C116.613 428.231 116.965 429.175 116.965 430.631V434.999H118.053V431.015C118.053 429.623 118.613 428.231 120.181 428.231C121.589 428.231 122.117 429.287 122.117 430.855V434.999H123.205V430.407C123.205 428.551 122.261 427.319 120.357 427.319C119.157 427.319 118.245 427.879 117.733 428.903C117.237 427.623 116.245 427.319 115.429 427.319C114.357 427.319 113.397 427.927 112.965 428.791ZM127.122 427.511H126.034V434.999H127.122V427.511ZM127.346 424.631C127.346 424.183 126.962 423.863 126.578 423.863C126.194 423.863 125.81 424.183 125.81 424.631C125.81 425.079 126.194 425.399 126.578 425.399C126.962 425.399 127.346 425.079 127.346 424.631ZM134.834 428.663C134.354 427.815 133.25 427.319 132.21 427.319C130.85 427.319 129.538 427.975 129.538 429.495C129.538 430.919 130.802 431.303 131.682 431.511C133.106 431.847 133.89 432.167 133.89 432.951C133.89 433.927 133.058 434.263 132.13 434.263C131.25 434.263 130.434 433.751 130.05 433.095L129.186 433.735C129.874 434.743 131.01 435.191 132.146 435.191C133.522 435.191 134.962 434.583 134.962 432.871C134.962 431.703 134.13 431.047 132.37 430.679C131.138 430.423 130.578 430.103 130.578 429.399C130.578 428.567 131.378 428.231 132.162 428.231C132.994 428.231 133.682 428.663 134.002 429.287L134.834 428.663ZM141.944 428.663C141.464 427.815 140.36 427.319 139.32 427.319C137.96 427.319 136.648 427.975 136.648 429.495C136.648 430.919 137.912 431.303 138.792 431.511C140.216 431.847 141 432.167 141 432.951C141 433.927 140.168 434.263 139.24 434.263C138.36 434.263 137.544 433.751 137.16 433.095L136.296 433.735C136.984 434.743 138.12 435.191 139.256 435.191C140.632 435.191 142.072 434.583 142.072 432.871C142.072 431.703 141.24 431.047 139.48 430.679C138.248 430.423 137.688 430.103 137.688 429.399C137.688 428.567 138.488 428.231 139.272 428.231C140.104 428.231 140.792 428.663 141.112 429.287L141.944 428.663ZM145.341 427.511H144.253V434.999H145.341V427.511ZM145.565 424.631C145.565 424.183 145.181 423.863 144.797 423.863C144.413 423.863 144.029 424.183 144.029 424.631C144.029 425.079 144.413 425.399 144.797 425.399C145.181 425.399 145.565 425.079 145.565 424.631ZM155.677 431.255C155.677 428.999 154.013 427.319 151.677 427.319C149.357 427.319 147.693 428.999 147.693 431.255C147.693 433.511 149.357 435.191 151.677 435.191C154.013 435.191 155.677 433.511 155.677 431.255ZM154.525 431.255C154.525 432.935 153.421 434.263 151.677 434.263C149.949 434.263 148.845 432.935 148.845 431.255C148.845 429.575 149.949 428.231 151.677 428.231C153.421 428.231 154.525 429.575 154.525 431.255ZM157.954 427.511C158.002 428.023 158.018 428.759 158.018 429.159V434.999H159.106V431.159C159.106 429.159 160.226 428.231 161.378 428.231C162.946 428.231 163.41 429.287 163.41 430.855V434.999H164.498V430.407C164.498 428.551 163.554 427.319 161.65 427.319C160.594 427.319 159.506 427.927 159.09 428.791H159.058C159.058 428.471 159.026 427.911 158.994 427.511H157.954ZM168.435 422.903H167.347V434.999H168.435V422.903ZM171.954 430.679C172.05 429.399 173.122 428.231 174.578 428.231C176.13 428.231 176.994 429.271 177.058 430.679H171.954ZM178.162 431.031C178.162 428.983 176.93 427.319 174.578 427.319C172.45 427.319 170.802 428.999 170.802 431.255C170.802 433.511 172.45 435.191 174.674 435.191C175.906 435.191 177.01 434.727 177.89 433.607L177.074 432.967C176.658 433.639 175.794 434.263 174.674 434.263C173.138 434.263 171.97 433.047 171.938 431.543H178.146C178.162 431.351 178.162 431.175 178.162 431.031ZM185.319 428.663C184.839 427.815 183.735 427.319 182.695 427.319C181.335 427.319 180.023 427.975 180.023 429.495C180.023 430.919 181.287 431.303 182.167 431.511C183.591 431.847 184.375 432.167 184.375 432.951C184.375 433.927 183.543 434.263 182.615 434.263C181.735 434.263 180.919 433.751 180.535 433.095L179.671 433.735C180.359 434.743 181.495 435.191 182.631 435.191C184.007 435.191 185.447 434.583 185.447 432.871C185.447 431.703 184.615 431.047 182.855 430.679C181.623 430.423 181.062 430.103 181.062 429.399C181.062 428.567 181.863 428.231 182.647 428.231C183.479 428.231 184.167 428.663 184.487 429.287L185.319 428.663ZM192.428 428.663C191.948 427.815 190.844 427.319 189.804 427.319C188.444 427.319 187.132 427.975 187.132 429.495C187.132 430.919 188.396 431.303 189.276 431.511C190.7 431.847 191.484 432.167 191.484 432.951C191.484 433.927 190.652 434.263 189.724 434.263C188.844 434.263 188.028 433.751 187.644 433.095L186.78 433.735C187.468 434.743 188.604 435.191 189.74 435.191C191.116 435.191 192.556 434.583 192.556 432.871C192.556 431.703 191.724 431.047 189.964 430.679C188.732 430.423 188.172 430.103 188.172 429.399C188.172 428.567 188.972 428.231 189.756 428.231C190.588 428.231 191.276 428.663 191.596 429.287L192.428 428.663ZM198.785 434.999H202.145C204.753 434.999 206.369 433.751 206.369 431.863C206.369 430.215 205.281 429.191 203.809 429.031V428.999C205.009 428.727 205.809 427.751 205.809 426.567C205.809 424.295 203.889 423.671 202.161 423.671H198.785V434.999ZM199.937 424.663H201.937C203.425 424.663 204.657 425.207 204.657 426.647C204.657 428.151 203.361 428.631 202.257 428.631H199.937V424.663ZM199.937 429.575H202.289C204.129 429.575 205.201 430.311 205.201 431.799C205.201 433.383 203.745 434.007 202.081 434.007H199.937V429.575ZM210.013 422.903H208.925V434.999H210.013V422.903ZM220.364 431.255C220.364 428.999 218.7 427.319 216.364 427.319C214.044 427.319 212.38 428.999 212.38 431.255C212.38 433.511 214.044 435.191 216.364 435.191C218.7 435.191 220.364 433.511 220.364 431.255ZM219.212 431.255C219.212 432.935 218.108 434.263 216.364 434.263C214.636 434.263 213.532 432.935 213.532 431.255C213.532 429.575 214.636 428.231 216.364 428.231C218.108 428.231 219.212 429.575 219.212 431.255ZM228.946 428.615C228.306 427.751 227.17 427.319 226.162 427.319C223.746 427.319 222.162 428.999 222.162 431.255C222.162 433.511 223.746 435.191 226.162 435.191C227.458 435.191 228.37 434.679 229.01 433.895L228.194 433.287C227.762 433.863 227.106 434.263 226.162 434.263C224.418 434.263 223.314 432.951 223.314 431.255C223.314 429.543 224.434 428.231 226.178 428.231C226.994 428.231 227.746 428.647 228.098 429.223L228.946 428.615ZM231.826 422.903H230.738V434.999H231.826V431.063H231.874L235.682 434.999H237.282L233.122 430.935L236.898 427.511H235.33L231.874 430.887H231.826V422.903ZM245.102 428.615C244.462 427.751 243.326 427.319 242.318 427.319C239.902 427.319 238.318 428.999 238.318 431.255C238.318 433.511 239.902 435.191 242.318 435.191C243.614 435.191 244.526 434.679 245.166 433.895L244.35 433.287C243.918 433.863 243.262 434.263 242.318 434.263C240.574 434.263 239.47 432.951 239.47 431.255C239.47 429.543 240.59 428.231 242.334 428.231C243.15 428.231 243.902 428.647 244.254 429.223L245.102 428.615ZM247.982 428.743V422.903H246.894V434.999H247.982V431.159C247.982 429.159 249.102 428.231 250.254 428.231C251.822 428.231 252.286 429.287 252.286 430.855V434.999H253.374V430.407C253.374 428.551 252.43 427.319 250.526 427.319C249.47 427.319 248.414 427.879 248.014 428.743H247.982ZM260.91 430.407C258.174 430.407 255.63 430.615 255.63 432.919C255.63 434.583 257.086 435.191 258.222 435.191C259.422 435.191 260.254 434.775 260.942 433.783H260.974C260.974 434.183 261.022 434.631 261.086 434.999H262.062C261.982 434.583 261.934 433.895 261.934 433.319V430.039C261.934 428.215 260.638 427.319 259.022 427.319C257.742 427.319 256.686 427.783 256.078 428.391L256.686 429.111C257.214 428.583 258.03 428.231 258.91 428.231C260.206 428.231 260.91 428.871 260.91 430.167V430.407ZM260.91 431.255V431.815C260.91 433.143 260.046 434.295 258.51 434.295C257.662 434.295 256.75 433.943 256.75 432.871C256.75 431.447 258.814 431.255 260.59 431.255H260.91ZM265.841 427.511H264.753V434.999H265.841V427.511ZM266.065 424.631C266.065 424.183 265.681 423.863 265.297 423.863C264.913 423.863 264.529 424.183 264.529 424.631C264.529 425.079 264.913 425.399 265.297 425.399C265.681 425.399 266.065 425.079 266.065 424.631ZM268.673 427.511C268.721 428.023 268.737 428.759 268.737 429.159V434.999H269.825V431.159C269.825 429.159 270.945 428.231 272.097 428.231C273.665 428.231 274.129 429.287 274.129 430.855V434.999H275.217V430.407C275.217 428.551 274.273 427.319 272.369 427.319C271.313 427.319 270.225 427.927 269.809 428.791H269.777C269.777 428.471 269.745 427.911 269.713 427.511H268.673Z" fill="#5A70A6"/>
<path d="M74 780C101.614 780 124 757.614 124 730C124 702.386 101.614 680 74 680C46.3858 680 24 702.386 24 730C24 757.614 46.3858 780 74 780Z" fill="#E3F2FF"/>
<path d="M69.0886 712.51H78.9116V728.216H69.0886V712.51Z" fill="#001854"/>
<path d="M82.0105 728.226H65.9896C65.1808 728.226 64.5278 728.894 64.5278 729.721C64.5278 730.548 65.1808 731.216 65.9896 731.216H82.0202C82.8291 731.216 83.482 730.548 83.482 729.721C83.4722 728.894 82.8193 728.226 82.0105 728.226Z" fill="#001854"/>
<path d="M90.4983 724.001H57.5016C55.689 724.001 54.2272 722.506 54.2272 720.652V698.349C54.2272 696.495 55.689 695 57.5016 695H90.4983C92.3109 695 93.7727 696.495 93.7727 698.349V720.652C93.7727 722.496 92.3109 724.001 90.4983 724.001Z" fill="white"/>
<path d="M93.7727 721.011H54.2272C54.2272 722.665 55.5331 724.001 57.1508 724.001H90.8589C92.4668 724.001 93.7727 722.665 93.7727 721.011ZM90.8492 695H57.1508C55.5331 695 54.2272 696.335 54.2272 697.99H93.7727C93.7727 696.335 92.4669 695 90.8492 695Z" fill="#4AABF4"/>
<path d="M86.6101 700.75L89.9429 704.158L91.1318 699.823L86.6101 700.75Z" fill="#001854"/>
<path d="M58.3494 719.417C58.1642 719.417 57.9791 719.347 57.8427 719.197C57.5601 718.908 57.5601 718.44 57.8427 718.161L61.9648 713.945C62.2474 713.656 62.7054 713.656 62.9783 713.945L66.2721 717.314L73.2593 710.168C73.3958 710.029 73.5809 709.949 73.7661 709.949C73.961 709.949 74.1364 710.029 74.2728 710.168L77.0404 712.998L88.3447 701.438C88.6273 701.149 89.0853 701.149 89.3582 701.438C89.6408 701.727 89.6408 702.195 89.3582 702.474L77.5569 714.563C77.4205 714.703 77.2353 714.782 77.0502 714.782C76.8553 714.782 76.6799 714.703 76.5434 714.563L73.7758 711.733L66.7886 718.878C66.506 719.167 66.048 719.167 65.7751 718.878L62.4813 715.51L58.8659 719.207C58.7197 719.347 58.5346 719.417 58.3494 719.417Z" fill="#001854"/>
<path d="M59.5154 748.351C59.5154 746.587 56.4454 745.663 53.412 745.663C50.3803 745.663 47.3112 746.587 47.3112 748.351C47.3112 748.499 47.3053 748.582 47.3195 748.743C47.337 748.903 47.3419 748.987 47.3877 749.233C47.4892 749.809 47.7139 750.881 48.1475 752.166C46.6329 751.643 45.8107 751.124 45.7691 750.883C45.8248 750.776 46.1003 750.659 46.5896 750.574L46.3375 749.815C45.6193 749.967 45.0933 750.247 45.0101 750.737C44.8528 751.693 46.5547 752.519 48.4921 753.113C48.8774 754.107 49.3842 755.18 50.0425 756.226C48.2515 756.048 47.2779 755.682 47.1089 755.455C47.2038 755.314 47.5641 755.134 48.1617 754.963L47.8063 754.248C46.9242 754.532 46.3158 754.927 46.3242 755.468C46.3416 756.582 48.8582 756.949 50.6142 757.069C51.1951 757.868 51.8725 758.631 52.6622 759.314C52.5224 759.336 52.3851 759.357 52.2503 759.374C50.8164 759.558 50.1906 759.414 50.0167 759.32C50.1024 759.179 50.3853 758.96 50.8472 758.708L50.2888 758.149C49.6147 758.552 49.1478 759.019 49.2685 759.514C49.4275 760.168 50.4627 760.377 52.3435 760.135C52.6988 760.09 53.0758 760.026 53.462 759.949C54.0928 760.403 54.7844 760.806 55.5458 761.136C55.7372 761.217 56.4296 761.487 57.132 761.487C57.5473 761.487 57.9659 761.393 58.2863 761.111C58.7515 760.705 58.8846 760.046 58.6849 759.151C58.6125 758.827 58.5509 758.457 58.4977 758.057C58.9196 757.729 59.1692 757.368 59.0752 756.99C59.0061 756.704 58.7648 756.504 58.3578 756.389C58.3545 756.317 58.3512 756.244 58.3479 756.17C58.7923 755.928 59.0619 755.632 59.0577 755.269C59.0536 754.905 58.7748 754.622 58.3479 754.4C58.3529 754.268 58.3578 754.135 58.3645 754.001C58.8022 753.835 59.0993 753.588 59.1593 753.229C59.2233 752.84 58.977 752.473 58.5359 752.135C58.6932 750.98 58.9529 749.901 59.334 749.052C59.4497 748.836 59.5154 748.602 59.5154 748.351ZM53.412 746.725C56.5079 746.725 58.4827 747.688 58.4827 748.35C58.4827 748.394 58.4727 748.439 58.4552 748.486L58.4535 748.484C58.4461 748.502 58.4361 748.521 58.4277 748.54C58.1057 749.182 56.2232 749.977 53.412 749.977C50.3179 749.977 48.3414 749.013 48.3414 748.35C48.3414 747.688 50.3179 746.725 53.412 746.725ZM48.631 750.085C49.8086 750.715 51.6153 751.039 53.412 751.039C55.039 751.039 56.6751 750.774 57.8435 750.255C57.5972 751.239 57.4449 752.328 57.365 753.425C56.5719 753.532 55.3211 753.555 53.5835 753.355C53.0351 753.292 52.4667 753.208 51.8991 753.108C50.9662 752.944 50.1373 752.753 49.4066 752.554C49.048 751.614 48.7983 750.756 48.631 750.085ZM52.0006 757.126C52.0406 757.126 52.0797 757.126 52.113 757.126C52.311 757.127 52.5133 757.127 52.7163 757.124C54.0745 757.102 55.9702 756.951 57.3359 756.563C57.3584 757.006 57.3908 757.431 57.4358 757.83C56.7567 758.189 55.7156 758.61 54.345 758.962C54.2334 758.991 54.1244 759.017 54.0154 759.043C53.2481 758.479 52.5798 757.826 52.0006 757.126ZM57.6813 759.389C57.7828 759.846 57.7603 760.179 57.6197 760.302C57.3401 760.547 56.4612 760.373 55.9411 760.156C55.5675 759.995 55.2154 759.811 54.8776 759.612C55.4668 759.447 56.5977 759.098 57.5406 758.636C57.5831 758.905 57.6297 759.16 57.6813 759.389ZM57.3059 755.751C56.3739 756.032 54.8102 756.294 52.7055 756.328C52.5074 756.331 52.311 756.332 52.118 756.33C51.86 756.329 51.6153 756.322 51.379 756.313C50.7224 755.384 50.1981 754.406 49.7845 753.472C50.4877 753.646 51.1718 753.789 51.7668 753.894C52.351 753.996 52.9319 754.081 53.4969 754.146C54.4207 754.253 56.046 754.392 57.3217 754.235C57.3026 754.748 57.2968 755.257 57.3059 755.751Z" fill="#4AABF4"/>
<path d="M68.2303 751.324L62.0578 746.625C61.5119 746.21 60.6206 746.21 60.0738 746.625L59.6328 746.962C59.9207 747.279 60.088 747.595 60.1238 747.871C60.1753 748.256 60.1171 748.787 60.0464 748.988C59.6327 750.059 59.4671 750.571 59.2824 751.907C59.6186 752.25 59.8633 752.715 59.81 753.168C59.7376 753.793 59.4222 754.061 59.0743 754.249C59.2574 754.357 59.3798 754.489 59.473 754.627C59.5004 754.624 59.5279 754.618 59.5587 754.618H62.5746C62.6869 754.618 62.7951 754.642 62.8933 754.685C63.1879 754.814 63.396 755.116 63.396 755.465V761.486H63.3976H65.1403H67.1684C68.3027 761.486 69.2231 760.59 69.2231 759.485V753.72V753.27V753.225V752.675V752.674C69.2223 752.346 68.7745 751.739 68.2303 751.324Z" fill="#001854"/>
<path d="M70.8618 748.468L67.5596 745.964V742.98C67.5596 742.513 67.1909 742.133 66.7374 742.133H65.4C64.9465 742.133 64.5778 742.513 64.5778 742.98V743.705L62.0596 741.796C61.5136 741.383 60.6198 741.383 60.0722 741.796L55.5567 745.218C57.0339 745.406 58.154 745.845 58.9138 746.355L60.0722 745.478C60.6198 745.064 61.5136 745.064 62.0596 745.478L69.1558 750.854C69.7034 751.268 70.479 751.146 70.8809 750.584L71.1248 750.244C71.5276 749.68 71.4085 748.881 70.8618 748.468Z" fill="#4AABF4"/>
<path d="M92.8627 765L92.5313 761.936C92.5139 761.765 92.3772 761.528 92.2305 761.41L88.9507 758.8C88.8032 758.681 88.5174 758.587 88.3144 758.593C88.3144 758.593 86.7155 758.618 89.4618 761.365L87.0005 760.244C86.8223 760.162 86.6799 759.954 86.6848 759.781L86.7594 757.226C86.6426 755.945 85.6203 756.122 85.6203 756.122C85.4231 756.156 85.2466 756.324 85.2267 756.498L84.7479 760.7C84.7288 760.872 84.8158 761.123 84.9434 761.256L88.5099 765H92.8627ZM99.2335 765L102.8 761.256C102.928 761.123 103.017 760.872 102.997 760.7L102.52 756.498C102.501 756.324 102.323 756.156 102.125 756.122C102.125 756.122 101.103 755.945 100.984 757.226L101.06 759.781C101.067 759.954 100.923 760.162 100.745 760.244L98.2816 761.365C101.029 758.618 99.4307 758.593 99.4307 758.593C99.2269 758.587 98.9402 758.681 98.7928 758.8L95.5129 761.41C95.3654 761.529 95.2296 761.765 95.2105 761.936L94.8824 765H99.2335ZM87.8422 757.483H99.9021C99.9021 755.782 98.5625 754.401 96.9122 754.401H95.0109C94.9446 754.143 94.8584 753.884 94.7507 753.631L94.6604 753.423C94.6281 753.354 94.5892 753.288 94.5552 753.221C94.4889 753.085 94.4061 752.956 94.3257 752.829C94.2445 752.702 94.1526 752.583 94.0639 752.464C93.967 752.352 93.8775 752.238 93.7723 752.137C93.5751 751.929 93.3548 751.753 93.1394 751.604C93.0002 751.51 92.861 751.43 92.7235 751.361C92.8883 750.124 92.9066 747.263 89.8611 746.141C88.0899 745.487 87.1189 746.128 84.9649 745.44C83.8034 745.068 84.7446 753.784 91.7591 752.184C91.7641 752.193 91.7674 752.2 91.7724 752.207C91.866 752.368 91.9646 752.536 92.0607 752.713C92.1543 752.891 92.2546 753.071 92.3457 753.264C92.3962 753.356 92.4377 753.458 92.4865 753.553C92.5089 753.601 92.5321 753.652 92.5545 753.702C92.5785 753.752 92.605 753.799 92.6241 753.851C92.6696 753.951 92.716 754.052 92.7599 754.155C92.7955 754.236 92.8295 754.318 92.8651 754.401H90.8346C89.1818 754.401 87.8422 755.782 87.8422 757.483Z" fill="#001854"/>
<path d="M99.3184 744.044C97.5506 745.085 96.567 744.722 95.1301 745.652C91.9328 747.724 93.8215 751.297 93.8215 751.297C101.202 751.929 100.311 743.46 99.3184 744.044ZM97.8448 747.884C97.3239 748.65 96.7362 749.512 94.7242 750.105C94.7242 750.105 97.5422 747.902 98.7241 745.551C98.7241 745.551 98.3674 747.118 97.8448 747.884ZM94.3549 741.602C93.6581 740.084 92.6729 739.861 91.7619 738.078C91.251 737.077 86.2233 743.502 92.5529 746.889C92.5529 746.89 95.9044 744.98 94.3549 741.602ZM91.0109 741.983C90.9734 741.084 91.481 739.621 91.481 739.621C91.2468 742.159 92.4237 745.445 92.4237 745.445C91.0859 743.898 91.0467 742.883 91.0109 741.983Z" fill="#4AABF4"/>
<path d="M37.0094 823L33.6794 817.546C35.3174 817.042 36.3254 815.818 36.3254 814.108C36.3254 811.192 33.8954 810.256 31.4474 810.256H26.5874V823H29.6114V817.942H30.6554L33.4094 823H37.0094ZM33.2834 814.162C33.2834 815.458 32.0414 815.71 31.0514 815.71H29.5934V812.74H31.2314C32.1494 812.74 33.2834 812.974 33.2834 814.162ZM41.565 811.174C41.565 810.274 40.809 809.554 39.873 809.554C38.919 809.554 38.181 810.31 38.181 811.174C38.181 812.056 38.919 812.794 39.873 812.794C40.809 812.794 41.565 812.092 41.565 811.174ZM41.349 823V814.036H38.397V823H41.349ZM50.5812 815.008C49.6992 814.18 48.3132 813.748 46.9812 813.748C45.2712 813.748 43.2552 814.612 43.2552 816.754C43.2552 818.446 44.6232 819.076 45.8652 819.364C47.0892 819.652 47.6472 819.832 47.6472 820.39C47.6472 820.966 47.0712 821.164 46.5852 821.164C45.7212 821.164 44.9112 820.732 44.3892 820.156L42.7332 821.902C43.6692 822.802 45.1812 823.288 46.6392 823.288C48.4752 823.288 50.4732 822.496 50.4732 820.228C50.4732 818.482 48.9792 817.798 47.6112 817.492C46.4592 817.24 45.9732 817.096 45.9732 816.592C45.9732 816.07 46.5312 815.872 47.0892 815.872C47.8092 815.872 48.4932 816.232 48.9612 816.682L50.5812 815.008ZM58.2074 818.086L61.6634 814.036H58.0814L55.2194 817.672H55.1654V809.392H52.1954V823H55.1654V818.698H55.2194L58.1534 823H61.8074L58.2074 818.086ZM82.1065 823V810.256H77.6605L74.8885 818.428H74.8165L71.9185 810.256H67.5445V823H70.4425L70.3705 813.982H70.4245L73.6465 823H75.8065L79.1185 813.982H79.1725L79.1005 823H82.1065ZM94.0779 818.482C94.0779 815.548 91.8099 813.748 89.0919 813.748C86.3919 813.748 84.1239 815.548 84.1239 818.482C84.1239 821.416 86.3919 823.288 89.0919 823.288C91.8099 823.288 94.0779 821.416 94.0779 818.482ZM91.2339 818.482C91.2339 819.634 90.4959 820.804 89.1099 820.804C87.7239 820.804 86.9859 819.634 86.9859 818.482C86.9859 817.33 87.7059 816.196 89.0919 816.196C90.4779 816.196 91.2339 817.33 91.2339 818.482ZM105.451 823V809.392H102.499V814.99H102.463C101.959 814.396 101.041 813.784 99.7269 813.784C97.1169 813.784 95.4969 815.98 95.4969 818.482C95.4969 820.984 97.0629 823.252 99.7629 823.252C100.951 823.252 102.121 822.73 102.697 821.83H102.733V823H105.451ZM102.625 818.5C102.625 819.67 101.797 820.804 100.465 820.804C99.0609 820.804 98.3409 819.652 98.3409 818.482C98.3409 817.33 99.0609 816.196 100.465 816.196C101.797 816.196 102.625 817.366 102.625 818.5ZM110.171 817.492C110.243 816.574 111.071 815.782 112.205 815.782C113.375 815.782 113.969 816.556 113.969 817.492H110.171ZM116.687 818.626C116.687 815.566 114.833 813.748 112.187 813.748C109.469 813.748 107.345 815.62 107.345 818.554C107.345 821.578 109.577 823.288 112.277 823.288C114.095 823.288 115.499 822.604 116.345 821.38L114.293 820.084C113.897 820.624 113.249 821.02 112.313 821.02C111.251 821.02 110.261 820.318 110.171 819.328H116.669C116.687 819.112 116.687 818.86 116.687 818.626ZM121.541 823V809.392H118.553V823H121.541ZM11.3452 844.18C11.3452 841.264 9.14924 840.256 6.35923 840.256H1.67923V853H4.75723V848.194H6.28723C8.95123 848.194 11.3452 847.132 11.3452 844.18ZM8.26723 844.198C8.26723 845.404 7.20523 845.746 6.05323 845.746H4.75723V842.74H6.10723C7.20523 842.74 8.26723 842.974 8.26723 844.198ZM18.1975 843.856C18.0535 843.802 17.8015 843.784 17.5675 843.784C16.4695 843.784 15.5875 844.432 15.1375 845.332H15.1015V844.036H12.2575V853H15.2095V848.392C15.2095 847.654 15.7315 846.358 17.3155 846.358C17.5495 846.358 17.8015 846.376 18.0715 846.448L18.1975 843.856ZM28.5818 848.482C28.5818 845.548 26.3138 843.748 23.5958 843.748C20.8958 843.748 18.6278 845.548 18.6278 848.482C18.6278 851.416 20.8958 853.288 23.5958 853.288C26.3138 853.288 28.5818 851.416 28.5818 848.482ZM25.7378 848.482C25.7378 849.634 24.9998 850.804 23.6138 850.804C22.2278 850.804 21.4898 849.634 21.4898 848.482C21.4898 847.33 22.2098 846.196 23.5958 846.196C24.9818 846.196 25.7378 847.33 25.7378 848.482ZM39.5228 844.036H36.3728L34.4828 849.85H34.4288L32.5388 844.036H29.2808L32.8088 853H35.9948L39.5228 844.036ZM43.8677 841.174C43.8677 840.274 43.1117 839.554 42.1757 839.554C41.2217 839.554 40.4837 840.31 40.4837 841.174C40.4837 842.056 41.2217 842.794 42.1757 842.794C43.1117 842.794 43.8677 842.092 43.8677 841.174ZM43.6517 853V844.036H40.6997V853H43.6517ZM55.4939 853V839.392H52.5419V844.99H52.5059C52.0019 844.396 51.0839 843.784 49.7699 843.784C47.1599 843.784 45.5399 845.98 45.5399 848.482C45.5399 850.984 47.1059 853.252 49.8059 853.252C50.9939 853.252 52.1639 852.73 52.7399 851.83H52.7759V853H55.4939ZM52.6679 848.5C52.6679 849.67 51.8399 850.804 50.5079 850.804C49.1039 850.804 48.3839 849.652 48.3839 848.482C48.3839 847.33 49.1039 846.196 50.5079 846.196C51.8399 846.196 52.6679 847.366 52.6679 848.5ZM60.2135 847.492C60.2855 846.574 61.1135 845.782 62.2475 845.782C63.4175 845.782 64.0115 846.556 64.0115 847.492H60.2135ZM66.7295 848.626C66.7295 845.566 64.8755 843.748 62.2295 843.748C59.5115 843.748 57.3875 845.62 57.3875 848.554C57.3875 851.578 59.6195 853.288 62.3195 853.288C64.1375 853.288 65.5415 852.604 66.3875 851.38L64.3355 850.084C63.9395 850.624 63.2915 851.02 62.3555 851.02C61.2935 851.02 60.3035 850.318 60.2135 849.328H66.7115C66.7295 849.112 66.7295 848.86 66.7295 848.626ZM74.5002 843.856C74.3562 843.802 74.1042 843.784 73.8702 843.784C72.7722 843.784 71.8902 844.432 71.4402 845.332H71.4042V844.036H68.5602V853H71.5122V848.392C71.5122 847.654 72.0342 846.358 73.6182 846.358C73.8522 846.358 74.1042 846.376 74.3742 846.448L74.5002 843.856ZM82.5909 845.008C81.7089 844.18 80.3229 843.748 78.9909 843.748C77.2809 843.748 75.2649 844.612 75.2649 846.754C75.2649 848.446 76.6329 849.076 77.8749 849.364C79.0989 849.652 79.6569 849.832 79.6569 850.39C79.6569 850.966 79.0809 851.164 78.5949 851.164C77.7309 851.164 76.9209 850.732 76.3989 850.156L74.7429 851.902C75.6789 852.802 77.1909 853.288 78.6489 853.288C80.4849 853.288 82.4829 852.496 82.4829 850.228C82.4829 848.482 80.9889 847.798 79.6209 847.492C78.4689 847.24 77.9829 847.096 77.9829 846.592C77.9829 846.07 78.5409 845.872 79.0989 845.872C79.8189 845.872 80.5029 846.232 80.9709 846.682L82.5909 845.008ZM90.5052 839.986L88.4712 839.284L82.9092 853.27L84.9432 853.936L90.5052 839.986ZM110.882 853V840.256H106.436L103.664 848.428H103.592L100.694 840.256H96.3199V853H99.2179L99.1459 843.982H99.1999L102.422 853H104.582L107.894 843.982H107.948L107.876 853H110.882ZM124.833 852.226V845.476H119.577V847.96H122.007V850.282C121.467 850.516 120.801 850.624 120.081 850.624C117.579 850.624 116.193 848.95 116.193 846.61C116.193 844.324 117.777 842.632 119.937 842.632C121.179 842.632 122.205 843.136 122.799 843.82L124.743 841.606C123.681 840.58 121.827 839.914 119.829 839.914C115.941 839.914 112.917 842.524 112.917 846.61C112.917 850.624 115.851 853.324 119.919 853.324C121.881 853.324 123.591 852.874 124.833 852.226ZM139.405 853L134.113 840.256H131.125L125.779 853H129.127L130.063 850.498H134.995L135.985 853H139.405ZM134.149 848.032H130.945L132.565 843.658L134.149 848.032ZM147.191 845.008C146.309 844.18 144.923 843.748 143.591 843.748C141.881 843.748 139.865 844.612 139.865 846.754C139.865 848.446 141.233 849.076 142.475 849.364C143.699 849.652 144.257 849.832 144.257 850.39C144.257 850.966 143.681 851.164 143.195 851.164C142.331 851.164 141.521 850.732 140.999 850.156L139.343 851.902C140.279 852.802 141.791 853.288 143.249 853.288C145.085 853.288 147.083 852.496 147.083 850.228C147.083 848.482 145.589 847.798 144.221 847.492C143.069 847.24 142.583 847.096 142.583 846.592C142.583 846.07 143.141 845.872 143.699 845.872C144.419 845.872 145.103 846.232 145.571 846.682L147.191 845.008Z" fill="#001854"/>
<path d="M290 780C317.614 780 340 757.614 340 730C340 702.386 317.614 680 290 680C262.386 680 240 702.386 240 730C240 757.614 262.386 780 290 780Z" fill="#E3F2FF"/>
<path d="M285.344 728.742V751.186H294.656V728.742H285.344ZM267.521 728.742V751.186H276.833V728.742H267.521ZM303.373 728.742V751.186H312.686V728.742H303.373Z" fill="#B9DEFF"/>
<path d="M285.344 747.451V751.186H294.656V747.451H285.344ZM303.373 747.451V751.186H312.686V747.451H303.373ZM273.237 747.451C271.571 747.453 270.637 749.874 271.665 751.186H276.833V747.451H273.237Z" fill="#B9DEFF"/>
<path d="M264.873 723.506V728C264.873 729.108 265.765 730 266.873 730H277.311C278.419 730 279.311 729.108 279.311 728V723.506H264.873ZM300.811 723.506V728C300.811 729.108 301.703 730 302.811 730H313.248C314.356 730 315.248 729.108 315.248 728V723.506H300.811ZM282.781 723.506V728C282.781 729.108 283.673 730 284.781 730H295.219C296.327 730 297.219 729.108 297.219 728V723.506H282.781Z" fill="#001854"/>
<path d="M263 750.686H317C318.662 750.686 320 752.024 320 753.686V757C320 758.662 318.662 760 317 760H263C261.338 760 260 758.662 260 757V753.686C260 752.024 261.338 750.686 263 750.686Z" fill="#4AABF4"/>
<path d="M264.873 723.507V726.782H279.31V723.507H264.873ZM282.781 723.507V726.782H297.218V723.507H282.781ZM300.81 723.507V726.782H309.723C312.039 726.782 311.778 723.507 309.723 723.507H300.81Z" fill="#001854"/>
<path d="M316.634 720.005C316.167 720.866 315.472 720.92 314.655 720.935H269.228C267.659 720.937 266.703 722.662 267.533 723.993H314.999C317.538 723.993 319.618 722.118 319.948 719.673C318.675 718.514 317.201 718.689 316.634 720.005Z" fill="#4AABF4"/>
<path d="M286.374 701.551C276.238 707.255 266.614 712.624 260 716.443V718.993C260 721.763 262.23 723.993 265 723.993H314.999C317.769 723.993 319.999 721.763 319.999 718.993V716.443C311.628 711.739 303.926 707.481 293.852 701.618C290.159 699.486 290 699.458 286.374 701.551Z" fill="#4AABF4"/>
<path d="M289.465 718.777C292.149 718.777 294.325 716.601 294.325 713.917C294.325 711.233 292.149 709.057 289.465 709.057C286.78 709.057 284.604 711.233 284.604 713.917C284.604 716.601 286.78 718.777 289.465 718.777Z" fill="#E3F2FF"/>
<path d="M291.226 714.351C291.003 715.493 290.017 715.788 289.255 715.74C287.896 715.585 286.786 716.81 287.074 718.148C287.804 718.561 288.628 718.778 289.466 718.779C292.151 718.779 294.328 716.602 294.328 713.917C294.326 713.673 294.307 713.429 294.269 713.187C292.842 712.254 291.409 713.21 291.226 714.351Z" fill="white"/>
<path d="M268.172 756.951C267.816 756.952 267.467 757.047 267.16 757.227C266.854 757.408 266.601 757.666 266.428 757.977C266.254 758.288 266.167 758.639 266.174 758.995C266.182 759.35 266.284 759.697 266.471 760H317C318.662 760 320 758.662 320 757V756.951L268.172 756.951Z" fill="#4AABF4"/>
<path d="M261.293 823V820.318H256.361V810.256H253.265V823H261.293ZM265.782 811.174C265.782 810.274 265.026 809.554 264.09 809.554C263.136 809.554 262.398 810.31 262.398 811.174C262.398 812.056 263.136 812.794 264.09 812.794C265.026 812.794 265.782 812.092 265.782 811.174ZM265.566 823V814.036H262.614V823H265.566ZM277.408 827.32V814.036H274.618V815.134H274.564C274.024 814.414 273.016 813.784 271.684 813.784C269.074 813.784 267.454 815.98 267.454 818.482C267.454 820.984 269.002 823.252 271.72 823.252C272.818 823.252 273.862 822.784 274.438 822.01H274.474V827.32H277.408ZM274.582 818.5C274.582 819.67 273.754 820.804 272.422 820.804C271.018 820.804 270.298 819.652 270.298 818.482C270.298 817.33 271.018 816.196 272.422 816.196C273.754 816.196 274.582 817.366 274.582 818.5ZM288.482 823V814.036H285.53V818.878C285.53 819.904 284.972 820.804 283.946 820.804C282.866 820.804 282.614 819.904 282.614 818.896V814.036H279.644V819.58C279.644 821.38 280.49 823.252 282.902 823.252C284.162 823.252 285.188 822.55 285.602 821.758H285.638V823H288.482ZM293.995 811.174C293.995 810.274 293.239 809.554 292.303 809.554C291.349 809.554 290.611 810.31 290.611 811.174C290.611 812.056 291.349 812.794 292.303 812.794C293.239 812.794 293.995 812.092 293.995 811.174ZM293.779 823V814.036H290.827V823H293.779ZM305.621 823V809.392H302.669V814.99H302.633C302.129 814.396 301.211 813.784 299.897 813.784C297.287 813.784 295.667 815.98 295.667 818.482C295.667 820.984 297.233 823.252 299.933 823.252C301.121 823.252 302.291 822.73 302.867 821.83H302.903V823H305.621ZM302.795 818.5C302.795 819.67 301.967 820.804 300.635 820.804C299.231 820.804 298.511 819.652 298.511 818.482C298.511 817.33 299.231 816.196 300.635 816.196C301.967 816.196 302.795 817.366 302.795 818.5ZM311.169 811.174C311.169 810.274 310.413 809.554 309.477 809.554C308.523 809.554 307.785 810.31 307.785 811.174C307.785 812.056 308.523 812.794 309.477 812.794C310.413 812.794 311.169 812.092 311.169 811.174ZM310.953 823V814.036H308V823H310.953ZM318.601 816.25V814.036H316.495V811.678H313.597V814.036H312.175V816.25H313.615V820.03C313.615 821.938 314.407 823.216 316.801 823.216C317.431 823.216 318.115 823.09 318.511 822.946L318.475 820.786C318.259 820.876 317.899 820.93 317.611 820.93C316.765 820.93 316.495 820.498 316.495 819.67V816.25H318.601ZM329.06 814.036H325.928L324.146 819.796H324.092L322.094 814.036H318.818L322.562 822.856L322.274 823.594C321.986 824.368 321.68 824.8 320.762 824.8C320.474 824.8 320.096 824.728 319.808 824.638L319.484 827.122C319.916 827.23 320.546 827.32 321.104 827.32C323.354 827.32 324.326 826.222 325.046 824.35L329.06 814.036ZM260.145 844.18C260.145 841.264 257.949 840.256 255.159 840.256H250.479V853H253.557V848.194H255.087C257.751 848.194 260.145 847.132 260.145 844.18ZM257.067 844.198C257.067 845.404 256.005 845.746 254.853 845.746H253.557V842.74H254.907C256.005 842.74 257.067 842.974 257.067 844.198ZM266.997 843.856C266.853 843.802 266.601 843.784 266.367 843.784C265.269 843.784 264.387 844.432 263.937 845.332H263.901V844.036H261.057V853H264.009V848.392C264.009 847.654 264.531 846.358 266.115 846.358C266.349 846.358 266.601 846.376 266.871 846.448L266.997 843.856ZM277.382 848.482C277.382 845.548 275.114 843.748 272.396 843.748C269.696 843.748 267.428 845.548 267.428 848.482C267.428 851.416 269.696 853.288 272.396 853.288C275.114 853.288 277.382 851.416 277.382 848.482ZM274.538 848.482C274.538 849.634 273.8 850.804 272.414 850.804C271.028 850.804 270.29 849.634 270.29 848.482C270.29 847.33 271.01 846.196 272.396 846.196C273.782 846.196 274.538 847.33 274.538 848.482ZM288.323 844.036H285.173L283.283 849.85H283.229L281.339 844.036H278.081L281.609 853H284.795L288.323 844.036ZM292.668 841.174C292.668 840.274 291.912 839.554 290.976 839.554C290.022 839.554 289.284 840.31 289.284 841.174C289.284 842.056 290.022 842.794 290.976 842.794C291.912 842.794 292.668 842.092 292.668 841.174ZM292.452 853V844.036H289.5V853H292.452ZM304.294 853V839.392H301.342V844.99H301.306C300.802 844.396 299.884 843.784 298.57 843.784C295.96 843.784 294.34 845.98 294.34 848.482C294.34 850.984 295.906 853.252 298.606 853.252C299.794 853.252 300.964 852.73 301.54 851.83H301.576V853H304.294ZM301.468 848.5C301.468 849.67 300.64 850.804 299.308 850.804C297.904 850.804 297.184 849.652 297.184 848.482C297.184 847.33 297.904 846.196 299.308 846.196C300.64 846.196 301.468 847.366 301.468 848.5ZM309.013 847.492C309.085 846.574 309.913 845.782 311.047 845.782C312.217 845.782 312.811 846.556 312.811 847.492H309.013ZM315.529 848.626C315.529 845.566 313.675 843.748 311.029 843.748C308.311 843.748 306.187 845.62 306.187 848.554C306.187 851.578 308.419 853.288 311.119 853.288C312.937 853.288 314.341 852.604 315.187 851.38L313.135 850.084C312.739 850.624 312.091 851.02 311.155 851.02C310.093 851.02 309.103 850.318 309.013 849.328H315.511C315.529 849.112 315.529 848.86 315.529 848.626ZM323.3 843.856C323.156 843.802 322.904 843.784 322.67 843.784C321.572 843.784 320.69 844.432 320.24 845.332H320.204V844.036H317.36V853H320.312V848.392C320.312 847.654 320.834 846.358 322.418 846.358C322.652 846.358 322.904 846.376 323.174 846.448L323.3 843.856ZM331.391 845.008C330.509 844.18 329.123 843.748 327.791 843.748C326.081 843.748 324.065 844.612 324.065 846.754C324.065 848.446 325.433 849.076 326.675 849.364C327.899 849.652 328.457 849.832 328.457 850.39C328.457 850.966 327.881 851.164 327.395 851.164C326.531 851.164 325.721 850.732 325.199 850.156L323.543 851.902C324.479 852.802 325.991 853.288 327.449 853.288C329.285 853.288 331.283 852.496 331.283 850.228C331.283 848.482 329.789 847.798 328.421 847.492C327.269 847.24 326.783 847.096 326.783 846.592C326.783 846.07 327.341 845.872 327.899 845.872C328.619 845.872 329.303 846.232 329.771 846.682L331.391 845.008Z" fill="#001854"/>
<defs>
<linearGradient id="paint0_linear" x1="46.1593" y1="38.8807" x2="141.255" y2="18.6084" gradientUnits="userSpaceOnUse">
<stop stop-color="#30BAC6"/>
<stop offset="1" stop-color="#B6509E"/>
</linearGradient>
<linearGradient id="paint1_linear" x1="47.9409" y1="45.8669" x2="143.765" y2="33.7887" gradientUnits="userSpaceOnUse">
<stop stop-color="#30BAC6"/>
<stop offset="1" stop-color="#B6509E"/>
</linearGradient>
<linearGradient id="paint2_linear" x1="45.451" y1="36.0762" x2="140.521" y2="15.7731" gradientUnits="userSpaceOnUse">
<stop stop-color="#30BAC6"/>
<stop offset="1" stop-color="#B6509E"/>
</linearGradient>
<linearGradient id="paint3_linear" x1="43.7847" y1="29.6029" x2="138.865" y2="9.27317" gradientUnits="userSpaceOnUse">
<stop stop-color="#30BAC6"/>
<stop offset="1" stop-color="#B6509E"/>
</linearGradient>
</defs>
</svg>
