<svg width="908" height="200" viewBox="0 0 908 200" fill="none" xmlns="http://www.w3.org/2000/svg">
<path d="M70 170C108.66 170 140 138.66 140 100C140 61.3401 108.66 30 70 30C31.3401 30 0 61.3401 0 100C0 138.66 31.3401 170 70 170Z" fill="#E3F2FF"/>
<path d="M63.124 75.514H76.8762V97.5029H63.124V75.514Z" fill="#001854"/>
<path d="M81.2146 97.5168H58.7854C57.653 97.5168 56.739 98.4517 56.739 99.6097C56.739 100.768 57.653 101.703 58.7854 101.703H81.2283C82.3607 101.703 83.2748 100.768 83.2748 99.6097C83.2611 98.4517 82.347 97.5168 81.2146 97.5168Z" fill="#001854"/>
<path d="M93.0977 91.6012H46.9022C44.3646 91.6012 42.3181 89.5084 42.3181 86.9133V55.688C42.3181 53.0928 44.3646 51 46.9022 51H93.0977C95.6353 51 97.6818 53.0928 97.6818 55.688V86.9133C97.6818 89.4944 95.6353 91.6012 93.0977 91.6012Z" fill="white"/>
<path d="M97.6818 87.4156H42.3181C42.3181 89.7316 44.1463 91.6012 46.411 91.6012H93.6025C95.8536 91.6012 97.6818 89.7316 97.6818 87.4156ZM93.5888 51H46.411C44.1463 51 42.3181 52.8696 42.3181 55.1857H97.6818C97.6818 52.8696 95.8536 51 93.5888 51Z" fill="#4AABF4"/>
<path d="M87.6542 59.0501L92.3201 63.8218L93.9846 57.7526L87.6542 59.0501Z" fill="#001854"/>
<path d="M48.0892 85.1832C47.83 85.1832 47.5707 85.0855 47.3797 84.8762C46.9841 84.4716 46.9841 83.8158 47.3797 83.4252L53.1508 77.5233C53.5464 77.1187 54.1876 77.1187 54.5696 77.5233L59.181 82.2392L68.9631 72.2354C69.1541 72.0401 69.4133 71.9285 69.6725 71.9285C69.9454 71.9285 70.191 72.0401 70.382 72.2354L74.2566 76.1979L90.0826 60.0132C90.4782 59.6086 91.1195 59.6086 91.5015 60.0132C91.8971 60.4178 91.8971 61.0736 91.5015 61.4642L74.9797 78.3884C74.7887 78.5837 74.5295 78.6953 74.2703 78.6953C73.9974 78.6953 73.7518 78.5837 73.5608 78.3884L69.6862 74.4259L59.9041 84.4297C59.5084 84.8344 58.8672 84.8344 58.4852 84.4297L53.8738 79.7139L48.8123 84.8902C48.6076 85.0855 48.3484 85.1832 48.0892 85.1832Z" fill="#001854"/>
<path d="M49.7216 125.692C49.7216 123.221 45.4236 121.928 41.1769 121.928C36.9325 121.928 32.6356 123.221 32.6356 125.692C32.6356 125.899 32.6275 126.014 32.6473 126.24C32.6718 126.464 32.6787 126.582 32.7428 126.926C32.885 127.732 33.1995 129.233 33.8066 131.033C31.6861 130.3 30.535 129.574 30.4767 129.236C30.5548 129.087 30.9404 128.923 31.6255 128.804L31.2725 127.741C30.267 127.953 29.5307 128.345 29.4142 129.032C29.194 130.371 31.5766 131.527 34.2889 132.359C34.8283 133.75 35.5379 135.252 36.4595 136.716C33.9522 136.466 32.589 135.954 32.3525 135.637C32.4853 135.439 32.9898 135.188 33.8264 134.948L33.3289 133.947C32.0939 134.345 31.2422 134.898 31.2538 135.655C31.2783 137.215 34.8015 137.729 37.2599 137.897C38.0731 139.015 39.0215 140.084 40.1271 141.04C39.9314 141.07 39.7392 141.1 39.5504 141.124C37.543 141.382 36.6668 141.18 36.4233 141.048C36.5433 140.85 36.9395 140.544 37.5861 140.192L36.8043 139.408C35.8606 139.972 35.207 140.626 35.3759 141.319C35.5985 142.235 37.0478 142.527 39.6809 142.189C40.1784 142.126 40.7062 142.037 41.2468 141.929C42.1299 142.565 43.0981 143.129 44.1642 143.59C44.4321 143.704 45.4015 144.081 46.3848 144.081C46.9662 144.081 47.5522 143.95 48.0008 143.556C48.6521 142.987 48.8385 142.064 48.5589 140.811C48.4575 140.358 48.3713 139.84 48.2967 139.28C48.8874 138.82 49.237 138.315 49.1053 137.786C49.0086 137.385 48.6707 137.106 48.101 136.945C48.0963 136.843 48.0917 136.741 48.087 136.638C48.7092 136.298 49.0867 135.885 49.0808 135.377C49.075 134.867 48.6847 134.471 48.087 134.161C48.094 133.975 48.101 133.789 48.1103 133.601C48.7232 133.369 49.1391 133.023 49.223 132.521C49.3127 131.976 48.9678 131.462 48.3503 130.988C48.5705 129.372 48.934 127.862 49.4677 126.673C49.6296 126.371 49.7216 126.043 49.7216 125.692ZM41.1769 123.415C45.511 123.415 48.2758 124.763 48.2758 125.69C48.2758 125.752 48.2618 125.815 48.2373 125.88L48.235 125.878C48.2245 125.903 48.2105 125.929 48.1989 125.956C47.748 126.855 45.1126 127.968 41.1769 127.968C36.8451 127.968 34.078 126.618 34.078 125.69C34.078 124.763 36.8451 123.415 41.1769 123.415ZM34.4835 128.119C36.1321 129.001 38.6615 129.454 41.1769 129.454C43.4546 129.454 45.7452 129.083 47.381 128.356C47.0361 129.735 46.8229 131.26 46.7111 132.795C45.6007 132.945 43.8496 132.978 41.4169 132.697C40.6491 132.608 39.8534 132.492 39.0588 132.351C37.7527 132.121 36.5923 131.855 35.5693 131.575C35.0672 130.26 34.7177 129.058 34.4835 128.119ZM39.2009 137.976C39.2568 137.977 39.3116 137.977 39.3582 137.977C39.6355 137.978 39.9186 137.978 40.2029 137.973C42.1043 137.943 44.7584 137.731 46.6703 137.187C46.7017 137.808 46.7472 138.403 46.8101 138.962C45.8594 139.465 44.4019 140.054 42.483 140.547C42.3268 140.588 42.1742 140.624 42.0216 140.66C40.9474 139.87 40.0118 138.956 39.2009 137.976ZM47.1538 141.144C47.2959 141.785 47.2645 142.25 47.0676 142.423C46.6761 142.766 45.4458 142.523 44.7176 142.218C44.1945 141.992 43.7016 141.736 43.2286 141.457C44.0535 141.226 45.6368 140.737 46.9569 140.091C47.0163 140.466 47.0816 140.824 47.1538 141.144ZM46.6283 136.051C45.3234 136.445 43.1342 136.812 40.1877 136.859C39.9104 136.864 39.6355 136.865 39.3652 136.862C39.004 136.86 38.6615 136.85 38.3306 136.838C37.4113 135.538 36.6773 134.168 36.0983 132.861C37.0828 133.105 38.0405 133.304 38.8735 133.452C39.6914 133.594 40.5046 133.713 41.2957 133.804C42.589 133.954 44.8644 134.149 46.6505 133.929C46.6237 134.648 46.6155 135.359 46.6283 136.051Z" fill="#4AABF4"/>
<path d="M61.9224 129.853L53.2809 123.275C52.5166 122.695 51.2688 122.695 50.5033 123.275L49.8858 123.747C50.289 124.191 50.5231 124.633 50.5732 125.02C50.6455 125.558 50.5639 126.302 50.4649 126.583C49.8858 128.083 49.654 128.799 49.3953 130.67C49.866 131.15 50.2086 131.801 50.134 132.435C50.0326 133.31 49.5911 133.685 49.1041 133.948C49.3604 134.099 49.5317 134.285 49.6621 134.478C49.7006 134.474 49.739 134.465 49.7821 134.465H54.0044C54.1617 134.465 54.3132 134.499 54.4507 134.559C54.8631 134.74 55.1544 135.162 55.1544 135.65V144.081H55.1567H57.5964H60.4357C62.0237 144.081 63.3123 142.826 63.3123 141.278V133.208V132.578V132.516V131.745V131.744C63.3111 131.285 62.6843 130.434 61.9224 129.853Z" fill="#001854"/>
<path d="M65.6065 125.855L60.9834 122.35V118.172C60.9834 117.518 60.4673 116.986 59.8323 116.986H57.96C57.3251 116.986 56.8089 117.518 56.8089 118.172V119.187L53.2834 116.515C52.5191 115.936 51.2678 115.936 50.5011 116.515L44.1794 121.305C46.2474 121.568 47.8156 122.183 48.8793 122.897L50.5011 121.669C51.2678 121.089 52.5191 121.089 53.2834 121.669L63.2181 129.196C63.9847 129.775 65.0706 129.605 65.6333 128.818L65.9747 128.342C66.5386 127.552 66.372 126.433 65.6065 125.855Z" fill="#4AABF4"/>
<path d="M96.4076 149L95.9437 144.711C95.9194 144.471 95.728 144.14 95.5227 143.974L90.9309 140.32C90.7244 140.154 90.3243 140.022 90.0401 140.03C90.0401 140.03 87.8016 140.066 91.6465 143.911L88.2006 142.341C87.9512 142.227 87.7517 141.936 87.7587 141.693L87.8631 138.116C87.6995 136.324 86.2683 136.571 86.2683 136.571C85.9922 136.619 85.7452 136.854 85.7174 137.097L85.047 142.98C85.0203 143.221 85.1421 143.572 85.3207 143.758L90.3138 149H96.4076ZM105.327 149L110.32 143.758C110.499 143.572 110.624 143.221 110.596 142.98L109.928 137.097C109.901 136.854 109.652 136.619 109.375 136.571C109.375 136.571 107.943 136.324 107.778 138.116L107.884 141.693C107.894 141.936 107.692 142.227 107.442 142.341L103.994 143.911C107.84 140.066 105.603 140.03 105.603 140.03C105.318 140.022 104.916 140.154 104.71 140.32L100.118 143.974C99.9115 144.141 99.7213 144.471 99.6947 144.711L99.2354 149H105.327ZM89.379 138.476H106.263C106.263 136.094 104.387 134.162 102.077 134.162H99.4151C99.3223 133.8 99.2017 133.437 99.0509 133.084L98.9245 132.792C98.8793 132.695 98.8248 132.603 98.7772 132.509C98.6844 132.319 98.5684 132.138 98.4559 131.96C98.3423 131.783 98.2135 131.616 98.0894 131.45C97.9537 131.292 97.8285 131.133 97.6812 130.992C97.4051 130.701 97.0966 130.454 96.795 130.245C96.6002 130.114 96.4053 130.003 96.2128 129.906C96.4436 128.173 96.4691 124.168 92.2055 122.598C89.7258 121.682 88.3664 122.58 85.3508 121.617C83.7247 121.096 85.0423 133.298 94.8627 131.058C94.8697 131.07 94.8743 131.079 94.8813 131.09C95.0124 131.315 95.1504 131.55 95.2849 131.798C95.416 132.048 95.5563 132.3 95.6839 132.57C95.7547 132.699 95.8126 132.841 95.8811 132.975C95.9124 133.042 95.9449 133.112 95.9762 133.183C96.0098 133.252 96.0469 133.319 96.0736 133.391C96.1374 133.532 96.2024 133.673 96.2638 133.817C96.3137 133.931 96.3613 134.046 96.4111 134.162H93.5683C91.2545 134.162 89.379 136.094 89.379 138.476Z" fill="#001854"/>
<path d="M105.446 119.661C102.971 121.119 101.594 120.61 99.5821 121.913C95.1059 124.814 97.7501 129.817 97.7501 129.817C108.083 130.701 106.836 118.844 105.446 119.661ZM103.383 125.038C102.653 126.11 101.831 127.316 99.0138 128.147C99.0138 128.147 102.959 125.063 104.614 121.771C104.614 121.771 104.114 123.965 103.383 125.038ZM98.4969 116.243C97.5214 114.118 96.1421 113.805 94.8666 111.309C94.1513 109.907 87.1126 118.903 95.974 123.645C95.974 123.646 100.666 120.972 98.4969 116.243ZM93.8153 116.777C93.7628 115.517 94.4734 113.47 94.4734 113.47C94.1455 117.023 95.7932 121.623 95.7932 121.623C93.9203 119.457 93.8654 118.036 93.8153 116.777Z" fill="#4AABF4"/>
<path d="M454 200C509.228 200 554 155.228 554 100C554 44.7715 509.228 0 454 0C398.772 0 354 44.7715 354 100C354 155.228 398.772 200 454 200Z" fill="#4AABF4"/>
<path d="M454 165C489.899 165 519 135.899 519 100C519 64.1015 489.899 35 454 35C418.101 35 389 64.1015 389 100C389 135.899 418.101 165 454 165Z" fill="white"/>
<path d="M472.737 104.887C469.105 115.895 462.85 124.524 453.972 130.653C451.066 128.395 446.263 124.121 441.945 117.71C439.201 113.637 437.062 109.363 435.488 104.847H460.953V93.5968H432.825C432.058 87.7903 432.058 81.6613 432.906 75.25H476.127C476.409 79.4435 476.531 86.0968 475.401 93.5968H486.781C488.597 79.8871 486.821 69.1613 486.741 68.6774L485.934 64H423.462L422.574 68.5565C417.57 95.0081 425.44 113.597 432.946 124.524C441.138 136.46 450.582 142.065 450.985 142.306L453.85 144L456.716 142.306C470.437 134.202 479.92 121.339 484.481 104.927H472.737V104.887Z" fill="#0055B8"/>
<path d="M486.741 93.5969C486.7 93.9598 486.66 94.3631 486.579 94.726C486.095 98.3147 485.369 101.702 484.44 104.887L496.063 104.928C496.709 102.266 497.233 99.484 497.637 96.6614C497.758 95.6534 497.879 94.6453 498 93.6776L486.741 93.5969Z" fill="#8AB7E9"/>
<path d="M838 170C876.66 170 908 138.66 908 100C908 61.3401 876.66 30 838 30C799.34 30 768 61.3401 768 100C768 138.66 799.34 170 838 170Z" fill="#E3F2FF"/>
<path d="M831.481 98.2394V129.66H844.519V98.2394H831.481ZM806.529 98.2394V129.66H819.566V98.2394H806.529ZM856.722 98.2394V129.66H869.76V98.2394H856.722Z" fill="#B9DEFF"/>
<path d="M831.481 124.432V129.66H844.519V124.432H831.481ZM856.722 124.432V129.66H869.76V124.432H856.722ZM814.532 124.432C812.199 124.435 810.892 127.823 812.331 129.66H819.566V124.432H814.532Z" fill="#B9DEFF"/>
<path d="M802.822 90.9086V97.2001C802.822 98.7513 804.071 100 805.622 100H820.235C821.786 100 823.035 98.7513 823.035 97.2001V90.9086H802.822ZM853.135 90.9086V97.2001C853.135 98.7513 854.384 100 855.935 100H870.547C872.099 100 873.347 98.7513 873.347 97.2001V90.9086H853.135ZM827.894 90.9086V97.2001C827.894 98.7513 829.142 100 830.694 100H845.306C846.857 100 848.106 98.7513 848.106 97.2001V90.9086H827.894Z" fill="#001854"/>
<path d="M800.2 128.961H875.8C878.127 128.961 880 130.834 880 133.161V137.8C880 140.127 878.127 142 875.8 142H800.2C797.873 142 796 140.127 796 137.8V133.161C796 130.834 797.873 128.961 800.2 128.961Z" fill="#4AABF4"/>
<path d="M802.822 90.9099V95.495H823.034V90.9099H802.822ZM827.893 90.9099V95.495H848.106V90.9099H827.893ZM853.134 90.9099V95.495H865.612C868.855 95.495 868.49 90.9099 865.612 90.9099H853.134Z" fill="#001854"/>
<path d="M875.288 86.0069C874.634 87.2129 873.661 87.2885 872.518 87.3084H808.92C806.723 87.3111 805.384 89.7262 806.546 91.5904H872.999C876.553 91.5904 879.465 88.965 879.928 85.542C878.145 83.9198 876.082 84.1642 875.288 86.0069Z" fill="#4AABF4"/>
<path d="M832.924 60.1721C818.733 68.1564 805.259 75.6737 796 81.0196V84.5906C796 88.4686 799.122 91.5906 803 91.5906H872.999C876.877 91.5906 879.999 88.4686 879.999 84.5906V81.0196C868.279 74.4342 857.496 68.4734 843.393 60.2654C838.222 57.2801 837.999 57.2415 832.924 60.1721Z" fill="#4AABF4"/>
<path d="M837.251 84.2886C841.009 84.2886 844.055 81.2421 844.055 77.484C844.055 73.7259 841.009 70.6793 837.251 70.6793C833.492 70.6793 830.446 73.7259 830.446 77.484C830.446 81.2421 833.492 84.2886 837.251 84.2886Z" fill="#E3F2FF"/>
<path d="M839.716 78.0912C839.405 79.6908 838.023 80.1026 836.957 80.0354C835.054 79.8187 833.5 81.5341 833.903 83.4068C834.925 83.9852 836.079 84.2894 837.253 84.29C841.012 84.29 844.059 81.2429 844.059 77.4842C844.057 77.1418 844.03 76.7999 843.977 76.4616C841.979 75.1554 839.973 76.4945 839.716 78.0912Z" fill="white"/>
<path d="M807.441 137.732C806.943 137.733 806.454 137.866 806.025 138.119C805.595 138.371 805.241 138.733 804.999 139.168C804.756 139.603 804.634 140.095 804.644 140.593C804.655 141.091 804.798 141.577 805.059 142.001H875.8C878.127 142.001 880 140.127 880 137.801V137.732L807.441 137.732Z" fill="#4AABF4"/>
<path d="M306 123L319 109H170" stroke="#92CCFF" stroke-width="4" stroke-miterlimit="10" stroke-linecap="round" stroke-linejoin="round"/>
<path d="M168 75L155 89L304 89" stroke="#92CCFF" stroke-width="4" stroke-miterlimit="10" stroke-linecap="round" stroke-linejoin="round"/>
<path d="M197.264 63V54.504H195.2V63H197.264ZM204.817 63V59.304C204.817 58.104 204.241 56.856 202.633 56.856C201.805 56.856 201.121 57.324 200.845 57.852H200.821V57.024H198.913V63H200.893V59.76C200.893 59.076 201.253 58.476 201.949 58.476C202.657 58.476 202.837 59.076 202.837 59.736V63H204.817ZM210.903 57.672C210.315 57.12 209.391 56.832 208.503 56.832C207.363 56.832 206.019 57.408 206.019 58.836C206.019 59.964 206.931 60.384 207.759 60.576C208.575 60.768 208.947 60.888 208.947 61.26C208.947 61.644 208.563 61.776 208.239 61.776C207.663 61.776 207.123 61.488 206.775 61.104L205.671 62.268C206.295 62.868 207.303 63.192 208.275 63.192C209.499 63.192 210.831 62.664 210.831 61.152C210.831 59.988 209.835 59.532 208.923 59.328C208.155 59.16 207.831 59.064 207.831 58.728C207.831 58.38 208.203 58.248 208.575 58.248C209.055 58.248 209.511 58.488 209.823 58.788L210.903 57.672ZM217.799 63V57.024H215.831V60.252C215.831 60.936 215.459 61.536 214.775 61.536C214.055 61.536 213.887 60.936 213.887 60.264V57.024H211.907V60.72C211.907 61.92 212.471 63.168 214.079 63.168C214.919 63.168 215.603 62.7 215.879 62.172H215.903V63H217.799ZM223.298 56.904C223.202 56.868 223.034 56.856 222.878 56.856C222.146 56.856 221.558 57.288 221.258 57.888H221.234V57.024H219.338V63H221.306V59.928C221.306 59.436 221.654 58.572 222.71 58.572C222.866 58.572 223.034 58.584 223.214 58.632L223.298 56.904ZM227.437 60.6C227.437 61.344 226.993 61.824 226.201 61.824C225.805 61.824 225.349 61.668 225.349 61.212C225.349 60.504 226.321 60.396 227.185 60.396H227.437V60.6ZM224.821 58.908C225.181 58.572 225.733 58.296 226.297 58.296C226.909 58.296 227.377 58.572 227.377 59.16V59.256C225.637 59.256 223.537 59.544 223.537 61.272C223.537 62.676 224.761 63.144 225.709 63.144C226.417 63.144 227.101 62.856 227.401 62.364H227.437V63H229.237V59.988C229.237 57.816 228.493 56.832 226.489 56.832C225.517 56.832 224.521 57.18 223.825 57.84L224.821 58.908ZM236.61 63V59.304C236.61 58.104 236.034 56.856 234.426 56.856C233.598 56.856 232.914 57.324 232.638 57.852H232.614V57.024H230.706V63H232.686V59.76C232.686 59.076 233.046 58.476 233.742 58.476C234.45 58.476 234.63 59.076 234.63 59.736V63H236.61ZM243.356 57.636C242.888 57.156 241.988 56.832 241.136 56.832C239.276 56.832 237.8 58.068 237.8 60.012C237.8 61.992 239.264 63.192 241.148 63.192C242.024 63.192 242.864 62.904 243.356 62.424L242.264 61.092C242.024 61.38 241.592 61.536 241.196 61.536C240.332 61.536 239.792 60.84 239.792 60.012C239.792 59.184 240.344 58.476 241.172 58.476C241.568 58.476 242 58.668 242.216 58.956L243.356 57.636ZM245.719 59.328C245.767 58.716 246.319 58.188 247.075 58.188C247.855 58.188 248.251 58.704 248.251 59.328H245.719ZM250.063 60.084C250.063 58.044 248.827 56.832 247.063 56.832C245.251 56.832 243.835 58.08 243.835 60.036C243.835 62.052 245.323 63.192 247.123 63.192C248.335 63.192 249.271 62.736 249.835 61.92L248.467 61.056C248.203 61.416 247.771 61.68 247.147 61.68C246.439 61.68 245.779 61.212 245.719 60.552H250.051C250.063 60.408 250.063 60.24 250.063 60.084ZM261.868 61.824L260.44 60.48C260.08 60.984 259.444 61.344 258.64 61.344C257.224 61.344 256.228 60.288 256.228 58.74C256.228 57.24 257.248 56.136 258.676 56.136C259.324 56.136 260.008 56.388 260.392 56.916L261.784 55.524C261.076 54.708 259.792 54.276 258.604 54.276C256.012 54.276 253.996 56.016 253.996 58.74C253.996 61.404 255.952 63.228 258.568 63.228C259.996 63.228 261.124 62.688 261.868 61.824ZM265.956 60.6C265.956 61.344 265.512 61.824 264.72 61.824C264.324 61.824 263.868 61.668 263.868 61.212C263.868 60.504 264.84 60.396 265.704 60.396H265.956V60.6ZM263.34 58.908C263.7 58.572 264.252 58.296 264.816 58.296C265.428 58.296 265.896 58.572 265.896 59.16V59.256C264.156 59.256 262.056 59.544 262.056 61.272C262.056 62.676 263.28 63.144 264.228 63.144C264.936 63.144 265.62 62.856 265.92 62.364H265.956V63H267.756V59.988C267.756 57.816 267.012 56.832 265.008 56.832C264.036 56.832 263.04 57.18 262.344 57.84L263.34 58.908ZM275.873 59.988C275.873 58.32 274.781 56.856 273.041 56.856C272.165 56.856 271.493 57.276 271.133 57.756H271.097V57.024H269.225V65.88H271.193V62.34H271.217C271.589 62.856 272.297 63.168 273.029 63.168C274.829 63.168 275.873 61.656 275.873 59.988ZM273.965 59.988C273.965 60.768 273.497 61.536 272.561 61.536C271.673 61.536 271.121 60.78 271.121 60C271.121 59.244 271.673 58.464 272.561 58.464C273.497 58.464 273.965 59.22 273.965 59.988ZM280.64 60.6C280.64 61.344 280.196 61.824 279.404 61.824C279.008 61.824 278.552 61.668 278.552 61.212C278.552 60.504 279.524 60.396 280.388 60.396H280.64V60.6ZM278.024 58.908C278.384 58.572 278.936 58.296 279.5 58.296C280.112 58.296 280.58 58.572 280.58 59.16V59.256C278.84 59.256 276.74 59.544 276.74 61.272C276.74 62.676 277.964 63.144 278.912 63.144C279.62 63.144 280.304 62.856 280.604 62.364H280.64V63H282.44V59.988C282.44 57.816 281.696 56.832 279.692 56.832C278.72 56.832 277.724 57.18 277.028 57.84L278.024 58.908ZM289.165 57.636C288.697 57.156 287.797 56.832 286.945 56.832C285.085 56.832 283.609 58.068 283.609 60.012C283.609 61.992 285.073 63.192 286.957 63.192C287.833 63.192 288.673 62.904 289.165 62.424L288.073 61.092C287.833 61.38 287.401 61.536 287.005 61.536C286.141 61.536 285.601 60.84 285.601 60.012C285.601 59.184 286.153 58.476 286.981 58.476C287.377 58.476 287.809 58.668 288.025 58.956L289.165 57.636ZM292.08 55.116C292.08 54.516 291.576 54.036 290.952 54.036C290.316 54.036 289.824 54.54 289.824 55.116C289.824 55.704 290.316 56.196 290.952 56.196C291.576 56.196 292.08 55.728 292.08 55.116ZM291.936 63V57.024H289.968V63H291.936ZM297.035 58.5V57.024H295.631V55.452H293.699V57.024H292.751V58.5H293.711V61.02C293.711 62.292 294.239 63.144 295.835 63.144C296.255 63.144 296.711 63.06 296.975 62.964L296.951 61.524C296.807 61.584 296.567 61.62 296.375 61.62C295.811 61.62 295.631 61.332 295.631 60.78V58.5H297.035ZM304.007 57.024H301.919L300.731 60.864H300.695L299.363 57.024H297.179L299.675 62.904L299.483 63.396C299.291 63.912 299.087 64.2 298.475 64.2C298.283 64.2 298.031 64.152 297.839 64.092L297.623 65.748C297.911 65.82 298.331 65.88 298.703 65.88C300.203 65.88 300.851 65.148 301.331 63.9L304.007 57.024Z" fill="#92CCFF"/>
<path d="M177.824 143L175.604 139.364C176.696 139.028 177.368 138.212 177.368 137.072C177.368 135.128 175.748 134.504 174.116 134.504H170.876V143H172.892V139.628H173.588L175.424 143H177.824ZM175.34 137.108C175.34 137.972 174.512 138.14 173.852 138.14H172.88V136.16H173.972C174.584 136.16 175.34 136.316 175.34 137.108ZM180.168 139.328C180.216 138.716 180.768 138.188 181.524 138.188C182.304 138.188 182.7 138.704 182.7 139.328H180.168ZM184.512 140.084C184.512 138.044 183.276 136.832 181.512 136.832C179.7 136.832 178.284 138.08 178.284 140.036C178.284 142.052 179.772 143.192 181.572 143.192C182.784 143.192 183.72 142.736 184.284 141.92L182.916 141.056C182.652 141.416 182.22 141.68 181.596 141.68C180.888 141.68 180.228 141.212 180.168 140.552H184.5C184.512 140.408 184.512 140.24 184.512 140.084ZM190.989 137.636C190.521 137.156 189.621 136.832 188.769 136.832C186.909 136.832 185.433 138.068 185.433 140.012C185.433 141.992 186.897 143.192 188.781 143.192C189.657 143.192 190.497 142.904 190.989 142.424L189.897 141.092C189.657 141.38 189.225 141.536 188.829 141.536C187.965 141.536 187.425 140.84 187.425 140.012C187.425 139.184 187.977 138.476 188.805 138.476C189.201 138.476 189.633 138.668 189.849 138.956L190.989 137.636ZM193.352 139.328C193.4 138.716 193.952 138.188 194.708 138.188C195.488 138.188 195.884 138.704 195.884 139.328H193.352ZM197.696 140.084C197.696 138.044 196.46 136.832 194.696 136.832C192.884 136.832 191.468 138.08 191.468 140.036C191.468 142.052 192.956 143.192 194.756 143.192C195.968 143.192 196.904 142.736 197.468 141.92L196.1 141.056C195.836 141.416 195.404 141.68 194.78 141.68C194.072 141.68 193.412 141.212 193.352 140.552H197.684C197.696 140.408 197.696 140.24 197.696 140.084ZM201.052 135.116C201.052 134.516 200.548 134.036 199.924 134.036C199.288 134.036 198.796 134.54 198.796 135.116C198.796 135.704 199.288 136.196 199.924 136.196C200.548 136.196 201.052 135.728 201.052 135.116ZM200.908 143V137.024H198.94V143H200.908ZM208.515 137.024H206.415L205.155 140.9H205.119L203.859 137.024H201.687L204.039 143H206.163L208.515 137.024ZM210.86 139.328C210.908 138.716 211.46 138.188 212.216 138.188C212.996 138.188 213.392 138.704 213.392 139.328H210.86ZM215.204 140.084C215.204 138.044 213.968 136.832 212.204 136.832C210.392 136.832 208.976 138.08 208.976 140.036C208.976 142.052 210.464 143.192 212.264 143.192C213.476 143.192 214.412 142.736 214.976 141.92L213.608 141.056C213.344 141.416 212.912 141.68 212.288 141.68C211.58 141.68 210.92 141.212 210.86 140.552H215.192C215.204 140.408 215.204 140.24 215.204 140.084ZM225.976 137.12C225.976 135.176 224.512 134.504 222.652 134.504H219.532V143H221.584V139.796H222.604C224.38 139.796 225.976 139.088 225.976 137.12ZM223.924 137.132C223.924 137.936 223.216 138.164 222.448 138.164H221.584V136.16H222.484C223.216 136.16 223.924 136.316 223.924 137.132ZM230.544 136.904C230.448 136.868 230.28 136.856 230.124 136.856C229.392 136.856 228.804 137.288 228.504 137.888H228.48V137.024H226.584V143H228.552V139.928C228.552 139.436 228.9 138.572 229.956 138.572C230.112 138.572 230.28 138.584 230.46 138.632L230.544 136.904ZM232.715 139.328C232.763 138.716 233.315 138.188 234.071 138.188C234.851 138.188 235.247 138.704 235.247 139.328H232.715ZM237.059 140.084C237.059 138.044 235.823 136.832 234.059 136.832C232.247 136.832 230.831 138.08 230.831 140.036C230.831 142.052 232.319 143.192 234.119 143.192C235.331 143.192 236.267 142.736 236.831 141.92L235.463 141.056C235.199 141.416 234.767 141.68 234.143 141.68C233.435 141.68 232.775 141.212 232.715 140.552H237.047C237.059 140.408 237.059 140.24 237.059 140.084ZM247.88 143V139.304C247.88 138.176 247.328 136.856 245.708 136.856C244.82 136.856 244.196 137.252 243.8 137.876C243.464 137.228 242.864 136.856 242 136.856C241.1 136.856 240.488 137.348 240.212 137.852H240.188V137.024H238.28V143H240.26V139.76C240.26 139.04 240.62 138.476 241.244 138.476C241.832 138.476 242.096 138.908 242.096 139.592V143H244.064V139.772C244.064 139.1 244.388 138.476 245.06 138.476C245.756 138.476 245.912 139.052 245.912 139.736V143H247.88ZM251.502 135.116C251.502 134.516 250.998 134.036 250.374 134.036C249.738 134.036 249.246 134.54 249.246 135.116C249.246 135.704 249.738 136.196 250.374 136.196C250.998 136.196 251.502 135.728 251.502 135.116ZM251.358 143V137.024H249.39V143H251.358ZM258.748 143V137.024H256.78V140.252C256.78 140.936 256.408 141.536 255.724 141.536C255.004 141.536 254.836 140.936 254.836 140.264V137.024H252.856V140.72C252.856 141.92 253.42 143.168 255.028 143.168C255.868 143.168 256.552 142.7 256.828 142.172H256.852V143H258.748ZM269.888 143V139.304C269.888 138.176 269.336 136.856 267.716 136.856C266.828 136.856 266.204 137.252 265.808 137.876C265.472 137.228 264.872 136.856 264.008 136.856C263.108 136.856 262.496 137.348 262.22 137.852H262.196V137.024H260.288V143H262.268V139.76C262.268 139.04 262.628 138.476 263.252 138.476C263.84 138.476 264.104 138.908 264.104 139.592V143H266.072V139.772C266.072 139.1 266.396 138.476 267.068 138.476C267.764 138.476 267.92 139.052 267.92 139.736V143H269.888ZM275.969 137.672C275.381 137.12 274.457 136.832 273.569 136.832C272.429 136.832 271.085 137.408 271.085 138.836C271.085 139.964 271.997 140.384 272.825 140.576C273.641 140.768 274.013 140.888 274.013 141.26C274.013 141.644 273.629 141.776 273.305 141.776C272.729 141.776 272.189 141.488 271.841 141.104L270.737 142.268C271.361 142.868 272.369 143.192 273.341 143.192C274.565 143.192 275.897 142.664 275.897 141.152C275.897 139.988 274.901 139.532 273.989 139.328C273.221 139.16 272.897 139.064 272.897 138.728C272.897 138.38 273.269 138.248 273.641 138.248C274.121 138.248 274.577 138.488 274.889 138.788L275.969 137.672Z" fill="#92CCFF"/>
<path d="M740 124L753 110H604" stroke="#92CCFF" stroke-width="4" stroke-miterlimit="10" stroke-linecap="round" stroke-linejoin="round"/>
<path d="M602 76L589 90L738 90" stroke="#92CCFF" stroke-width="4" stroke-miterlimit="10" stroke-linecap="round" stroke-linejoin="round"/>
<path d="M611.167 62V53.504H609.103V62H611.167ZM618.719 62V58.304C618.719 57.104 618.143 55.856 616.535 55.856C615.707 55.856 615.023 56.324 614.747 56.852H614.723V56.024H612.815V62H614.795V58.76C614.795 58.076 615.155 57.476 615.851 57.476C616.559 57.476 616.739 58.076 616.739 58.736V62H618.719ZM626.257 56.024H624.157L622.897 59.9H622.861L621.601 56.024H619.429L621.781 62H623.905L626.257 56.024ZM628.602 58.328C628.65 57.716 629.202 57.188 629.958 57.188C630.738 57.188 631.134 57.704 631.134 58.328H628.602ZM632.946 59.084C632.946 57.044 631.71 55.832 629.946 55.832C628.134 55.832 626.718 57.08 626.718 59.036C626.718 61.052 628.206 62.192 630.006 62.192C631.218 62.192 632.154 61.736 632.718 60.92L631.35 60.056C631.086 60.416 630.654 60.68 630.03 60.68C629.322 60.68 628.662 60.212 628.602 59.552H632.934C632.946 59.408 632.946 59.24 632.946 59.084ZM638.762 56.672C638.174 56.12 637.25 55.832 636.362 55.832C635.222 55.832 633.878 56.408 633.878 57.836C633.878 58.964 634.79 59.384 635.618 59.576C636.434 59.768 636.806 59.888 636.806 60.26C636.806 60.644 636.422 60.776 636.098 60.776C635.522 60.776 634.982 60.488 634.634 60.104L633.53 61.268C634.154 61.868 635.162 62.192 636.134 62.192C637.358 62.192 638.69 61.664 638.69 60.152C638.69 58.988 637.694 58.532 636.782 58.328C636.014 58.16 635.69 58.064 635.69 57.728C635.69 57.38 636.062 57.248 636.434 57.248C636.914 57.248 637.37 57.488 637.682 57.788L638.762 56.672ZM643.367 57.5V56.024H641.963V54.452H640.031V56.024H639.083V57.5H640.043V60.02C640.043 61.292 640.571 62.144 642.167 62.144C642.587 62.144 643.043 62.06 643.307 61.964L643.283 60.524C643.139 60.584 642.899 60.62 642.707 60.62C642.143 60.62 641.963 60.332 641.963 59.78V57.5H643.367ZM649.979 63.332C648.971 61.952 648.419 60.284 648.419 58.544C648.419 56.804 648.971 55.136 649.979 53.756L648.635 53.096C647.507 54.656 646.871 56.588 646.871 58.544C646.871 60.5 647.507 62.432 648.635 63.992L649.979 63.332ZM658.701 58.796V53.504H656.649V58.628C656.649 59.54 656.217 60.38 655.053 60.38C653.901 60.38 653.457 59.54 653.457 58.628V53.504H651.417V58.796C651.417 60.836 652.809 62.228 655.041 62.228C657.261 62.228 658.701 60.836 658.701 58.796ZM666.156 54.332C665.412 53.648 664.332 53.288 663.372 53.288C661.788 53.288 660.084 54.068 660.084 55.952C660.084 57.488 661.176 58.04 662.256 58.388C663.372 58.748 664.02 58.952 664.02 59.6C664.02 60.284 663.468 60.524 662.844 60.524C662.172 60.524 661.416 60.14 661.008 59.624L659.664 60.992C660.408 61.772 661.632 62.216 662.844 62.216C664.524 62.216 666.096 61.34 666.096 59.384C666.096 57.692 664.608 57.2 663.456 56.828C662.652 56.576 662.148 56.396 662.148 55.832C662.148 55.16 662.808 54.98 663.336 54.98C663.864 54.98 664.5 55.268 664.848 55.712L666.156 54.332ZM675.382 57.728C675.382 54.512 672.934 53.504 670.522 53.504H667.45V62H670.618C672.958 62 675.382 60.716 675.382 57.728ZM673.246 57.728C673.246 59.624 671.89 60.224 670.426 60.224H669.454V55.256H670.474C671.89 55.256 673.246 55.82 673.246 57.728ZM684.219 60.824L682.791 59.48C682.431 59.984 681.795 60.344 680.991 60.344C679.575 60.344 678.579 59.288 678.579 57.74C678.579 56.24 679.599 55.136 681.027 55.136C681.675 55.136 682.359 55.388 682.743 55.916L684.135 54.524C683.427 53.708 682.143 53.276 680.955 53.276C678.363 53.276 676.347 55.016 676.347 57.74C676.347 60.404 678.303 62.228 680.919 62.228C682.347 62.228 683.475 61.688 684.219 60.824ZM687.247 60.08H685.363L684.463 63.488H686.083L687.247 60.08ZM697.957 59.528C697.957 58.412 697.189 57.716 696.217 57.548V57.524C697.045 57.248 697.609 56.624 697.609 55.688C697.609 53.972 696.037 53.504 694.717 53.504H691.333V62H694.717C696.337 62 697.957 61.376 697.957 59.528ZM695.629 55.964C695.629 56.564 695.185 56.888 694.417 56.888H693.313V55.136H694.321C695.185 55.136 695.629 55.388 695.629 55.964ZM695.905 59.336C695.905 60.164 695.113 60.344 694.465 60.344H693.313V58.4H694.453C695.329 58.4 695.905 58.628 695.905 59.336ZM706.514 58.796V53.504H704.462V58.628C704.462 59.54 704.03 60.38 702.866 60.38C701.714 60.38 701.27 59.54 701.27 58.628V53.504H699.229V58.796C699.229 60.836 700.622 62.228 702.854 62.228C705.074 62.228 706.514 60.836 706.514 58.796ZM713.969 54.332C713.225 53.648 712.145 53.288 711.185 53.288C709.601 53.288 707.897 54.068 707.897 55.952C707.897 57.488 708.989 58.04 710.069 58.388C711.185 58.748 711.833 58.952 711.833 59.6C711.833 60.284 711.281 60.524 710.657 60.524C709.985 60.524 709.229 60.14 708.821 59.624L707.477 60.992C708.221 61.772 709.445 62.216 710.657 62.216C712.337 62.216 713.909 61.34 713.909 59.384C713.909 57.692 712.421 57.2 711.269 56.828C710.465 56.576 709.961 56.396 709.961 55.832C709.961 55.16 710.621 54.98 711.149 54.98C711.677 54.98 712.313 55.268 712.661 55.712L713.969 54.332ZM723.195 57.728C723.195 54.512 720.747 53.504 718.335 53.504H715.263V62H718.431C720.771 62 723.195 60.716 723.195 57.728ZM721.059 57.728C721.059 59.624 719.703 60.224 718.239 60.224H717.267V55.256H718.287C719.703 55.256 721.059 55.82 721.059 57.728ZM726.117 60.944C726.117 60.284 725.565 59.768 724.917 59.768C724.245 59.768 723.693 60.308 723.693 60.956C723.693 61.616 724.257 62.12 724.917 62.12C725.565 62.12 726.117 61.604 726.117 60.944ZM729.715 60.944C729.715 60.284 729.163 59.768 728.515 59.768C727.843 59.768 727.291 60.308 727.291 60.956C727.291 61.616 727.855 62.12 728.515 62.12C729.163 62.12 729.715 61.604 729.715 60.944ZM733.313 60.944C733.313 60.284 732.761 59.768 732.113 59.768C731.441 59.768 730.889 60.308 730.889 60.956C730.889 61.616 731.453 62.12 732.113 62.12C732.761 62.12 733.313 61.604 733.313 60.944ZM737.654 58.544C737.654 56.588 737.018 54.656 735.89 53.096L734.546 53.756C735.554 55.136 736.106 56.804 736.106 58.544C736.106 60.284 735.554 61.952 734.546 63.332L735.89 63.992C737.018 62.432 737.654 60.5 737.654 58.544Z" fill="#92CCFF"/>
<path d="M612.352 142.824L610.924 141.48C610.564 141.984 609.928 142.344 609.124 142.344C607.708 142.344 606.712 141.288 606.712 139.74C606.712 138.24 607.732 137.136 609.16 137.136C609.808 137.136 610.492 137.388 610.876 137.916L612.268 136.524C611.56 135.708 610.276 135.276 609.088 135.276C606.496 135.276 604.48 137.016 604.48 139.74C604.48 142.404 606.436 144.228 609.052 144.228C610.48 144.228 611.608 143.688 612.352 142.824ZM619.319 140.988C619.319 139.032 617.807 137.832 615.995 137.832C614.195 137.832 612.683 139.032 612.683 140.988C612.683 142.944 614.195 144.192 615.995 144.192C617.807 144.192 619.319 142.944 619.319 140.988ZM617.423 140.988C617.423 141.756 616.931 142.536 616.007 142.536C615.083 142.536 614.591 141.756 614.591 140.988C614.591 140.22 615.071 139.464 615.995 139.464C616.919 139.464 617.423 140.22 617.423 140.988ZM622.581 144V134.928H620.589V144H622.581ZM626.155 144V134.928H624.163V144H626.155ZM629.297 140.328C629.345 139.716 629.897 139.188 630.653 139.188C631.433 139.188 631.829 139.704 631.829 140.328H629.297ZM633.641 141.084C633.641 139.044 632.405 137.832 630.641 137.832C628.829 137.832 627.413 139.08 627.413 141.036C627.413 143.052 628.901 144.192 630.701 144.192C631.913 144.192 632.849 143.736 633.413 142.92L632.045 142.056C631.781 142.416 631.349 142.68 630.725 142.68C630.017 142.68 629.357 142.212 629.297 141.552H633.629C633.641 141.408 633.641 141.24 633.641 141.084ZM640.118 138.636C639.65 138.156 638.75 137.832 637.898 137.832C636.038 137.832 634.562 139.068 634.562 141.012C634.562 142.992 636.026 144.192 637.91 144.192C638.786 144.192 639.626 143.904 640.118 143.424L639.026 142.092C638.786 142.38 638.354 142.536 637.958 142.536C637.094 142.536 636.554 141.84 636.554 141.012C636.554 140.184 637.106 139.476 637.934 139.476C638.33 139.476 638.762 139.668 638.978 139.956L640.118 138.636ZM644.437 139.5V138.024H643.033V136.452H641.101V138.024H640.153V139.5H641.113V142.02C641.113 143.292 641.641 144.144 643.237 144.144C643.657 144.144 644.113 144.06 644.377 143.964L644.353 142.524C644.209 142.584 643.969 142.62 643.777 142.62C643.213 142.62 643.033 142.332 643.033 141.78V139.5H644.437ZM654.914 138.12C654.914 136.176 653.45 135.504 651.59 135.504H648.47V144H650.522V140.796H651.542C653.318 140.796 654.914 140.088 654.914 138.12ZM652.862 138.132C652.862 138.936 652.154 139.164 651.386 139.164H650.522V137.16H651.422C652.154 137.16 652.862 137.316 652.862 138.132ZM659.482 137.904C659.386 137.868 659.218 137.856 659.062 137.856C658.33 137.856 657.742 138.288 657.442 138.888H657.418V138.024H655.522V144H657.49V140.928C657.49 140.436 657.838 139.572 658.894 139.572C659.05 139.572 659.218 139.584 659.398 139.632L659.482 137.904ZM661.653 140.328C661.701 139.716 662.253 139.188 663.009 139.188C663.789 139.188 664.185 139.704 664.185 140.328H661.653ZM665.997 141.084C665.997 139.044 664.761 137.832 662.997 137.832C661.185 137.832 659.769 139.08 659.769 141.036C659.769 143.052 661.257 144.192 663.057 144.192C664.269 144.192 665.205 143.736 665.769 142.92L664.401 142.056C664.137 142.416 663.705 142.68 663.081 142.68C662.373 142.68 661.713 142.212 661.653 141.552H665.985C665.997 141.408 665.997 141.24 665.997 141.084ZM676.817 144V140.304C676.817 139.176 676.265 137.856 674.645 137.856C673.757 137.856 673.133 138.252 672.737 138.876C672.401 138.228 671.801 137.856 670.937 137.856C670.037 137.856 669.425 138.348 669.149 138.852H669.125V138.024H667.217V144H669.197V140.76C669.197 140.04 669.557 139.476 670.181 139.476C670.769 139.476 671.033 139.908 671.033 140.592V144H673.001V140.772C673.001 140.1 673.325 139.476 673.997 139.476C674.693 139.476 674.849 140.052 674.849 140.736V144H676.817ZM680.439 136.116C680.439 135.516 679.935 135.036 679.311 135.036C678.675 135.036 678.183 135.54 678.183 136.116C678.183 136.704 678.675 137.196 679.311 137.196C679.935 137.196 680.439 136.728 680.439 136.116ZM680.295 144V138.024H678.327V144H680.295ZM687.686 144V138.024H685.718V141.252C685.718 141.936 685.346 142.536 684.662 142.536C683.942 142.536 683.774 141.936 683.774 141.264V138.024H681.794V141.72C681.794 142.92 682.358 144.168 683.966 144.168C684.806 144.168 685.49 143.7 685.766 143.172H685.79V144H687.686ZM698.825 144V140.304C698.825 139.176 698.273 137.856 696.653 137.856C695.765 137.856 695.141 138.252 694.745 138.876C694.409 138.228 693.809 137.856 692.945 137.856C692.045 137.856 691.433 138.348 691.157 138.852H691.133V138.024H689.225V144H691.205V140.76C691.205 140.04 691.565 139.476 692.189 139.476C692.777 139.476 693.041 139.908 693.041 140.592V144H695.009V140.772C695.009 140.1 695.333 139.476 696.005 139.476C696.701 139.476 696.857 140.052 696.857 140.736V144H698.825ZM704.907 138.672C704.319 138.12 703.395 137.832 702.507 137.832C701.367 137.832 700.023 138.408 700.023 139.836C700.023 140.964 700.935 141.384 701.763 141.576C702.579 141.768 702.951 141.888 702.951 142.26C702.951 142.644 702.567 142.776 702.243 142.776C701.667 142.776 701.127 142.488 700.779 142.104L699.675 143.268C700.299 143.868 701.307 144.192 702.279 144.192C703.503 144.192 704.835 143.664 704.835 142.152C704.835 140.988 703.839 140.532 702.927 140.328C702.159 140.16 701.835 140.064 701.835 139.728C701.835 139.38 702.207 139.248 702.579 139.248C703.059 139.248 703.515 139.488 703.827 139.788L704.907 138.672Z" fill="#92CCFF"/>
</svg>
