<svg xmlns="http://www.w3.org/2000/svg" width="38.45" height="40.55" viewBox="0 0 38.45 40.55"><path d="M35.6,32l-2.2-2.2a11.58,11.58,0,0,0,1.15-2.6A10.76,10.76,0,0,0,35,24,10.926,10.926,0,0,0,24,13a10.76,10.76,0,0,0-3.2.45,11.58,11.58,0,0,0-2.6,1.15L16,12.4l1.7-6.2a2.74,2.74,0,0,1,1.075-1.6A3.032,3.032,0,0,1,20.6,4h6.8a3.032,3.032,0,0,1,1.825.6A2.74,2.74,0,0,1,30.3,6.2l1.75,6.35a11.771,11.771,0,0,1,4.4,4.8A14.466,14.466,0,0,1,38,24a15.171,15.171,0,0,1-.625,4.25A12.2,12.2,0,0,1,35.6,32ZM19.65,10.8a10.4,10.4,0,0,1,1.875-.55,12.253,12.253,0,0,1,4.925,0,10.337,10.337,0,0,1,1.9.55L27.45,7h-6.9ZM20.6,44a3.032,3.032,0,0,1-1.825-.6A2.74,2.74,0,0,1,17.7,41.8l-1.75-6.35a11.844,11.844,0,0,1-4.275-4.575A13.953,13.953,0,0,1,10,24a15.837,15.837,0,0,1,.475-3.75A12.009,12.009,0,0,1,11.95,16.7L3.85,8.6a1.388,1.388,0,0,1-.4-1.025A1.37,1.37,0,0,1,4.875,6.15a1.388,1.388,0,0,1,1.025.4l35.6,35.6a1.45,1.45,0,0,1,0,2,1.513,1.513,0,0,1-2.05,0l-7.7-7.65L30.3,41.8a2.74,2.74,0,0,1-1.075,1.6A3.032,3.032,0,0,1,27.4,44Zm-.05-3h6.9l.9-3.8a7.381,7.381,0,0,1-1.875.575,13.725,13.725,0,0,1-4.95,0A7.381,7.381,0,0,1,19.65,37.2ZM24,35a11.325,11.325,0,0,0,2.65-.3,10.435,10.435,0,0,0,2.4-.9L14.2,18.95a11.434,11.434,0,0,0-.9,2.45A11.1,11.1,0,0,0,13,24,10.926,10.926,0,0,0,24,35ZM19.65,7h0Zm.9,34h0Z" transform="translate(-3.45 -4)" fill="#06f"/></svg>
