<svg xmlns="http://www.w3.org/2000/svg" xmlns:xlink="http://www.w3.org/1999/xlink" width="612.04" height="106.368" viewBox="0 0 612.04 106.368"><defs><linearGradient id="a" x1="-0.731" y1="0.497" x2="15.147" y2="0.54" gradientUnits="objectBoundingBox"><stop offset="0" stop-color="#017eff"/><stop offset="0.223" stop-color="#0380fc"/><stop offset="0.38" stop-color="#0d87f4"/><stop offset="0.517" stop-color="#1c93e7"/><stop offset="0.642" stop-color="#32a4d5"/><stop offset="0.76" stop-color="#4ebbbd"/><stop offset="0.871" stop-color="#71d6a0"/><stop offset="0.976" stop-color="#9af67e"/><stop offset="1" stop-color="#a5ff76"/></linearGradient><linearGradient id="b" x1="-3.08" y1="0.491" x2="24.484" y2="0.557" xlink:href="#a"/><linearGradient id="c" x1="-4.174" y1="0.493" x2="22.228" y2="0.534" xlink:href="#a"/><linearGradient id="d" x1="-15.041" y1="0.491" x2="57.693" y2="0.535" xlink:href="#a"/><linearGradient id="e" x1="-5.282" y1="0.483" x2="17.82" y2="0.549" xlink:href="#a"/><linearGradient id="f" x1="-6.117" y1="0.481" x2="16.253" y2="0.543" xlink:href="#a"/><linearGradient id="g" x1="-7.382" y1="0.478" x2="15.719" y2="0.543" xlink:href="#a"/><linearGradient id="h" x1="-8.829" y1="0.483" x2="13.363" y2="0.523" xlink:href="#a"/><linearGradient id="i" x1="-32.806" y1="0.48" x2="39.937" y2="0.524" xlink:href="#a"/><linearGradient id="j" x1="-10.598" y1="0.478" x2="11.815" y2="0.523" xlink:href="#a"/><linearGradient id="k" x1="-21.832" y1="0.471" x2="17.864" y2="0.522" xlink:href="#a"/><linearGradient id="l" x1="-15.346" y1="0.476" x2="11.055" y2="0.517" xlink:href="#a"/><linearGradient id="m" x1="-45.827" y1="0.472" x2="26.917" y2="0.516" xlink:href="#a"/><linearGradient id="n" x1="-17.123" y1="0.455" x2="9.036" y2="0.522" xlink:href="#a"/><linearGradient id="o" x1="-15.722" y1="0.468" x2="6.692" y2="0.512" xlink:href="#a"/><linearGradient id="p" x1="-21.786" y1="0.45" x2="7.121" y2="0.515" xlink:href="#a"/><linearGradient id="q" x1="-21.042" y1="0.445" x2="4.638" y2="0.511" xlink:href="#a"/><linearGradient id="r" x1="-22.731" y1="0.441" x2="3.428" y2="0.508" xlink:href="#a"/><linearGradient id="s" x1="-20.323" y1="0.462" x2="1.869" y2="0.502" xlink:href="#a"/><linearGradient id="t" x1="-26.363" y1="0.459" x2="0.039" y2="0.5" xlink:href="#a"/><linearGradient id="u" x1="-26.821" y1="0.43" x2="-1.141" y2="0.496" xlink:href="#a"/><linearGradient id="v" x1="-24.331" y1="0.43" x2="-1.962" y2="0.492" xlink:href="#a"/><linearGradient id="w" x1="-26.193" y1="0.424" x2="-3.092" y2="0.49" xlink:href="#a"/><linearGradient id="x" x1="-25.585" y1="0.47" x2="8.682" y2="0.51" xlink:href="#a"/><linearGradient id="y" x1="-20.378" y1="0.446" x2="5.779" y2="0.513" xlink:href="#a"/><linearGradient id="z" x1="-21.675" y1="0.444" x2="4.482" y2="0.511" xlink:href="#a"/><linearGradient id="aa" x1="-20.018" y1="0.463" x2="2.174" y2="0.503" xlink:href="#a"/><linearGradient id="ab" x1="-21.121" y1="0.436" x2="0.984" y2="0.501" xlink:href="#a"/><linearGradient id="ac" x1="-73.37" y1="0.455" x2="-0.637" y2="0.499" xlink:href="#a"/><linearGradient id="ad" x1="-27.03" y1="0.43" x2="-0.873" y2="0.497" xlink:href="#a"/><linearGradient id="ae" x1="-24.211" y1="0.451" x2="-1.798" y2="0.495" xlink:href="#a"/><linearGradient id="af" x1="-84.531" y1="0.448" x2="-11.787" y2="0.493" xlink:href="#a"/><linearGradient id="ag" x1="-46.896" y1="0.439" x2="-7.2" y2="0.49" xlink:href="#a"/></defs><path d="M1523.6,1366.812l.144,1.536-4.416,9.6H1511.6l17.04-35.568,17.04,35.568h-7.777l-4.319-9.311.1-1.729-5.04-11.664Zm-2.928-1.92H1536.8l.816,5.423h-17.761Z" transform="translate(-1511.603 -1340.507)" fill="url(#a)"/><path d="M1554.322,1370.268a6.174,6.174,0,0,0,2.328,2.255,6.542,6.542,0,0,0,3.241.816,8.586,8.586,0,0,0,2.784-.456,8.953,8.953,0,0,0,2.424-1.247,5.671,5.671,0,0,0,1.656-1.849v6.384a8.039,8.039,0,0,1-3,1.656,13.932,13.932,0,0,1-4.3.6,13.635,13.635,0,0,1-6.313-1.441,10.928,10.928,0,0,1-4.416-4.055,12.142,12.142,0,0,1,0-12.073,10.984,10.984,0,0,1,4.416-4.032,13.633,13.633,0,0,1,6.313-1.439,13.964,13.964,0,0,1,4.3.6,8.487,8.487,0,0,1,3,1.609v6.383a5.481,5.481,0,0,0-1.7-1.848,9.188,9.188,0,0,0-2.472-1.224,8.745,8.745,0,0,0-2.688-.431,6.4,6.4,0,0,0-5.569,3.12,6.316,6.316,0,0,0-.863,3.311A6.414,6.414,0,0,0,1554.322,1370.268Z" transform="translate(-1511.603 -1340.507)" fill="url(#b)"/><path d="M1578.466,1377.947h-6.239v-37.44h6.239Zm7.177-16.8a3.246,3.246,0,0,0-2.809-1.152,4.732,4.732,0,0,0-2.3.552,3.708,3.708,0,0,0-1.536,1.56,5.108,5.108,0,0,0-.528,2.4h-1.247a12.161,12.161,0,0,1,.887-4.752,7.61,7.61,0,0,1,2.665-3.359,7.4,7.4,0,0,1,4.368-1.249,8.536,8.536,0,0,1,4.271.96,5.845,5.845,0,0,1,2.5,2.856,11.714,11.714,0,0,1,.817,4.633v14.351h-6.241v-13.44A5.668,5.668,0,0,0,1585.643,1361.147Z" transform="translate(-1511.603 -1340.507)" fill="url(#c)"/><path d="M1599.682,1344.8a3.829,3.829,0,0,1,2.64-.985,3.742,3.742,0,0,1,2.616.985,3.451,3.451,0,0,1,0,5.015,3.7,3.7,0,0,1-2.616,1.008,3.781,3.781,0,0,1-2.64-1.008,3.4,3.4,0,0,1,0-5.015Zm5.616,11.063v22.08h-6.048v-22.08Z" transform="translate(-1511.603 -1340.507)" fill="url(#d)"/><path d="M1616,1376.987a10.216,10.216,0,0,1-4.152-4.008,13.424,13.424,0,0,1,0-12.192A10.058,10.058,0,0,1,1616,1356.8a15.089,15.089,0,0,1,12.552-.1,8.991,8.991,0,0,1,3.912,3.84,12.764,12.764,0,0,1,1.344,6.072c0,.288-.008.593-.024.912a7.235,7.235,0,0,1-.072.768h-19.776v-3.84h14.352l-1.681,2.208a3.39,3.39,0,0,0,.361-.792,2.787,2.787,0,0,0,.168-.84,5.968,5.968,0,0,0-.6-2.784,4.568,4.568,0,0,0-1.7-1.823,4.881,4.881,0,0,0-2.592-.673,5.513,5.513,0,0,0-3.049.792,4.984,4.984,0,0,0-1.872,2.352,10.7,10.7,0,0,0-.7,3.865,9.649,9.649,0,0,0,.647,3.743,4.98,4.98,0,0,0,1.945,2.352,5.735,5.735,0,0,0,3.12.816,7.323,7.323,0,0,0,3.528-.792,6.389,6.389,0,0,0,2.424-2.376l5.424,1.681a11.537,11.537,0,0,1-4.584,4.679,14.075,14.075,0,0,1-6.84,1.561A13.123,13.123,0,0,1,1616,1376.987Z" transform="translate(-1511.603 -1340.507)" fill="url(#e)"/><path d="M1641.3,1355.867l5.424,13.3,5.424-13.3h6.671l-12.095,24.384-12.1-24.384Z" transform="translate(-1511.603 -1340.507)" fill="url(#f)"/><path d="M1665.2,1376.987a10.216,10.216,0,0,1-4.152-4.008,13.424,13.424,0,0,1,0-12.192,10.058,10.058,0,0,1,4.152-3.983,15.089,15.089,0,0,1,12.552-.1,8.986,8.986,0,0,1,3.912,3.84,12.753,12.753,0,0,1,1.344,6.072c0,.288-.008.593-.024.912a7.235,7.235,0,0,1-.072.768h-19.776v-3.84h14.352l-1.68,2.208a3.363,3.363,0,0,0,.36-.792,2.79,2.79,0,0,0,.168-.84,5.97,5.97,0,0,0-.6-2.784,4.561,4.561,0,0,0-1.7-1.823,4.879,4.879,0,0,0-2.592-.673,5.509,5.509,0,0,0-3.048.792,4.979,4.979,0,0,0-1.873,2.352,10.7,10.7,0,0,0-.695,3.865,9.627,9.627,0,0,0,.648,3.743,4.971,4.971,0,0,0,1.944,2.352,5.735,5.735,0,0,0,3.12.816,7.324,7.324,0,0,0,3.528-.792,6.383,6.383,0,0,0,2.424-2.376l5.424,1.681a11.536,11.536,0,0,1-4.584,4.679,14.072,14.072,0,0,1-6.84,1.561A13.122,13.122,0,0,1,1665.2,1376.987Z" transform="translate(-1511.603 -1340.507)" fill="url(#g)"/><path d="M1708.209,1377.947h-6.24v-37.44h6.24Zm16.656-4.8a10.164,10.164,0,0,1-3.912,3.936,10.571,10.571,0,0,1-5.208,1.345,8.725,8.725,0,0,1-4.872-1.393,9.562,9.562,0,0,1-3.384-3.984,15.806,15.806,0,0,1,0-12.312,9.6,9.6,0,0,1,3.384-3.96,8.731,8.731,0,0,1,4.872-1.391,10.581,10.581,0,0,1,5.208,1.343,10.224,10.224,0,0,1,3.912,3.913,13.876,13.876,0,0,1,0,12.5Zm-5.76-9.648a5.687,5.687,0,0,0-2.184-2.208,6.024,6.024,0,0,0-3-.768,5.447,5.447,0,0,0-2.712.745,5.764,5.764,0,0,0-2.16,2.183,7.53,7.53,0,0,0,0,6.912,5.759,5.759,0,0,0,2.16,2.184,5.445,5.445,0,0,0,2.712.744,6.023,6.023,0,0,0,3-.768,5.674,5.674,0,0,0,2.184-2.208,7.524,7.524,0,0,0,0-6.816Z" transform="translate(-1511.603 -1340.507)" fill="url(#h)"/><path d="M1731.824,1344.8a3.832,3.832,0,0,1,2.641-.985,3.741,3.741,0,0,1,2.615.985,3.451,3.451,0,0,1,0,5.015,3.7,3.7,0,0,1-2.615,1.008,3.783,3.783,0,0,1-2.641-1.008,3.4,3.4,0,0,1,0-5.015Zm5.616,11.063v22.08h-6.047v-22.08Z" transform="translate(-1511.603 -1340.507)" fill="url(#i)"/><path d="M1744.017,1360.5a9.887,9.887,0,0,1,3.935-3.815,10.915,10.915,0,0,1,5.185-1.3,9.056,9.056,0,0,1,4.92,1.343,9.165,9.165,0,0,1,3.359,3.865,15.841,15.841,0,0,1,0,12.216,8.965,8.965,0,0,1-3.359,3.863,9.163,9.163,0,0,1-4.92,1.32,10.927,10.927,0,0,1-5.185-1.3,9.9,9.9,0,0,1-3.935-3.816,13.619,13.619,0,0,1,0-12.384Zm5.04,18.984a4.481,4.481,0,0,0,.767,2.472,4.781,4.781,0,0,0,1.968,1.608,6.929,6.929,0,0,0,2.929.577,6.146,6.146,0,0,0,2.9-.721,5.431,5.431,0,0,0,2.208-2.208,7.538,7.538,0,0,0,.84-3.744v-21.6h6v21.6a12.748,12.748,0,0,1-1.608,6.721,9.632,9.632,0,0,1-4.295,3.863,13.972,13.972,0,0,1-5.857,1.224,15.026,15.026,0,0,1-6.432-1.224,9.022,9.022,0,0,1-3.959-3.455,11.025,11.025,0,0,1-1.561-5.113Zm.719-9.432a5.445,5.445,0,0,0,2.208,2.089,6.4,6.4,0,0,0,2.976.719,5.736,5.736,0,0,0,2.712-.7,5.55,5.55,0,0,0,2.16-2.063,6.358,6.358,0,0,0,.84-3.385,6.952,6.952,0,0,0-.48-2.688,5.34,5.34,0,0,0-1.32-1.92,6.12,6.12,0,0,0-1.848-1.175,5.453,5.453,0,0,0-2.064-.409,6.4,6.4,0,0,0-2.976.72,5.442,5.442,0,0,0-2.208,2.088,6.493,6.493,0,0,0-.816,3.384A6.391,6.391,0,0,0,1749.776,1370.051Z" transform="translate(-1511.603 -1340.507)" fill="url(#j)"/><path d="M1797.919,1355.867v5.233h-13.632v-5.233Zm-3.84-7.679v29.759h-6v-29.759Z" transform="translate(-1511.603 -1340.507)" fill="url(#k)"/><path d="M1807.47,1377.947h-6.24v-37.44h6.24Zm7.176-16.8a3.243,3.243,0,0,0-2.808-1.152,4.732,4.732,0,0,0-2.3.552,3.708,3.708,0,0,0-1.536,1.56,5.108,5.108,0,0,0-.528,2.4h-1.247a12.159,12.159,0,0,1,.887-4.752,7.614,7.614,0,0,1,2.664-3.359,7.4,7.4,0,0,1,4.369-1.249,8.535,8.535,0,0,1,4.271.96,5.845,5.845,0,0,1,2.5,2.856,11.714,11.714,0,0,1,.817,4.633v14.351h-6.241v-13.44A5.661,5.661,0,0,0,1814.646,1361.147Z" transform="translate(-1511.603 -1340.507)" fill="url(#l)"/><path d="M1828.687,1344.8a3.829,3.829,0,0,1,2.64-.985,3.738,3.738,0,0,1,2.615.985,3.451,3.451,0,0,1,0,5.015,3.692,3.692,0,0,1-2.615,1.008,3.781,3.781,0,0,1-2.64-1.008,3.4,3.4,0,0,1,0-5.015Zm5.616,11.063v22.08h-6.048v-22.08Z" transform="translate(-1511.603 -1340.507)" fill="url(#m)"/><path d="M1854.271,1361.147a3.256,3.256,0,0,0-2.785-1.152,4.726,4.726,0,0,0-2.3.552,3.711,3.711,0,0,0-1.537,1.56,5.108,5.108,0,0,0-.528,2.4v13.44h-6.239v-22.08h6.239v3.361a7.2,7.2,0,0,1,2.664-2.857,7.728,7.728,0,0,1,4.009-.983q3.934,0,5.855,2.231a9.234,9.234,0,0,1,1.92,6.216v14.112h-6.431v-13.44A5.541,5.541,0,0,0,1854.271,1361.147Z" transform="translate(-1511.603 -1340.507)" fill="url(#n)"/><path d="M1867.71,1360.5a9.89,9.89,0,0,1,3.936-3.815,10.909,10.909,0,0,1,5.184-1.3,9.053,9.053,0,0,1,4.92,1.343,9.158,9.158,0,0,1,3.359,3.865,15.841,15.841,0,0,1,0,12.216,8.959,8.959,0,0,1-3.359,3.863,9.16,9.16,0,0,1-4.92,1.32,10.92,10.92,0,0,1-5.184-1.3,9.9,9.9,0,0,1-3.936-3.816,13.628,13.628,0,0,1,0-12.384Zm5.04,18.984a4.474,4.474,0,0,0,.768,2.472,4.772,4.772,0,0,0,1.967,1.608,6.929,6.929,0,0,0,2.929.577,6.143,6.143,0,0,0,2.9-.721,5.425,5.425,0,0,0,2.208-2.208,7.538,7.538,0,0,0,.84-3.744v-21.6h6v21.6a12.758,12.758,0,0,1-1.607,6.721,9.634,9.634,0,0,1-4.3,3.863,13.969,13.969,0,0,1-5.857,1.224,15.018,15.018,0,0,1-6.431-1.224,9.019,9.019,0,0,1-3.96-3.455,11.036,11.036,0,0,1-1.561-5.113Zm.72-9.432a5.44,5.44,0,0,0,2.208,2.089,6.393,6.393,0,0,0,2.975.719,5.736,5.736,0,0,0,2.712-.7,5.544,5.544,0,0,0,2.16-2.063,6.358,6.358,0,0,0,.84-3.385,6.971,6.971,0,0,0-.479-2.688,5.355,5.355,0,0,0-1.321-1.92,6.116,6.116,0,0,0-1.847-1.175,5.462,5.462,0,0,0-2.065-.409,6.394,6.394,0,0,0-2.975.72,5.437,5.437,0,0,0-2.208,2.088,6.5,6.5,0,0,0-.817,3.384A6.393,6.393,0,0,0,1873.47,1370.051Z" transform="translate(-1511.603 -1340.507)" fill="url(#o)"/><path d="M1900.109,1372.4a10.66,10.66,0,0,0,2.281,1.176,6.062,6.062,0,0,0,2.04.384,2.954,2.954,0,0,0,1.92-.552,1.848,1.848,0,0,0,.671-1.512,2.084,2.084,0,0,0-.551-1.463,4.943,4.943,0,0,0-1.609-1.081,26.187,26.187,0,0,0-2.687-1.007,22.811,22.811,0,0,1-2.976-1.369,7,7,0,0,1-2.376-2.112,5.714,5.714,0,0,1-.936-3.384,5.3,5.3,0,0,1,1.055-3.336,6.465,6.465,0,0,1,2.857-2.064,11.054,11.054,0,0,1,4.008-.7,12.4,12.4,0,0,1,3.5.479,14.227,14.227,0,0,1,3.024,1.273,11.454,11.454,0,0,1,2.448,1.847l-2.736,3.84a9.706,9.706,0,0,0-2.857-2.112,7.306,7.306,0,0,0-3.239-.816,2.909,2.909,0,0,0-1.656.409,1.38,1.38,0,0,0-.6,1.223,1.686,1.686,0,0,0,.6,1.273,5.394,5.394,0,0,0,1.727.983q1.128.432,2.569,1.057a25.124,25.124,0,0,1,3.288,1.511,7.4,7.4,0,0,1,2.424,2.088,5.408,5.408,0,0,1,.912,3.264,6.423,6.423,0,0,1-2.16,5.16,8.865,8.865,0,0,1-5.952,1.848,13.884,13.884,0,0,1-7.8-2.279,19.735,19.735,0,0,1-2.808-2.233l3.024-3.888A20.2,20.2,0,0,0,1900.109,1372.4Z" transform="translate(-1511.603 -1340.507)" fill="url(#p)"/><path d="M1936.78,1372.739a2.983,2.983,0,0,0,1.321,1.056,4.635,4.635,0,0,0,1.847.36,5.526,5.526,0,0,0,2.592-.6,4.847,4.847,0,0,0,1.872-1.729,4.925,4.925,0,0,0,.721-2.712l.767,2.88a5.436,5.436,0,0,1-1.175,3.552,7.193,7.193,0,0,1-3.025,2.16,10.526,10.526,0,0,1-3.863.721,9.087,9.087,0,0,1-3.841-.817,6.908,6.908,0,0,1-2.855-2.376,6.538,6.538,0,0,1-1.08-3.816,6.261,6.261,0,0,1,2.255-5.088,9.734,9.734,0,0,1,6.384-1.872,14.414,14.414,0,0,1,3.721.433,11.783,11.783,0,0,1,2.712,1.055,5.828,5.828,0,0,1,1.584,1.2v2.88a9.339,9.339,0,0,0-2.9-1.44,11.81,11.81,0,0,0-3.384-.48,6.516,6.516,0,0,0-2.353.36,2.776,2.776,0,0,0-1.344,1.009,3.155,3.155,0,0,0,.048,3.263Zm-5.183-14.856a28.809,28.809,0,0,1,4.223-1.752,17.39,17.39,0,0,1,5.569-.84,14.485,14.485,0,0,1,5.04.816,7.742,7.742,0,0,1,3.456,2.376,5.923,5.923,0,0,1,1.248,3.816v15.648h-6V1363.6a3.843,3.843,0,0,0-.288-1.561,2.649,2.649,0,0,0-.889-1.08,3.954,3.954,0,0,0-1.416-.624,8.025,8.025,0,0,0-1.823-.191,12.873,12.873,0,0,0-5.328,1.151,11.149,11.149,0,0,0-1.489.816Z" transform="translate(-1511.603 -1340.507)" fill="url(#q)"/><path d="M1970.284,1361.147a3.254,3.254,0,0,0-2.784-1.152,4.732,4.732,0,0,0-2.3.552,3.708,3.708,0,0,0-1.536,1.56,5.108,5.108,0,0,0-.528,2.4v13.44h-6.239v-22.08h6.239v3.361a7.2,7.2,0,0,1,2.664-2.857,7.723,7.723,0,0,1,4.009-.983q3.934,0,5.855,2.231a9.24,9.24,0,0,1,1.92,6.216v14.112h-6.432v-13.44A5.542,5.542,0,0,0,1970.284,1361.147Z" transform="translate(-1511.603 -1340.507)" fill="url(#r)"/><path d="M1983.725,1360.644a10.158,10.158,0,0,1,3.935-3.913,10.628,10.628,0,0,1,5.185-1.343,8.821,8.821,0,0,1,4.92,1.391,9.439,9.439,0,0,1,3.359,3.96,16.081,16.081,0,0,1,0,12.312,9.407,9.407,0,0,1-3.359,3.984,8.814,8.814,0,0,1-4.92,1.393,10.618,10.618,0,0,1-5.185-1.345,10.1,10.1,0,0,1-3.935-3.936,13.868,13.868,0,0,1,0-12.5Zm5.759,9.671a5.627,5.627,0,0,0,2.208,2.208,6.065,6.065,0,0,0,2.976.768,5.448,5.448,0,0,0,2.712-.744,5.773,5.773,0,0,0,2.16-2.184,7.53,7.53,0,0,0,0-6.912,5.777,5.777,0,0,0-2.16-2.183,5.45,5.45,0,0,0-2.712-.745,6.066,6.066,0,0,0-2.976.768,5.64,5.64,0,0,0-2.208,2.208,7.524,7.524,0,0,0,0,6.816Zm17.136-29.808v37.44h-6.24v-37.44Z" transform="translate(-1511.603 -1340.507)" fill="url(#s)"/><path d="M2033.259,1377.947h-6.239v-37.44h6.239Zm7.177-16.8a3.246,3.246,0,0,0-2.809-1.152,4.733,4.733,0,0,0-2.3.552,3.709,3.709,0,0,0-1.536,1.56,5.109,5.109,0,0,0-.528,2.4h-1.247a12.159,12.159,0,0,1,.887-4.752,7.614,7.614,0,0,1,2.664-3.359,7.4,7.4,0,0,1,4.369-1.249,8.535,8.535,0,0,1,4.271.96,5.845,5.845,0,0,1,2.5,2.856,11.712,11.712,0,0,1,.817,4.633v14.351h-6.241v-13.44A5.669,5.669,0,0,0,2040.436,1361.147Z" transform="translate(-1511.603 -1340.507)" fill="url(#t)"/><path d="M2058.554,1372.739a2.975,2.975,0,0,0,1.32,1.056,4.643,4.643,0,0,0,1.848.36,5.519,5.519,0,0,0,2.591-.6,4.856,4.856,0,0,0,1.873-1.729,4.932,4.932,0,0,0,.72-2.712l.768,2.88a5.438,5.438,0,0,1-1.176,3.552,7.189,7.189,0,0,1-3.024,2.16,10.536,10.536,0,0,1-3.864.721,9.078,9.078,0,0,1-3.84-.817,6.91,6.91,0,0,1-2.856-2.376,6.538,6.538,0,0,1-1.08-3.816,6.259,6.259,0,0,1,2.256-5.088,9.734,9.734,0,0,1,6.384-1.872,14.406,14.406,0,0,1,3.72.433,11.745,11.745,0,0,1,2.712,1.055,5.8,5.8,0,0,1,1.584,1.2v2.88a9.339,9.339,0,0,0-2.9-1.44,11.8,11.8,0,0,0-3.384-.48,6.506,6.506,0,0,0-2.352.36,2.766,2.766,0,0,0-1.344,1.009,3.149,3.149,0,0,0,.048,3.263Zm-5.184-14.856a28.814,28.814,0,0,1,4.224-1.752,17.384,17.384,0,0,1,5.568-.84,14.48,14.48,0,0,1,5.04.816,7.736,7.736,0,0,1,3.456,2.376,5.923,5.923,0,0,1,1.248,3.816v15.648h-6V1363.6a3.825,3.825,0,0,0-.288-1.561,2.633,2.633,0,0,0-.889-1.08,3.953,3.953,0,0,0-1.416-.624,8.017,8.017,0,0,0-1.823-.191,12.883,12.883,0,0,0-5.328,1.151,11.046,11.046,0,0,0-1.488.816Z" transform="translate(-1511.603 -1340.507)" fill="url(#u)"/><path d="M2081.931,1355.867l5.423,13.3,5.424-13.3h6.672l-12.1,24.384-12.095-24.384Z" transform="translate(-1511.603 -1340.507)" fill="url(#v)"/><path d="M2105.835,1376.987a10.215,10.215,0,0,1-4.152-4.008,13.423,13.423,0,0,1,0-12.192,10.057,10.057,0,0,1,4.152-3.983,15.089,15.089,0,0,1,12.552-.1,8.99,8.99,0,0,1,3.912,3.84,12.764,12.764,0,0,1,1.344,6.072c0,.288-.008.593-.024.912a7.278,7.278,0,0,1-.072.768h-19.776v-3.84h14.352l-1.681,2.208a3.39,3.39,0,0,0,.361-.792,2.787,2.787,0,0,0,.168-.84,5.97,5.97,0,0,0-.6-2.784,4.568,4.568,0,0,0-1.7-1.823,4.881,4.881,0,0,0-2.592-.673,5.513,5.513,0,0,0-3.049.792,4.983,4.983,0,0,0-1.872,2.352,10.7,10.7,0,0,0-.7,3.865,9.649,9.649,0,0,0,.647,3.743,4.98,4.98,0,0,0,1.945,2.352,5.735,5.735,0,0,0,3.12.816,7.324,7.324,0,0,0,3.528-.792,6.39,6.39,0,0,0,2.424-2.376l5.424,1.681a11.537,11.537,0,0,1-4.584,4.679,14.074,14.074,0,0,1-6.84,1.561A13.122,13.122,0,0,1,2105.835,1376.987Z" transform="translate(-1511.603 -1340.507)" fill="url(#w)"/><path d="M1904.384,1413.467v5.232H1890.56v-5.232Zm-1.752-10.1a2.931,2.931,0,0,0-1.177-.264,2.053,2.053,0,0,0-1.224.36,2.365,2.365,0,0,0-.792,1.176,6.288,6.288,0,0,0-.288,2.064v28.848h-6v-30.24a9.481,9.481,0,0,1,.865-4.272,6.04,6.04,0,0,1,2.591-2.664,8.77,8.77,0,0,1,4.224-.936,7.926,7.926,0,0,1,2.544.36,7.022,7.022,0,0,1,1.8.888,7.309,7.309,0,0,1,1.176,1.007l-2.641,4.657A2.59,2.59,0,0,0,1902.632,1403.363Z" transform="translate(-1527.603 -1340.507)" fill="url(#x)"/><path d="M1915.375,1430.243a3.224,3.224,0,0,0,2.784,1.176,4.683,4.683,0,0,0,2.328-.552,3.893,3.893,0,0,0,1.535-1.56,4.914,4.914,0,0,0,.553-2.4v-13.44h6.192v22.08h-6.192v-3.36a7.094,7.094,0,0,1-6.672,3.84q-3.937,0-5.881-2.256a9.178,9.178,0,0,1-1.943-6.192v-14.112h6.432v13.44A5.558,5.558,0,0,0,1915.375,1430.243Z" transform="translate(-1527.603 -1340.507)" fill="url(#y)"/><path d="M1948.3,1418.747a3.254,3.254,0,0,0-2.784-1.152,4.73,4.73,0,0,0-2.3.551,3.706,3.706,0,0,0-1.536,1.561,5.1,5.1,0,0,0-.529,2.4v13.441h-6.239v-22.08h6.239v3.36a7.208,7.208,0,0,1,2.664-2.856,7.719,7.719,0,0,1,4.009-.984q3.934,0,5.856,2.232a9.238,9.238,0,0,1,1.92,6.216v14.112h-6.432v-13.441A5.54,5.54,0,0,0,1948.3,1418.747Z" transform="translate(-1527.603 -1340.507)" fill="url(#z)"/><path d="M1976.142,1418.243a10.155,10.155,0,0,1,3.935-3.912,10.628,10.628,0,0,1,5.185-1.344,8.814,8.814,0,0,1,4.92,1.392,9.446,9.446,0,0,1,3.359,3.96,16.078,16.078,0,0,1,0,12.311,9.411,9.411,0,0,1-3.359,3.985,8.814,8.814,0,0,1-4.92,1.392,10.628,10.628,0,0,1-5.185-1.344,10.106,10.106,0,0,1-3.935-3.936,13.87,13.87,0,0,1,0-12.5Zm5.759,9.672a5.635,5.635,0,0,0,2.208,2.208,6.066,6.066,0,0,0,2.976.768,5.438,5.438,0,0,0,2.712-.745,5.77,5.77,0,0,0,2.16-2.183,7.53,7.53,0,0,0,0-6.912,5.78,5.78,0,0,0-2.16-2.184,5.458,5.458,0,0,0-2.712-.744,6.066,6.066,0,0,0-2.976.768,5.634,5.634,0,0,0-2.208,2.208,7.524,7.524,0,0,0,0,6.816Zm17.136-29.809v37.441h-6.24v-37.441Z" transform="translate(-1527.603 -1340.507)" fill="url(#aa)"/><path d="M2005.157,1418.459a11.054,11.054,0,0,1,4.367-4.032,14.347,14.347,0,0,1,12.529,0,11.05,11.05,0,0,1,4.368,4.032,12.133,12.133,0,0,1,0,12.072,11,11,0,0,1-4.368,4.056,14.347,14.347,0,0,1-12.529,0,11.006,11.006,0,0,1-4.367-4.056,12.133,12.133,0,0,1,0-12.072Zm5.52,9.336a5.831,5.831,0,0,0,10.223,0,6.611,6.611,0,0,0,.792-3.288,6.75,6.75,0,0,0-.792-3.312,5.566,5.566,0,0,0-2.135-2.208,6.15,6.15,0,0,0-5.952,0,5.568,5.568,0,0,0-2.136,2.208,6.749,6.749,0,0,0-.792,3.312A6.61,6.61,0,0,0,2010.677,1427.8Z" transform="translate(-1527.603 -1340.507)" fill="url(#ab)"/><path d="M2033.5,1402.4a3.833,3.833,0,0,1,2.641-.984,3.745,3.745,0,0,1,2.615.984,3.452,3.452,0,0,1,0,5.016,3.7,3.7,0,0,1-2.615,1.008,3.781,3.781,0,0,1-2.641-1.008,3.4,3.4,0,0,1,0-5.016Zm5.616,11.064v22.08h-6.048v-22.08Z" transform="translate(-1527.603 -1340.507)" fill="url(#ac)"/><path d="M2059.084,1418.747a3.253,3.253,0,0,0-2.784-1.152,4.732,4.732,0,0,0-2.3.551,3.711,3.711,0,0,0-1.536,1.561,5.094,5.094,0,0,0-.528,2.4v13.441h-6.24v-22.08h6.24v3.36a7.2,7.2,0,0,1,2.664-2.856,7.712,7.712,0,0,1,4.008-.984q3.936,0,5.856,2.232a9.238,9.238,0,0,1,1.92,6.216v14.112h-6.432v-13.441A5.541,5.541,0,0,0,2059.084,1418.747Z" transform="translate(-1527.603 -1340.507)" fill="url(#ad)"/><path d="M2072.523,1418.1a9.9,9.9,0,0,1,3.936-3.816,10.925,10.925,0,0,1,5.185-1.3,9.049,9.049,0,0,1,4.919,1.344,9.169,9.169,0,0,1,3.36,3.864,15.854,15.854,0,0,1,0,12.216,8.962,8.962,0,0,1-3.36,3.863,9.157,9.157,0,0,1-4.919,1.321,10.925,10.925,0,0,1-5.185-1.3,9.9,9.9,0,0,1-3.936-3.817,13.625,13.625,0,0,1,0-12.383Zm5.04,18.984a4.493,4.493,0,0,0,.768,2.472,4.8,4.8,0,0,0,1.968,1.608,6.925,6.925,0,0,0,2.929.576,6.147,6.147,0,0,0,2.9-.72,5.433,5.433,0,0,0,2.208-2.208,7.557,7.557,0,0,0,.84-3.745v-21.6h6v21.6a12.748,12.748,0,0,1-1.608,6.721,9.623,9.623,0,0,1-4.3,3.863,13.95,13.95,0,0,1-5.856,1.225,15,15,0,0,1-6.432-1.225,9.012,9.012,0,0,1-3.96-3.455,11.025,11.025,0,0,1-1.56-5.112Zm.72-9.433a5.432,5.432,0,0,0,2.208,2.089,6.385,6.385,0,0,0,2.976.72,5.735,5.735,0,0,0,2.712-.7,5.552,5.552,0,0,0,2.16-2.064,6.368,6.368,0,0,0,.84-3.385,6.949,6.949,0,0,0-.48-2.687,5.344,5.344,0,0,0-1.32-1.92,6.135,6.135,0,0,0-1.848-1.176,5.475,5.475,0,0,0-2.064-.408,6.385,6.385,0,0,0-2.976.72,5.436,5.436,0,0,0-2.208,2.088,6.493,6.493,0,0,0-.816,3.383A6.39,6.39,0,0,0,2078.283,1427.65Z" transform="translate(-1527.603 -1340.507)" fill="url(#ae)"/><path d="M2116.442,1402.4a3.838,3.838,0,0,1,2.641-.984,3.743,3.743,0,0,1,2.615.984,3.452,3.452,0,0,1,0,5.016,3.693,3.693,0,0,1-2.615,1.008,3.785,3.785,0,0,1-2.641-1.008,3.4,3.4,0,0,1,0-5.016Zm5.617,11.064v22.08h-6.048v-22.08Z" transform="translate(-1527.603 -1340.507)" fill="url(#af)"/><path d="M2139.435,1413.467v5.232H2125.8v-5.232Zm-3.84-7.68v29.76h-6v-29.76Z" transform="translate(-1527.603 -1340.507)" fill="url(#ag)"/></svg>