<svg id="career1" xmlns="http://www.w3.org/2000/svg" xmlns:xlink="http://www.w3.org/1999/xlink" width="498.16" height="338.475" viewBox="0 0 498.16 338.475">
  <defs>
    <linearGradient id="linear-gradient" y1="0.5" x2="1" y2="0.5" gradientUnits="objectBoundingBox">
      <stop offset="0" stop-color="#4f9efa"/>
      <stop offset="1" stop-color="#a6d6ed"/>
    </linearGradient>
    <linearGradient id="linear-gradient-2" x1="0" y1="0.5" x2="1" y2="0.5" xlink:href="#linear-gradient"/>
    <linearGradient id="linear-gradient-5" y1="0.5" x2="1" y2="0.5" gradientUnits="objectBoundingBox">
      <stop offset="0" stop-color="#017eff"/>
      <stop offset="0.1" stop-color="#0f80fe"/>
      <stop offset="0.3" stop-color="#3787fe"/>
      <stop offset="0.57" stop-color="#7692fd"/>
      <stop offset="0.9" stop-color="#cda1fd"/>
      <stop offset="1" stop-color="#eaa7fd"/>
    </linearGradient>
    <linearGradient id="linear-gradient-6" x1="0.5" y1="1" x2="0.5" gradientUnits="objectBoundingBox">
      <stop offset="0" stop-color="#4f9efa"/>
      <stop offset="1" stop-color="#a5ff76"/>
    </linearGradient>
  </defs>
  <g id="Capa_2">
    <g id="Capa_1-2">
      <g id="Grupo_1612" data-name="Grupo 1612" transform="translate(163.622 240.799)">
        <g id="Grupo_1611" data-name="Grupo 1611">
          <g id="Grupo_1610" data-name="Grupo 1610">
            <path id="Trazado_14737" data-name="Trazado 14737" d="M143.838,192.611a3.04,3.04,0,0,0-.388.313l-12.114,12.114a2.471,2.471,0,0,0,3.5,3.5l7.892-7.892v89.244h4.936V200.641l7.892,7.892a2.472,2.472,0,0,0,3.5,0,2.45,2.45,0,0,0,0-3.483l-12.114-12.114a2.427,2.427,0,0,0-1.741-.727,2.477,2.477,0,0,0-1.353.4Z" transform="translate(-130.612 -192.21)" fill="#a5ff76"/>
          </g>
        </g>
      </g>
      <g id="Grupo_1613" data-name="Grupo 1613" transform="translate(325.146 163.218)" opacity="0.5">
        <path id="Trazado_14738" data-name="Trazado 14738" d="M356.035,289.853h0a3.044,3.044,0,0,0,2.055-.814l32.045-30.216a3.017,3.017,0,0,0,.914-2.155,3.522,3.522,0,0,0,.514-1.8V142.933A12.666,12.666,0,0,0,378.91,130.28H272.2a12.666,12.666,0,0,0-12.653,12.653V278.027A12.666,12.666,0,0,0,272.2,290.679H353.78a3.522,3.522,0,0,0,2.242-.827Zm3.007-9.922V268.318a8.693,8.693,0,0,1,8.681-8.681h12.84Zm-8.757,3.733h-78.07a5.635,5.635,0,0,1-5.625-5.637V142.933a5.643,5.643,0,0,1,5.625-5.637H378.922a5.635,5.635,0,0,1,5.625,5.637V251.356h-16.4a17.892,17.892,0,0,0-17.876,17.864v14.444Z" transform="translate(-259.55 -130.28)" fill="url(#linear-gradient)"/>
        <path id="Trazado_14739" data-name="Trazado 14739" d="M282.078,170.226h77.343a3.5,3.5,0,0,0,3.508-3.508v-6.3a3.5,3.5,0,0,0-3.508-3.508H282.078a3.51,3.51,0,0,0-3.508,3.508v6.3A3.51,3.51,0,0,0,282.078,170.226Zm.7-9.107h75.928V166H282.779Z" transform="translate(-254.743 -123.55)" fill="url(#linear-gradient-2)"/>
        <path id="Trazado_14740" data-name="Trazado 14740" d="M282.078,187.794h77.343a3.51,3.51,0,0,0,3.508-3.508V178a3.5,3.5,0,0,0-3.508-3.508H282.078A3.51,3.51,0,0,0,278.57,178v6.289A3.51,3.51,0,0,0,282.078,187.794Zm.7-9.107h75.928v4.886H282.779Z" transform="translate(-254.743 -119.107)" fill="url(#linear-gradient)"/>
        <path id="Trazado_14741" data-name="Trazado 14741" d="M362.929,201.856v-6.289a3.5,3.5,0,0,0-3.508-3.508H282.078a3.51,3.51,0,0,0-3.508,3.508v6.289a3.51,3.51,0,0,0,3.508,3.508h77.343A3.51,3.51,0,0,0,362.929,201.856Zm-4.209-.7H282.792v-4.886H358.72v4.886Z" transform="translate(-254.743 -114.666)" fill="url(#linear-gradient)"/>
      </g>
      <g id="Grupo_1614" data-name="Grupo 1614" transform="translate(119.748)" opacity="0.44">
        <path id="Trazado_14742" data-name="Trazado 14742" d="M279.754,16.8H227.415V182.713h52.339ZM221.765,75.592H169.426V182.713h52.339Zm-57.976,51.55H111.437V182.7h52.352V127.142ZM102.568,47.819H95.59v6.439h6.978Zm0-15.935H95.59v6.439h6.978Zm0-15.947H95.59v6.426h6.978V15.937Zm0-15.947H95.59V6.429h6.978V0Zm0,63.764H95.59v6.452h6.978Zm0,79.711H95.59V149.9h6.978Zm0,31.882H95.59V181.8h6.978Zm0-15.947H95.59v6.452h6.978ZM95.59,191.294v6.439H287.809v-6.439H95.59Zm6.978-79.711H95.59v6.439h6.978Zm0-15.947H95.59v6.439h6.978Zm0-15.935H95.59V86.14h6.978Zm0,47.817H95.59v6.439h6.978Z" transform="translate(-95.59 0.01)" fill="url(#linear-gradient-5)"/>
      </g>
      <path id="Trazado_14743" data-name="Trazado 14743" d="M227.7,196.1c-8.331-1.491-16.235-10.786-16.649-10.8H210.8c-.338,0-8.243,9.308-16.574,10.8-8.468,1.516-19.48-2.292-19.868-2.117v19.643c.038.5.914,12.44,3.909,20.921A52.7,52.7,0,0,0,188.6,251.569a84.479,84.479,0,0,0,20.858,16.085l1.5.789,1.5-.789a84.478,84.478,0,0,0,20.858-16.085,52.4,52.4,0,0,0,10.335-17.025c2.994-8.481,3.858-20.419,3.9-20.921V193.981c-.388-.175-11.4,3.633-19.868,2.117Zm6.752,22.975-22.1,22.148a4.549,4.549,0,0,1-2.794,1.165h-1.9a4.549,4.549,0,0,1-2.794-1.165l-10.41-10.46a1.641,1.641,0,0,1,0-2.318l4.1-4.1a1.641,1.641,0,0,1,2.318,0l6.652,6.639a1.641,1.641,0,0,0,2.318,0l18.227-18.265a1.641,1.641,0,0,1,2.318,0l4.071,4.046a1.641,1.641,0,0,1,0,2.318Z" transform="translate(44.066 46.843)" fill="#a5ff76" opacity="0.51"/>
      <g id="Grupo_1615" data-name="Grupo 1615" transform="translate(382.178 87.052)">
        <path id="Trazado_14744" data-name="Trazado 14744" d="M382.951,131.114c-5.462,16.586-14.907,29.615-28.237,38.86A85.063,85.063,0,0,1,326.9,131.089h38.333V114.115H322.87a103.409,103.409,0,0,1,.138-27.66H388.1a127.016,127.016,0,0,1-1.1,27.66h17.15a136.779,136.779,0,0,0-.063-37.582l-1.2-7.053H308.789l-1.315,6.9c-7.592,39.824,4.284,67.835,15.584,84.321,12.314,17.964,26.583,26.445,27.184,26.8l4.309,2.531,4.3-2.556c20.645-12.239,34.939-31.581,41.841-56.36H382.963Z" transform="translate(-305.076 -69.48)" fill="#fff"/>
        <path id="Trazado_14745" data-name="Trazado 14745" d="M384.81,105.1c-.075.564-.138,1.127-.213,1.7a107.262,107.262,0,0,1-3.207,15.308l17.5.025c.965-4.021,1.754-8.18,2.343-12.49.213-1.528.388-3.044.539-4.522L384.81,105.1Z" transform="translate(-285.79 -60.478)" fill="#fff"/>
      </g>
      <g id="Grupo_1617" data-name="Grupo 1617" transform="translate(327.751 9.421)">
        <g id="Grupo_1616" data-name="Grupo 1616">
          <path id="Trazado_14746" data-name="Trazado 14746" d="M277.565,118.564a3.038,3.038,0,0,0,.388-.313l12.114-12.114a2.471,2.471,0,0,0-3.5-3.5l-7.892,7.892V7.51h-4.936V110.534l-7.892-7.892a2.472,2.472,0,0,0-3.5,0,2.45,2.45,0,0,0,0,3.483l12.114,12.114a2.427,2.427,0,0,0,1.741.727,2.477,2.477,0,0,0,1.353-.4Z" transform="translate(-261.63 -7.51)" fill="#a5ff76"/>
        </g>
      </g>
      <path id="Trazado_14747" data-name="Trazado 14747" d="M50.247,167.394l-7.592-3.633-2.1-3.32-1.8-.3v-.9c1.842-2.142,2.606-6.376,4.359-11.074.038-.1.063-.188.088-.263a1.851,1.851,0,0,0,1.365-.175c1.04-.676,1.666-4.372,1.679-6.163.038-2.693-1.253-2.43-1.253-2.43h-.063c0-.238.013-.451.013-.664,0-2.43.476-6.552-.138-8.857-.927-3.458-.739-4.76-2.443-6.639a11.778,11.778,0,0,0-7.278-3.808c-.952,0-5.7-1.816-8.594-.777-2.781.99-1.253,3.984-3.52,3.984-2.468,0-3.57,3.808-4.51,7.278-.589,2.23-.138,6.289-.138,8.819a5.342,5.342,0,0,0,.025.639.336.336,0,0,1-.113.025s-1.278-.263-1.253,2.43c.025,1.791.639,5.487,1.666,6.163a1.922,1.922,0,0,0,1.416.15c.038.088.075.2.113.288,1.829,4.9,2.305,8.869,4.4,11.1v.864l-1.954.3-2.255,3.959s-10.1,4.272-15.509,6.477c-5.4,2.242-4.81,5.086-4.81,5.086L0,193.025H25.23a12.592,12.592,0,0,1,2.38,0L29.5,170.663l-1.616-2.994,3.746-2.982,3.746,2.982-1.541,2.994.451,5.287c.914-1.4,2.756-3.094,6.414-4.6,2.681-1.09,6.138-2.531,9.558-3.959Zm106.8,9.671c-.15-4.748-3.909-5.224-3.909-5.224l-16.874-8.08-2.1-3.32-1.8-.3v-.9c1.842-2.142,2.606-6.376,4.359-11.074a1.608,1.608,0,0,0,.088-.263,1.851,1.851,0,0,0,1.365-.175c1.04-.676,1.666-4.372,1.679-6.163.038-2.693-1.253-2.43-1.253-2.43h-.063c0-.238.013-.451.013-.664,0-2.43.476-6.552-.15-8.857-.927-3.458-.739-4.76-2.443-6.639a11.778,11.778,0,0,0-7.278-3.808c-.952,0-5.7-1.816-8.594-.777-2.781.99-1.253,3.984-3.52,3.984-2.468,0-3.57,3.808-4.51,7.278-.589,2.23-.125,6.289-.125,8.819,0,.225,0,.426.013.639a.336.336,0,0,1-.113.025s-1.278-.263-1.253,2.43c.025,1.791.639,5.487,1.666,6.163a1.93,1.93,0,0,0,1.416.15c.038.088.075.2.113.288,1.829,4.9,2.305,8.869,4.4,11.1v.864l-1.954.3-2.255,3.959s-3.257,1.378-7.065,2.982l11.312,5.412a6.871,6.871,0,0,1,4.46,2.931l.426-5.061-1.616-2.994,3.746-2.981,3.746,2.981-1.541,2.994,1.917,22.361c.088-.013.2-.025.288-.038a13.027,13.027,0,0,1,2.881.038h24.566c0-5.976,0-15.609-.038-15.96Zm-35.465,6.928c.013.4.025,12.051.038,21.559H87.591a13.007,13.007,0,0,0-3.044-.038l-.388.038-2.593-30.191,2.092-4.046L78.6,167.281l-5.061,4.034,2.192,4.046-2.568,30.191a12.855,12.855,0,0,0-2.405,0H35.891l.05-23.05s-.8-3.833,6.514-6.84c7.316-2.982,20.946-8.757,20.946-8.757l3.044-5.349,2.643-.413v-1.165c-2.831-3.019-3.47-8.381-5.938-15-.038-.125-.1-.263-.138-.388a2.545,2.545,0,0,1-1.917-.213c-1.391-.914-2.23-5.9-2.255-8.331-.038-3.645,1.691-3.282,1.691-3.282s.063-.013.15-.038c-.013-.288-.025-.564-.025-.864,0-3.42-.626-8.907.175-11.913,1.265-4.685,2.756-9.821,6.088-9.821,3.082,0,1-4.034,4.773-5.374,3.9-1.4,10.31,1.052,11.6,1.052,1.867,0,6.577,1.541,9.821,5.136,2.305,2.531,2.042,4.3,3.295,8.97.827,3.107.188,8.669.188,11.964,0,.288-.013.576-.025.877l.088.025s1.741-.363,1.7,3.282c-.025,2.43-.877,7.416-2.267,8.331a2.5,2.5,0,0,1-1.854.225c-.038.113-.075.238-.125.363-2.368,6.351-3.395,12.051-5.888,14.945v1.215l2.443.413,2.844,4.485,22.787,10.9S121.377,177.578,121.577,183.992Z" transform="translate(0 26.378)" opacity="0.49" fill="url(#linear-gradient-6)"/>
    </g>
  </g>
</svg>
