<svg xmlns="http://www.w3.org/2000/svg" width="93.499" height="81.868" viewBox="0 0 93.499 81.868"><g transform="translate(0 0)"><rect width="3.318" height="18.798" rx="1.659" transform="translate(43.937 0.045) rotate(-0.78)" fill="#8ab7e9"/><rect width="3.318" height="18.798" rx="1.659" transform="translate(43.937 0.045) rotate(-0.78)" fill="#8ab7e9"/><rect width="3.318" height="18.798" rx="1.659" transform="translate(43.937 0.045) rotate(-0.78)" fill="#8ab7e9"/><rect width="3.318" height="18.798" rx="1.659" transform="translate(43.937 0.045) rotate(-0.78)" fill="#8ab7e9"/><rect width="3.318" height="18.798" rx="1.659" transform="translate(17.022 10.045) rotate(-35.779)" fill="#8ab7e9"/><rect width="3.318" height="18.798" rx="1.659" transform="translate(0.711 33.675) rotate(-70.779)" fill="#8ab7e9"/><rect width="3.318" height="18.798" rx="1.659" transform="translate(0.902 62.387) rotate(-105.778)" fill="#8ab7e9"/><rect width="3.318" height="18.798" rx="1.659" transform="translate(90.567 65.702) rotate(114.221)" fill="#8ab7e9"/><rect width="3.318" height="18.798" rx="1.659" transform="translate(92.879 37.083) rotate(79.22)" fill="#8ab7e9"/><rect width="3.318" height="18.798" rx="1.659" transform="matrix(0.717, 0.697, -0.697, 0.717, 78.357, 12.313)" fill="#8ab7e9"/><path d="M1705.016,1123.222a7.028,7.028,0,0,0,6.927-6.76l-14.036.191A7.028,7.028,0,0,0,1705.016,1123.222Z" transform="translate(-1658.144 -1041.355)" fill="#8ab7e9"/><path d="M1692.665,1024.993a20.862,20.862,0,0,0-7.622,40.166l.082,6.083a2.5,2.5,0,0,0,2.531,2.463l11.341-.154a2.5,2.5,0,0,0,2.463-2.531l-.083-6.083a20.862,20.862,0,0,0-8.712-39.943Zm-.93,8.975a10.032,10.032,0,0,0-6.709,3.465c-2.5,2.956-3.38,7.524-2.624,13.575a2.111,2.111,0,0,1-1.834,2.357,2.081,2.081,0,0,1-.236.017,2.112,2.112,0,0,1-2.122-1.851c-.913-7.315.314-13,3.649-16.895a14.354,14.354,0,0,1,9.734-4.889h.036a2.112,2.112,0,0,1,.105,4.222Z" transform="translate(-1646.572 -1000.357)" fill="#8ab7e9"/></g></svg>