<svg xmlns="http://www.w3.org/2000/svg" width="70" height="70" viewBox="0 0 70 70"><path d="M31.125,44.25A26,26,0,0,1,57.375,18v5.25a20.767,20.767,0,0,0-21,21Zm10.5,0A15.685,15.685,0,0,1,57.375,28.5v5.25a10.456,10.456,0,0,0-10.5,10.5Zm-28-27.125A6.321,6.321,0,0,1,8.987,15.2a6.321,6.321,0,0,1-1.925-4.637A6.321,6.321,0,0,1,8.987,5.925,6.321,6.321,0,0,1,13.625,4a6.321,6.321,0,0,1,4.637,1.925,6.321,6.321,0,0,1,1.925,4.638A6.321,6.321,0,0,1,18.262,15.2,6.321,6.321,0,0,1,13.625,17.125ZM4,34.188V26.312a4.154,4.154,0,0,1,1.312-3.106,4.268,4.268,0,0,1,3.063-1.269h10.5a10.922,10.922,0,0,0,7.175-2.45,11.123,11.123,0,0,0,3.85-6.3h5.338A15.417,15.417,0,0,1,31.256,21.5a17.96,17.96,0,0,1-8.006,5.075v7.613Zm60.375,22.75a6.572,6.572,0,1,1,4.638-1.925A6.321,6.321,0,0,1,64.375,56.937ZM54.75,74V66.388a17.96,17.96,0,0,1-8.006-5.075A15.417,15.417,0,0,1,42.762,53H48.1a11.123,11.123,0,0,0,3.85,6.3,10.922,10.922,0,0,0,7.175,2.45h10.5A4.333,4.333,0,0,1,74,66.125V74Z" transform="translate(-4 -4)" fill="#8ab7e9"/></svg>
