<svg id="Capa_1-2" xmlns="http://www.w3.org/2000/svg" xmlns:xlink="http://www.w3.org/1999/xlink" width="709.702" height="682.713" viewBox="0 0 709.702 682.713">
  <defs>
    <linearGradient id="linear-gradient" x1="0.5" y1="1" x2="0.5" gradientUnits="objectBoundingBox">
      <stop offset="0" stop-color="#4f9efa"/>
      <stop offset="1" stop-color="#a6d6ed"/>
    </linearGradient>
    <linearGradient id="linear-gradient-2" x1="-2.832" y1="-0.318" x2="-0.07" y2="0.36" xlink:href="#linear-gradient"/>
    <linearGradient id="linear-gradient-3" x1="-2.419" y1="-0.439" x2="0.343" y2="0.449" xlink:href="#linear-gradient"/>
    <linearGradient id="linear-gradient-4" x1="-2.029" y1="-0.724" x2="0.733" y2="0.612" xlink:href="#linear-gradient"/>
    <linearGradient id="linear-gradient-5" x1="0.132" y1="-0.06" x2="0.901" y2="1.077" xlink:href="#linear-gradient"/>
    <linearGradient id="linear-gradient-6" x1="-1.035" y1="-0.49" x2="1.828" y2="1.369" xlink:href="#linear-gradient"/>
    <linearGradient id="linear-gradient-7" x1="0.5" y1="1" x2="0.5" gradientUnits="objectBoundingBox">
      <stop offset="0" stop-color="#4f9efa"/>
      <stop offset="1" stop-color="#a5ff76"/>
    </linearGradient>
    <linearGradient id="linear-gradient-8" x1="-23.528" y1="1" x2="-23.528" y2="0" xlink:href="#linear-gradient-7"/>
    <linearGradient id="linear-gradient-9" x1="-187.655" y1="0.998" x2="-187.655" y2="0" xlink:href="#linear-gradient-7"/>
    <linearGradient id="linear-gradient-10" x1="-206.012" y1="1" x2="-206.012" y2="0" xlink:href="#linear-gradient-7"/>
    <linearGradient id="linear-gradient-11" x1="-18.618" y1="1" x2="-18.618" y2="0" xlink:href="#linear-gradient-7"/>
    <linearGradient id="linear-gradient-12" x1="-23.7" y1="1" x2="-23.7" y2="0" xlink:href="#linear-gradient-7"/>
    <linearGradient id="linear-gradient-13" x1="0" y1="0.5" x2="1" y2="0.5" xlink:href="#linear-gradient-7"/>
    <linearGradient id="linear-gradient-14" x1="0" y1="0.5" x2="1" y2="0.5" xlink:href="#linear-gradient-7"/>
    <linearGradient id="linear-gradient-15" x1="0.001" y1="0.5" x2="1.001" y2="0.5" xlink:href="#linear-gradient-7"/>
    <linearGradient id="linear-gradient-16" x1="-0.001" y1="0.5" x2="0.999" y2="0.5" xlink:href="#linear-gradient-7"/>
    <linearGradient id="linear-gradient-17" x1="0" y1="0.5" x2="1" y2="0.5" xlink:href="#linear-gradient-7"/>
    <linearGradient id="linear-gradient-18" x1="5.162" y1="-3.908" x2="6.493" y2="-3.908" xlink:href="#linear-gradient-7"/>
    <linearGradient id="linear-gradient-19" x1="14.312" y1="-10.171" x2="15.58" y2="-10.171" xlink:href="#linear-gradient-7"/>
    <linearGradient id="linear-gradient-20" x1="5.977" y1="-4.056" x2="6.224" y2="-4.056" xlink:href="#linear-gradient-7"/>
    <linearGradient id="linear-gradient-21" x1="0" y1="0.5" x2="1" y2="0.5" xlink:href="#linear-gradient-7"/>
    <linearGradient id="linear-gradient-22" x1="0" y1="0.5" x2="1" y2="0.5" xlink:href="#linear-gradient"/>
    <linearGradient id="linear-gradient-23" x1="0" y1="0.499" x2="1" y2="0.499" xlink:href="#linear-gradient"/>
    <linearGradient id="linear-gradient-25" x1="0" y1="0.501" x2="1" y2="0.501" xlink:href="#linear-gradient"/>
    <linearGradient id="linear-gradient-26" x1="-0.001" y1="0.499" x2="0.999" y2="0.499" xlink:href="#linear-gradient"/>
    <linearGradient id="linear-gradient-27" x1="0" y1="0.5" x2="1" y2="0.5" xlink:href="#linear-gradient"/>
    <linearGradient id="linear-gradient-28" x1="0.003" y1="0.499" x2="1.002" y2="0.499" xlink:href="#linear-gradient"/>
    <linearGradient id="linear-gradient-29" x1="-0.001" y1="0.5" x2="1" y2="0.5" xlink:href="#linear-gradient"/>
    <linearGradient id="linear-gradient-30" x1="0" y1="0.5" x2="1" y2="0.5" xlink:href="#linear-gradient-7"/>
    <linearGradient id="linear-gradient-31" x1="0" y1="0.5" x2="1" y2="0.5" xlink:href="#linear-gradient-7"/>
    <linearGradient id="linear-gradient-32" x1="0" y1="0.5" x2="1" y2="0.5" xlink:href="#linear-gradient-7"/>
    <linearGradient id="linear-gradient-33" x1="0" y1="0.5" x2="1" y2="0.5" xlink:href="#linear-gradient-7"/>
    <linearGradient id="linear-gradient-34" x1="-0.007" y1="0.993" x2="0.943" y2="0.07" xlink:href="#linear-gradient-7"/>
    <linearGradient id="linear-gradient-35" x1="0" y1="0.5" x2="0.999" y2="0.5" xlink:href="#linear-gradient-7"/>
    <linearGradient id="linear-gradient-36" x1="0" y1="0.5" x2="1" y2="0.5" xlink:href="#linear-gradient-7"/>
    <linearGradient id="linear-gradient-37" x1="0" y1="0.501" x2="1" y2="0.501" xlink:href="#linear-gradient-7"/>
    <linearGradient id="linear-gradient-38" x1="0" y1="0.5" x2="1" y2="0.5" xlink:href="#linear-gradient-7"/>
    <linearGradient id="linear-gradient-39" x1="0.058" y1="82.109" x2="0.795" y2="-47" gradientUnits="objectBoundingBox">
      <stop offset="0" stop-color="#017eff" stop-opacity="0"/>
      <stop offset="0.02" stop-color="#017eff" stop-opacity="0.059"/>
      <stop offset="0.06" stop-color="#037eff" stop-opacity="0.212"/>
      <stop offset="0.12" stop-color="#057eff" stop-opacity="0.459"/>
      <stop offset="0.19" stop-color="#097fff" stop-opacity="0.8"/>
      <stop offset="0.23" stop-color="#0b80ff"/>
      <stop offset="0.28" stop-color="#1c82fe"/>
      <stop offset="0.37" stop-color="#488afe"/>
      <stop offset="0.49" stop-color="#9097fd"/>
      <stop offset="0.64" stop-color="#eaa7fd"/>
      <stop offset="0.99" stop-color="#012376" stop-opacity="0"/>
    </linearGradient>
    <linearGradient id="linear-gradient-40" x1="-0.093" y1="-0.137" x2="0.804" y2="-1.124" xlink:href="#linear-gradient-39"/>
    <linearGradient id="linear-gradient-41" x1="-0.365" y1="1.221" x2="0.533" y2="0.234" xlink:href="#linear-gradient-39"/>
    <linearGradient id="linear-gradient-42" x1="-0.385" y1="-1.492" x2="0.453" y2="-2.471" xlink:href="#linear-gradient-39"/>
    <linearGradient id="linear-gradient-43" x1="0.973" y1="1.487" x2="1.811" y2="0.508" xlink:href="#linear-gradient-39"/>
    <linearGradient id="linear-gradient-44" x1="1.181" y1="0.967" x2="2.022" y2="-0.012" xlink:href="#linear-gradient-39"/>
    <linearGradient id="linear-gradient-45" y1="0.5" x2="1" y2="0.5" gradientUnits="objectBoundingBox">
      <stop offset="0" stop-color="#abe9ff"/>
      <stop offset="0.42" stop-color="#bdf0ff"/>
      <stop offset="1" stop-color="#d4f9ff"/>
    </linearGradient>
    <linearGradient id="linear-gradient-46" x1="0" y1="0.5" x2="1" y2="0.5" xlink:href="#linear-gradient-45"/>
  </defs>
  <path id="Trazado_14695" data-name="Trazado 14695" d="M108.28,336.89h2.92v-2.92h-2.92Zm12-2.74h-6.21v2.92h6.21Zm-17.71-29.3H99.65v8.67h2.92Zm14.61,0h-2.92v8.67h2.92Zm-11.87,23.19h-2.92v2.92h2.92Zm17.68-17.44h-2.91v5.75h-8.74V310.6h-5.87v5.75H96.71V310.6H93.84a2.947,2.947,0,0,0-2.95,2.94V339.6a2.949,2.949,0,0,0,2.95,2.95h29.15a2.949,2.949,0,0,0,2.95-2.95V313.54a2.941,2.941,0,0,0-2.95-2.94Zm.03,28.94H93.71V325.02h29.31Zm0-17.35H93.8v-2.83h29.22Zm-23.28,5.93H96.63v3.01h3.11Zm-.09,5.75H96.64v3.01h3.01Zm2.76,3.01h3.01v-3.01h-3.01Zm8.74-8.86h-2.92v2.92h2.92Z" fill-rule="evenodd" opacity="0.34" fill="url(#linear-gradient)"/>
  <g id="Grupo_1598" data-name="Grupo 1598" opacity="0.34">
    <rect id="Rectángulo_330" data-name="Rectángulo 330" width="9.56" height="49.81" rx="1.01" transform="translate(566.62 424.18)" fill="url(#linear-gradient-2)"/>
    <rect id="Rectángulo_331" data-name="Rectángulo 331" width="9.56" height="38" rx="1.01" transform="translate(548.66 436)" fill="url(#linear-gradient-3)"/>
    <rect id="Rectángulo_332" data-name="Rectángulo 332" width="9.56" height="25.26" rx="1.01" transform="translate(530.69 448.73)" fill="url(#linear-gradient-4)"/>
    <path id="Trazado_14696" data-name="Trazado 14696" d="M562.57,424.09l-1.58-8.08a.733.733,0,0,0-1.21-.4c-1.55,1.43-4.59,4.23-6.12,5.64a.729.729,0,0,0,.27,1.23c.62.2,1.43.45,2.32.73l-1.97,6.03a1.814,1.814,0,0,1-.99,1.11,1.841,1.841,0,0,1-1.49.03l-2.86-1.18a5,5,0,0,0-6.21,2.03l-5.98,9.84a1.852,1.852,0,0,1-2.47.67l-3.71-2a1.579,1.579,0,1,0-1.5,2.78l3.71,2a4.964,4.964,0,0,0,2.55.6,5.037,5.037,0,0,0,4.12-2.41l5.98-9.84a1.841,1.841,0,0,1,2.3-.75l2.86,1.18a5.02,5.02,0,0,0,6.69-3.08l1.98-6.06c.91.29,1.74.55,2.37.75a.724.724,0,0,0,.93-.84Z" fill="url(#linear-gradient-5)"/>
    <path id="Trazado_14697" data-name="Trazado 14697" d="M567.05,418.39l.16.11a5.752,5.752,0,0,0,2.27.9.559.559,0,0,1,.45.56v1.03a.57.57,0,0,0,.57.57h1.79a.563.563,0,0,0,.57-.57v-1.28a.555.555,0,0,1,.35-.53,4.2,4.2,0,0,0,2.82-3.96c0-2.63-1.94-3.75-3.63-4.45-1.84-.76-1.98-1.1-1.98-1.52,0-.56.49-.89,1.3-.89a4.065,4.065,0,0,1,2.12.57l.27.15a.578.578,0,0,0,.82-.3l.69-1.82a.571.571,0,0,0-.25-.7l-.19-.11a5.679,5.679,0,0,0-1.76-.67.56.56,0,0,1-.44-.56v-.96a.57.57,0,0,0-.57-.57h-1.76a.57.57,0,0,0-.57.57v1.22a.57.57,0,0,1-.35.53,3.95,3.95,0,0,0-2.68,3.78c0,2.42,1.94,3.51,3.83,4.25,1.62.66,1.75,1.18,1.75,1.62,0,.69-.61,1.14-1.56,1.14a4.5,4.5,0,0,1-2.43-.73l-.28-.18a.577.577,0,0,0-.86.29l-.66,1.84a.579.579,0,0,0,.2.66Z" fill="url(#linear-gradient-6)"/>
  </g>
  <path id="Trazado_14698" data-name="Trazado 14698" d="M235.68,523.75l-4.75-2.27-1.32-2.08-1.13-.19v-.56c1.16-1.34,1.63-3.99,2.73-6.93a1.658,1.658,0,0,0,.06-.16,1.186,1.186,0,0,0,.86-.11c.65-.42,1.04-2.74,1.05-3.86.02-1.69-.79-1.52-.79-1.52h-.04c0-.15.01-.28.01-.42,0-1.52.3-4.1-.09-5.54-.58-2.16-.46-2.98-1.53-4.15a7.382,7.382,0,0,0-4.55-2.38c-.6,0-3.57-1.14-5.38-.49-1.74.62-.78,2.49-2.21,2.49-1.54,0-2.24,2.38-2.82,4.55-.37,1.4-.08,3.94-.08,5.52,0,.14,0,.27.01.4-.04.01-.07.02-.07.02s-.8-.17-.78,1.52c.01,1.12.4,3.44,1.05,3.86a1.209,1.209,0,0,0,.89.1c.02.06.05.12.07.18,1.15,3.06,1.45,5.55,2.76,6.95v.54l-1.23.19-1.41,2.48s-6.32,2.68-9.71,4.06c-3.39,1.4-3.02,3.17-3.02,3.17l-.02,10.69h15.79a8.242,8.242,0,0,1,1.49,0l1.19-14-1.01-1.88,2.34-1.87,2.34,1.87-.97,1.88.28,3.31a8.3,8.3,0,0,1,4.01-2.88c1.68-.69,3.84-1.58,5.98-2.48Zm66.86,6.05c-.09-2.97-2.45-3.27-2.45-3.27l-10.57-5.06-1.32-2.08-1.13-.19v-.56c1.16-1.34,1.63-3.99,2.73-6.93a1.654,1.654,0,0,0,.06-.16,1.186,1.186,0,0,0,.86-.11c.65-.42,1.04-2.74,1.05-3.86.02-1.69-.79-1.52-.79-1.52h-.04c0-.15.01-.28.01-.42,0-1.52.3-4.1-.09-5.54-.58-2.16-.46-2.98-1.53-4.15a7.382,7.382,0,0,0-4.55-2.38c-.6,0-3.57-1.14-5.38-.49-1.74.62-.78,2.49-2.21,2.49-1.54,0-2.24,2.38-2.82,4.55-.37,1.4-.08,3.94-.08,5.52,0,.14,0,.27.01.4-.04.01-.07.02-.07.02s-.8-.17-.78,1.52c.01,1.12.4,3.44,1.05,3.86a1.209,1.209,0,0,0,.89.1c.02.06.05.12.07.18,1.15,3.06,1.45,5.55,2.76,6.95v.54l-1.23.19-1.41,2.48s-2.04.86-4.42,1.86l7.08,3.39a4.286,4.286,0,0,1,2.79,1.84l.27-3.16-1.01-1.88,2.34-1.87,2.34,1.87-.97,1.88,1.2,14a.99.99,0,0,0,.18-.02,8.319,8.319,0,0,1,1.8.02h15.38c0-3.74,0-9.77-.02-9.99Zm-22.2,4.34c.01.25.02,7.55.02,13.5h-21.3a8.614,8.614,0,0,0-1.9-.03,1.965,1.965,0,0,0-.24.03l-1.62-18.9,1.31-2.53-3.17-2.52-3.17,2.52,1.37,2.53-1.6,18.9a8.465,8.465,0,0,0-1.51,0H226.7l.03-14.43s-.5-2.4,4.08-4.29c4.58-1.87,13.12-5.48,13.12-5.48l1.91-3.35,1.66-.26v-.73c-1.77-1.89-2.17-5.25-3.72-9.39l-.09-.24a1.574,1.574,0,0,1-1.2-.13c-.87-.57-1.4-3.7-1.41-5.21-.03-2.28,1.06-2.06,1.06-2.06a.248.248,0,0,0,.1-.03c0-.18-.02-.36-.02-.54,0-2.14-.39-5.58.11-7.46.79-2.93,1.73-6.15,3.81-6.15,1.93,0,.62-2.52,2.98-3.37,2.44-.88,6.45.66,7.26.66a9.96,9.96,0,0,1,6.15,3.22c1.44,1.59,1.28,2.69,2.06,5.61.52,1.94.12,5.43.12,7.49a5.15,5.15,0,0,1-.02.55l.05.02s1.09-.23,1.07,2.06c-.02,1.52-.55,4.64-1.42,5.21a1.565,1.565,0,0,1-1.16.14c-.03.07-.04.15-.08.23-1.48,3.97-2.13,7.55-3.69,9.36v.76l1.53.26,1.78,2.81,14.27,6.83s3.17.4,3.3,4.42Z" opacity="0.34" fill="url(#linear-gradient-7)"/>
  <g id="Grupo_1599" data-name="Grupo 1599" opacity="0.34">
    <path id="Trazado_14699" data-name="Trazado 14699" d="M448.5,189.07a14.178,14.178,0,0,0-14.02,12.23,21.027,21.027,0,0,1,7.66,1.5.994.994,0,0,1,.99-.59h.49a4.359,4.359,0,0,1-.7-2.51c0-2.9,2.58-4.94,5.88-4.94,4.1,0,6.09,2.2,6.09,4.03a1.582,1.582,0,0,1-1.76,1.64c-2.06,0-.8-2.86-3.96-2.86a2.449,2.449,0,0,0-2.69,2.34,5.239,5.239,0,0,0,.77,2.3h2.55c.96,0,1.45.35,1.45,1.12s-.49,1.12-1.45,1.12h-1.85a1.519,1.519,0,0,1,.12.56,2.967,2.967,0,0,1-.24,1.12,19.916,19.916,0,0,1,2.14,2.07,9.361,9.361,0,0,0,1.92.28c.4,0,1.36-.26,1.73-.26a1.357,1.357,0,0,1,1.36,1.5c0,1.32-1.18,1.9-2.4,1.98a21.5,21.5,0,0,1,1.98,4.33,14.158,14.158,0,0,0-6.06-26.96Z" fill="url(#linear-gradient-8)"/>
    <path id="Trazado_14700" data-name="Trazado 14700" d="M435.27,224.24v5.8c1.75-.12,3.6-.94,3.6-2.87s-2.02-2.58-3.6-2.93Z" fill="url(#linear-gradient-9)"/>
    <path id="Trazado_14701" data-name="Trazado 14701" d="M430.23,217.3c0,1.47,1.08,2.31,3.28,2.75v-5.24C431.52,214.87,430.23,216.04,430.23,217.3Z" fill="url(#linear-gradient-10)"/>
    <path id="Trazado_14702" data-name="Trazado 14702" d="M434.33,204.84a17.71,17.71,0,1,0,17.72,17.71A17.73,17.73,0,0,0,434.33,204.84Zm.94,28.19v1.82a.887.887,0,1,1-1.76,0v-1.82c-4.95-.12-7.41-3.07-7.41-5.39a1.682,1.682,0,0,1,1.82-1.84c3.28,0,.73,4.04,5.59,4.25v-6.12c-4.34-.79-6.97-2.69-6.97-5.95,0-3.98,3.31-6.03,6.97-6.15v-1.56a.887.887,0,1,1,1.76,0v1.56c2.28.06,6.97,1.49,6.97,4.36A1.755,1.755,0,0,1,440.4,218c-1.9,0-1.88-3.13-5.12-3.19v5.56c3.87.82,7.29,1.96,7.29,6.47,0,3.92-2.93,5.92-7.29,6.18Z" fill="url(#linear-gradient-11)"/>
    <path id="Trazado_14703" data-name="Trazado 14703" d="M430.8,201.62a17.773,17.773,0,0,1,3.18-8.58,14.169,14.169,0,1,0-16.78,16.98,21.441,21.441,0,0,1,4.36-4.41,8.679,8.679,0,0,1-.9.06,5.659,5.659,0,0,1-4.07-1.7,8.159,8.159,0,0,1-2.09-5.15h-1.53c-.15,0-.24-.1-.24-.3a1.833,1.833,0,0,1,.24-.77c.15-.3.29-.45.39-.45h1.04v-.44c0-.37.02-.88.05-1.55h-1.48c-.15,0-.24-.1-.24-.3a1.684,1.684,0,0,1,.24-.77c.15-.32.29-.47.39-.47h1.23q.78-6.345,5.98-6.35a6.489,6.489,0,0,1,3.94,1.2,3.461,3.461,0,0,1,1.67,2.93,1.455,1.455,0,0,1-.39,1.01,1.307,1.307,0,0,1-.96.4,1.248,1.248,0,0,1-.91-.3,4.175,4.175,0,0,1-.56-.98,3.715,3.715,0,0,0-.84-1.33,2.413,2.413,0,0,0-1.65-.45,2.5,2.5,0,0,0-2.07.94,5.739,5.739,0,0,0-.93,2.93h3.91c.17,0,.25.1.25.32a1.817,1.817,0,0,1-.22.77c-.15.3-.29.45-.4.45h-3.64l-.03,1.2c0,.35.02.62.03.79h4.01c.17,0,.25.1.25.3a1.9,1.9,0,0,1-.22.79c-.15.3-.29.44-.4.44h-3.57c.29,2.91,1.23,4.38,2.81,4.38a3.312,3.312,0,0,0,1.62-.42,4.247,4.247,0,0,0,1.41-2,3.777,3.777,0,0,1,.76-1.28,1.193,1.193,0,0,1,.67-.24,1.5,1.5,0,0,1,1.15.42,1.573,1.573,0,0,1,.4,1.16,3.837,3.837,0,0,1-.75,2.24,21.317,21.317,0,0,1,4.9-1.45Z" fill="url(#linear-gradient-12)"/>
  </g>
  <path id="Trazado_14704" data-name="Trazado 14704" d="M113.37,614.26h67.37v-2.47H113.37Zm1.06-40.42h65.24c1.57-.69,1.5-2.17.03-3.15S147,547.16,147,547.16s-30.99,22.54-32.56,23.53-1.67,2.46,0,3.15Zm32.56-15.54a4.72,4.72,0,1,1-4.71,4.72A4.716,4.716,0,0,1,146.99,558.3Zm-30.93,50.57h61.98v-2.64H116.06v2.64Zm2.59-8.27v2.94h13.47V600.6h-2.64V579.46h2.64v-2.97H118.65v2.71h2.64v21.41h-2.64Zm21.59,0v2.94h13.47V600.6h-2.56V579.29h2.64v-2.64H140.32v2.54h2.64V600.6h-2.72Zm21.42,0v2.94h13.47V600.6h-2.48V579.29h2.64v-2.64H161.82v2.54h2.64V600.6h-2.8Z" fill-rule="evenodd" opacity="0.34" fill="url(#linear-gradient-13)"/>
  <g id="Grupo_1601" data-name="Grupo 1601" opacity="0.34">
    <path id="Trazado_14705" data-name="Trazado 14705" d="M559.75,214.88l-25.34,21.39a1.367,1.367,0,0,1-2.25-1.04v-1.41a2.021,2.021,0,0,0-2.02-2.02h-6.35a2.021,2.021,0,0,0-2.02,2.02v12.19a2.02,2.02,0,0,1-.72,1.55l-9.03,7.62a2.026,2.026,0,0,0-.24,2.85l4.09,4.85a2.026,2.026,0,0,0,2.85.24l40.9-34.53a2.019,2.019,0,0,1,2.64.02l39.33,34.42a2.027,2.027,0,0,0,2.86-.19l4.18-4.78a2.027,2.027,0,0,0-.19-2.86l-46.05-40.3a2.019,2.019,0,0,0-2.64-.02Z" fill="url(#linear-gradient-14)"/>
    <g id="Grupo_1600" data-name="Grupo 1600">
      <path id="Trazado_14706" data-name="Trazado 14706" d="M583.72,286.15l2.24-4.78.89,5.2c.02.12.04.23.06.34,3.17-15.06-12.67-21.21-12.89-21.3a.947.947,0,0,0,.1.1,12.157,12.157,0,0,1,3.25,9.61c-.39,3.76-2.82,6.28-4.72,9.35a24.289,24.289,0,0,0-1.7,3.27,18.625,18.625,0,0,1-2.36-6.94,30.783,30.783,0,0,0-2.56,13.05s0,8.54,7.03,13.15a8.991,8.991,0,0,0,.79.44,12.634,12.634,0,0,0,11.77-.43,15.53,15.53,0,0,1-4.1-9.93,25.932,25.932,0,0,1,2.19-11.13Z" fill="url(#linear-gradient-15)"/>
      <path id="Trazado_14707" data-name="Trazado 14707" d="M605,296.2a16.6,16.6,0,0,1-.31,3.27,12.708,12.708,0,0,1-4.86,7.52,10.185,10.185,0,0,1-2.5,1.37,7.19,7.19,0,0,0,2.51-4.06,8.991,8.991,0,0,0,.18-1.85,13.9,13.9,0,0,0-1.16-5.28c-.66,3.86-2.23,4.18-2.23,4.18,2.93-7.87-5.23-11.04-5.34-11.09l.05.05a5.5,5.5,0,0,1,1.46,4.32c-.18,1.69-1.27,2.82-2.12,4.2a10.261,10.261,0,0,0-.76,1.47,8.484,8.484,0,0,1-1.06-3.12,13.77,13.77,0,0,0-1.15,5.86,7.777,7.777,0,0,0,2.35,5.28c-.21-.09-.43-.18-.63-.28a5.93,5.93,0,0,1-.63-.35c-5.58-3.66-5.59-10.45-5.59-10.45a24.359,24.359,0,0,1,2.03-10.37,14.749,14.749,0,0,0,1.88,5.51,18.426,18.426,0,0,1,1.35-2.6c1.5-2.44,3.44-4.45,3.75-7.43a9.7,9.7,0,0,0-2.59-7.64l-.08-.08c.19.07,14.65,5.69,9.46,19.62,0,0,2.78-.56,3.95-7.39a24.936,24.936,0,0,1,2.06,9.34Z" fill="url(#linear-gradient-16)"/>
    </g>
    <path id="Trazado_14708" data-name="Trazado 14708" d="M597.8,264.07l-23.2-20.3L561.38,232.2a.7.7,0,0,0-.94,0l-13.71,11.57-24.16,20.39a.74.74,0,0,0-.26.55v25.55a1.366,1.366,0,0,0,1.37,1.37h20.47a1.3,1.3,0,0,1,1.3,1.3v6.69a1.3,1.3,0,0,1-1.3,1.3H523.68a1.366,1.366,0,0,0-1.37,1.37v7.56a.717.717,0,0,0,.72.72H570.7c-8.21-5.47-8.74-15-8.77-16.35a35.052,35.052,0,0,1,2.94-14.94,4.1,4.1,0,0,1,6.96-.76,8.4,8.4,0,0,0,1.45-3.6,8.12,8.12,0,0,0-2.14-6.35l-.04-.04a4.1,4.1,0,0,1,4.37-6.73,29.587,29.587,0,0,1,9.09,5.9,24.832,24.832,0,0,1,2.95,3.36,4.123,4.123,0,0,1,3.47-.26,24.524,24.524,0,0,1,7.05,4.44V264.61a.694.694,0,0,0-.25-.54Z" fill="url(#linear-gradient-17)"/>
  </g>
  <g id="Grupo_1602" data-name="Grupo 1602" opacity="0.34">
    <path id="Trazado_14709" data-name="Trazado 14709" d="M475.54,341.04,429.49,331a.6.6,0,0,0-.58.17l-3.46,3.46a.613.613,0,0,0-.18.53.6.6,0,0,0,.31.46l35.45,20.47a.622.622,0,0,0,.76-.1l14.06-13.89a.636.636,0,0,0-.31-1.07h0Zm4.57,4.57,10.04,46.05a.6.6,0,0,1-.17.58l-3.46,3.46a.613.613,0,0,1-.53.18.6.6,0,0,1-.46-.31l-20.47-35.45a.622.622,0,0,1,.1-.76l13.89-14.06a.636.636,0,0,1,1.07.31h0Z" fill-rule="evenodd" fill="url(#linear-gradient-18)"/>
    <path id="Trazado_14710" data-name="Trazado 14710" d="M446.07,372.67l-20.26.52a.619.619,0,0,0-.45.19l-1.72,1.72a.651.651,0,0,0-.18.61.628.628,0,0,0,.41.48l14.17,5.52a.648.648,0,0,0,.71-.15l7.81-7.76a.662.662,0,0,0-.49-1.13h0Zm2.82,2.82-.52,20.26a.619.619,0,0,1-.19.45l-1.72,1.72a.651.651,0,0,1-.61.18.628.628,0,0,1-.48-.41l-5.52-14.17a.648.648,0,0,1,.15-.71l7.76-7.81a.662.662,0,0,1,1.13.49h0Z" fill-rule="evenodd" fill="url(#linear-gradient-19)"/>
    <path id="Trazado_14711" data-name="Trazado 14711" d="M444.29,381.13l-.11.11h0l-.14.14h0l-.14.14h0l-.14.14h0a1.741,1.741,0,0,1-.14.14h0l-.14.14h0l-.14.14h0l-.28.28h0l-.14.14h0l-.14.14h0c-.09.09-.19.18-.28.27h0s-.09.09-.14.13h0s-.09.09-.14.13h0s-.09.09-.14.13h0s-.09.09-.14.13h0c-.09.09-.18.17-.27.25h0s-.09.08-.14.12h0s-.09.08-.14.12h0l-.27.24h0s-.09.08-.14.12h0a1.362,1.362,0,0,1-.14.11h0l-.14.11h0l-.14.11-.14.11h0s-.09.07-.14.1h0s-.09.07-.14.1h0s-.09.07-.14.1h0s-.09.06-.14.1-.09.06-.14.09-.09.06-.14.09-.09.06-.14.09a1,1,0,0,1-.14.08c-.09.05-.18.11-.28.16a.915.915,0,0,1-.14.07c-.18.1-.37.18-.55.26-.05.02-.09.04-.14.06-.09.04-.19.07-.28.1-1.4.45-2.36.42-2.85-.11-.43-.47-.5-1.32-.18-2.55.02-.09.05-.19.08-.28s.06-.19.1-.28c.02-.05.04-.09.06-.14a5.517,5.517,0,0,1,.26-.55c.02-.05.05-.09.07-.14.05-.09.1-.18.16-.27a1,1,0,0,0,.08-.14c.03-.05.06-.09.09-.14s.06-.09.09-.14.06-.09.09-.14a1.215,1.215,0,0,1,.1-.14h0s.07-.09.1-.14h0s.07-.09.1-.14h0s.07-.09.1-.14h0l.11-.14.11-.14h0l.11-.14h0a1.362,1.362,0,0,0,.11-.14h0s.08-.09.12-.14h0l.24-.27h0s.08-.09.12-.14h0s.08-.09.12-.14h0c.08-.09.17-.18.25-.27h0s.09-.09.13-.14h0s.09-.09.13-.14h0s.09-.09.13-.14h0s.09-.09.13-.14h0c.09-.09.18-.19.27-.28h0l.14-.14h0l.14-.14h0l.28-.28h0l.14-.14h0l.14-.14h0a1.741,1.741,0,0,0,.14-.14h0l.14-.14h0l.14-.14h0l.14-.14h0l.11-.11-.76-.76a1.434,1.434,0,0,1-.02-1.99l32.24-34.98h0l.02-.02h0l.36-.36h0c.12-.12.24-.24.35-.36h0l.35-.35h0l.35-.35h0c.12-.12.23-.24.35-.35h0l.35-.35h0l.35-.35h0l.69-.69h0c.12-.11.23-.23.35-.34h0l.34-.34h0c.23-.23.46-.45.69-.67h0c.11-.11.23-.22.34-.33h0c.11-.11.23-.22.34-.33h0c.11-.11.23-.22.34-.32h0c.11-.11.23-.21.34-.32h0c.23-.21.45-.42.68-.63h0l.34-.31h0c.11-.1.23-.2.34-.3h0c.23-.2.45-.4.67-.59h0c.11-.1.22-.19.34-.29h0c.11-.09.22-.19.34-.28h0c.11-.09.22-.18.34-.28h0c.11-.09.22-.18.34-.27s.22-.18.34-.26h0c.11-.09.22-.17.34-.26h0c.11-.08.22-.17.34-.25h0c.11-.08.22-.16.34-.24h0c.11-.08.22-.16.34-.24s.22-.15.34-.23.23-.15.34-.22.23-.14.34-.21.23-.14.34-.21c.23-.14.45-.26.68-.39.11-.06.23-.12.34-.18,8.43-4.4,13.05.22,8.65,8.65-.06.11-.12.23-.18.34-.12.23-.25.45-.39.68-.07.11-.14.23-.21.34s-.14.23-.21.34-.15.23-.22.34-.15.22-.23.34-.16.22-.24.34h0c-.08.11-.16.22-.24.34h0c-.08.11-.17.22-.25.34h0c-.08.11-.17.22-.26.34h0c-.09.11-.17.22-.26.34s-.18.22-.27.34h0c-.09.11-.18.22-.28.34h0c-.09.11-.19.22-.28.34h0c-.09.11-.19.22-.29.34h0c-.19.22-.39.45-.59.67h0c-.1.11-.2.23-.3.34h0c-.1.11-.2.23-.31.34h0c-.21.23-.41.45-.63.68h0c-.11.11-.21.23-.32.34h0c-.11.11-.21.23-.32.34h0c-.11.11-.22.23-.33.34h0c-.11.11-.22.23-.33.34h0c-.22.23-.44.46-.67.69h0l-.34.34h0c-.11.11-.23.23-.34.35h0l-.69.69h0l-.35.35h0l-.35.35h0l-.35.35h0l-.35.35h0l-.35.35h0c-.12.12-.24.24-.36.35h0l-.36.36h0l-.02.02h0l-34.98,32.24a1.434,1.434,0,0,1-1.99-.02l-.76-.76h0Zm27.2-42h0l.02-.02-.02.02Z" fill-rule="evenodd" fill="url(#linear-gradient-20)"/>
  </g>
  <g id="Grupo_1603" data-name="Grupo 1603" opacity="0.34">
    <path id="Trazado_14712" data-name="Trazado 14712" d="M214.98,364.27h-2.93a30.5,30.5,0,0,0,0,60.91h2.93a30.487,30.487,0,0,0,0-60.92Zm20.1,12.2a34.707,34.707,0,0,1-7.03,4.12A36.75,36.75,0,0,0,218.4,367a27.968,27.968,0,0,1,16.67,9.48Zm-20.22-9.35a34.691,34.691,0,0,1,11,14.33,34.639,34.639,0,0,1-11,2.03Zm0,18.72a36.936,36.936,0,0,0,11.81-2.18,35.352,35.352,0,0,1,1.77,10.87H214.86Zm0,11.06h13.5a34.928,34.928,0,0,1-2.29,10.54,37.7,37.7,0,0,0-11.22-1.93v-8.62Zm-6.3-29.84a36.868,36.868,0,0,0-9.37,13.06,34.8,34.8,0,0,1-6.54-4.06,28.192,28.192,0,0,1,15.91-9.01Zm-17.4,10.83a36.854,36.854,0,0,0,7.17,4.43,37.651,37.651,0,0,0-2.08,12.22h-10.7a27.791,27.791,0,0,1,5.61-16.66Zm.89,34.79a27.872,27.872,0,0,1-6.41-15.77h10.69a37.191,37.191,0,0,0,2.61,11.78,36.5,36.5,0,0,0-6.88,3.99Zm1.59,1.76a33.769,33.769,0,0,1,6.24-3.58,36.485,36.485,0,0,0,8.68,11.53A28.242,28.242,0,0,1,193.64,414.44Zm18.87,8.14a34.8,34.8,0,0,1-10.44-12.61,35.274,35.274,0,0,1,10.44-2.07Zm0-17.04a37.626,37.626,0,0,0-11.39,2.27,34.825,34.825,0,0,1-2.44-10.91h13.83v8.63Zm0-11h-13.9a35.171,35.171,0,0,1,1.9-11.27,36.987,36.987,0,0,0,12,2.54v8.73Zm0-11.09a34.6,34.6,0,0,1-11.15-2.39,34.673,34.673,0,0,1,11.15-14.19v16.58Zm2.36,38.88V407.87a35.088,35.088,0,0,1,10.29,1.75,34.851,34.851,0,0,1-10.29,12.72Zm3.55.13a36.506,36.506,0,0,0,8.97-12.03,34.245,34.245,0,0,1,6.71,3.64,28.155,28.155,0,0,1-15.69,8.39Zm17.25-10.17a36.248,36.248,0,0,0-7.36-4.03,36.909,36.909,0,0,0,2.43-11.37h11.01a27.933,27.933,0,0,1-6.08,15.4Zm6.17-17.76H230.82a37.548,37.548,0,0,0-1.93-11.73,37.754,37.754,0,0,0,7.67-4.47,27.879,27.879,0,0,1,5.29,16.2Z" fill="url(#linear-gradient-21)"/>
  </g>
  <g id="Grupo_1604" data-name="Grupo 1604" opacity="0.34">
    <path id="Trazado_14713" data-name="Trazado 14713" d="M195.03,297.71h0a.748.748,0,0,0,.54-.22l8.51-8.02a.779.779,0,0,0,.24-.57.963.963,0,0,0,.14-.48V258.71a3.367,3.367,0,0,0-3.36-3.36H172.77a3.367,3.367,0,0,0-3.36,3.36v35.86a3.367,3.367,0,0,0,3.36,3.36h21.66A.981.981,0,0,0,195.03,297.71Zm.8-2.63V292a2.311,2.311,0,0,1,2.31-2.31h3.41l-5.71,5.39Zm-2.32.99H172.78a1.5,1.5,0,0,1-1.49-1.5V258.71a1.5,1.5,0,0,1,1.49-1.5h28.33a1.5,1.5,0,0,1,1.49,1.5v28.78h-4.35a4.744,4.744,0,0,0-4.74,4.74v3.83Z" fill="url(#linear-gradient-22)"/>
    <path id="Trazado_14714" data-name="Trazado 14714" d="M176.68,267.74h20.53a.928.928,0,0,0,.93-.93v-1.67a.935.935,0,0,0-.93-.93H176.68a.935.935,0,0,0-.93.93v1.67A.935.935,0,0,0,176.68,267.74Zm.19-2.42h20.16v1.3H176.87Z" fill="url(#linear-gradient-23)"/>
    <path id="Trazado_14715" data-name="Trazado 14715" d="M176.68,273.58h20.53a.928.928,0,0,0,.93-.93v-1.67a.935.935,0,0,0-.93-.93H176.68a.935.935,0,0,0-.93.93v1.67A.935.935,0,0,0,176.68,273.58Zm.19-2.42h20.16v1.3H176.87Z" fill="url(#linear-gradient-23)"/>
    <path id="Trazado_14716" data-name="Trazado 14716" d="M198.14,278.49v-1.67a.935.935,0,0,0-.93-.93H176.68a.935.935,0,0,0-.93.93v1.67a.935.935,0,0,0,.93.93h20.53A.928.928,0,0,0,198.14,278.49Zm-1.12-.19H176.86V277h20.16Z" fill="url(#linear-gradient-25)"/>
  </g>
  <g id="Grupo_1605" data-name="Grupo 1605" opacity="0.34">
    <path id="Trazado_14717" data-name="Trazado 14717" d="M520.8,157.46l-1.64-.31a11.383,11.383,0,0,0-.55-2.64l1.39-.94a.975.975,0,0,0,.26-1.34l-2.44-3.58a.985.985,0,0,0-.62-.41.922.922,0,0,0-.72.15l-1.39.94a11.286,11.286,0,0,0-2.26-1.48l.31-1.64a.965.965,0,0,0-.77-1.13l-4.26-.81a.922.922,0,0,0-.72.15.985.985,0,0,0-.41.62l-.31,1.64a11.381,11.381,0,0,0-2.64.55l-.94-1.38a.985.985,0,0,0-.62-.41.922.922,0,0,0-.72.15l-3.58,2.44a.934.934,0,0,0-.4.62.922.922,0,0,0,.15.72l.94,1.39a11.288,11.288,0,0,0-1.48,2.26l-1.64-.31a.922.922,0,0,0-.72.15.912.912,0,0,0-.4.62l-.81,4.26a.965.965,0,0,0,.77,1.13l1.64.31a11.381,11.381,0,0,0,.55,2.64l-1.39.94a.985.985,0,0,0-.41.62.922.922,0,0,0,.15.72l2.44,3.58a.96.96,0,0,0,.62.41.922.922,0,0,0,.72-.15l1.39-.94a11.286,11.286,0,0,0,2.26,1.48l-.31,1.64a.965.965,0,0,0,.77,1.13l4.26.81a1.1,1.1,0,0,0,.18.02.972.972,0,0,0,.95-.78l.31-1.64a11.381,11.381,0,0,0,2.64-.55l.94,1.38a.985.985,0,0,0,.62.41.922.922,0,0,0,.72-.15l3.58-2.44a.975.975,0,0,0,.26-1.34l-.94-1.39a11.284,11.284,0,0,0,1.48-2.26l1.64.31a.965.965,0,0,0,1.13-.77l.81-4.26a.922.922,0,0,0-.15-.72.985.985,0,0,0-.62-.41Zm-1.76,4.08-1.44-.27a.958.958,0,0,0-1.07.58,9.4,9.4,0,0,1-1.95,2.96.953.953,0,0,0-.1,1.21l.82,1.22-1.99,1.35-.82-1.21a.962.962,0,0,0-1.16-.35,9.448,9.448,0,0,1-3.47.72.962.962,0,0,0-.93.78l-.27,1.44-2.36-.45.27-1.44a.953.953,0,0,0-.58-1.07,9.4,9.4,0,0,1-2.96-1.95.953.953,0,0,0-1.21-.1l-1.21.82-1.35-1.99,1.21-.82a.962.962,0,0,0,.35-1.16,9.448,9.448,0,0,1-.72-3.47.952.952,0,0,0-.78-.93l-1.44-.27.45-2.36,1.44.27a.964.964,0,0,0,1.07-.58,9.4,9.4,0,0,1,1.95-2.96.953.953,0,0,0,.1-1.21l-.82-1.21,1.99-1.35.82,1.21a.962.962,0,0,0,1.16.35,9.448,9.448,0,0,1,3.47-.72.962.962,0,0,0,.93-.78l.27-1.44,2.36.45-.27,1.44a.953.953,0,0,0,.58,1.07,9.4,9.4,0,0,1,2.96,1.95.953.953,0,0,0,1.21.1l1.21-.83,1.35,1.99-1.21.82a.962.962,0,0,0-.35,1.16,9.446,9.446,0,0,1,.72,3.47.96.96,0,0,0,.78.93l1.44.27-.45,2.36Z" fill="url(#linear-gradient-26)"/>
    <path id="Trazado_14718" data-name="Trazado 14718" d="M508.98,151.34a6.923,6.923,0,1,0-2.6,13.6h0a7.252,7.252,0,0,0,1.3.13,6.927,6.927,0,0,0,1.3-13.73Zm3.61,7.74a4.989,4.989,0,0,1-5.85,3.97h0a5,5,0,0,1,.92-9.92,5.174,5.174,0,0,1,.95.09,5,5,0,0,1,3.97,5.85Z" fill="url(#linear-gradient-27)"/>
    <path id="Trazado_14719" data-name="Trazado 14719" d="M485.68,153.23l.18,1.24a.767.767,0,0,0,.28.48.7.7,0,0,0,.43.15h.1l3.22-.46a.716.716,0,0,0,.61-.82l-.18-1.25a8.1,8.1,0,0,0,1.74-1.04l1.01.75a.72.72,0,0,0,1.01-.15l1.95-2.61a.72.72,0,0,0-.15-1.01l-1.01-.75a8.38,8.38,0,0,0,.5-1.97l1.24-.18a.767.767,0,0,0,.48-.28.74.74,0,0,0,.14-.54l-.46-3.22a.716.716,0,0,0-.82-.61l-1.25.18a8.1,8.1,0,0,0-1.04-1.74l.75-1.01a.74.74,0,0,0,.14-.54.767.767,0,0,0-.28-.48l-2.61-1.95a.74.74,0,0,0-.54-.14.767.767,0,0,0-.48.28l-.75,1.01a8.38,8.38,0,0,0-1.97-.5l-.18-1.24a.73.73,0,0,0-.82-.62l-3.22.46a.767.767,0,0,0-.48.28.74.74,0,0,0-.14.54l.18,1.24a8.1,8.1,0,0,0-1.74,1.04l-1.01-.75a.74.74,0,0,0-.54-.14.767.767,0,0,0-.48.28l-1.95,2.61a.74.74,0,0,0-.14.54.767.767,0,0,0,.28.48l1.01.75a8.38,8.38,0,0,0-.5,1.97l-1.25.18a.767.767,0,0,0-.48.28.74.74,0,0,0-.14.54l.46,3.22a.716.716,0,0,0,.82.61l1.24-.18a8.1,8.1,0,0,0,1.04,1.74l-.75,1.01a.74.74,0,0,0-.14.54.767.767,0,0,0,.28.48l2.61,1.95a.728.728,0,0,0,1.01-.14l.75-1.01a8.38,8.38,0,0,0,1.97.5Zm-2.78-1.83-.66.88-1.45-1.08.66-.88a.724.724,0,0,0-.04-.91,7.2,7.2,0,0,1-1.36-2.29.73.73,0,0,0-.78-.47l-1.09.16-.26-1.79,1.09-.16a.724.724,0,0,0,.62-.67,7.283,7.283,0,0,1,.66-2.58.743.743,0,0,0-.22-.89l-.88-.66,1.08-1.45.88.66a.723.723,0,0,0,.91-.04,7.2,7.2,0,0,1,2.29-1.36.723.723,0,0,0,.47-.78l-.16-1.09,1.79-.26.16,1.09a.724.724,0,0,0,.67.62,7.282,7.282,0,0,1,2.58.66.73.73,0,0,0,.89-.22l.66-.88,1.45,1.09-.66.88a.711.711,0,0,0,.04.91,7.2,7.2,0,0,1,1.36,2.29.723.723,0,0,0,.78.47l1.09-.16.26,1.79-1.09.16a.724.724,0,0,0-.62.67,7.283,7.283,0,0,1-.66,2.58.73.73,0,0,0,.22.89l.88.66-1.08,1.45-.88-.66a.711.711,0,0,0-.91.04,7.2,7.2,0,0,1-2.29,1.36.723.723,0,0,0-.47.78l.16,1.09-1.79.26-.16-1.09a.724.724,0,0,0-.67-.62,7.282,7.282,0,0,1-2.58-.66.67.67,0,0,0-.31-.07.72.72,0,0,0-.58.29Z" fill="url(#linear-gradient-28)"/>
    <path id="Trazado_14720" data-name="Trazado 14720" d="M487.57,149.79a5.225,5.225,0,1,0-.74.05,6.132,6.132,0,0,0,.74-.05Zm-4.46-4.62a3.757,3.757,0,0,1,3.19-4.25,3.272,3.272,0,0,1,.54-.04,3.754,3.754,0,1,1-3.71,4.28Z" fill="url(#linear-gradient-29)"/>
  </g>
  <g id="Grupo_1606" data-name="Grupo 1606" opacity="0.34">
    <path id="Trazado_14721" data-name="Trazado 14721" d="M340.89,467.63a33.783,33.783,0,0,1,6.81,1.17l.56.21a1.091,1.091,0,0,0,.17.05c6.33,1.56,19.16,4.8,37.09,9.37l.13.03a.563.563,0,0,0,.1.02,7.607,7.607,0,0,0,1.49.15,7.437,7.437,0,0,0,2.49-.44.212.212,0,0,0,.07-.03l.21-.08a1.624,1.624,0,0,0,.49-.25l28.25-20.48a7.133,7.133,0,0,0,1.5-1.1.463.463,0,0,0,.07-.07,6.573,6.573,0,0,0,1.96-4.7,6.64,6.64,0,0,0-6.01-6.63,5.951,5.951,0,0,0-2.07-.03,6.288,6.288,0,0,0-.85.19,5.555,5.555,0,0,0-1,.41c-.17.09-.34.18-.52.29-.06.03-.11.07-.17.1l-3.1,2.25-17.02,11.03a5.161,5.161,0,0,1-.82.03c-1.01-.25-4.63-1.19-10.78-2.82l-.27-.07c-1.38-.4-2.79-.77-4.15-1.1-1.9-.5-3.41-.91-4.02-1.07a2.966,2.966,0,0,1,.99-5.42h10.85a4.785,4.785,0,1,0,0-9.57H371.63c-1.51-.05-3.4-.07-5.73-.07a20.854,20.854,0,0,0-12.46,4.31c-.75.52-1.48,1.06-2.2,1.59-3.31,2.46-6.16,4.57-10.37,4.57a1.7,1.7,0,0,0-1.37.7,1.715,1.715,0,0,0-.29,1.26l-.02,13.17a1.465,1.465,0,0,0,.02.3v1.02a1.677,1.677,0,0,0,1.68,1.68Zm1.68-4.75V452.75c4.4-.49,7.58-2.85,10.66-5.14.69-.51,1.39-1.04,2.12-1.54a17.538,17.538,0,0,1,10.53-3.7c2.3,0,4.15.02,5.68.06h11.76a1.42,1.42,0,0,1,0,2.84h-11a1.229,1.229,0,0,0-.27.02,6.329,6.329,0,0,0-2.03,11.8,1.584,1.584,0,0,0,.38.15c.35.09,2.03.54,4.28,1.14q2.025.495,4.08,1.08l.31.08c6.63,1.75,10.23,2.7,11.03,2.88a1.446,1.446,0,0,0,.29.04,6.842,6.842,0,0,0,2.19-.17,1.644,1.644,0,0,0,.51-.22l17.32-11.23a.5.5,0,0,0,.07-.05l3.05-2.21a.4.4,0,0,0,.04-.03c.09-.06.19-.11.28-.16a2.665,2.665,0,0,1,.46-.2,2.325,2.325,0,0,1,.38-.08,2.743,2.743,0,0,1,.99.02l.2.03a3.292,3.292,0,0,1,3.04,3.28,3.256,3.256,0,0,1-.99,2.33c-.01,0-.02.02-.03.03a3.318,3.318,0,0,1-.8.58,1.645,1.645,0,0,0-.22.14l-1.19.87-26.96,19.54s-.09.03-.13.05a3.91,3.91,0,0,1-2.15.17l-.08-.02c-17.87-4.55-30.66-7.78-37.04-9.35l-.55-.2a1.208,1.208,0,0,0-.18-.05,47.8,47.8,0,0,0-6.05-1.19l.02-1.49Z" fill="url(#linear-gradient-30)"/>
    <path id="Trazado_14722" data-name="Trazado 14722" d="M371.44,435.57h23.18a5.241,5.241,0,0,0,5.23-5.23V418.9l.78.78a1.678,1.678,0,0,0,2.38,0l2.07-2.08h0a5.474,5.474,0,0,0,0-7.73l-15.99-15.99s-.08-.09-.12-.13l-2.07-2.08a5.48,5.48,0,0,0-7.74,0l-2.07,2.07s-.08.08-.11.12l-16,16a5.474,5.474,0,0,0,0,7.73l2.07,2.07a1.69,1.69,0,0,0,2.38,0l.78-.78v11.45a5.241,5.241,0,0,0,5.23,5.23Zm15.67-5.83h-8.18V419.23h8.18Zm9.37.6a1.863,1.863,0,0,1-1.86,1.86h-4.33a1.626,1.626,0,0,0,.2-.79V417.54a1.677,1.677,0,0,0-1.68-1.68H377.27a1.677,1.677,0,0,0-1.68,1.68v13.87a1.626,1.626,0,0,0,.2.79h-4.33a1.871,1.871,0,0,1-1.87-1.86V415.53l13.45-13.45,8.59,8.59h0l4.86,4.86v14.81Zm-32.24-14.23-.88-.88a2.1,2.1,0,0,1,0-2.97l16.11-16.12s.08-.08.11-.12l1.96-1.96a2.17,2.17,0,0,1,2.98,0l1.95,1.95s.08.09.12.13l16.12,16.12a2.1,2.1,0,0,1,0,2.97l-.88.89-17.6-17.6a1.663,1.663,0,0,0-1.19-.49,1.705,1.705,0,0,0-1.19.49l-17.6,17.6Z" fill="url(#linear-gradient-31)"/>
  </g>
  <g id="Grupo_1607" data-name="Grupo 1607" opacity="0.34">
    <path id="Trazado_14723" data-name="Trazado 14723" d="M274.25,196.24a1.5,1.5,0,0,0,1.48,1.27,1.409,1.409,0,0,0,.2-.01c8.81-1.16,15.39-3.56,20.11-7.34a24.484,24.484,0,0,0,5.81-6.69,34.067,34.067,0,0,0,3.22-7.32l2.81.4a1.5,1.5,0,0,0,1.57-2.14l-4.73-9.83h0a1.507,1.507,0,0,0-1.05-.82,1.49,1.49,0,0,0-1.28.33l-8.31,7.16a1.508,1.508,0,0,0,.67,2.61l2.49.53a22.774,22.774,0,0,1-4.23,9.54,28.7,28.7,0,0,1-11.23,8.53,36.112,36.112,0,0,1-4.53,1.64c-.58.17-1.04.28-1.33.34-.15.03-.27.06-.34.07l-.08.02a1.492,1.492,0,0,0-1.24,1.72Zm5.67-1.16c.78-.27,1.64-.61,2.56-1.02a30.4,30.4,0,0,0,11.92-9.07,24.719,24.719,0,0,0,4.7-11.14.889.889,0,0,0-.68-1l-2.83-.6,7.69-6.62,4.39,9.13-3.09-.44h-.13a.876.876,0,0,0-.84.63,32.832,32.832,0,0,1-3.26,7.64,22.844,22.844,0,0,1-5.41,6.22c-3.69,2.96-8.64,5.03-15.03,6.28Z" fill="url(#linear-gradient-32)"/>
    <path id="Trazado_14724" data-name="Trazado 14724" d="M314.19,202.44a1.218,1.218,0,0,0-1.22-1.22H269.78V161.27a1.22,1.22,0,1,0-2.44,0h0v41.16a1.229,1.229,0,0,0,1.22,1.22h44.41a1.218,1.218,0,0,0,1.22-1.22Z" fill="url(#linear-gradient-33)"/>
  </g>
  <path id="Trazado_14725" data-name="Trazado 14725" d="M152.94,411.26H135.17v56.33h17.77Zm-19.69,19.96H115.48v36.37h17.77Zm-19.69,17.5H95.78v18.87h17.78ZM92.77,421.79H90.4v2.19h2.37Zm0-5.41H90.4v2.19h2.37Zm0-5.41H90.4v2.18h2.37Zm0-5.41H90.4v2.19h2.37Zm0,21.65H90.4v2.19h2.37Zm0,27.07H90.4v2.19h2.37Zm0,10.82H90.4v2.19h2.37Zm0-5.41H90.4v2.19h2.37ZM90.4,470.52v2.19h65.27v-2.19H90.4Zm2.37-27.07H90.4v2.19h2.37Zm0-5.41H90.4v2.19h2.37Zm0-5.41H90.4v2.19h2.37Zm0,16.24H90.4v2.19h2.37Z" opacity="0.34" fill="url(#linear-gradient-34)"/>
  <g id="Grupo_1608" data-name="Grupo 1608" opacity="0.34">
    <path id="Trazado_14726" data-name="Trazado 14726" d="M385.49,148.13a4.66,4.66,0,1,0,4.66-4.66A4.665,4.665,0,0,0,385.49,148.13Zm7.96,0a3.3,3.3,0,1,1-3.3-3.3A3.3,3.3,0,0,1,393.45,148.13Z" fill="url(#linear-gradient-35)"/>
    <path id="Trazado_14727" data-name="Trazado 14727" d="M390.14,115.32a27.284,27.284,0,0,0-19.61,8.24,2.03,2.03,0,0,0,1.45,3.45H372a1.99,1.99,0,0,0,1.43-.61,23.374,23.374,0,0,1,33.4,0,2.036,2.036,0,0,0,1.45.61,2,2,0,0,0,1.42-.58,2.028,2.028,0,0,0,.03-2.87,27.227,27.227,0,0,0-19.61-8.24Zm18.63,10.15a.7.7,0,0,1-.96-.01,24.726,24.726,0,0,0-35.34,0,.673.673,0,0,1-.48.2.708.708,0,0,1-.48-.19.673.673,0,0,1-.2-.48.708.708,0,0,1,.19-.48,26.079,26.079,0,0,1,37.28,0,.626.626,0,0,1,.19.48.673.673,0,0,1-.2.48Z" fill="url(#linear-gradient-36)"/>
    <path id="Trazado_14728" data-name="Trazado 14728" d="M403.12,134.26a2,2,0,0,0,1.42-.58,2.046,2.046,0,0,0,.04-2.88,20.118,20.118,0,0,0-28.88,0,2.037,2.037,0,0,0,2.92,2.84,16.06,16.06,0,0,1,23.04,0A2.011,2.011,0,0,0,403.12,134.26Zm-25.47-1.56a.679.679,0,0,1-.97-.95,18.742,18.742,0,0,1,26.92,0,.688.688,0,0,1-.01.96.7.7,0,0,1-.96-.01,17.4,17.4,0,0,0-24.98-.01Z" fill="url(#linear-gradient-37)"/>
    <path id="Trazado_14729" data-name="Trazado 14729" d="M398.37,142.26a2.031,2.031,0,0,0,2.03-1.98,2.048,2.048,0,0,0-.56-1.45,13.411,13.411,0,0,0-19.4,0,2.029,2.029,0,0,0,.07,2.87,2.035,2.035,0,0,0,1.4.56h.05a2.01,2.01,0,0,0,1.42-.63,9.351,9.351,0,0,1,13.52,0A2.043,2.043,0,0,0,398.37,142.26ZM382.4,140.7a.684.684,0,0,1-.47.21.664.664,0,0,1-.48-.19.7.7,0,0,1-.21-.47.626.626,0,0,1,.19-.48,12.058,12.058,0,0,1,17.44,0,.664.664,0,0,1,.19.48.644.644,0,0,1-.21.47.7.7,0,0,1-.96-.02,10.7,10.7,0,0,0-15.48,0Z" fill="url(#linear-gradient-38)"/>
  </g>
  <rect id="Rectángulo_333" data-name="Rectángulo 333" width="689" height="3.31" transform="translate(167.978 680.12) rotate(-38.44)" opacity="0.14" fill="url(#linear-gradient-39)"/>
  <path id="Trazado_14730" data-name="Trazado 14730" d="M285.34,413.34,23.29,613.12l-1.44-1.81L283.9,411.53Z" opacity="0.15" fill="url(#linear-gradient-40)"/>
  <path id="Trazado_14731" data-name="Trazado 14731" d="M515.34,448.34,253.29,648.12l-1.44-1.81L513.9,446.53Z" opacity="0.15" fill="url(#linear-gradient-41)"/>
  <path id="Trazado_14732" data-name="Trazado 14732" d="M394.43,297.37l224.8-161.35,1.18,1.48L395.6,298.85Z" opacity="0.15" fill="url(#linear-gradient-42)"/>
  <path id="Trazado_14733" data-name="Trazado 14733" d="M90.43,233.37,415.58,0l1.7,2.14L92.12,235.51Z" opacity="0.15" fill="url(#linear-gradient-43)"/>
  <path id="Trazado_14734" data-name="Trazado 14734" d="M0,334.1,397.14,48.22l2.06,2.59L2.06,336.69Z" opacity="0.15" fill="url(#linear-gradient-44)"/>
  <g id="Grupo_1609" data-name="Grupo 1609" opacity="0.82">
    <path id="Trazado_14735" data-name="Trazado 14735" d="M349.37,330.76c-7.6,23.05-20.72,41.16-39.24,54a118.4,118.4,0,0,1-38.66-54.04h53.27V307.14H265.86a143.675,143.675,0,0,1,.2-38.45h90.46a176.567,176.567,0,0,1-1.54,38.44h23.83a190.575,190.575,0,0,0-.09-52.22l-1.68-9.8H246.28l-1.83,9.59c-10.54,55.35,5.96,94.28,21.66,117.19,17.11,24.97,36.94,36.76,37.77,37.25l6,3.51,5.98-3.55c28.69-17.02,48.56-43.89,58.15-78.33H349.38Z" fill="url(#linear-gradient-45)"/>
    <path id="Trazado_14736" data-name="Trazado 14736" d="M378.75,307.11c-.1.79-.19,1.57-.3,2.37A151.756,151.756,0,0,1,374,330.76l24.32.04q2.01-8.385,3.25-17.36c.29-2.13.54-4.22.76-6.29l-23.57-.04Z" fill="url(#linear-gradient-46)"/>
  </g>
</svg>
