<svg id="Revo" xmlns="http://www.w3.org/2000/svg" xmlns:xlink="http://www.w3.org/1999/xlink" width="237.813" height="120" viewBox="0 0 237.813 120">
  <defs>
    <radialGradient id="radial-gradient" cx="0.494" cy="0.479" fx="0.308287113904953" fy="0.7944534420967102" r="0.716" gradientUnits="objectBoundingBox">
      <stop offset="0.15" stop-color="#231f20"/>
      <stop offset="0.19" stop-color="#512b18"/>
      <stop offset="0.28" stop-color="#c74a06"/>
      <stop offset="0.29" stop-color="#d64e04"/>
      <stop offset="0.31" stop-color="#d95307"/>
      <stop offset="0.36" stop-color="#e86914"/>
      <stop offset="0.4" stop-color="#ee7219"/>
      <stop offset="0.68" stop-color="#ee7219"/>
      <stop offset="0.84" stop-color="#ee7219"/>
    </radialGradient>
    <linearGradient id="linear-gradient" x1="0.266" y1="-60.98" x2="1.22" y2="-62.397" gradientUnits="objectBoundingBox">
      <stop offset="0.08" stop-color="#fc8c3c"/>
      <stop offset="0.13" stop-color="#fb8b3b" stop-opacity="0.98"/>
      <stop offset="0.18" stop-color="#fa8938" stop-opacity="0.91"/>
      <stop offset="0.25" stop-color="#f98735" stop-opacity="0.812"/>
      <stop offset="0.32" stop-color="#f78330" stop-opacity="0.659"/>
      <stop offset="0.39" stop-color="#f47e29" stop-opacity="0.471"/>
      <stop offset="0.47" stop-color="#f17821" stop-opacity="0.251"/>
      <stop offset="0.54" stop-color="#ee7219" stop-opacity="0"/>
    </linearGradient>
    <linearGradient id="linear-gradient-2" y1="-32.252" x2="1.087" y2="-32.252" gradientUnits="objectBoundingBox">
      <stop offset="0.03" stop-color="#fc8c3c"/>
      <stop offset="0.12" stop-color="#f88533"/>
      <stop offset="0.37" stop-color="#f0771f"/>
      <stop offset="0.54" stop-color="#ee7219"/>
      <stop offset="0.63" stop-color="#f37b26"/>
      <stop offset="0.79" stop-color="#f98736"/>
      <stop offset="0.91" stop-color="#fc8c3c"/>
    </linearGradient>
  </defs>
  <path id="Trazado_14725" data-name="Trazado 14725" d="M77.535,61.352C72.093,77.866,62.7,90.836,49.43,100.031a84.854,84.854,0,0,1-27.685-38.7H59.895V44.441H17.728A102.853,102.853,0,0,1,17.871,16.9h64.8a126.177,126.177,0,0,1-1.1,27.53H98.629a136.483,136.483,0,0,0-.066-37.41L97.36,0H3.687l-1.3,6.866C-5.166,46.516,6.656,74.4,17.893,90.8c12.253,17.882,26.459,26.327,27.055,26.68L49.243,120l4.283-2.539C74.08,105.275,88.308,86.023,95.174,61.352H77.535Z" transform="translate(-0.001 0)" fill="#0055b2"/>
  <path id="Trazado_14726" data-name="Trazado 14726" d="M89.631,40.23c-.066.563-.144,1.126-.221,1.7a108.073,108.073,0,0,1-3.19,15.244l17.419.033q1.441-6.01,2.329-12.429c.21-1.523.386-3.025.541-4.5l-16.878-.033Z" transform="translate(8.953 4.178)" fill="#84b1e3"/>
  <path id="Trazado_14727" data-name="Trazado 14727" d="M114.071,45.34V66.909a.415.415,0,0,0,.408.408H192.4A33.574,33.574,0,1,0,192.389.17H114.468a.415.415,0,0,0-.408.408V22.148a.415.415,0,0,0,.408.408h77.921a11.193,11.193,0,1,1,0,22.386H114.468a.415.415,0,0,0-.408.408h0Z" transform="translate(11.844 0.018)" fill="url(#radial-gradient)"/>
  <path id="Trazado_14728" data-name="Trazado 14728" d="M192.389.17H114.468a.415.415,0,0,0-.408.408V22.148a.415.415,0,0,0,.408.408h77.921a11.193,11.193,0,0,1,11.193,11.193h22.375A33.568,33.568,0,0,0,192.389.181h0Z" transform="translate(11.844 0.018)" fill="url(#linear-gradient)"/>
  <path id="Trazado_14729" data-name="Trazado 14729" d="M198.78,64.849c-7.054-6.568-12.286-13.644-20.752-18.832-4.989-3.323-10.6-4.68-16.326-5.287H114.478a.415.415,0,0,0-.408.408V62.708a.415.415,0,0,0,.408.408h41.637a22.411,22.411,0,0,1,15.829,6.557l38.083,38.083a.413.413,0,0,0,.574,0l15.244-15.244a.413.413,0,0,0,0-.574L198.78,64.871h0Z" transform="translate(11.845 4.23)" fill="url(#linear-gradient-2)"/>
</svg>
