<svg xmlns="http://www.w3.org/2000/svg" width="148.939" height="46.153" viewBox="0 0 148.939 46.153"><g transform="translate(-313.061 -27.493)"><path d="M379.586,50.3H368.1a4.118,4.118,0,0,0,1.5,2.3,4.4,4.4,0,0,0,2.68.852,4.81,4.81,0,0,0,3.917-1.852l2.852,2.655a7.927,7.927,0,0,1-2.917,2.254,9.716,9.716,0,0,1-4.164.844,8.884,8.884,0,0,1-4.31-1.041,7.581,7.581,0,0,1-3.025-2.991,8.88,8.88,0,0,1-1.106-4.458,9.233,9.233,0,0,1,.623-3.418,8.047,8.047,0,0,1,1.7-2.688,7.593,7.593,0,0,1,2.582-1.729,8.375,8.375,0,0,1,3.229-.623,8.193,8.193,0,0,1,4.212,1.073A7.34,7.34,0,0,1,378.7,44.44a9.032,9.032,0,0,1,1,4.287A6.986,6.986,0,0,1,379.586,50.3Zm-10.121-5.294a3.812,3.812,0,0,0-1.352,2.131h7.228A3.954,3.954,0,0,0,374.1,45.03a3.432,3.432,0,0,0-2.3-.762A3.757,3.757,0,0,0,369.465,45.006Z" fill="#001d30"/><path d="M394.49,40.785a4.908,4.908,0,0,1,3.107,3.352,10.8,10.8,0,0,1,.425,3.213v9.736H393.63V48.448a5.015,5.015,0,0,0-.771-3.18,2.928,2.928,0,0,0-2.376-.918,3.406,3.406,0,0,0-2.713,1.164,4.907,4.907,0,0,0-1.008,3.311V57.07h-4.393V40.679h4.393v2.114h.049a6.711,6.711,0,0,1,2.369-1.778,7.4,7.4,0,0,1,5.31-.23Z" fill="#001d30"/><path d="M400.052,54.939l2.131-3.032a6.5,6.5,0,0,0,4.54,1.917,2.537,2.537,0,0,0,1.475-.377,1.151,1.151,0,0,0,.541-.983.861.861,0,0,0-.328-.664,3.385,3.385,0,0,0-.91-.533q-.58-.246-1.745-.623-.738-.246-1.32-.491a12.459,12.459,0,0,1-1.188-.582,5.16,5.16,0,0,1-1.041-.746,5.768,5.768,0,0,1-.787-.918,3.807,3.807,0,0,1-.533-1.164,5.411,5.411,0,0,1-.18-1.426,4.418,4.418,0,0,1,.779-2.581,5.055,5.055,0,0,1,2.114-1.73,7.206,7.206,0,0,1,3.008-.606,9.193,9.193,0,0,1,6,2.065l-2.131,3.213a6.548,6.548,0,0,0-1.942-1.3,5.041,5.041,0,0,0-1.975-.434,2,2,0,0,0-1.114.319,1.023,1.023,0,0,0-.493.91,1.1,1.1,0,0,0,.582.885,9.8,9.8,0,0,0,1.877.885,21.691,21.691,0,0,1,3.639,1.59,3.867,3.867,0,0,1,1.9,2.623,5.57,5.57,0,0,1,.1,1.1,4.642,4.642,0,0,1-1.631,3.688,7.039,7.039,0,0,1-4.729,1.409A9.7,9.7,0,0,1,400.052,54.939Z" fill="#001d30"/><path d="M430.651,40.679V57.07h-4.393v-2h-.066a6.432,6.432,0,0,1-2.2,1.7,6.244,6.244,0,0,1-2.663.582,7.444,7.444,0,0,1-2.442-.369,5.167,5.167,0,0,1-1.893-1.155,5,5,0,0,1-1.263-2.114,10.246,10.246,0,0,1-.434-3.164V40.679h4.393V49.4a5.3,5.3,0,0,0,.68,3.106,2.658,2.658,0,0,0,2.254.893,3.258,3.258,0,0,0,2.59-1.246,5.32,5.32,0,0,0,1.049-3.524V40.679Z" fill="#001d30"/><path d="M443.858,40.416v4.819q-.656-.05-1.163-.049a3.978,3.978,0,0,0-3.074,1.2,4.356,4.356,0,0,0-1.106,3.081V57.07h-4.393V40.679h4.393v2.409h.049a6.638,6.638,0,0,1,2.213-1.991,5.627,5.627,0,0,1,2.737-.7A2.422,2.422,0,0,1,443.858,40.416Z" fill="#001d30"/><path d="M450.379,56.938a8.215,8.215,0,0,1-2.418-1.163,8.126,8.126,0,0,1-1.827-1.8,7.72,7.72,0,0,1-1.172-2.336,9.234,9.234,0,0,1-.4-2.753,9.024,9.024,0,0,1,.631-3.393,7.893,7.893,0,0,1,1.762-2.7,8,8,0,0,1,2.77-1.762,10.2,10.2,0,0,1,7.064-.016,8.142,8.142,0,0,1,2.771,1.729,7.778,7.778,0,0,1,1.794,2.688A9.019,9.019,0,0,1,462,48.891a8.672,8.672,0,0,1-1.115,4.409,7.665,7.665,0,0,1-3.1,2.991,9.427,9.427,0,0,1-4.507,1.057A9.982,9.982,0,0,1,450.379,56.938Zm5.933-4.8a4.49,4.49,0,0,0,1.23-3.245,4.539,4.539,0,0,0-1.214-3.27,4.322,4.322,0,0,0-6.138.016A4.61,4.61,0,0,0,449,48.891a4.562,4.562,0,0,0,1.2,3.22,4,4,0,0,0,3.073,1.3A4.04,4.04,0,0,0,456.312,52.136Z" fill="#001d30"/></g><g transform="translate(-313.061 -27.493)"><path d="M342.884,51.09a28.317,28.317,0,0,1-10.811,14.876,32.6,32.6,0,0,1-10.649-14.887H336.1v-6.5H319.877a39.635,39.635,0,0,1,.054-10.592h24.92a48.625,48.625,0,0,1-.424,10.59h6.564a52.484,52.484,0,0,0-.024-14.386l-.463-2.7H314.481l-.5,2.641c-2.9,15.248,1.641,25.972,5.966,32.283a36.317,36.317,0,0,0,10.407,10.261l1.652.968,1.647-.977c7.9-4.687,13.378-12.091,16.019-21.579Z" fill="#0045ab"/><path d="M350.98,44.574c-.027.217-.054.434-.084.653a41.7,41.7,0,0,1-1.227,5.862l6.7.012q.554-2.31.9-4.782c.08-.586.148-1.163.208-1.733Z" fill="#6faae5"/></g></svg>
