<svg id="Stormtrong" xmlns="http://www.w3.org/2000/svg" xmlns:xlink="http://www.w3.org/1999/xlink" width="164.592" height="120" viewBox="0 0 164.592 120">
  <defs>
    <linearGradient id="linear-gradient" x1="0.016" y1="0.656" x2="0.852" y2="0.143" gradientUnits="objectBoundingBox">
      <stop offset="0" stop-color="#3b9bee"/>
      <stop offset="1" stop-color="#1973e3"/>
    </linearGradient>
  </defs>
  <path id="Trazado_14722" data-name="Trazado 14722" d="M125.193,68.849c-4.536,13.766-12.367,24.575-23.436,32.248A70.651,70.651,0,0,1,78.683,68.827h31.808V54.745H75.332a86.07,86.07,0,0,1,.113-22.962h54.014a105.6,105.6,0,0,1-.914,22.951h14.228a113.871,113.871,0,0,0-.056-31.188l-1-5.856H63.631l-1.094,5.721C56.24,56.46,66.09,79.7,75.467,93.391c10.223,14.917,22.059,21.946,22.556,22.24l3.577,2.1,3.566-2.121c17.14-10.166,29-26.212,34.719-46.77h-14.7Z" transform="translate(7.783 2.271)" fill="#0055b2"/>
  <path id="Trazado_14723" data-name="Trazado 14723" d="M133.713,50.511c-.056.474-.113.937-.181,1.41a90.541,90.541,0,0,1-2.663,12.705l14.522.023a104.8,104.8,0,0,0,1.941-10.37c.169-1.275.327-2.528.451-3.757L133.713,50.5Z" transform="translate(16.808 6.482)" fill="#84b1e3"/>
  <path id="Trazado_14724" data-name="Trazado 14724" d="M0,0C10.439.339,20.887.1,31.324.1H79.178c.282,0,.564.056.846.079.068,1-.677,1.14-1.14,1.456Q67.9,9.117,56.893,16.575q-12.762,8.632-25.535,17.23c-1.219.824-2.381,1.749-3.611,2.55a2.08,2.08,0,0,0-.925,2.008c.034,1.873.079,3.757.034,5.63-.034,1.647.474,1.986,1.884,1.016,4.818-3.306,9.659-6.578,14.488-9.862Q58.055,25.061,72.893,14.962q10.274-6.99,20.536-14c.925.688.564,1.535.564,2.234q.017,37.185.023,74.37a4.331,4.331,0,0,1-2.121,4.051q-21.6,14.471-43.08,29.123a2.472,2.472,0,0,1-3.317.079q-11.526-7.938-23.188-15.7c-1.557-1.038-1.738-1.489-.023-2.64,13.958-9.4,27.791-18.968,41.794-28.3,2.539-1.693,3.825-3.441,3.25-6.443-.282-1.5.745-3.746-.463-4.355-1.14-.587-2.606,1.286-3.87,2.144Q38.879,71.842,14.828,88.248c-1.207.824-1.918.474-2.9-.169C7.956,85.461,4.187,82.516-.01,80.237V0Z" transform="translate(0.01)" fill="url(#linear-gradient)"/>
</svg>
