<svg xmlns="http://www.w3.org/2000/svg" width="40" height="36" viewBox="0 0 40 36"><path d="M23.5,42a1.5,1.5,0,1,1,0-3H39V23.8a13.021,13.021,0,0,0-1.25-5.575A16.033,16.033,0,0,0,34.4,13.5a16.685,16.685,0,0,0-4.8-3.275,13.413,13.413,0,0,0-11.2,0A16.685,16.685,0,0,0,13.6,13.5a16.033,16.033,0,0,0-3.35,4.725A13.021,13.021,0,0,0,9,23.8V35a1,1,0,0,1-.275.7A.937.937,0,0,1,8,36a3.852,3.852,0,0,1-2.825-1.175A3.852,3.852,0,0,1,4,32V28a3.724,3.724,0,0,1,.55-2.025A4.391,4.391,0,0,1,6,24.55l.15-2.65a18.14,18.14,0,0,1,2.075-6.6,17.568,17.568,0,0,1,4.05-5,18.2,18.2,0,0,1,5.45-3.175,18.2,18.2,0,0,1,12.6,0,17.605,17.605,0,0,1,5.425,3.2,18.262,18.262,0,0,1,4.025,5A17.858,17.858,0,0,1,41.85,21.85l.15,2.6a3.638,3.638,0,0,1,2,3.25v4.6a3.51,3.51,0,0,1-.55,1.95A3.634,3.634,0,0,1,42,35.55V39a2.988,2.988,0,0,1-3,3ZM18,27.5a1.439,1.439,0,0,1-1.05-.45,1.5,1.5,0,0,1-.45-1.1,1.359,1.359,0,0,1,.45-1.025,1.542,1.542,0,0,1,1.1-.425,1.4,1.4,0,0,1,1.025.425A1.457,1.457,0,0,1,19.5,26a1.481,1.481,0,0,1-.425,1.05A1.415,1.415,0,0,1,18,27.5Zm12,0a1.439,1.439,0,0,1-1.05-.45,1.5,1.5,0,0,1-.45-1.1,1.359,1.359,0,0,1,.45-1.025,1.542,1.542,0,0,1,1.1-.425,1.4,1.4,0,0,1,1.025.425A1.457,1.457,0,0,1,31.5,26a1.481,1.481,0,0,1-.425,1.05A1.415,1.415,0,0,1,30,27.5ZM12.05,24.9a11.468,11.468,0,0,1,.825-5.35,12.376,12.376,0,0,1,2.75-4.075A12.427,12.427,0,0,1,24.1,12a10.827,10.827,0,0,1,7.65,2.875,12.171,12.171,0,0,1,3.8,7.175,14.46,14.46,0,0,1-8.275-2.525A16.64,16.64,0,0,1,21.75,13.1a15.968,15.968,0,0,1-3.375,7.175A15.559,15.559,0,0,1,12.05,24.9Z" transform="translate(-4 -6)" fill="#06f"/></svg>