<svg xmlns="http://www.w3.org/2000/svg" width="54" height="69.929" viewBox="0 0 54 69.929"><path d="M30.106,41.125,35,37.5l4.809,3.628a1.268,1.268,0,0,0,2.025-1.35l-1.856-5.991,5.147-3.966a1.223,1.223,0,0,0,.38-1.434,1.179,1.179,0,0,0-1.223-.844H38.122L36.181,21.3a1.1,1.1,0,0,0-1.139-.928,1.234,1.234,0,0,0-1.223.928l-2.025,6.244H25.719a1.179,1.179,0,0,0-1.223.844,1.223,1.223,0,0,0,.38,1.434l5.147,3.966-1.856,5.991a1.193,1.193,0,0,0,.506,1.434,1.076,1.076,0,0,0,1.434-.084ZM18.463,73.778a2.393,2.393,0,0,1-2.278-.338,2.425,2.425,0,0,1-1.1-2.109V49.225a23.876,23.876,0,0,1-5.442-8.691A28.817,28.817,0,0,1,8,31,26.518,26.518,0,0,1,35,4,26.518,26.518,0,0,1,62,31a28.817,28.817,0,0,1-1.645,9.534,23.876,23.876,0,0,1-5.442,8.691V71.331a2.425,2.425,0,0,1-1.1,2.109,2.393,2.393,0,0,1-2.278.338L35,68.209ZM35,52.937a21.176,21.176,0,0,0,15.567-6.37A21.176,21.176,0,0,0,56.937,31a21.176,21.176,0,0,0-6.37-15.567A21.176,21.176,0,0,0,35,9.063a21.176,21.176,0,0,0-15.567,6.37A21.176,21.176,0,0,0,13.063,31a21.176,21.176,0,0,0,6.37,15.567A21.176,21.176,0,0,0,35,52.937ZM20.15,67.787,35,63.147l14.85,4.641V53.359A22.9,22.9,0,0,1,42.594,56.9a26.834,26.834,0,0,1-15.187,0,22.9,22.9,0,0,1-7.256-3.544ZM35,60.531Z" transform="translate(-8 -4)" fill="#8ab7e9"/></svg>
