<svg xmlns="http://www.w3.org/2000/svg" width="39.326" height="22.75" viewBox="0 0 39.326 22.75"><path d="M5.1,34.9a1.354,1.354,0,0,1-.425-1.05A1.639,1.639,0,0,1,5.1,32.8L17.55,20.35a1.524,1.524,0,0,1,.5-.35,1.562,1.562,0,0,1,1.1,0,1.524,1.524,0,0,1,.5.35l7.3,7.3L39,15.6H34.15a1.5,1.5,0,1,1,0-3H42.5A1.454,1.454,0,0,1,44,14.1v8.35a1.481,1.481,0,0,1-.425,1.05,1.359,1.359,0,0,1-1.025.45,1.538,1.538,0,0,1-1.5-1.5V17.8L27.95,30.9a1.524,1.524,0,0,1-.5.35,1.562,1.562,0,0,1-1.1,0,1.524,1.524,0,0,1-.5-.35l-7.3-7.3L7.2,34.95a1.388,1.388,0,0,1-1.025.4A1.467,1.467,0,0,1,5.1,34.9Z" transform="translate(-4.674 -12.6)" fill="#06f"/></svg>
