<svg xmlns="http://www.w3.org/2000/svg" xmlns:xlink="http://www.w3.org/1999/xlink" width="464" height="143.785" viewBox="0 0 464 143.785"><defs><clipPath id="a"><rect width="464" height="143.785" fill="none"/></clipPath></defs><g transform="translate(0 0)"><g transform="translate(0 0)" clip-path="url(#a)"><path d="M110.384,46.277h-35.8a12.847,12.847,0,0,0,4.674,7.149,13.7,13.7,0,0,0,8.347,2.655A14.993,14.993,0,0,0,99.814,50.31l8.884,8.272a24.673,24.673,0,0,1-9.09,7.021,30.269,30.269,0,0,1-12.969,2.631,27.687,27.687,0,0,1-13.43-3.244,23.624,23.624,0,0,1-9.421-9.319,27.655,27.655,0,0,1-3.447-13.889,28.785,28.785,0,0,1,1.941-10.648,25.052,25.052,0,0,1,5.284-8.374,23.644,23.644,0,0,1,8.043-5.388A26.113,26.113,0,0,1,85.67,15.435a25.512,25.512,0,0,1,13.123,3.343,22.845,22.845,0,0,1,8.832,9.244,28.124,28.124,0,0,1,3.116,13.352,21.806,21.806,0,0,1-.357,4.9M78.852,29.783a11.876,11.876,0,0,0-4.213,6.638H97.157a12.3,12.3,0,0,0-3.879-6.563,10.7,10.7,0,0,0-7.149-2.373,11.711,11.711,0,0,0-7.277,2.3" transform="translate(96.867 24.778)" fill="#fff"/><path d="M120.639,16.633a15.279,15.279,0,0,1,9.676,10.442,33.626,33.626,0,0,1,1.326,10.01V67.416H117.958V40.506q0-7.046-2.4-9.905t-7.4-2.861A10.61,10.61,0,0,0,99.7,31.367q-3.142,3.627-3.139,10.314V67.367H82.877V16.3H96.563v6.586h.151a21.008,21.008,0,0,1,7.381-5.542,23.081,23.081,0,0,1,16.544-.714" transform="translate(133.044 24.778)" fill="#fff"/><path d="M104.021,60.728l6.638-9.447q6.382,5.975,14.144,5.974a7.928,7.928,0,0,0,4.6-1.172,3.587,3.587,0,0,0,1.686-3.064,2.683,2.683,0,0,0-1.021-2.069,10.506,10.506,0,0,0-2.835-1.66q-1.813-.766-5.437-1.941-2.3-.766-4.111-1.532a38.929,38.929,0,0,1-3.7-1.813,16.059,16.059,0,0,1-3.244-2.324,17.9,17.9,0,0,1-2.449-2.858,11.862,11.862,0,0,1-1.662-3.627,16.793,16.793,0,0,1-.56-4.442,13.761,13.761,0,0,1,2.426-8.043,15.763,15.763,0,0,1,6.586-5.388,22.443,22.443,0,0,1,9.371-1.889,28.63,28.63,0,0,1,18.691,6.435L136.5,31.876a20.475,20.475,0,0,0-6.052-4.059,15.7,15.7,0,0,0-6.154-1.352,6.223,6.223,0,0,0-3.47,1,3.187,3.187,0,0,0-1.535,2.832,3.413,3.413,0,0,0,1.813,2.759,30.492,30.492,0,0,0,5.849,2.756q8.476,3.115,11.333,4.955a12.045,12.045,0,0,1,5.924,8.17,17.567,17.567,0,0,1,.307,3.421,14.461,14.461,0,0,1-5.08,11.489q-5.084,4.393-14.733,4.39a30.207,30.207,0,0,1-20.681-7.506" transform="translate(166.987 24.776)" fill="#fff"/><path d="M170.093,15.767V66.831H156.407V60.6h-.2a20.1,20.1,0,0,1-6.87,5.284,19.465,19.465,0,0,1-8.3,1.813,23.22,23.22,0,0,1-7.608-1.149,16.117,16.117,0,0,1-5.9-3.6,15.527,15.527,0,0,1-3.931-6.586,31.858,31.858,0,0,1-1.352-9.856V15.767h13.683V42.933q0,6.894,2.121,9.676t7.021,2.785a10.151,10.151,0,0,0,8.069-3.882q3.267-3.881,3.267-10.979V15.767Z" transform="translate(196.244 25.311)" fill="#fff"/><path d="M175.093,15.485V30.5q-2.044-.152-3.624-.151-6.128,0-9.575,3.726a13.573,13.573,0,0,0-3.449,9.6V67.364H144.762V16.3h13.683v7.506h.154a20.709,20.709,0,0,1,6.894-6.2,17.535,17.535,0,0,1,8.527-2.17,7.639,7.639,0,0,1,1.073.049" transform="translate(232.39 24.778)" fill="#fff"/><path d="M175.371,66.959a25.569,25.569,0,0,1-7.532-3.627,25.313,25.313,0,0,1-5.693-5.591,24.111,24.111,0,0,1-3.653-7.277,28.815,28.815,0,0,1-1.251-8.579,28.083,28.083,0,0,1,1.967-10.57,24.509,24.509,0,0,1,5.487-8.4,24.863,24.863,0,0,1,8.631-5.489,31.762,31.762,0,0,1,22.007-.052,25.367,25.367,0,0,1,8.631,5.388,24.211,24.211,0,0,1,5.591,8.374,28.121,28.121,0,0,1,2.017,10.75,27.013,27.013,0,0,1-3.47,13.735,23.882,23.882,0,0,1-9.653,9.319,29.383,29.383,0,0,1-14.043,3.3,31.237,31.237,0,0,1-9.038-1.277M193.856,52a14,14,0,0,0,3.83-10.111,14.144,14.144,0,0,0-3.78-10.187,13.47,13.47,0,0,0-19.123.049,14.367,14.367,0,0,0-3.7,10.137,14.239,14.239,0,0,0,3.754,10.036A13.258,13.258,0,0,0,193.856,52" transform="translate(252.426 24.776)" fill="#fff"/><path d="M92.909,73.514C86.391,93.3,75.128,108.837,59.227,119.86A101.605,101.605,0,0,1,26.054,73.48H71.769V53.24H21.234a123.463,123.463,0,0,1,.169-33H99.037a151.413,151.413,0,0,1-1.321,32.994h20.449a163.3,163.3,0,0,0-.076-44.819L116.649,0H4.422L2.856,8.228C-6.192,55.733,7.968,89.141,21.442,108.8c14.689,21.431,31.7,31.548,32.421,31.967l5.148,3.014,5.13-3.043c24.628-14.6,41.68-37.67,49.9-67.228Z" transform="translate(-0.001 0)" fill="#fff"/><path d="M47.858,20.426c-.083.675-.167,1.352-.261,2.035a129.677,129.677,0,0,1-3.822,18.261l20.871.036q1.723-7.2,2.793-14.9.375-2.736.649-5.4Z" transform="translate(70.273 32.79)" fill="#fff"/></g></g></svg>