<svg xmlns="http://www.w3.org/2000/svg" xmlns:xlink="http://www.w3.org/1999/xlink" width="589.381" height="48.624" viewBox="0 0 589.381 48.624"><defs><linearGradient id="a" x1="-3.338" y1="0.472" x2="31.46" y2="0.709" gradientUnits="objectBoundingBox"><stop offset="0" stop-color="#017eff"/><stop offset="0.223" stop-color="#0380fc"/><stop offset="0.38" stop-color="#0d87f4"/><stop offset="0.517" stop-color="#1c93e7"/><stop offset="0.642" stop-color="#32a4d5"/><stop offset="0.76" stop-color="#4ebbbd"/><stop offset="0.871" stop-color="#71d6a0"/><stop offset="0.976" stop-color="#9af67e"/><stop offset="1" stop-color="#a5ff76"/></linearGradient><linearGradient id="b" x1="-3.386" y1="0.43" x2="22.062" y2="0.89" xlink:href="#a"/><linearGradient id="c" x1="-15.007" y1="0.443" x2="68.74" y2="0.754" xlink:href="#a"/><linearGradient id="d" x1="-6.044" y1="0.401" x2="24.071" y2="0.871" xlink:href="#a"/><linearGradient id="e" x1="-11.983" y1="0.403" x2="33.718" y2="0.759" xlink:href="#a"/><linearGradient id="f" x1="-8.793" y1="0.417" x2="21.603" y2="0.7" xlink:href="#a"/><linearGradient id="g" x1="-8.773" y1="0.339" x2="17.823" y2="0.8" xlink:href="#a"/><linearGradient id="h" x1="-11.634" y1="0.369" x2="17.534" y2="0.684" xlink:href="#a"/><linearGradient id="i" x1="-13.347" y1="0.287" x2="16.766" y2="0.757" xlink:href="#a"/><linearGradient id="j" x1="-16.081" y1="0.273" x2="17.198" y2="0.728" xlink:href="#a"/><linearGradient id="k" x1="-15.663" y1="0.245" x2="14.452" y2="0.715" xlink:href="#a"/><linearGradient id="l" x1="-22.77" y1="0.231" x2="17.663" y2="0.701" xlink:href="#a"/><linearGradient id="m" x1="-15.006" y1="0.219" x2="10.442" y2="0.68" xlink:href="#a"/><linearGradient id="n" x1="-19.411" y1="0.192" x2="10.152" y2="0.65" xlink:href="#a"/><linearGradient id="o" x1="-17.809" y1="0.297" x2="7.74" y2="0.577" xlink:href="#a"/><linearGradient id="p" x1="-19.082" y1="0.165" x2="6.671" y2="0.6" xlink:href="#a"/><linearGradient id="q" x1="-20.771" y1="0.132" x2="5.825" y2="0.592" xlink:href="#a"/><linearGradient id="r" x1="-24.879" y1="0.107" x2="5.236" y2="0.577" xlink:href="#a"/><linearGradient id="s" x1="-39.51" y1="0.188" x2="6.191" y2="0.544" xlink:href="#a"/><linearGradient id="t" x1="-26.856" y1="0.07" x2="3.257" y2="0.54" xlink:href="#a"/><linearGradient id="u" x1="-37.8" y1="0.057" x2="2.633" y2="0.526" xlink:href="#a"/><linearGradient id="v" x1="-25.569" y1="0.048" x2="1.027" y2="0.509" xlink:href="#a"/><linearGradient id="w" x1="-24.963" y1="-2.222" x2="-0.05" y2="0.441" xlink:href="#a"/></defs><path d="M1580.352,1242.414a5.171,5.171,0,0,0,2.16.456,3.212,3.212,0,0,0,2.135-.912,4,4,0,0,0,1.033-3.12V1203.99h7.2v36.288a9.153,9.153,0,0,1-.744,3.864,6.842,6.842,0,0,1-2.112,2.64,9.076,9.076,0,0,1-3.168,1.512,14.99,14.99,0,0,1-3.864.479,12.085,12.085,0,0,1-3.24-.431,17.584,17.584,0,0,1-2.784-1.008,11.565,11.565,0,0,1-1.991-1.152l3.7-4.944A5.218,5.218,0,0,0,1580.352,1242.414Z" transform="translate(-1574.976 -1200.149)" fill="url(#a)"/><path d="M1599.719,1220.5a11.041,11.041,0,0,1,4.367-4.032,14.345,14.345,0,0,1,12.528,0,11.051,11.051,0,0,1,4.368,4.032,12.127,12.127,0,0,1,0,12.072,11,11,0,0,1-4.368,4.056,14.345,14.345,0,0,1-12.528,0,10.991,10.991,0,0,1-4.367-4.056,12.126,12.126,0,0,1,0-12.072Zm5.519,9.336a5.832,5.832,0,0,0,10.224,0,6.621,6.621,0,0,0,.792-3.288,6.76,6.76,0,0,0-.792-3.312,5.561,5.561,0,0,0-2.136-2.208,6.15,6.15,0,0,0-5.952,0,5.58,5.58,0,0,0-2.136,2.208,6.759,6.759,0,0,0-.792,3.312A6.62,6.62,0,0,0,1605.238,1229.838Z" transform="translate(-1574.976 -1200.149)" fill="url(#b)"/><path d="M1628.062,1204.446a3.833,3.833,0,0,1,2.64-.984,3.742,3.742,0,0,1,2.615.984,3.452,3.452,0,0,1,0,5.016,3.691,3.691,0,0,1-2.615,1.008,3.78,3.78,0,0,1-2.64-1.008,3.4,3.4,0,0,1,0-5.016Zm5.616,11.064v22.08h-6.048v-22.08Z" transform="translate(-1574.976 -1200.149)" fill="url(#c)"/><path d="M1653.646,1220.79a3.253,3.253,0,0,0-2.785-1.152,4.726,4.726,0,0,0-2.3.551,3.714,3.714,0,0,0-1.537,1.561,5.107,5.107,0,0,0-.528,2.4v13.441h-6.239v-22.08h6.239v3.36a7.208,7.208,0,0,1,2.664-2.856,7.719,7.719,0,0,1,4.009-.984q3.934,0,5.855,2.232a9.232,9.232,0,0,1,1.92,6.216v14.112h-6.431v-13.441A5.539,5.539,0,0,0,1653.646,1220.79Z" transform="translate(-1574.976 -1200.149)" fill="url(#d)"/><path d="M1692.285,1215.51v5.232h-13.632v-5.232Zm-3.84-7.68v29.76h-6v-29.76Z" transform="translate(-1574.976 -1200.149)" fill="url(#e)"/><path d="M1701.836,1237.59H1695.6v-37.441h6.239Zm7.177-16.8a3.242,3.242,0,0,0-2.809-1.152,4.732,4.732,0,0,0-2.3.551,3.716,3.716,0,0,0-1.536,1.561,5.107,5.107,0,0,0-.528,2.4h-1.247a12.149,12.149,0,0,1,.888-4.752,7.6,7.6,0,0,1,2.664-3.359,7.4,7.4,0,0,1,4.368-1.248,8.525,8.525,0,0,1,4.271.96,5.848,5.848,0,0,1,2.5,2.855,11.717,11.717,0,0,1,.817,4.633v14.352h-6.24v-13.441A5.666,5.666,0,0,0,1709.013,1220.79Z" transform="translate(-1574.976 -1200.149)" fill="url(#f)"/><path d="M1726.364,1236.63a10.221,10.221,0,0,1-4.152-4.008,13.423,13.423,0,0,1,0-12.192,10.071,10.071,0,0,1,4.152-3.984,15.085,15.085,0,0,1,12.552-.1,8.984,8.984,0,0,1,3.912,3.839,12.757,12.757,0,0,1,1.344,6.073q0,.432-.024.912a7.224,7.224,0,0,1-.072.767H1724.3V1224.1h14.352l-1.68,2.208a3.383,3.383,0,0,0,.36-.792,2.8,2.8,0,0,0,.168-.84,5.965,5.965,0,0,0-.6-2.784,4.57,4.57,0,0,0-1.7-1.824,4.888,4.888,0,0,0-2.592-.673,5.509,5.509,0,0,0-3.048.792,4.98,4.98,0,0,0-1.872,2.353,10.693,10.693,0,0,0-.7,3.864,9.621,9.621,0,0,0,.648,3.743,4.968,4.968,0,0,0,1.944,2.353,5.734,5.734,0,0,0,3.12.815,7.319,7.319,0,0,0,3.529-.792,6.372,6.372,0,0,0,2.423-2.376l5.424,1.681a11.534,11.534,0,0,1-4.584,4.68,14.072,14.072,0,0,1-6.84,1.56A13.122,13.122,0,0,1,1726.364,1236.63Z" transform="translate(-1574.976 -1200.149)" fill="url(#g)"/><path d="M1770.476,1203.99v33.6h-6.624v-33.6Zm-2.208,0h16.943v5.808h-16.943Zm0,12.911h15.983v5.713h-15.983Zm0,14.881h16.943v5.808h-16.943Z" transform="translate(-1574.976 -1200.149)" fill="url(#h)"/><path d="M1804.8,1220.79a3.251,3.251,0,0,0-2.784-1.152,4.729,4.729,0,0,0-2.3.551,3.705,3.705,0,0,0-1.536,1.561,5.1,5.1,0,0,0-.528,2.4v13.441h-6.24v-22.08h6.24v3.36a7.2,7.2,0,0,1,2.664-2.856,7.712,7.712,0,0,1,4.008-.984q3.935,0,5.856,2.232a9.238,9.238,0,0,1,1.92,6.216v14.112h-6.432v-13.441A5.54,5.54,0,0,0,1804.8,1220.79Z" transform="translate(-1574.976 -1200.149)" fill="url(#i)"/><path d="M1821.93,1232.046a10.684,10.684,0,0,0,2.28,1.176,6.068,6.068,0,0,0,2.04.383,2.952,2.952,0,0,0,1.92-.551,1.849,1.849,0,0,0,.672-1.512,2.09,2.09,0,0,0-.552-1.464,4.936,4.936,0,0,0-1.608-1.08,26.42,26.42,0,0,0-2.688-1.008,22.959,22.959,0,0,1-2.975-1.368,7,7,0,0,1-2.376-2.112,5.716,5.716,0,0,1-.937-3.384,5.3,5.3,0,0,1,1.056-3.336,6.449,6.449,0,0,1,2.856-2.064,11.054,11.054,0,0,1,4.008-.7,12.362,12.362,0,0,1,3.5.48,14.183,14.183,0,0,1,3.024,1.272,11.528,11.528,0,0,1,2.449,1.848l-2.737,3.84a9.7,9.7,0,0,0-2.856-2.113,7.309,7.309,0,0,0-3.239-.815,2.921,2.921,0,0,0-1.657.408,1.382,1.382,0,0,0-.6,1.224,1.685,1.685,0,0,0,.6,1.272,5.4,5.4,0,0,0,1.728.984q1.128.432,2.568,1.056A25.065,25.065,0,0,1,1831.7,1226a7.382,7.382,0,0,1,2.424,2.088,5.408,5.408,0,0,1,.912,3.264,6.425,6.425,0,0,1-2.16,5.16,8.869,8.869,0,0,1-5.952,1.847,13.883,13.883,0,0,1-7.8-2.279,19.791,19.791,0,0,1-2.808-2.232l3.024-3.888A20.3,20.3,0,0,0,1821.93,1232.046Z" transform="translate(-1574.976 -1200.149)" fill="url(#j)"/><path d="M1846.6,1232.286a3.222,3.222,0,0,0,2.784,1.176,4.686,4.686,0,0,0,2.328-.552,3.907,3.907,0,0,0,1.535-1.56,4.925,4.925,0,0,0,.553-2.4v-13.44h6.191v22.08H1853.8v-3.361a7.094,7.094,0,0,1-6.672,3.841q-3.937,0-5.881-2.257a9.168,9.168,0,0,1-1.943-6.191V1215.51h6.431v13.44A5.551,5.551,0,0,0,1846.6,1232.286Z" transform="translate(-1574.976 -1200.149)" fill="url(#k)"/><path d="M1872.234,1237.59h-6.095v-22.08h6.095Zm5.208-16.488a3.7,3.7,0,0,0-1.608-.312,3.145,3.145,0,0,0-1.968.624,3.729,3.729,0,0,0-1.223,1.752,7.974,7.974,0,0,0-.409,2.712l-1.727-1.729a10.433,10.433,0,0,1,1.008-4.679,8.933,8.933,0,0,1,2.639-3.264,5.544,5.544,0,0,1,3.361-1.225,6.085,6.085,0,0,1,2.279.433,4.1,4.1,0,0,1,1.753,1.3l-2.832,5.28A5.269,5.269,0,0,0,1877.442,1221.1Z" transform="translate(-1574.976 -1200.149)" fill="url(#l)"/><path d="M1884.259,1220.5a11.04,11.04,0,0,1,4.367-4.032,14.345,14.345,0,0,1,12.528,0,11.05,11.05,0,0,1,4.368,4.032,12.126,12.126,0,0,1,0,12.072,11,11,0,0,1-4.368,4.056,14.345,14.345,0,0,1-12.528,0,10.991,10.991,0,0,1-4.367-4.056,12.126,12.126,0,0,1,0-12.072Zm5.519,9.336a5.832,5.832,0,0,0,10.224,0,6.62,6.62,0,0,0,.792-3.288,6.759,6.759,0,0,0-.792-3.312,5.561,5.561,0,0,0-2.136-2.208,6.15,6.15,0,0,0-5.952,0,5.582,5.582,0,0,0-2.136,2.208,6.76,6.76,0,0,0-.792,3.312A6.621,6.621,0,0,0,1889.778,1229.838Z" transform="translate(-1574.976 -1200.149)" fill="url(#m)"/><path d="M1931.081,1232.382a2.986,2.986,0,0,0,1.32,1.056,4.644,4.644,0,0,0,1.848.36,5.514,5.514,0,0,0,2.592-.6,4.849,4.849,0,0,0,1.872-1.728,4.935,4.935,0,0,0,.721-2.712l.767,2.88a5.43,5.43,0,0,1-1.176,3.551,7.2,7.2,0,0,1-3.024,2.161,10.549,10.549,0,0,1-3.863.72,9.085,9.085,0,0,1-3.841-.816,6.913,6.913,0,0,1-2.856-2.376,6.548,6.548,0,0,1-1.08-3.816,6.26,6.26,0,0,1,2.256-5.088A9.735,9.735,0,0,1,1933,1224.1a14.417,14.417,0,0,1,3.721.432,11.779,11.779,0,0,1,2.712,1.056,5.8,5.8,0,0,1,1.584,1.2v2.88a9.349,9.349,0,0,0-2.9-1.441,11.805,11.805,0,0,0-3.384-.479,6.513,6.513,0,0,0-2.352.359,2.785,2.785,0,0,0-1.344,1.009,3.157,3.157,0,0,0,.048,3.264Zm-5.184-14.857a29.09,29.09,0,0,1,4.224-1.752,17.416,17.416,0,0,1,5.568-.839,14.481,14.481,0,0,1,5.04.816,7.741,7.741,0,0,1,3.457,2.376,5.921,5.921,0,0,1,1.248,3.815v15.649h-6v-14.352a3.838,3.838,0,0,0-.288-1.56,2.641,2.641,0,0,0-.889-1.08,3.963,3.963,0,0,0-1.416-.624,8.034,8.034,0,0,0-1.823-.192,12.5,12.5,0,0,0-2.929.336,12.349,12.349,0,0,0-2.4.816,11.087,11.087,0,0,0-1.488.816Z" transform="translate(-1574.976 -1200.149)" fill="url(#n)"/><path d="M1951.193,1220.286a10.164,10.164,0,0,1,3.936-3.912,10.624,10.624,0,0,1,5.184-1.344,8.809,8.809,0,0,1,4.92,1.392,9.449,9.449,0,0,1,3.36,3.96,16.09,16.09,0,0,1,0,12.311,9.413,9.413,0,0,1-3.36,3.985,8.817,8.817,0,0,1-4.92,1.392,10.624,10.624,0,0,1-5.184-1.344,10.115,10.115,0,0,1-3.936-3.936,13.878,13.878,0,0,1,0-12.5Zm5.76,9.672a5.628,5.628,0,0,0,2.208,2.208,6.066,6.066,0,0,0,2.976.768,5.441,5.441,0,0,0,2.712-.745,5.77,5.77,0,0,0,2.16-2.183,7.53,7.53,0,0,0,0-6.912,5.78,5.78,0,0,0-2.16-2.184,5.46,5.46,0,0,0-2.712-.744,6.066,6.066,0,0,0-2.976.768,5.629,5.629,0,0,0-2.208,2.208,7.524,7.524,0,0,0,0,6.816Zm17.136-29.809v37.441h-6.24v-37.441Z" transform="translate(-1574.976 -1200.149)" fill="url(#o)"/><path d="M1983.592,1215.51l5.424,13.3,5.423-13.3h6.672l-12.095,24.384-12.1-24.384Z" transform="translate(-1574.976 -1200.149)" fill="url(#p)"/><path d="M2007.5,1236.63a10.215,10.215,0,0,1-4.152-4.008,13.423,13.423,0,0,1,0-12.192,10.065,10.065,0,0,1,4.152-3.984,15.085,15.085,0,0,1,12.552-.1,8.989,8.989,0,0,1,3.912,3.839,12.768,12.768,0,0,1,1.344,6.073q0,.432-.024.912a7.219,7.219,0,0,1-.072.767h-19.776V1224.1h14.352l-1.68,2.208a3.418,3.418,0,0,0,.36-.792,2.8,2.8,0,0,0,.168-.84,5.965,5.965,0,0,0-.6-2.784,4.577,4.577,0,0,0-1.7-1.824,4.887,4.887,0,0,0-2.592-.673,5.509,5.509,0,0,0-3.048.792,4.988,4.988,0,0,0-1.873,2.353,10.7,10.7,0,0,0-.695,3.864,9.624,9.624,0,0,0,.648,3.743,4.969,4.969,0,0,0,1.944,2.353,5.734,5.734,0,0,0,3.12.815,7.312,7.312,0,0,0,3.528-.792,6.367,6.367,0,0,0,2.424-2.376l5.424,1.681a11.54,11.54,0,0,1-4.584,4.68,14.075,14.075,0,0,1-6.84,1.56A13.123,13.123,0,0,1,2007.5,1236.63Z" transform="translate(-1574.976 -1200.149)" fill="url(#q)"/><path d="M2043.4,1220.79a3.249,3.249,0,0,0-2.784-1.152,4.725,4.725,0,0,0-2.3.551,3.713,3.713,0,0,0-1.537,1.561,5.107,5.107,0,0,0-.528,2.4v13.441h-6.239v-22.08h6.239v3.36a7.209,7.209,0,0,1,2.664-2.856,7.719,7.719,0,0,1,4.009-.984q3.934,0,5.855,2.232a9.232,9.232,0,0,1,1.92,6.216v14.112h-6.431v-13.441A5.533,5.533,0,0,0,2043.4,1220.79Z" transform="translate(-1574.976 -1200.149)" fill="url(#r)"/><path d="M2067.64,1215.51v5.232h-13.632v-5.232Zm-3.84-7.68v29.76h-6v-29.76Z" transform="translate(-1574.976 -1200.149)" fill="url(#s)"/><path d="M2078.247,1232.286a3.223,3.223,0,0,0,2.784,1.176,4.683,4.683,0,0,0,2.328-.552,3.91,3.91,0,0,0,1.536-1.56,4.926,4.926,0,0,0,.552-2.4v-13.44h6.192v22.08h-6.192v-3.361a7.092,7.092,0,0,1-6.672,3.841q-3.937,0-5.88-2.257a9.169,9.169,0,0,1-1.944-6.191V1215.51h6.432v13.44A5.557,5.557,0,0,0,2078.247,1232.286Z" transform="translate(-1574.976 -1200.149)" fill="url(#t)"/><path d="M2103.879,1237.59h-6.1v-22.08h6.1Zm5.208-16.488a3.707,3.707,0,0,0-1.608-.312,3.145,3.145,0,0,0-1.968.624,3.737,3.737,0,0,0-1.224,1.752,7.993,7.993,0,0,0-.408,2.712l-1.728-1.729a10.435,10.435,0,0,1,1.008-4.679,8.935,8.935,0,0,1,2.64-3.264,5.543,5.543,0,0,1,3.36-1.225,6.078,6.078,0,0,1,2.279.433,4.1,4.1,0,0,1,1.753,1.3l-2.832,5.28A5.262,5.262,0,0,0,2109.087,1221.1Z" transform="translate(-1574.976 -1200.149)" fill="url(#u)"/><path d="M2119.911,1236.63a10.214,10.214,0,0,1-4.152-4.008,13.422,13.422,0,0,1,0-12.192,10.064,10.064,0,0,1,4.152-3.984,15.085,15.085,0,0,1,12.552-.1,8.984,8.984,0,0,1,3.912,3.839,12.757,12.757,0,0,1,1.344,6.073q0,.432-.024.912a7.252,7.252,0,0,1-.072.767h-19.776V1224.1H2132.2l-1.68,2.208a3.414,3.414,0,0,0,.36-.792,2.793,2.793,0,0,0,.168-.84,5.966,5.966,0,0,0-.6-2.784,4.569,4.569,0,0,0-1.7-1.824,4.887,4.887,0,0,0-2.592-.673,5.509,5.509,0,0,0-3.048.792,4.989,4.989,0,0,0-1.873,2.353,10.7,10.7,0,0,0-.7,3.864,9.619,9.619,0,0,0,.648,3.743,4.968,4.968,0,0,0,1.944,2.353,5.734,5.734,0,0,0,3.12.815,7.311,7.311,0,0,0,3.528-.792,6.366,6.366,0,0,0,2.424-2.376l5.424,1.681a11.541,11.541,0,0,1-4.584,4.68,14.075,14.075,0,0,1-6.84,1.56A13.123,13.123,0,0,1,2119.911,1236.63Z" transform="translate(-1574.976 -1200.149)" fill="url(#v)"/><path d="M2139.35,1240.662h25.007v3.984H2139.35Z" transform="translate(-1574.976 -1200.149)" fill="url(#w)"/></svg>
