<svg width="768" height="662" viewBox="0 0 768 662" fill="none" xmlns="http://www.w3.org/2000/svg">
<path d="M658.978 292.181L658.879 310.196C658.879 312.912 657.068 315.628 653.445 317.743L339.196 500.262C331.95 504.488 320.07 504.488 312.824 500.262L136.346 398.406C132.62 396.295 130.809 393.575 130.809 390.76L130.911 372.745C130.911 375.567 132.723 378.379 136.346 380.493L312.824 482.349C320.172 486.575 332.049 486.575 339.295 482.349L653.544 299.83C657.167 297.719 658.978 294.897 658.978 292.181Z" fill="#C0E1FF"/>
<path d="M653.424 284.501C660.752 288.73 660.79 295.553 653.51 299.783L339.254 482.335C332.039 486.527 320.189 486.565 312.862 482.335L136.373 380.48C129.11 376.288 129.073 369.39 136.288 365.198L450.543 182.645C457.82 178.419 469.673 178.453 476.936 182.645L653.424 284.501Z" fill="#E3F3FF"/>
<path d="M646.424 295.693L332.165 478.167C328.864 480.149 323.361 480.149 319.95 478.167L143.455 376.319C140.044 374.45 140.153 371.259 143.455 369.277L457.714 186.806C461.015 184.825 466.409 184.825 469.82 186.806L646.206 288.655C649.617 290.637 649.726 293.712 646.424 295.693Z" fill="white"/>
<path d="M628.761 299.151L350.639 460.709L173.638 358.56L451.756 196.998L628.761 299.151Z" fill="#001854"/>
<path d="M271.7 423.801C275.942 426.25 275.897 430.22 271.748 432.629C267.537 435.075 260.746 435.075 256.504 432.629L222.445 412.97C218.204 410.521 218.183 406.592 222.394 404.146C226.543 401.734 233.399 401.696 237.641 404.146L271.7 423.801ZM579.062 256.417C580.347 257.158 580.292 258.381 579.014 259.126C577.739 259.868 575.623 259.905 574.338 259.164L520.999 228.381C519.714 227.64 519.707 226.376 520.982 225.638C522.26 224.897 524.438 224.897 525.723 225.638L579.062 256.417Z" fill="#E3F3FF"/>
<path d="M431.738 220.131L244.586 328.843L384.083 409.349L571.235 300.637L431.738 220.131Z" fill="#C0E1FF"/>
<path d="M384.083 409.346L244.61 328.853H244.566V335.457L384.076 415.963L571.231 307.292V300.637L384.083 409.346Z" fill="#A0D2FF"/>
<path d="M427.131 221.07L255.339 320.866L384.083 395.167L555.875 295.372L427.131 221.07Z" fill="#C0E1FF"/>
<path d="M384.083 395.167L255.359 320.876H255.315V327.483L384.076 401.781L555.872 302.027V295.375L384.083 395.167Z" fill="#A0D2FF"/>
<path d="M539.797 200.885L539.394 294.022L419.054 363.927L419.454 246.957L539.797 200.885Z" fill="#A0D2FF"/>
<path d="M419.454 246.957L419.054 363.927L310.865 301.491L311.265 204.671L419.454 246.957Z" fill="#C0E1FF"/>
<path d="M319.058 215.317V306.216L403.657 355.044L403.971 263.335L319.058 215.317Z" fill="#A0D2FF"/>
<path d="M321.919 307.869L277.514 333.664L359.255 380.839L403.657 355.044L321.919 307.869Z" fill="#C0E1FF"/>
<path d="M280.484 315.362L287.682 311.18C287.973 311.012 288.372 311.036 288.807 311.289L281.608 315.471C281.171 315.218 280.771 315.194 280.484 315.362Z" fill="#C0E1FF"/>
<path d="M281.608 315.471L288.806 311.289L289.64 311.771L282.442 315.953L281.608 315.471Z" fill="#C0E1FF"/>
<path d="M284.722 317.268L291.924 313.086L293.55 314.029L286.352 318.211L284.722 317.268Z" fill="#C0E1FF"/>
<path d="M288.635 319.526L295.834 315.345L297.45 316.277L290.249 320.459L288.635 319.526Z" fill="#C0E1FF"/>
<path d="M292.532 321.774L299.73 317.593L300.564 318.074L293.362 322.256L292.532 321.774Z" fill="#C0E1FF"/>
<path d="M294.955 324.993L302.157 320.811L302.143 324.672L294.945 328.853L294.955 324.993Z" fill="#C0E1FF"/>
<path d="M293.362 322.256L300.56 318.074C301.442 318.583 302.156 319.8 302.153 320.814L294.955 324.996C294.958 323.981 294.244 322.762 293.362 322.256Z" fill="#C0E1FF"/>
<path d="M284.907 252.215L292.105 248.033L291.924 313.086L284.722 317.268L284.907 252.215Z" fill="#C0E1FF"/>
<path d="M288.82 254.473L296.018 250.291L295.834 315.345L288.635 319.526L288.82 254.473Z" fill="#C0E1FF"/>
<path d="M292.716 256.721L299.914 252.539L299.73 317.593L292.532 321.774L292.716 256.721Z" fill="#C0E1FF"/>
<path d="M301.883 253.13L294.685 257.312C294.972 257.145 295.15 256.793 295.153 256.291L302.351 252.109C302.348 252.611 302.17 252.963 301.883 253.13Z" fill="#C0E1FF"/>
<path d="M295.164 252.433L302.362 248.252L302.351 252.109L295.15 256.291L295.164 252.433Z" fill="#C0E1FF"/>
<path d="M293.547 257.203L292.716 256.725L292.532 321.778L293.362 322.256C294.244 322.765 294.958 323.981 294.955 324.996L294.945 328.853L280.012 320.234L280.022 316.376C280.026 315.365 280.743 314.972 281.608 315.471L282.439 315.953L282.623 250.899L281.793 250.421C280.928 249.922 280.214 248.686 280.217 247.674L280.227 243.817L295.16 252.437L295.15 256.294C295.15 257.299 294.429 257.709 293.547 257.203ZM286.352 318.211L286.537 253.158L284.906 252.218L284.722 317.271L286.352 318.211ZM290.249 320.459L290.433 255.406L288.82 254.473L288.635 319.526L290.249 320.459Z" fill="#A0D2FF"/>
<path d="M302.587 328.126L309.785 323.944C310.076 323.777 310.483 323.8 310.93 324.06L303.732 328.242C303.285 327.982 302.881 327.955 302.587 328.126Z" fill="#C0E1FF"/>
<path d="M303.732 328.238L310.93 324.056L311.747 324.528L304.549 328.71L303.732 328.238Z" fill="#C0E1FF"/>
<path d="M306.829 330.029L314.03 325.847L315.66 326.786L308.459 330.968L306.829 330.029Z" fill="#C0E1FF"/>
<path d="M310.742 332.284L317.94 328.102L319.557 329.035L312.355 333.216L310.742 332.284Z" fill="#C0E1FF"/>
<path d="M314.656 334.542L321.854 330.36L322.671 330.832L315.469 335.013L314.656 334.542Z" fill="#C0E1FF"/>
<path d="M317.062 337.753L324.263 333.571L324.25 337.429L317.052 341.61L317.062 337.753Z" fill="#C0E1FF"/>
<path d="M315.469 335.013L322.667 330.831C323.549 331.34 324.263 332.557 324.26 333.571L317.062 337.753C317.065 336.739 316.351 335.522 315.469 335.013Z" fill="#C0E1FF"/>
<path d="M307.013 264.975L314.215 260.794L314.03 325.847L306.829 330.029L307.013 264.975Z" fill="#C0E1FF"/>
<path d="M310.927 267.23L318.125 263.049L317.94 328.102L310.742 332.284L310.927 267.23Z" fill="#C0E1FF"/>
<path d="M314.84 269.489L322.038 265.307L321.854 330.36L314.656 334.542L314.84 269.489Z" fill="#C0E1FF"/>
<path d="M323.99 265.888L316.792 270.069C317.079 269.902 317.257 269.55 317.26 269.048L324.458 264.866C324.455 265.368 324.277 265.72 323.99 265.888Z" fill="#C0E1FF"/>
<path d="M317.27 265.191L324.468 261.009L324.458 264.866L317.257 269.048L317.27 265.191Z" fill="#C0E1FF"/>
<path d="M315.654 269.96L314.84 269.489L314.656 334.542L315.469 335.013C316.351 335.522 317.065 336.739 317.062 337.753L317.052 341.611L302.119 332.991L302.129 329.134C302.133 328.122 302.85 327.729 303.732 328.238L304.546 328.71L304.73 263.657L303.917 263.185C303.035 262.676 302.321 261.439 302.324 260.428L302.334 256.571L317.267 265.191L317.257 269.048C317.253 270.059 316.535 270.469 315.654 269.96ZM308.459 330.968L308.644 265.915L307.013 264.975L306.829 330.029L308.459 330.968ZM312.355 333.216L312.54 268.163L310.927 267.23L310.742 332.284L312.355 333.216Z" fill="#A0D2FF"/>
<path d="M350.352 355.68L357.55 351.498C357.837 351.33 358.233 351.358 358.678 351.614L351.48 355.796C351.035 355.54 350.639 355.512 350.352 355.68Z" fill="#C0E1FF"/>
<path d="M351.48 355.796L358.678 351.614L359.508 352.092L352.31 356.274L351.48 355.796Z" fill="#C0E1FF"/>
<path d="M354.594 357.593L361.792 353.411L363.405 354.34L356.207 358.522L354.594 357.593Z" fill="#C0E1FF"/>
<path d="M358.507 359.851L365.705 355.669L367.318 356.599L360.12 360.78L358.507 359.851Z" fill="#C0E1FF"/>
<path d="M364.809 365.307L372.007 361.126L371.997 364.983L364.799 369.165L364.809 365.307Z" fill="#C0E1FF"/>
<path d="M362.403 362.099L369.601 357.917L370.432 358.395L363.234 362.577L362.403 362.099Z" fill="#C0E1FF"/>
<path d="M363.234 362.577L370.432 358.396C371.313 358.905 372.011 360.114 372.007 361.125L364.809 365.307C364.813 364.296 364.112 363.086 363.234 362.577Z" fill="#C0E1FF"/>
<path d="M354.778 292.539L361.976 288.358L361.792 353.411L354.594 357.593L354.778 292.539Z" fill="#C0E1FF"/>
<path d="M358.692 294.798L365.89 290.616L365.705 355.669L358.507 359.851L358.692 294.798Z" fill="#C0E1FF"/>
<path d="M362.588 297.046L369.786 292.864L369.601 357.917L362.403 362.099L362.588 297.046Z" fill="#C0E1FF"/>
<path d="M371.737 293.452L364.539 297.633C364.826 297.466 365.004 297.107 365.008 296.602L372.206 292.42C372.202 292.929 372.024 293.284 371.737 293.452Z" fill="#C0E1FF"/>
<path d="M365.015 292.745L372.213 288.563L372.202 292.42L365.004 296.602L365.015 292.745Z" fill="#C0E1FF"/>
<path d="M363.418 297.524L362.588 297.046L362.403 362.099L363.234 362.577C364.116 363.086 364.813 364.296 364.809 365.307L364.799 369.164L349.88 360.555L349.89 356.698C349.894 355.686 350.598 355.287 351.476 355.796L352.307 356.274L352.491 291.221L351.661 290.742C350.779 290.233 350.082 289.007 350.085 287.996L350.095 284.138L365.014 292.748L365.004 296.605C365.001 297.613 364.297 298.033 363.418 297.524ZM360.12 360.78L360.305 295.727L358.691 294.794L358.507 359.848L360.12 360.78ZM356.207 358.522L356.391 293.469L354.778 292.536L354.593 357.589L356.207 358.522Z" fill="#A0D2FF"/>
<path d="M372.459 368.447L379.657 364.265C379.947 364.094 380.354 364.122 380.802 364.381L373.604 368.563C373.156 368.303 372.749 368.276 372.459 368.447Z" fill="#C0E1FF"/>
<path d="M373.6 368.563L380.802 364.381L381.615 364.849L374.417 369.031L373.6 368.563Z" fill="#C0E1FF"/>
<path d="M376.7 370.35L383.898 366.168L385.529 367.108L378.33 371.289L376.7 370.35Z" fill="#C0E1FF"/>
<path d="M380.614 372.608L387.812 368.426L389.425 369.359L382.227 373.537L380.614 372.608Z" fill="#C0E1FF"/>
<path d="M384.524 374.867L391.722 370.685L392.539 371.153L385.341 375.335L384.524 374.867Z" fill="#C0E1FF"/>
<path d="M386.933 378.075L394.131 373.893L394.121 377.75L386.923 381.932L386.933 378.075Z" fill="#C0E1FF"/>
<path d="M385.34 375.334L392.538 371.153C393.42 371.662 394.135 372.878 394.131 373.893L386.933 378.075C386.937 377.063 386.219 375.844 385.34 375.334Z" fill="#C0E1FF"/>
<path d="M376.885 305.297L384.083 301.115L383.898 366.168L376.7 370.35L376.885 305.297Z" fill="#C0E1FF"/>
<path d="M380.795 307.555L387.996 303.373L387.812 368.426L380.614 372.608L380.795 307.555Z" fill="#C0E1FF"/>
<path d="M384.708 309.813L391.906 305.632L391.722 370.685L384.524 374.867L384.708 309.813Z" fill="#C0E1FF"/>
<path d="M393.858 306.212L386.66 310.394C386.947 310.227 387.125 309.875 387.125 309.372L394.322 305.191C394.326 305.69 394.145 306.045 393.858 306.212Z" fill="#C0E1FF"/>
<path d="M387.138 305.512L394.336 301.33L394.326 305.187L387.128 309.369L387.138 305.512Z" fill="#C0E1FF"/>
<path d="M385.525 310.281L384.712 309.81L384.527 374.863L385.341 375.335C386.222 375.844 386.937 377.06 386.933 378.075L386.923 381.932L371.99 373.312L372.001 369.455C372.004 368.444 372.722 368.051 373.604 368.56L374.42 369.031L374.605 303.978L373.788 303.507C372.906 302.998 372.192 301.761 372.195 300.749L372.206 296.892L387.138 305.512L387.128 309.369C387.125 310.381 386.404 310.791 385.525 310.281ZM378.33 371.29L378.515 306.236L376.885 305.297L376.7 370.35L378.33 371.29ZM382.227 373.538L382.411 308.484L380.798 307.552L380.614 372.605L382.227 373.538Z" fill="#A0D2FF"/>
<path d="M272.264 234.008L436.721 138.477L436.69 150.069L272.233 245.604L272.264 234.008Z" fill="#2C98EA"/>
<path d="M272.264 234.039L436.721 138.504L490.874 123.632L326.417 219.167L272.264 234.039Z" fill="#C0E1FF"/>
<path d="M264.389 224.886L428.846 129.351L490.908 112.341L326.447 207.872L264.389 224.886Z" fill="#4AABF4"/>
<path d="M326.417 219.167L490.874 123.632L544.767 200.858L380.306 296.39L326.417 219.167Z" fill="#C0E1FF"/>
<path d="M326.417 219.167L380.306 296.39L380.292 301.562L272.25 239.208L272.264 234.039L326.417 219.167Z" fill="#C0E1FF"/>
<path d="M380.306 296.39L544.767 200.858L544.75 206.027L380.292 301.562L380.306 296.39Z" fill="#C0E1FF"/>
<path d="M326.447 207.872L490.908 112.341L552.693 200.824L388.235 296.359L326.447 207.872Z" fill="#2C98EA"/>
<path d="M388.235 296.359L552.693 200.824L552.645 216.991L388.188 312.523L388.235 296.359Z" fill="#4AABF4"/>
<path d="M326.447 207.872L388.236 296.359L388.188 312.523L380.275 307.958L380.292 301.562L380.306 296.39L326.417 219.167L272.264 234.008L272.233 245.604L264.341 241.05L264.389 224.886L326.447 207.872Z" fill="#2C98EA"/>
<path d="M255.043 214.071L254.992 222.605L108.355 307.785L108.41 299.25L255.043 214.071Z" fill="#A0D2FF"/>
<path d="M108.409 299.251L108.355 307.785L6 248.714L6.05468 240.18L108.409 299.251Z" fill="#C0E1FF"/>
<path d="M255.043 214.071L108.409 299.251L6.05457 240.18L152.688 155L255.043 214.071Z" fill="#C0E1FF"/>
<path d="M152.117 171.027L146.341 174.385L140.524 171.027L146.304 167.672L152.117 171.027Z" fill="#001854"/>
<path d="M225.954 213.64L220.177 216.995L158.44 181.365L164.217 178.01L225.954 213.64Z" fill="#001854"/>
<path d="M138.166 179.134L132.338 182.52L126.521 179.161L132.348 175.775L138.166 179.134Z" fill="#001854"/>
<path d="M151.263 235.225L145.487 238.581L102.576 213.818L108.352 210.459L151.263 235.225Z" fill="#001854"/>
<path d="M138.842 268.041L139.088 268.239L138.846 268.495C136.638 268.922 134.232 269.066 131.972 269.179C120.382 269.749 108.399 270.316 96.6112 270.033C94.0581 269.975 91.4024 269.862 89.0885 269.267L88.9415 269.237L88.8424 268.953L89.3825 268.868C91.6451 269.438 94.1504 269.52 96.6044 269.578C108.396 269.862 120.379 269.295 131.87 268.724C133.784 268.639 135.749 268.526 137.612 268.242C134.266 267.504 130.585 267.19 127.095 266.876C125.178 266.736 123.113 266.565 121.148 266.336C119.241 266.093 117.026 265.724 115.498 264.843C115.409 264.792 115.327 264.741 115.242 264.686C114.702 264.317 114.401 263.917 114.302 263.521L114.593 262.612C115.03 261.901 115.765 261.245 116.595 260.648C110.413 262.014 104.971 263.692 99.7249 265.311L99.2327 265.256L99.1815 265L99.865 264.317L98.638 264.457L98.2928 264.317L98.4398 264.061C99.0755 263.75 100.053 262.779 100.296 262.24L99.0721 262.721C97.4554 263.432 95.5414 264.201 94.27 264.655L93.8257 264.628L93.6787 264.372L93.9179 263.548L94.0136 263.207L93.5727 263.405C91.7579 264.231 89.7003 265.198 87.4411 265.54C86.1526 265.742 84.6692 265.694 83.8968 265.25C83.7019 265.137 83.5481 264.997 83.4593 264.829C83.0115 263.948 84.4812 263.207 85.0213 262.95C86.5388 262.24 88.2033 261.389 90.2677 260.989C91.0982 260.849 91.9356 260.76 92.7217 260.706C93.6514 260.62 94.5366 260.562 95.3227 260.395C97.0897 259.995 98.5594 259.199 99.8787 258.434C102.329 257.012 104.725 255.448 106.287 253.569C106.677 253.056 107.166 252.373 106.964 251.693C106.882 251.392 106.615 251.078 106.222 250.849C105.904 250.665 105.501 250.542 105.043 250.528C103.915 250.443 102.986 251.095 102.203 251.666C98.2894 254.508 93.9316 257.153 89.232 259.599C87.8615 260.34 86.4396 260.993 84.7239 261.307C80.7489 262.076 76.6646 260.682 73.1681 259.346L73.1168 259.035L73.609 258.977C76.9551 260.285 80.7933 261.594 84.4744 260.883C86.0432 260.6 87.3693 259.944 88.7399 259.26C93.3916 256.842 97.7494 254.197 101.615 251.382C102.493 250.699 103.573 250.019 105.094 250.046C105.761 250.07 106.325 250.248 106.762 250.501C107.295 250.808 107.644 251.232 107.757 251.638C107.959 252.434 107.47 253.176 106.981 253.743C105.47 255.704 102.924 257.299 100.426 258.748C99.0071 259.571 97.5375 260.426 95.6269 260.795C94.6938 260.996 93.7607 261.081 92.8789 261.136C92.0962 261.249 91.3067 261.307 90.5206 261.42C88.6066 261.789 86.9933 262.612 85.5202 263.295C84.3924 263.835 84.0027 264.29 84.2044 264.689C84.259 264.795 84.3513 264.877 84.471 264.949C85.1067 265.315 86.508 265.233 87.2497 265.089C89.3107 264.805 91.2725 263.893 93.084 263.07L94.3588 262.499L94.7998 262.472L94.9501 262.728L94.7075 263.61L94.6118 264.006C95.7875 263.552 97.3563 262.926 98.6312 262.356C99.2703 262.1 99.9026 261.843 100.395 261.618L100.74 261.591L100.986 261.734C101.43 262.274 100.504 263.271 99.7215 263.897L100.702 263.555L101.242 263.528L101.294 263.839L100.61 264.522C105.908 262.926 111.397 261.28 117.679 259.971L118.171 260.029L118.123 260.285C116.999 261.051 115.922 261.85 115.29 262.786L115.047 263.497L115.84 264.406C115.885 264.433 115.932 264.46 115.977 264.488C117.402 265.311 119.443 265.663 121.35 265.885C123.267 266.141 125.28 266.285 127.198 266.483C131.077 266.787 135.154 267.101 138.842 268.041Z" fill="#001854"/>
<path d="M184.044 237.986L178.264 241.341L116.53 205.711L122.307 202.356L184.044 237.986Z" fill="#001854"/>
<path d="M175.56 216.872L169.733 220.258L130.482 197.607L136.31 194.221L175.56 216.872Z" fill="#001854"/>
<path d="M211.998 221.744L206.171 225.13L144.434 189.499L150.265 186.114L211.998 221.744Z" fill="#001854"/>
<path d="M124.211 187.238L118.383 190.624L112.569 187.269L118.397 183.883L124.211 187.238Z" fill="#001854"/>
<path d="M110.207 195.372L104.431 198.727L98.614 195.372L104.394 192.017L110.207 195.372Z" fill="#001854"/>
<path d="M96.2556 203.48L90.476 206.834L84.6622 203.48L90.4384 200.121L96.2556 203.48Z" fill="#001854"/>
<path d="M78.1205 227.938C87.9263 233.599 88.0289 242.841 78.2367 248.529C68.4445 254.218 52.4831 254.187 42.6738 248.529C32.8167 242.841 32.7654 233.627 42.5576 227.938C52.3498 222.25 68.2633 222.25 78.1205 227.938ZM45.8524 246.681C53.8844 251.317 66.9987 251.345 75.0307 246.681C83.0593 242.018 82.9704 234.423 74.9384 229.787C66.8552 225.123 53.7887 225.123 45.7601 229.787C37.7282 234.45 37.7726 242.014 45.8524 246.681Z" fill="#2C98EA"/>
<path d="M70.7244 232.233C76.4425 235.533 76.4219 240.907 70.7449 244.207C65.0644 247.508 55.7814 247.535 50.0668 244.235C44.3008 240.907 44.3214 235.533 49.9984 232.233C55.6755 228.932 64.9584 228.905 70.7244 232.233ZM53.2454 242.386C57.1862 244.662 63.622 244.635 67.5389 242.359C71.4558 240.084 71.4831 236.36 67.5423 234.084C63.5503 231.782 57.1178 231.809 53.1975 234.084C49.2841 236.356 49.2533 240.084 53.2454 242.386Z" fill="#2C98EA"/>
<path d="M744.416 88.4773L735.396 93.7274C733.933 94.5765 731.913 94.4648 729.677 93.1726L738.697 87.9225C740.93 89.2148 742.953 89.3264 744.416 88.4773Z" fill="#16388C"/>
<path d="M724.045 74.1107L733.065 68.8607C731.622 69.6996 730.717 71.4823 730.71 74.0295C730.697 79.1071 734.322 85.3922 738.693 87.9192L729.673 93.1692C725.302 90.6423 721.677 84.3571 721.69 79.2796C721.7 76.7324 722.602 74.9496 724.045 74.1107Z" fill="#0A2873"/>
<path d="M658.239 38.6691L649.219 43.9192C647.763 44.7649 645.756 44.6566 643.543 43.3779L652.563 38.1279C654.773 39.4066 656.783 39.5148 658.239 38.6691Z" fill="#16388C"/>
<path d="M637.912 24.3029L646.932 19.0528C645.486 19.8951 644.591 21.6847 644.581 24.2353C644.567 29.3128 648.151 35.5743 652.563 38.1249L643.543 43.3749C639.131 40.8243 635.547 34.5628 635.56 29.4853C635.567 26.9347 636.466 25.1418 637.912 24.3029Z" fill="#0A2873"/>
<path d="M767.936 111.487L767.679 218.304C767.679 221.19 766.655 223.175 764.99 224.136L755.966 229.39C757.632 228.429 758.656 226.443 758.656 223.561L758.912 116.744L767.936 111.487Z" fill="#E3F3FF"/>
<path d="M758.909 116.76L758.639 223.554C758.622 229.335 754.565 231.653 749.538 228.747L623.04 155.618C618.054 152.736 613.983 145.72 614 139.939L614.27 33.1451L758.909 116.76Z" fill="#C0E1FF"/>
<path d="M749.929 79.5939C754.956 82.4997 758.987 89.5392 758.97 95.273L758.909 116.76L614.27 33.1418L614.331 11.6544C614.348 5.91724 618.446 3.57974 623.432 6.46186L749.929 79.5939ZM729.673 93.1689C734.126 95.7432 737.734 93.6391 737.747 88.5616C737.761 83.4367 734.176 77.2226 729.724 74.6483C725.352 72.1214 721.704 74.1544 721.69 79.2793C721.677 84.3568 725.302 90.642 729.673 93.1689ZM643.543 43.378C647.955 45.9286 651.563 43.8245 651.577 38.747C651.59 33.6221 648.006 27.408 643.594 24.8573C639.182 22.3067 635.574 24.3635 635.56 29.4884C635.547 34.5625 639.131 40.824 643.543 43.378Z" fill="#001854"/>
<path d="M768 90.0162L767.936 111.483L758.912 116.737L758.977 95.2696C758.977 89.5697 754.946 82.52 749.953 79.5702L623.436 6.45511C620.939 4.98023 618.635 4.85167 616.973 5.81238L625.996 0.619873C627.662 -0.340832 629.966 -0.212321 632.459 1.19829L758.977 74.31C763.97 77.2666 768 84.3129 768 90.0162Z" fill="#0A2873"/>
<path d="M750.693 121.483L750.477 219.823L622.135 145.656L622.355 47.319L750.693 121.483Z" fill="white"/>
<path d="M738.843 133.921C740.494 133.921 741.634 132.612 741.64 130.348C741.634 132.612 740.494 133.921 738.843 133.921Z" fill="#2C98EA"/>
<path d="M736.621 121.642C738.083 122.595 739.299 123.88 740.172 125.393C741.044 126.906 741.547 128.604 741.64 130.348C741.631 133.423 739.534 134.735 736.904 133.402L736.721 198.026L736.092 197.663L736.274 133.038C735.633 132.613 735.048 132.108 734.533 131.535L721.149 140.676C721.557 141.703 721.776 142.796 721.795 143.902C721.786 146.976 719.689 148.288 717.057 146.954L716.945 186.59L716.317 186.227L716.429 146.591C715.054 145.619 713.917 144.348 713.103 142.874C712.288 141.4 711.817 139.76 711.725 138.078C711.724 137.72 711.758 137.364 711.825 137.012L700.4 122.972C699.9 123.166 699.362 123.242 698.828 123.194C698.294 123.147 697.778 122.976 697.32 122.697L697.17 175.154L696.542 174.79L696.69 122.334C695.989 121.868 695.356 121.308 694.806 120.671L681.645 128.654C682.007 129.621 682.199 130.643 682.214 131.676C682.205 134.75 680.108 136.062 677.478 134.73L677.395 163.716L676.767 163.352L676.849 134.366C675.474 133.394 674.337 132.123 673.523 130.649C672.708 129.175 672.237 127.535 672.145 125.852C672.145 125.494 672.178 125.137 672.243 124.785L660.821 110.746C660.321 110.939 659.782 111.015 659.248 110.968C658.714 110.92 658.197 110.75 657.739 110.471L657.621 152.28L656.991 151.916L657.11 110.107C656.389 109.627 655.738 109.049 655.178 108.389L642.091 115.992C642.437 116.938 642.62 117.935 642.634 118.942C642.625 122.017 640.53 123.33 637.899 121.995L637.846 140.843L637.215 140.479L637.269 121.631C635.895 120.66 634.758 119.39 633.944 117.916C633.129 116.442 632.658 114.802 632.566 113.12C632.575 109.926 634.842 108.632 637.616 110.237C638.466 110.746 639.225 111.392 639.863 112.15L652.951 104.547C652.604 103.601 652.42 102.603 652.406 101.595C652.415 98.3997 654.681 97.1077 657.457 98.7127C658.919 99.6654 660.135 100.951 661.007 102.463C661.88 103.976 662.383 105.674 662.476 107.419C662.476 107.777 662.442 108.135 662.376 108.487L673.8 122.526C674.698 122.1 675.889 122.214 677.195 122.969C678.023 123.464 678.766 124.091 679.393 124.825L692.556 116.843C692.194 115.876 692.001 114.854 691.986 113.821C691.995 110.626 694.261 109.331 697.037 110.936C698.499 111.89 699.715 113.175 700.587 114.688C701.459 116.202 701.963 117.9 702.056 119.645C702.056 120.002 702.023 120.36 701.955 120.711L713.38 134.751C714.278 134.327 715.47 134.44 716.775 135.196C717.543 135.653 718.236 136.225 718.831 136.892L732.216 127.752C731.808 126.724 731.589 125.631 731.57 124.525C731.58 121.331 733.846 120.037 736.621 121.642ZM716.752 143.453C717.933 144.136 718.895 143.585 718.899 142.227C718.86 141.486 718.646 140.764 718.275 140.122C717.904 139.479 717.387 138.933 716.766 138.528C715.586 137.846 714.624 138.395 714.62 139.753C714.66 140.494 714.873 141.216 715.244 141.859C715.614 142.502 716.131 143.048 716.752 143.453ZM736.597 129.899C737.779 130.582 738.741 130.033 738.745 128.674C738.705 127.932 738.491 127.211 738.12 126.568C737.749 125.925 737.232 125.379 736.611 124.974C735.432 124.292 734.47 124.842 734.466 126.199C734.505 126.94 734.719 127.662 735.089 128.305C735.46 128.948 735.976 129.494 736.597 129.899ZM697.013 119.194C698.194 119.877 699.157 119.328 699.16 117.971C699.121 117.229 698.907 116.507 698.536 115.864C698.166 115.221 697.648 114.674 697.027 114.269C695.847 113.587 694.886 114.137 694.881 115.496C694.921 116.237 695.134 116.958 695.505 117.601C695.875 118.243 696.392 118.789 697.013 119.194ZM677.172 131.227C678.352 131.91 679.315 131.359 679.319 130.001C679.28 129.26 679.066 128.538 678.695 127.895C678.324 127.253 677.807 126.707 677.186 126.302C676.006 125.62 675.044 126.17 675.04 127.527C675.08 128.268 675.293 128.99 675.664 129.633C676.034 130.276 676.551 130.822 677.172 131.227ZM637.593 118.495C638.773 119.177 639.737 118.627 639.74 117.269C639.7 116.528 639.486 115.806 639.116 115.163C638.745 114.521 638.228 113.975 637.607 113.57C636.428 112.888 635.465 113.437 635.461 114.795C635.501 115.536 635.715 116.257 636.085 116.9C636.456 117.543 636.972 118.09 637.593 118.495ZM657.433 106.968C658.612 107.651 659.576 107.102 659.58 105.745C659.541 105.003 659.327 104.281 658.956 103.638C658.585 102.995 658.068 102.449 657.447 102.044C656.268 101.361 655.306 101.911 655.302 103.27C655.341 104.011 655.555 104.732 655.925 105.375C656.295 106.018 656.812 106.564 657.433 106.968Z" fill="#2C98EA"/>
<path d="M636.649 113.276C636.988 113.289 637.319 113.39 637.607 113.57C637.319 113.39 636.988 113.289 636.649 113.276ZM642.091 115.992C642.437 116.938 642.62 117.935 642.634 118.942C642.62 117.935 642.437 116.938 642.091 115.992ZM637.616 110.238C638.466 110.746 639.225 111.392 639.863 112.15C639.225 111.392 638.466 110.746 637.616 110.238ZM734.367 120.953C732.717 120.953 731.577 122.262 731.571 124.525C731.577 122.262 732.717 120.953 734.367 120.953Z" fill="#2C98EA"/>
<path d="M213.907 437.887L56.5 529.5" stroke="#C0E1FF" stroke-width="2" stroke-linecap="round" stroke-linejoin="round" stroke-dasharray="4 8"/>
<path d="M689 190.5L594 251" stroke="#C0E1FF" stroke-width="2" stroke-linecap="round" stroke-linejoin="round" stroke-dasharray="4 8"/>
<path d="M105 299L105.153 481.126" stroke="#C0E1FF" stroke-width="2" stroke-linecap="round" stroke-linejoin="round" stroke-dasharray="4 8"/>
<path d="M375.5 605L193 501" stroke="#C0E1FF" stroke-width="2" stroke-linecap="round" stroke-linejoin="round" stroke-dasharray="4 8"/>
<path d="M0.99795 497.814L7.46556 494.05L7.43324 504.97L0.965637 508.731L0.99795 497.814Z" fill="#E3F3FF"/>
<path d="M205.701 502.451L199.23 498.69L199.233 499.799L205.704 503.563L205.701 502.451Z" fill="#E3F3FF"/>
<path d="M200.27 492.41L193.802 488.646L193.831 499.566L200.299 503.327L200.27 492.41Z" fill="#E3F3FF"/>
<path d="M193.331 495.253L186.863 491.492L186.866 492.604L193.334 496.365L193.331 495.253Z" fill="#E3F3FF"/>
<path d="M187.9 485.212L181.432 481.451L181.461 492.368L187.932 496.132L187.9 485.212Z" fill="#E3F3FF"/>
<path d="M175.533 478.014L169.062 474.253L169.095 485.17L175.562 488.934L175.533 478.014Z" fill="#E3F3FF"/>
<path d="M163.164 470.819L156.696 467.055L156.725 477.975L163.193 481.736L163.164 470.819Z" fill="#E3F3FF"/>
<path d="M150.794 463.62L144.326 459.856L144.358 470.777L150.826 474.537L150.794 463.62Z" fill="#E3F3FF"/>
<path d="M143.854 466.466L137.387 462.702L137.39 463.815L143.857 467.575L143.854 466.466Z" fill="#E3F3FF"/>
<path d="M138.427 456.422L131.956 452.662L131.988 463.579L138.456 467.343L138.427 456.422Z" fill="#E3F3FF"/>
<path d="M131.488 459.268L125.017 455.504L125.02 456.616L131.491 460.381L131.488 459.268Z" fill="#E3F3FF"/>
<path d="M126.057 449.227L119.589 445.463L119.618 456.38L126.089 460.144L126.057 449.227Z" fill="#E3F3FF"/>
<path d="M127.02 447.556L120.552 443.792L112.65 448.309L119.118 452.07L127.02 447.556Z" fill="#C0E1FF"/>
<path d="M119.118 452.07L119.121 453.182L126.057 449.227L126.089 460.144L127.055 459.585L127.02 447.555L119.118 452.07Z" fill="#E3F3FF"/>
<path d="M139.39 454.754L132.922 450.99L125.017 455.504L131.488 459.268L139.39 454.754Z" fill="#C0E1FF"/>
<path d="M131.488 459.268L131.491 460.38L138.427 456.422L138.456 467.342L139.422 466.783L139.39 454.754L131.488 459.268Z" fill="#E3F3FF"/>
<path d="M151.759 461.949L145.289 458.188L137.387 462.702L143.854 466.466L151.759 461.949Z" fill="#C0E1FF"/>
<path d="M143.854 466.466L143.858 467.575L150.794 463.621L150.826 474.538L151.792 473.981L151.76 461.949L143.854 466.466Z" fill="#E3F3FF"/>
<path d="M164.126 469.147L157.659 465.386L149.757 469.9L156.224 473.661L164.126 469.147Z" fill="#C0E1FF"/>
<path d="M156.224 473.661L156.227 474.774L163.163 470.819L163.192 481.736L164.162 481.176L164.126 469.147L156.224 473.661Z" fill="#E3F3FF"/>
<path d="M176.496 476.345L170.028 472.581L162.123 477.095L168.594 480.859L176.496 476.345Z" fill="#C0E1FF"/>
<path d="M168.594 480.859L168.597 481.972L175.533 478.014L175.562 488.934L176.528 488.374L176.496 476.345L168.594 480.859Z" fill="#E3F3FF"/>
<path d="M188.863 483.543L182.395 479.779L174.493 484.294L180.961 488.058L188.863 483.543Z" fill="#C0E1FF"/>
<path d="M180.961 488.058L180.964 489.17L187.9 485.212L187.932 496.132L188.898 495.573L188.863 483.543L180.961 488.058Z" fill="#E3F3FF"/>
<path d="M201.233 490.738L194.765 486.978L186.863 491.492L193.331 495.253L201.233 490.738Z" fill="#C0E1FF"/>
<path d="M193.33 495.253L193.334 496.365L200.27 492.41L200.299 503.327L201.268 502.771L201.232 490.738L193.33 495.253Z" fill="#E3F3FF"/>
<path d="M212.636 499.609L206.169 495.845L206.201 506.762L212.669 510.526L212.636 499.609Z" fill="#E3F3FF"/>
<path d="M213.603 497.937L207.132 494.173L199.23 498.69L205.701 502.451L213.603 497.937Z" fill="#C0E1FF"/>
<path d="M205.7 502.451L205.704 503.563L212.636 499.608L212.669 510.525L213.635 509.966L213.602 497.937L205.7 502.451Z" fill="#E3F3FF"/>
<path d="M180.961 488.058L174.493 484.294L174.496 485.406L180.964 489.17L180.961 488.058Z" fill="#E3F3FF"/>
<path d="M168.594 480.86L162.123 477.096L162.126 478.208L168.597 481.972L168.594 480.86Z" fill="#E3F3FF"/>
<path d="M156.224 473.661L149.757 469.901L149.76 471.013L156.227 474.774L156.224 473.661Z" fill="#E3F3FF"/>
<path d="M106.031 560.457L105.998 569.961L4.30316 511.188L4.33546 501.684L106.031 560.457Z" fill="#04226D"/>
<path d="M207.093 501.668L207.061 511.172L105.999 569.961L106.031 560.457L207.093 501.668Z" fill="#04226D"/>
<path d="M119.118 452.07L112.65 448.309L112.653 449.421L119.121 453.182L119.118 452.07Z" fill="#E3F3FF"/>
<path d="M93.0506 565.971L86.5797 562.21L86.6153 574.239L93.0829 578L93.0506 565.971Z" fill="#E3F3FF"/>
<path d="M100.953 561.456L94.4849 557.692L86.5797 562.21L93.0506 565.971L100.953 561.456Z" fill="#C0E1FF"/>
<path d="M93.0502 565.971L93.0825 578L94.0484 577.444L94.0193 566.524L100.955 562.569L100.952 561.456L93.0502 565.971Z" fill="#E3F3FF"/>
<path d="M80.6805 558.772L74.2129 555.012L74.2452 567.041L80.716 570.805L80.6805 558.772Z" fill="#E3F3FF"/>
<path d="M88.5825 554.258L82.1149 550.497L74.2129 555.012L80.6805 558.772L88.5825 554.258Z" fill="#C0E1FF"/>
<path d="M80.6804 558.773L80.716 570.805L81.6819 570.246L81.6496 559.326L88.5856 555.371L88.5824 554.258L80.6804 558.773Z" fill="#E3F3FF"/>
<path d="M68.3104 551.577L61.8428 547.813L61.8784 559.843L68.346 563.607L68.3104 551.577Z" fill="#E3F3FF"/>
<path d="M76.2157 547.06L69.7448 543.299L61.8428 547.813L68.3104 551.577L76.2157 547.06Z" fill="#C0E1FF"/>
<path d="M68.3105 551.577L68.3461 563.607L69.312 563.047L69.2829 552.13L76.219 548.172L76.2158 547.06L68.3105 551.577Z" fill="#E3F3FF"/>
<path d="M55.9437 544.379L49.4761 540.615L49.5084 552.648L55.976 556.408L55.9437 544.379Z" fill="#E3F3FF"/>
<path d="M63.8457 539.865L57.3781 536.101L49.4761 540.615L55.9437 544.379L63.8457 539.865Z" fill="#C0E1FF"/>
<path d="M55.944 544.379L55.9763 556.409L56.9455 555.849L56.9132 544.932L63.8492 540.977L63.846 539.865L55.944 544.379Z" fill="#E3F3FF"/>
<path d="M43.5738 537.181L37.1062 533.42L37.1385 545.45L43.6093 549.214L43.5738 537.181Z" fill="#E3F3FF"/>
<path d="M51.4758 532.667L45.0082 528.903L37.1062 533.42L43.5738 537.181L51.4758 532.667Z" fill="#C0E1FF"/>
<path d="M43.5742 537.181L43.6097 549.214L44.5756 548.654L44.5433 537.734L51.4794 533.779L51.4762 532.667L43.5742 537.181Z" fill="#E3F3FF"/>
<path d="M31.204 529.986L24.7364 526.222L24.7719 538.251L31.2395 542.015L31.204 529.986Z" fill="#E3F3FF"/>
<path d="M39.1092 525.468L32.6384 521.708L24.7364 526.222L31.204 529.986L39.1092 525.468Z" fill="#C0E1FF"/>
<path d="M31.2043 529.986L31.2398 542.015L32.2058 541.456L32.1767 530.539L39.1127 526.581L39.1095 525.469L31.2043 529.986Z" fill="#E3F3FF"/>
<path d="M18.8375 522.787L12.3699 519.023L12.4022 531.056L18.8698 534.817L18.8375 522.787Z" fill="#E3F3FF"/>
<path d="M26.7395 518.273L20.2719 514.509L12.3699 519.024L18.8375 522.788L26.7395 518.273Z" fill="#C0E1FF"/>
<path d="M18.8376 522.788L18.8699 534.817L19.8391 534.258L19.8068 523.341L26.7428 519.386L26.7396 518.273L18.8376 522.788Z" fill="#E3F3FF"/>
<path d="M6.46761 515.589L0 511.829L0.0355414 523.858L6.50315 527.619L6.46761 515.589Z" fill="#E3F3FF"/>
<path d="M14.3696 511.075L7.90198 507.311L0 511.829L6.46761 515.59L14.3696 511.075Z" fill="#C0E1FF"/>
<path d="M6.46747 515.59L6.50301 527.619L7.46895 527.063L7.43665 516.143L14.3727 512.188L14.3695 511.075L6.46747 515.59Z" fill="#E3F3FF"/>
<path d="M7.93768 500.656L14.4053 496.895L14.4021 498.008L7.93445 501.769L7.93768 500.656Z" fill="#E3F3FF"/>
<path d="M13.3651 490.615L19.8359 486.855L19.8036 497.772L13.336 501.532L13.3651 490.615Z" fill="#E3F3FF"/>
<path d="M20.3044 493.461L26.7753 489.697L26.772 490.809L20.3012 494.57L20.3044 493.461Z" fill="#E3F3FF"/>
<path d="M25.7349 483.417L32.2025 479.657L32.1735 490.574L25.7059 494.338L25.7349 483.417Z" fill="#E3F3FF"/>
<path d="M32.6741 486.263L39.1417 482.499L39.1385 483.611L32.6708 487.375L32.6741 486.263Z" fill="#E3F3FF"/>
<path d="M38.1046 476.222L44.5722 472.458L44.5399 483.375L38.0723 487.139L38.1046 476.222Z" fill="#E3F3FF"/>
<path d="M45.0439 479.065L51.5115 475.304L51.5083 476.413L45.0407 480.177L45.0439 479.065Z" fill="#E3F3FF"/>
<path d="M50.4713 469.024L56.9422 465.26L56.9099 476.18L50.4423 479.941L50.4713 469.024Z" fill="#E3F3FF"/>
<path d="M57.4106 471.866L63.8782 468.106L63.875 469.218L57.4073 472.979L57.4106 471.866Z" fill="#E3F3FF"/>
<path d="M62.8412 461.826L69.3088 458.065L69.2797 468.982L62.8089 472.746L62.8412 461.826Z" fill="#E3F3FF"/>
<path d="M69.7805 464.671L76.2481 460.907L76.2448 462.02L69.7772 465.784L69.7805 464.671Z" fill="#E3F3FF"/>
<path d="M75.2111 454.631L81.6788 450.867L81.6464 461.784L75.1788 465.548L75.2111 454.631Z" fill="#E3F3FF"/>
<path d="M82.1469 457.473L88.6177 453.709L88.6145 454.822L82.1469 458.586V457.473Z" fill="#E3F3FF"/>
<path d="M87.5775 447.433L94.0484 443.669L94.0161 454.589L87.5485 458.35L87.5775 447.433Z" fill="#E3F3FF"/>
<path d="M94.5169 450.275L100.985 446.514L100.981 447.627L94.5137 451.387L94.5169 450.275Z" fill="#E3F3FF"/>
<path d="M86.615 445.761L93.0826 442L100.985 446.514L94.517 450.275L86.615 445.761Z" fill="#C0E1FF"/>
<path d="M94.5172 450.275L94.514 451.388L87.578 447.433L87.5489 458.35L86.5797 457.79L86.6153 445.761L94.5172 450.275Z" fill="#E3F3FF"/>
<path d="M74.2454 452.959L80.7162 449.195L88.6182 453.709L82.1474 457.473L74.2454 452.959Z" fill="#C0E1FF"/>
<path d="M82.1472 457.473V458.586L75.2111 454.631L75.1788 465.548L74.2129 464.988L74.2452 452.959L82.1472 457.473Z" fill="#E3F3FF"/>
<path d="M61.8787 460.157L68.3463 456.393L76.2483 460.907L69.7806 464.671L61.8787 460.157Z" fill="#C0E1FF"/>
<path d="M69.7803 464.672L69.7771 465.784L62.8411 461.826L62.8088 472.746L61.8428 472.187L61.8784 460.157L69.7803 464.672Z" fill="#E3F3FF"/>
<path d="M49.5084 467.352L55.976 463.591L63.878 468.106L57.4103 471.867L49.5084 467.352Z" fill="#C0E1FF"/>
<path d="M57.4104 471.867L57.4071 472.979L50.4711 469.024L50.442 479.941L49.4761 479.385L49.5084 467.352L57.4104 471.867Z" fill="#E3F3FF"/>
<path d="M37.1387 474.55L43.6095 470.786L51.5115 475.304L45.0439 479.065L37.1387 474.55Z" fill="#C0E1FF"/>
<path d="M45.0437 479.065L45.0405 480.177L38.1045 476.222L38.0721 487.139L37.1062 486.58L37.1385 474.55L45.0437 479.065Z" fill="#E3F3FF"/>
<path d="M24.772 481.749L31.2396 477.985L39.1416 482.499L32.674 486.263L24.772 481.749Z" fill="#C0E1FF"/>
<path d="M32.6739 486.263L32.6707 487.375L25.7346 483.417L25.7056 494.338L24.7364 493.778L24.7719 481.749L32.6739 486.263Z" fill="#E3F3FF"/>
<path d="M12.4021 488.944L18.8697 485.183L26.7749 489.697L20.3041 493.461L12.4021 488.944Z" fill="#C0E1FF"/>
<path d="M20.3042 493.461L20.3009 494.57L13.3649 490.615L13.3358 501.532L12.3699 500.976L12.4022 488.944L20.3042 493.461Z" fill="#E3F3FF"/>
<path d="M0.0355835 496.142L6.50319 492.381L14.4052 496.895L7.93757 500.656L0.0355835 496.142Z" fill="#C0E1FF"/>
<path d="M7.93752 500.656L7.93429 501.768L0.998254 497.814L0.965941 508.731L0 508.171L0.0355414 496.142L7.93752 500.656Z" fill="#E3F3FF"/>
<path d="M120.588 565.971L127.055 562.21L127.02 574.239L120.552 578L120.588 565.971Z" fill="#E3F3FF"/>
<path d="M112.682 561.456L119.153 557.692L127.055 562.21L120.588 565.971L112.682 561.456Z" fill="#C0E1FF"/>
<path d="M120.588 565.971L120.552 578L119.586 577.444L119.615 566.524L112.679 562.569L112.683 561.456L120.588 565.971Z" fill="#E3F3FF"/>
<path d="M132.954 558.772L139.422 555.012L139.39 567.041L132.922 570.805L132.954 558.772Z" fill="#E3F3FF"/>
<path d="M125.052 554.258L131.52 550.497L139.422 555.012L132.954 558.772L125.052 554.258Z" fill="#C0E1FF"/>
<path d="M132.954 558.773L132.922 570.805L131.953 570.246L131.985 559.326L125.049 555.371L125.052 554.258L132.954 558.773Z" fill="#E3F3FF"/>
<path d="M145.324 551.577L151.792 547.813L151.759 559.843L145.289 563.607L145.324 551.577Z" fill="#E3F3FF"/>
<path d="M137.422 547.06L143.889 543.299L151.791 547.813L145.324 551.577L137.422 547.06Z" fill="#C0E1FF"/>
<path d="M145.324 551.577L145.289 563.607L144.323 563.047L144.355 552.13L137.419 548.172L137.422 547.06L145.324 551.577Z" fill="#E3F3FF"/>
<path d="M157.691 544.379L164.162 540.615L164.126 552.648L157.659 556.408L157.691 544.379Z" fill="#E3F3FF"/>
<path d="M149.789 539.865L156.26 536.101L164.162 540.615L157.691 544.379L149.789 539.865Z" fill="#C0E1FF"/>
<path d="M157.691 544.379L157.659 556.409L156.693 555.849L156.722 544.932L149.786 540.977L149.789 539.865L157.691 544.379Z" fill="#E3F3FF"/>
<path d="M170.061 537.181L176.528 533.42L176.496 545.45L170.028 549.214L170.061 537.181Z" fill="#E3F3FF"/>
<path d="M162.159 532.667L168.626 528.903L176.528 533.42L170.061 537.181L162.159 532.667Z" fill="#C0E1FF"/>
<path d="M170.061 537.181L170.028 549.214L169.059 548.654L169.091 537.734L162.155 533.779L162.159 532.667L170.061 537.181Z" fill="#E3F3FF"/>
<path d="M182.43 529.986L188.898 526.222L188.862 538.251L182.395 542.015L182.43 529.986Z" fill="#E3F3FF"/>
<path d="M174.529 525.468L180.996 521.708L188.898 526.222L182.431 529.986L174.529 525.468Z" fill="#C0E1FF"/>
<path d="M182.43 529.986L182.395 542.015L181.429 541.456L181.458 530.539L174.525 526.581L174.528 525.469L182.43 529.986Z" fill="#E3F3FF"/>
<path d="M194.797 522.787L201.268 519.023L201.232 531.056L194.765 534.817L194.797 522.787Z" fill="#E3F3FF"/>
<path d="M186.895 518.273L193.363 514.509L201.268 519.024L194.797 522.788L186.895 518.273Z" fill="#C0E1FF"/>
<path d="M194.797 522.788L194.765 534.817L193.799 534.258L193.828 523.341L186.892 519.386L186.895 518.273L194.797 522.788Z" fill="#E3F3FF"/>
<path d="M207.167 515.589L213.634 511.829L213.602 523.858L207.131 527.619L207.167 515.589Z" fill="#E3F3FF"/>
<path d="M199.265 511.075L205.733 507.311L213.635 511.829L207.167 515.59L199.265 511.075Z" fill="#C0E1FF"/>
<path d="M207.167 515.59L207.132 527.619L206.166 527.063L206.198 516.143L199.262 512.188L199.265 511.075L207.167 515.59Z" fill="#E3F3FF"/>
<path d="M207.093 501.667L106.031 560.456L4.33563 501.684L105.401 442.895L207.093 501.667Z" fill="#001854"/>
<path d="M137.942 500.446L103.805 520.301L69.4474 500.446L103.582 480.588L137.942 500.446Z" fill="#E3F3FF"/>
<path d="M144.077 499.693L144.048 509.568L103.798 532.98L103.828 523.105L144.077 499.693Z" fill="#C0E1FF"/>
<path d="M103.827 523.105L103.798 532.98L63.2867 509.568L63.3158 499.693L103.827 523.105Z" fill="#C0E1FF"/>
<path d="M144.077 499.693L103.828 523.105L63.3161 499.693L103.566 476.281L144.077 499.693Z" fill="#E3F3FF"/>
<path d="M137.942 482.14L137.916 499.864L103.782 519.722L103.805 501.995L137.942 482.14Z" fill="#001854"/>
<path d="M103.805 501.995L103.782 519.722L69.4219 499.864L69.4477 482.14L103.805 501.995Z" fill="#001854"/>
<path d="M137.942 482.14L103.805 501.995L69.4474 482.14L103.582 462.285L137.942 482.14Z" fill="#E3F3FF"/>
<path d="M144.077 481.386L144.048 491.262L103.798 514.674L103.828 504.799L144.077 481.386Z" fill="#C0E1FF"/>
<path d="M103.827 504.799L103.798 514.674L63.2867 491.262L63.3158 481.386L103.827 504.799Z" fill="#C0E1FF"/>
<path d="M144.077 481.387L103.828 504.799L63.3161 481.387L103.566 457.975L144.077 481.387Z" fill="white"/>
<path d="M71.3018 481.377L103.572 462.608L136.091 481.393L103.821 500.161L71.3018 481.377Z" fill="#E3F3FF"/>
<path d="M650 546.006L463.178 654.678L372.021 601.997L558.805 493.347L650 546.006Z" fill="#A0D6FF"/>
<path d="M650 546.006L649.979 553.328L463.156 662L463.178 654.677L650 546.006Z" fill="#4AABF4"/>
<path d="M463.178 654.677L463.156 662L372 609.32L372.021 601.997L463.178 654.677Z" fill="#329AE9"/>
<path d="M650 529.556L463.178 638.228L372.021 585.548L558.805 476.898L650 529.556Z" fill="#A0D6FF"/>
<path d="M650 529.556L649.979 536.879L463.156 645.551L463.178 638.228L650 529.556Z" fill="#4AABF4"/>
<path d="M463.178 638.228L463.156 645.551L372 592.87L372.021 585.548L463.178 638.228Z" fill="#329AE9"/>
<path d="M650 513.108L463.178 621.779L372.021 569.099L558.805 460.449L650 513.108Z" fill="#A0D6FF"/>
<path d="M650 513.107L649.979 520.426L463.156 629.097L463.178 621.779L650 513.107Z" fill="#4AABF4"/>
<path d="M463.178 621.779L463.156 629.097L372 576.417L372.021 569.099L463.178 621.779Z" fill="#329AE9"/>
<path d="M650 496.659L463.178 605.33L372.021 552.65L558.805 444L650 496.659Z" fill="#A0D6FF"/>
<path d="M620.326 489.31C613.345 493.368 613.417 499.97 620.446 504.028L548.13 546.092C565.392 536.05 562.783 518.218 542.35 506.412C521.918 494.605 491.192 493.171 473.931 503.212L546.246 461.149C553.274 465.212 564.619 465.207 571.596 461.149L620.326 489.31ZM575.891 500.322L579.118 498.445L576.56 496.967C578.83 494.983 578.779 492.531 576.26 491.075C573.282 489.353 567.953 489.662 564.31 491.784C562.564 492.797 560.015 493.132 558.87 492.467C557.724 491.805 558.286 490.323 560.032 489.31C561.813 488.275 564.366 487.94 565.512 488.601L568.738 486.724C566.22 485.268 561.993 485.247 558.574 486.57L556.016 485.092L552.79 486.969L555.347 488.447C553.073 490.435 553.124 492.883 555.647 494.339C558.625 496.061 563.954 495.752 567.558 493.656C569.339 492.621 571.888 492.286 573.038 492.952C574.183 493.613 573.621 495.091 571.836 496.13C570.09 497.144 567.541 497.479 566.395 496.817L563.173 498.69C565.696 500.146 569.918 500.167 573.338 498.844L575.891 500.322Z" fill="#4AABF4"/>
<path d="M479.633 542.892C500.065 554.698 530.829 556.154 548.13 546.091L475.775 588.176C468.747 584.113 457.368 584.092 450.387 588.155L401.657 559.994C408.638 555.931 408.6 549.355 401.576 545.297L473.93 503.208C456.63 513.275 459.204 531.085 479.633 542.892ZM466.014 564.233L469.24 562.356L466.683 560.878C468.957 558.894 468.94 556.42 466.421 554.964C463.444 553.242 458.076 553.573 454.472 555.673C452.691 556.708 450.138 557.043 448.993 556.377C447.847 555.716 448.409 554.234 450.194 553.199C451.94 552.186 454.489 551.851 455.635 552.512L458.896 550.614C456.377 549.158 452.112 549.158 448.696 550.481L446.139 549.003L442.913 550.88L445.47 552.357C443.196 554.346 443.247 556.794 445.77 558.25C448.748 559.972 454.077 559.663 457.716 557.546C459.462 556.532 462.011 556.197 463.156 556.863C464.302 557.524 463.74 559.001 461.993 560.019C460.213 561.054 457.664 561.389 456.518 560.724L453.296 562.601C455.815 564.056 460.041 564.078 463.461 562.755L466.014 564.233Z" fill="#4AABF4"/>
<path d="M531.585 521.397C536.588 524.287 536.575 529.166 532.108 533.139L537.188 536.072L530.778 539.8L525.698 536.867C518.863 539.469 510.487 539.469 505.484 536.579L511.895 532.851C514.147 534.152 519.245 533.491 522.772 531.438C526.299 529.385 527.388 526.452 525.136 525.15C522.844 523.827 517.786 524.467 514.259 526.516C507.05 530.708 496.396 531.326 490.475 527.908C485.434 524.996 485.447 520.16 489.913 516.187L484.794 513.228L491.205 509.5L496.324 512.459C503.163 509.852 511.496 509.831 516.537 512.747L510.127 516.475C507.836 515.152 502.777 515.792 499.25 517.845C495.723 519.898 494.594 522.857 496.886 524.18C499.138 525.481 504.236 524.82 507.767 522.767C514.937 518.592 525.668 517.974 531.585 521.397Z" fill="#4AABF4"/>
<path d="M650 496.659L649.979 503.977L463.156 612.648L463.178 605.33L650 496.659Z" fill="#4AABF4"/>
<path d="M463.178 605.33L463.156 612.648L372 559.968L372.021 552.65L463.178 605.33Z" fill="#329AE9"/>
</svg>
