<?xml version="1.0" encoding="utf-8"?>
<!-- Generator: Adobe Illustrator 22.0.0, SVG Export Plug-In . SVG Version: 6.00 Build 0)  -->
<svg version="1.1" id="Layer_1" xmlns="http://www.w3.org/2000/svg" xmlns:xlink="http://www.w3.org/1999/xlink" x="0px" y="0px"
	 viewBox="0 0 435.2 189" style="enable-background:new 0 0 435.2 189;" xml:space="preserve">
<style type="text/css">
	.st0{clip-path:url(#SVGID_2_);fill:#38538F;}
	.st1{clip-path:url(#SVGID_4_);fill:#38538F;}
	.st2{fill:#38538F;}
	.st3{fill:#353068;}
</style>
<g>
	<g>
		<g>
			<defs>
				<rect id="SVGID_1_" x="0.1" y="1" width="434.9" height="189"/>
			</defs>
			<clipPath id="SVGID_2_">
				<use xlink:href="#SVGID_1_"  style="overflow:visible;"/>
			</clipPath>
			<path class="st0" d="M320.3,55.8h-26.5v-6c0-6.1-1.4-11.3-4.3-15.7s-7.7-6.6-14.4-6.6c-3.6,0-6.6,0.7-9,2.1
				c-2.3,1.4-4.2,3.2-5.5,5.3c-1.3,2.2-2.2,4.7-2.7,7.5c-0.5,2.9-0.8,5.8-0.8,9c0,3.6,0.1,6.7,0.4,9.2s0.9,4.7,1.9,6.5
				s2.6,3.4,4.5,4.8c2,1.4,4.7,2.8,8.2,4.2l20.3,8.1c5.9,2.3,10.7,4.9,14.3,7.9s6.5,6.6,8.4,10.6c2,4.1,3.3,8.8,4,14
				c0.7,5.3,1,11.3,1,18.1c0,7.8-0.8,15-2.3,21.7c-1.6,6.7-4.1,12.4-7.7,17.1c-3.6,4.8-8.3,8.5-14.2,11.3s-13.1,4.2-21.6,4.2
				c-6.4,0-12.4-1.1-17.9-3.4c-5.5-2.3-10.3-5.3-14.3-9.2s-7.1-8.5-9.5-13.9c-2.3-5.4-3.5-11.2-3.5-17.4v-9.9h26.5v8.3
				c0,4.8,1.4,9.2,4.3,13.1c2.9,3.9,7.7,5.8,14.4,5.8c4.5,0,8-0.7,10.5-2s4.4-3.1,5.7-5.5c1.3-2.3,2.1-5.2,2.5-8.7
				c0.3-3.5,0.5-7.3,0.5-11.4c0-4.8-0.2-8.8-0.5-12c-0.4-3.1-1.1-5.6-2.2-7.5c-1.1-1.9-2.7-3.5-4.7-4.7s-4.6-2.5-7.9-3.9l-19-7.8
				c-11.4-4.7-19.1-10.9-23-18.6c-3.9-7.7-5.8-17.4-5.8-29c0-6.9,0.9-13.5,2.9-19.7c1.9-6.2,4.7-11.6,8.4-16.1s8.4-8.1,14.2-10.8
				c5.7-2.7,12.4-4,20-4c6.6,0,12.6,1.2,18.1,3.6s10.1,5.6,14,9.6s6.9,8.4,9,13.4c2.1,4.9,3.1,10,3.1,15.2v13.2H320.3z"/>
		</g>
		<g>
			<defs>
				<rect id="SVGID_3_" x="0.1" y="1" width="434.9" height="189"/>
			</defs>
			<clipPath id="SVGID_4_">
				<use xlink:href="#SVGID_3_"  style="overflow:visible;"/>
			</clipPath>
			<path class="st1" d="M397.1,187.6h-23.4l-37.6-185h28l21,129.1h0.5L406.9,2.6H435L397.1,187.6z"/>
		</g>
	</g>
	<path class="st2" d="M201.3,26.5c-1.4-3.1-3.1-5.9-5-8.4l-17.6,38.7V144c0,6.4-1.8,11.1-5.3,14.2c-3.6,3-7.8,4.6-12.6,4.6
		c-4.9,0-9.1-1.5-12.6-4.6c-3.6-3-5.3-7.8-5.3-14.2v-8.3l-17,37.4c1.4,1.8,3,3.4,4.7,4.9c4.2,3.7,9,6.5,14.3,8.4
		c5.3,1.9,10.6,2.9,16,2.9c5.4,0,10.7-1,16-2.9s10-4.7,14.3-8.4c4.2-3.7,7.7-8.4,10.3-14c2.6-5.6,3.9-12.3,3.9-19.9V46.3
		C205.2,38.8,203.9,32.2,201.3,26.5"/>
	<path class="st3" d="M91,55.9H64.5v-6c0-6.1-1.4-11.3-4.3-15.7c-2.9-4.4-7.7-6.6-14.4-6.6c-3.6,0-6.6,0.7-9,2.1
		c-2.3,1.4-4.2,3.2-5.5,5.3c-1.3,2.2-2.2,4.7-2.7,7.5c-0.5,2.9-0.8,5.8-0.8,9c0,3.6,0.1,6.7,0.4,9.2s0.9,4.7,1.9,6.5
		s2.6,3.4,4.5,4.8c2,1.4,4.7,2.8,8.2,4.2l20.3,8.1c5.9,2.3,10.7,4.9,14.3,7.9s6.4,6.6,8.4,10.6c2,4.1,3.3,8.8,4,14
		c0.7,5.3,1,11.3,1,18.1c0,7.8-0.8,15-2.3,21.7c-1.6,6.7-4.1,12.4-7.7,17.1c-3.6,4.8-8.3,8.5-14.2,11.3s-13.1,4.2-21.6,4.2
		c-6.4,0-12.4-1.1-17.9-3.4s-10.3-5.3-14.3-9.2s-7.1-8.5-9.5-13.9c-2.3-5.4-3.5-11.2-3.5-17.4v-9.9h26.5v8.3c0,4.9,1.4,9.2,4.3,13.1
		c2.9,3.9,7.7,5.8,14.4,5.8c4.5,0,8-0.6,10.5-2c2.5-1.3,4.4-3.1,5.7-5.5c1.3-2.3,2.1-5.2,2.5-8.7c0.3-3.5,0.5-7.3,0.5-11.4
		c0-4.8-0.2-8.8-0.5-11.9c-0.3-3.1-1.1-5.6-2.2-7.5c-1.1-1.9-2.7-3.5-4.7-4.7s-4.6-2.5-7.9-3.9l-19-7.8c-11.4-4.7-19.1-10.9-23-18.6
		s-5.8-17.4-5.8-29C1.1,44.7,2,38.1,4,31.9c1.9-6.2,4.7-11.6,8.4-16.1c3.7-4.5,8.4-8.1,14.2-10.8c5.7-2.7,12.4-4,20-4
		c6.6,0,12.6,1.2,18.1,3.6s10.1,5.6,14,9.6s6.9,8.4,9,13.4c2.1,4.9,3.1,10,3.1,15.2v13.1H91z"/>
	<path class="st3" d="M142.8,46.3c0-6.4,1.8-11.1,5.3-14.2c3.6-3,7.8-4.5,12.6-4.5c0.7,0,1.4,0,2.1,0.1L174.1,3
		c-4.4-1.3-8.8-2-13.3-2c-5.4,0-10.7,1-16,2.9s-10,4.7-14.3,8.4c-4.2,3.7-7.7,8.4-10.3,14.2c-2.6,5.7-3.9,12.3-3.9,19.8V144
		c0,7.6,1.3,14.3,3.9,19.9c1.6,3.4,3.4,6.4,5.6,9.2l17-37.4V46.3z"/>
</g>
</svg>
