<svg xmlns="http://www.w3.org/2000/svg" width="54" height="61.689" viewBox="0 0 54 61.689"><path d="M48.806,64.663a12.2,12.2,0,0,1-7.452-2.333,13.709,13.709,0,0,1-4.667-6.172,30.7,30.7,0,0,0-2.973-5.984,28.264,28.264,0,0,0-5.533-5.382,25.2,25.2,0,0,1-7.151-8.506,25.093,25.093,0,0,1-2.183-10.99q0-9.033,5.721-14.791T39.321,4.745A20.748,20.748,0,0,1,53.209,9.562a19.536,19.536,0,0,1,6.812,12.5,1.873,1.873,0,0,1-.489,1.656,2.32,2.32,0,0,1-3.2.075,2.508,2.508,0,0,1-.828-1.505,15.382,15.382,0,0,0-5.42-9.409A16.322,16.322,0,0,0,39.321,9.261,15.373,15.373,0,0,0,27.955,13.89a15.563,15.563,0,0,0-4.592,11.4,19.647,19.647,0,0,0,2.108,9.372,24.184,24.184,0,0,0,7,7.64,20.508,20.508,0,0,1,4.7,4.742,34.993,34.993,0,0,1,3.35,6.323,12.843,12.843,0,0,0,3.35,4.968,7.25,7.25,0,0,0,4.93,1.807,6.457,6.457,0,0,0,3.952-1.317A7.189,7.189,0,0,0,55.279,55.4,2.271,2.271,0,0,1,57.311,53.9a2.4,2.4,0,0,1,1.995.9,1.929,1.929,0,0,1,.339,1.957,11.41,11.41,0,0,1-4.065,5.683,10.924,10.924,0,0,1-6.775,2.221ZM13.577,46.3a34.5,34.5,0,0,1-5.57-9.974A33.308,33.308,0,0,1,6.05,24.993,35.487,35.487,0,0,1,7.894,13.627,30,30,0,0,1,13.5,3.691a2.091,2.091,0,0,1,1.543-.715,2.474,2.474,0,0,1,1.694.565,2.053,2.053,0,0,1,.715,1.505A2.421,2.421,0,0,1,16.889,6.7a26.715,26.715,0,0,0-4.742,8.544,30.4,30.4,0,0,0-1.581,9.748,29.832,29.832,0,0,0,1.581,9.635,27.72,27.72,0,0,0,4.742,8.581,2.383,2.383,0,0,1,.527,1.731,2.26,2.26,0,0,1-.753,1.581,2.161,2.161,0,0,1-1.581.565,1.966,1.966,0,0,1-1.505-.79Zm25.744-14a6.94,6.94,0,0,1-7-7,7.01,7.01,0,0,1,2.032-5.043,6.637,6.637,0,0,1,4.968-2.108,7.2,7.2,0,0,1,7.151,7.151,6.637,6.637,0,0,1-2.108,4.968A7.01,7.01,0,0,1,39.321,32.295Z" transform="translate(-6.05 -2.974)" fill="#8ab7e9"/></svg>
