<svg xmlns="http://www.w3.org/2000/svg" width="24" height="16" viewBox="0 0 24 16"><path d="M6.1,26A1.082,1.082,0,0,1,5,24.9a1.105,1.105,0,0,1,.317-.817,1.064,1.064,0,0,1,.783-.317H27.9a1.037,1.037,0,0,1,.783.334,1.121,1.121,0,0,1,.317.8A1.082,1.082,0,0,1,27.9,26Zm0-6.9a1.1,1.1,0,1,1,0-2.2H27.9a1.1,1.1,0,1,1,0,2.2Zm0-6.866a1.037,1.037,0,0,1-.783-.334A1.121,1.121,0,0,1,5,11.1,1.082,1.082,0,0,1,6.1,10H27.9A1.082,1.082,0,0,1,29,11.1a1.105,1.105,0,0,1-.317.817,1.064,1.064,0,0,1-.783.317Z" transform="translate(-5 -10)" fill="#06f"/></svg>
