<?xml version="1.0" encoding="UTF-8"?><svg id="Capa_2" xmlns="http://www.w3.org/2000/svg" viewBox="0 0 140.72 107.23"><defs><style>.cls-1{fill:#2b3747;}.cls-2{fill:#fff;}.cls-3{fill:#0055b2;}.cls-4{fill:#64dfa3;}</style></defs><g id="Capa_1-2"><path class="cls-3" d="m116.16,39.73c-3.52,10.69-9.61,19.09-18.2,25.05-2.83-2.19-7.49-6.34-11.67-12.56-2.65-3.94-4.73-8.11-6.26-12.5h24.71v-10.94h-27.31c-.76-5.65-.74-11.6.09-17.83h41.96c.29,4.08.4,10.53-.71,17.83h11.05c1.77-13.31.04-23.75-.04-24.22l-.78-4.55h-60.65l-.85,4.45c-4.89,25.67,2.76,43.73,10.05,54.35,7.94,11.58,17.13,17.05,17.52,17.28l2.78,1.63,2.77-1.64c13.31-7.89,22.52-20.36,26.97-36.33h-11.42Z"/><path class="cls-3" d="m129.79,28.76c-.04.37-.09.73-.14,1.1-.48,3.49-1.17,6.77-2.07,9.87l11.28.02c.62-2.59,1.13-5.28,1.51-8.05.14-.99.25-1.96.35-2.92l-10.93-.02Z"/><g id="ICON"><path class="cls-4" d="m14.72,71.77c-2.71-.28-5.04-3.04-5.04-3.04-.27-.28-.53-.57-.77-.87.3,1.68.7,3.35,1.19,4.99,2.03-.21,4.62-.43,7.74-.63-.9-.17-1.95-.33-3.12-.44Z"/><path class="cls-2" d="m25.12,42.08c3.29-1.16,8.61-2.23,15.36-.72,0,0,.02,0,.02-.01,0,0,0,0,0,0,.78-2.97,2.11-5.76,3.92-8.24,0,0,0-.02,0-.02,0,0,0,0,0,0-1.37-.74-2.8-1.35-4.29-1.81-1.8-.56-4.74-.77-8.55,1.43-1.52.87-2.91,1.96-4.13,3.23-.04.04-.07.09-.09.14.14.07.29.1.45.11.25.02.45.24.43.49-.01.16-.11.31-.25.38-.13.06-2.61,1.38-2.89,5.01,0,0,0,.02.01.02,0,0,0,0,.01,0Z"/><path class="cls-2" d="m76.7,96.87c.62-.37,1.21-.79,1.77-1.24,5.37-3.96,9.78-9.09,12.89-15,0,0,0-.01,0-.01-.35-.82-.73-1.63-1.14-2.41-2.83-5.42-7.23-10.1-13.07-13.91-.25-.16-.31-.5-.15-.74.03-.04.06-.08.1-.11,5.4-4.5,7.34-10.24,7.41-15.17,0-.01-.01-.02-.02-.02,0,0,0,0,0,0-.45.36-1.02.55-1.6.52-.4-.03-.78-.18-1.11-.41h-.02c-.98,1.4-2.18,2.32-3.61,2.74-.58.17-1.19.26-1.79.25-1.31-.02-2.6-.35-3.74-.98-.48-.31-.62-.95-.32-1.43.29-.46.89-.61,1.37-.35.03.02,1.96,1.11,3.91.52,1.26-.38,2.31-1.4,3.12-3.02.25-.51.87-.72,1.39-.47.22.11.4.29.49.52.12.27.21.5.47.56,0,0,.83.21,1.29-1.31h0c-.11-.82-.28-1.63-.51-2.43-.05-.17-.1-.33-.15-.49-.49.44-1.1.73-1.75.82-.32.05-.64.08-.96.08-1.94,0-4.36-.85-6.32-2.27-3.07-2.23-4.14-5.36-2.58-7.63.09-.13.19-.26.3-.38-4.5-.51-7.62-.43-9.27.25-.29.12-.61.1-.88-.06-.24-.15-.4-.4-.43-.68l-.04-.32c-.12-1.24-.36-3.83-1.09-4.4-.29-.26-.69-.37-1.08-.28-.69.17-1.82,1.04-3.27,4.24-.11.26-.39.42-.67.38-.29-.06-.49-.31-.48-.61.02-.62.07-2.5-.73-2.86-.43-.19-1.52-.14-4.17,2.32-.98.91-1.92,1.87-2.81,2.87-.21.24-.41.47-.6.7-.29.34-.56.68-.82,1.01h0c-2.51,3.84-3.05,7.3-3.08,7.49-.12.8-.87,1.36-1.67,1.24-.05,0-.11-.02-.16-.03-5.71-1.52-10.35-.97-13.23-.23-.87.22-1.72.5-2.56.83,0,0-.01.01-.01.02,0,0,0,0,0,0h0c-.21.07-.41.15-.6.23-.09.04-.18.09-.26.13v.02s-.01-.01-.02-.01c0,0,0,0,0,0-6.24,3.38-7.5,9.52-7.74,12.3,0,.1-.01.17-.02.21-.04.34.02.43.04.46s.19.07.45,0c.21-.06.43.01.56.18.14.16.17.39.07.59-.73,1.54-1.96,5.63,2.23,10.43.89,1.02,1.98,1.84,3.2,2.41h0c.67.3,1.19.43,1.4.36,0-.02,0-.04,0-.06-.02-.12-.01-.24.03-.35h-.01s.01,0,.01-.01c.05-.14.15-.26.28-.34.24-.14.54-.11.74.07.09.07.19.15.29.23,1.12.85,2.99,1.83,5.84,2.07,1.83.15,2.94-.31,3.2-.8.14-.26.05-.58-.25-.95-.11-.13-.15-.3-.11-.46,0-.04.02-.07.03-.1.08-.18.26-.3.46-.31,4.17-.28,8.09-2.1,11-5.09.1-.1.23-.16.38-.16.1,0,.2.03.28.09,1.59,1.06,3.3,1.95,5.08,2.65h.01c7.09-2.42,12.34.58,15.93,4.53.84.93,1.62,1.92,2.32,2.96,0,0,.01,0,.02,0,.35-.09.71-.14,1.07-.16,1.38-.08,2.44.27,3.14,1.04.14.16.27.33.38.52,0,0,.01.01.02,0,.77-.32,1.62-.41,2.45-.28.65.12,1.27.38,1.81.76,1.47,1.02,1.89,2.36,1.86,3.51,0,0,0,.02.01.02.74.13,1.42.47,1.97.98.81.72,1.18,1.94,1.04,3.41-.16,1.76-1.05,4.03-2.92,6.43,1.18-2.55.48-4.94.64-6.64.07-.8-.09-1.33-.28-1.49-.69-.61-1.25-.43-1.39-.37-.43.26-.99.2-1.35-.15-.38-.37-.46-.94-.21-1.4.16-.33.62-1.52-.67-2.42-1.45-1.01-2.79.15-2.94.28-.36.33-.89.4-1.32.17-.43-.23-.67-.7-.6-1.18h0c0-.14-.01-.29-.06-.43-.03-.08-.07-.15-.13-.21-.19-.21-.61-.31-1.18-.29-.04,0-.08,0-.12,0-.35.02-.7.1-1.03.23-2.41.97-3.28,4.69-3.53,6.17-.06.37-.09.6-.09.61-.05.49-.41.9-.89,1.01-1.59.36-5.91,1.88-6.9,4.55-.24.59-.91.88-1.5.64-.56-.23-.85-.86-.66-1.43,1.31-3.55,5.91-5.24,7.77-5.79.14-.84.34-1.68.61-2.49-1.1-1.45-2.32-2.8-3.66-4.03-5.47-4.91-9.54-3.48-11.52-.71-.55.77-.94,1.64-1.16,2.56-.11.48-.21.92-.29,1.33-.21,1.26-.36,2.53-.43,3.8-.46,7.73,1.86,14.22,6.89,19.33,6.24-.37,12.33-2.06,17.86-4.98,0,0,1.14-.68,2.26-1.35l1.59-.94Zm-32.58-34.57c-1.68.94-3.47,1.65-5.33,2.13-1.34.35-2.71.54-4.09.55-2.01.03-3.99-.47-5.74-1.46-2.83-1.66-4.53-4.25-4.68-7.12-.14-2.64,1.11-5.12,3.41-6.82l.04-.02c.25-.18.51-.35.77-.5v-.02s.02,0,.02,0c1.94-1.11,4.39-1.54,7.16-1.26,1.43.14,2.84.46,4.19.95l.04.02c.27.1.44.36.44.64,0,1.3.11,2.61.31,3.9.05.32.11.63.17.93.3,1.5.8,2.95,1.49,4.31.85,1.62,1.71,2.41,1.88,2.56.14.09.25.24.29.41.1.33-.07.68-.38.82h0Zm22.69-23.51c-.39,2.08-1.31,3.64-2.76,4.62-1.14.74-2.48,1.13-3.84,1.11-.41,0-.81-.03-1.22-.1-.56-.13-.91-.68-.78-1.24.12-.53.64-.88,1.18-.79.04,0,1.97.36,3.5-.69.97-.67,1.6-1.78,1.88-3.32.1-.56.64-.94,1.2-.84.06.01.13.03.19.05.48.2.75.7.64,1.21Z"/><path class="cls-1" d="m26.31,37.87h0s.03-.03.04-.05-.03.03-.04.05Z"/><path class="cls-1" d="m64.78,38.38c-.28,1.54-.91,2.66-1.88,3.32-1.53,1.05-3.47.7-3.5.69-.56-.09-1.1.29-1.19.85-.09.54.26,1.06.79,1.18.4.07.81.1,1.22.1,1.36.02,2.7-.36,3.84-1.11,1.46-.99,2.39-2.56,2.77-4.68.12-.56-.23-1.11-.79-1.23-.56-.12-1.11.23-1.23.79,0,.02,0,.05-.01.07h0Z"/><path class="cls-1" d="m44.22,61.11c-.18-.16-1.03-.94-1.88-2.56-.7-1.36-1.2-2.81-1.49-4.31-.06-.3-.12-.61-.17-.93-.2-1.29-.31-2.59-.31-3.9,0-.28-.18-.54-.44-.64l-.04-.02c-1.35-.48-2.76-.8-4.19-.95-2.77-.29-5.23.15-7.18,1.27-.27.15-.53.32-.77.5l-.04.02c-2.31,1.69-3.56,4.18-3.41,6.82.15,2.87,1.85,5.47,4.68,7.12,1.75.99,3.73,1.5,5.74,1.46,1.38,0,2.76-.19,4.09-.55,1.86-.48,3.66-1.2,5.33-2.13.31-.13.47-.47.39-.8-.04-.17-.15-.32-.3-.42Z"/><path class="cls-1" d="m52.27,105.73c-7.28,0-14.55-1.78-21-5.15-.44-.23-.73-.66-.79-1.15-.22-1.79-.12-3.6.29-5.37l1.68-7.38c.1-.44.22-.87.35-1.29l2.23-7.1c-1.34,0-2.7.01-4.06.03h-.32c-1.41,1.97-2.72,4.02-3.9,6.13-1.67,2.97-4.87,4.8-7.27,5.81-.8.34-1.39.54-1.57.59-1.72.66-3.13.97-4.31.97-2.47,0-3.36-1.45-3.49-2.31-.05-.31,0-.63.14-.92,1.03-2.03,2.24-3.98,3.6-5.81,1.11-1.5,2.25-2.81,3.42-3.94-1.8.12-3.54.26-5.22.41-2.28.21-4.32.44-6.06.69-.22.03-.34.03-.36.03h0c-1.89,0-3.48-1.2-3.97-2.93-.29-1.03-.17-2.12.36-3.06.52-.94,1.38-1.62,2.42-1.91.06-.02.12-.03.18-.04.33-.05,2.16-.33,5.34-.65.1,0,.2-.02.3-.03-.88-.7-1.48-1.36-1.67-1.58-.3-.31-.58-.63-.84-.96-.89-1.15-1.24-2.16-1.08-3.09.16-.91.75-1.35.93-1.46.24-.15.52-.23.8-.23h.44s.13,0,.17,0c.18.01.39.03.64.06,1.06.12,2.11.3,3.14.55-.08-.47-.13-.95-.16-1.43-.05-.94,0-1.88.15-2.79-.5-.95-.7-2.05-.53-3.11v-.05c.54-6.21,3.46-11.41,8.24-14.73.04-3.19,1.19-5.44,2.31-6.88.1-.94.47-1.84,1.08-2.58,1.02-1.32,6.77-6.78,13.79-6.78,1.33,0,2.63.2,3.88.59,1.6.5,3.16,1.14,4.65,1.91.34-.35.7-.68,1.05-1.01,1.81-1.67,4.23-3.59,6.88-3.59.6,0,1.18.1,1.75.29,1.22-1.15,2.54-1.75,3.93-1.78.01,0,.11,0,.12,0,.93,0,3.26.29,4.66,3.02.43.84.77,1.72,1.01,2.62.56-.04,1.15-.06,1.77-.06,1.45,0,3.05.1,4.91.29,1.2-.55,2.55-.84,3.94-.84,2.3,0,4.64.78,6.6,2.2,2.13,1.58,3.77,3.7,4.74,6.15.79,2.02,1,3.98.62,5.72,1.67,5.9,1.22,14.39-4.66,21.55,4.65,3.73,8.3,8.13,10.87,13.1.2.4.22.86.05,1.27-.4.94-.83,1.88-1.28,2.79,0,0-.38.71-.44.82-.26.49-.77.8-1.33.8-.02,0-.04,0-.07,0-.58-.02-1.09-.38-1.32-.92-.33-.78-.69-1.55-1.09-2.31-2.7-5.18-6.92-9.67-12.56-13.35-.17-.11-.31-.24-.43-.38-.73-.86-.63-2.15.23-2.87,4.79-3.99,6.31-8.7,6.73-12.02-.02,0-.04,0-.07,0-.2-.02-.4-.05-.58-.09-1.04,1.15-2.26,1.94-3.66,2.36-.72.21-1.45.32-2.2.32-1.59-.02-3.13-.42-4.49-1.17-.03-.02-.06-.03-.09-.05-1.12-.71-1.5-2.18-.87-3.35.45-.82,1.3-1.33,2.23-1.33.42,0,.84.11,1.21.31.02,0,.03.02.05.03.26.14,1.08.49,1.94.49.28,0,.54-.04.79-.11.84-.25,1.58-1.01,2.2-2.25.12-.24.27-.45.45-.64-2.02-.26-4.2-1.14-6.04-2.47-3.07-2.22-4.44-5.27-3.74-7.93-.99-.07-1.89-.11-2.69-.11-2.08,0-3.14.25-3.65.46-.3.12-.62.19-.95.19-.44,0-.87-.12-1.25-.34-.67-.41-1.1-1.09-1.17-1.84l-.03-.33c-.18-1.93-.37-2.84-.52-3.25-.28.25-1.03,1.03-2.07,3.33-.33.74-1.08,1.23-1.9,1.23-.16,0-.31-.02-.47-.05-.98-.22-1.66-1.11-1.63-2.12.02-.56,0-.94-.03-1.2-.42.22-1.17.71-2.35,1.81-.95.87-1.86,1.8-2.71,2.77-.2.23-.39.45-.58.67-.26.31-.5.61-.74.91-2.33,3.59-2.82,6.81-2.82,6.84-.02.11-.04.22-.07.32-.34,1.31-1.53,2.22-2.87,2.22-.25,0-.51-.03-.76-.1-2.29-.61-4.58-.92-6.82-.92-1.96,0-3.86.23-5.65.69-.81.21-1.62.47-2.4.78-.19.08-.38.15-.55.23l-.15.08c-5.04,2.72-6.5,7.41-6.89,10.38.28.15.53.37.72.64.42.63.47,1.42.15,2.08-.58,1.24-1.57,4.64,2.02,8.77.74.85,1.62,1.52,2.63,2,.12-.11.25-.21.39-.3.34-.2.71-.3,1.09-.3.52,0,1.02.19,1.41.53.05.05.14.11.22.17.89.69,2.5,1.55,5.05,1.76.2.02.38.02.56.02.3,0,.54-.02.73-.05-.1-.34-.11-.68-.03-1.02.01-.07.05-.2.1-.33.32-.74,1.01-1.22,1.78-1.25,3.78-.26,7.34-1.9,10-4.64.38-.38.9-.61,1.43-.61.41,0,.8.12,1.13.33,1.36.9,2.81,1.68,4.32,2.31,1.66-.51,3.31-.77,4.9-.77,4.46,0,8.53,1.98,12.09,5.88.68.75,1.31,1.53,1.9,2.34.1,0,.19-.02.29-.02.16,0,.31-.01.46-.01,1.87,0,3.03.7,3.71,1.35.38-.08.77-.12,1.16-.12,1.24,0,2.43.38,3.44,1.1,1.31.91,2.13,2.16,2.39,3.6.58.24,1.12.59,1.59,1.02,1.15,1.01,1.7,2.67,1.51,4.65-.22,2.37-1.48,5.07-3.55,7.61-.57.71-1.44,1.13-2.37,1.13-.28,0-.55-.04-.81-.11-.07-.01-.15-.03-.21-.06-.29-.11-.56-.27-.79-.47-.49-.44-.79-1.04-.83-1.7-.04-.66.18-1.29.62-1.79,1.54-1.78,2.54-3.68,2.67-5.08,0-.06,0-.12.01-.18-.25.08-.51.12-.77.12-.68,0-1.33-.26-1.82-.74-.85-.83-1.05-2.14-.49-3.19.1-.21.01-.31-.21-.47-.18-.13-.3-.14-.38-.14-.29,0-.6.22-.68.3-.49.45-1.13.7-1.8.7-.43,0-.86-.11-1.24-.3-.76-.4-1.26-1.12-1.39-1.94-.14.01-.31.05-.48.12-1.4.56-2.27,2.97-2.62,5.03-.04.25-.07.42-.07.49,0,0,0,.02,0,.03-.11,1.13-.94,2.07-2.05,2.32-1.98.45-5.2,1.91-5.82,3.6-.42,1.05-1.39,1.7-2.48,1.7-.29,0-.57-.05-.84-.14-1.39-.46-2.14-1.97-1.68-3.35,1.37-3.72,5.49-5.64,7.89-6.47.08-.36.17-.71.27-1.06-.92-1.15-1.92-2.24-3-3.23-2.07-1.86-4.08-2.85-5.79-2.85s-2.88,1.03-3.5,1.9c-.44.61-.75,1.3-.92,2.03-.11.47-.2.9-.29,1.29-.2,1.15-.34,2.37-.41,3.59-.43,7.27,1.74,13.39,6.46,18.19.41.42.54,1.04.33,1.59s-.72.92-1.31.96l-.45.03-.5.02c-.6.02-1.19.04-1.79.04h-.06ZM29.61,35.95c.36.93-.05,2-.96,2.46-.03.02-.8.44-1.39,1.48,2.13-.51,4.35-.77,6.63-.77,1.83,0,3.69.17,5.56.5.67-2.1,1.61-4.09,2.79-5.95-.83-.37-1.68-.7-2.54-.97-.65-.2-1.35-.31-2.07-.31-1.66,0-3.44.54-5.29,1.6-.97.56-1.88,1.21-2.72,1.94Z"/><path class="cls-2" d="m59.92,24.19c.72,0,2.32.25,3.33,2.2.57,1.12.96,2.32,1.17,3.56.86-.12,1.84-.18,2.95-.18,1.49,0,3.2.11,5.18.33,1.11-.59,2.37-.88,3.67-.88,1.93,0,3.96.64,5.72,1.92,1.89,1.4,3.36,3.3,4.23,5.49.73,1.87.89,3.69.46,5.2,1.95,6.42.95,15.04-5.28,21.72,5.61,4.19,9.3,8.9,11.71,13.57-.39.92-.8,1.82-1.24,2.7-.08.13-.14.27-.21.4-.07.13-.15.26-.21.39-.35-.83-.73-1.63-1.14-2.42-2.82-5.42-7.23-10.1-13.07-13.91-.04-.03-.08-.06-.11-.1-.19-.23-.16-.56.06-.75,5.42-4.51,7.35-10.27,7.41-15.2-.43.35-.96.54-1.5.54-.04,0-.08,0-.13,0-.41-.04-.8-.18-1.12-.43-.98,1.41-2.2,2.33-3.63,2.75-.57.17-1.17.25-1.76.25,0,0-.02,0-.03,0-1.31-.02-2.6-.35-3.74-.98-.46-.29-.61-.89-.35-1.37.19-.35.54-.54.91-.54.17,0,.34.04.49.13.03.02,1.24.7,2.71.7.39,0,.8-.05,1.21-.17,1.26-.38,2.31-1.4,3.12-3.02.11-.22.29-.4.52-.49.13-.06.27-.08.41-.08.4,0,.78.24.95.63.12.27.22.5.47.56,0,0,.04,0,.11,0,.24,0,.82-.13,1.19-1.33-.11-.82-.28-1.64-.51-2.43-.05-.17-.1-.33-.15-.49-.49.44-1.1.73-1.75.82-.31.05-.62.08-.94.08,0,0-.01,0-.02,0-1.94,0-4.36-.85-6.32-2.27-3.07-2.22-4.14-5.36-2.58-7.62.09-.13.19-.26.3-.38-1.94-.22-3.62-.33-5.04-.33-1.87,0-3.29.19-4.22.58-.12.05-.25.08-.38.08-.17,0-.35-.05-.5-.13-.24-.15-.4-.4-.43-.68l-.03-.33c-.12-1.24-.36-3.83-1.09-4.4-.22-.2-.51-.31-.81-.31-.09,0-.18,0-.27.03-.69.17-1.82,1.05-3.29,4.29-.1.22-.31.35-.54.35-.04,0-.09,0-.13-.02-.28-.06-.47-.32-.46-.6.02-.62.07-2.5-.73-2.86-.09-.04-.2-.07-.35-.07-.58,0-1.71.43-3.82,2.39-.99.91-1.93,1.87-2.82,2.87-.21.24-.41.47-.6.7-.29.34-.56.68-.82,1.01-2.51,3.84-3.06,7.3-3.08,7.49,0,.05-.02.11-.03.16-.17.66-.77,1.1-1.42,1.1-.12,0-.25-.02-.38-.05-2.66-.71-5.08-.97-7.2-.97-2.44,0-4.48.34-6.03.74-.88.22-1.74.5-2.58.83-.21.09-.41.17-.6.25-.09.04-.18.09-.26.13-6.26,3.38-7.52,9.54-7.76,12.31,0,.1-.02.17-.02.21-.04.34,0,.42.04.46.03.02.08.04.17.04.07,0,.16-.01.28-.04.05-.01.1-.02.14-.02.17,0,.34.08.44.23.11.17.13.39.04.57-.73,1.56-1.93,5.64,2.24,10.42.89,1.02,1.98,1.84,3.2,2.41.56.25,1.03.37,1.28.37.02,0,.05,0,.07,0l.04-.07c-.05-.28.08-.56.32-.7.1-.06.21-.09.32-.09.15,0,.3.05.42.16.09.07.19.15.29.23,1.12.86,2.98,1.83,5.84,2.07.24.02.47.03.68.03,1.43,0,2.3-.4,2.52-.83.14-.26.05-.58-.25-.95-.11-.13-.15-.3-.11-.46,0-.04.02-.07.03-.1.08-.18.26-.3.46-.31,4.17-.28,8.09-2.09,11.01-5.09.1-.1.23-.16.38-.16.1,0,.2.03.28.09,1.6,1.06,3.31,1.95,5.09,2.66,1.77-.6,3.42-.87,4.96-.87,4.65,0,8.28,2.43,10.98,5.39.85.93,1.62,1.93,2.33,2.97.35-.09.71-.14,1.07-.16.12,0,.25-.01.37-.01,1.2,0,2.14.35,2.78,1.05.15.16.28.34.38.53.55-.23,1.13-.35,1.71-.35.9,0,1.8.28,2.56.82,1.48,1.03,1.89,2.37,1.86,3.52.74.13,1.43.47,1.98.98.81.71,1.18,1.92,1.04,3.41-.17,1.85-1.14,4.26-3.22,6.79-.3.37-.75.58-1.21.58-.16,0-.33-.03-.48-.08h-.03c-.11-.04-.22-.1-.31-.18-.4-.36-.44-.97-.08-1.37,1.98-2.29,2.9-4.42,3.04-5.94.07-.79-.09-1.32-.28-1.49-.4-.35-.75-.44-1.01-.44-.19,0-.33.05-.39.07-.18.11-.38.16-.58.16-.28,0-.56-.11-.78-.31-.38-.37-.46-.94-.21-1.4.16-.33.61-1.52-.67-2.42-.43-.3-.86-.41-1.24-.41-.9,0-1.6.6-1.7.69-.22.2-.5.3-.78.3-.18,0-.37-.04-.54-.13-.43-.23-.67-.7-.6-1.18,0-.14-.01-.29-.06-.43-.03-.08-.07-.15-.13-.21-.18-.19-.55-.29-1.06-.29-.04,0-.08,0-.12,0-.02,0-.04,0-.06,0s-.04,0-.06,0c-.35.02-.7.1-1.03.23-2.41.97-3.28,4.69-3.53,6.17-.06.37-.09.6-.09.61-.05.49-.41.9-.89,1.01-1.59.36-5.91,1.88-6.9,4.55-.18.45-.61.72-1.07.72-.12,0-.24-.02-.36-.06-.6-.2-.93-.85-.73-1.46,1.31-3.55,5.91-5.24,7.77-5.79.15-.86.36-1.7.63-2.52-1.09-1.45-2.31-2.8-3.65-4.03-2.61-2.34-4.9-3.24-6.8-3.24-2.08,0-3.69,1.08-4.72,2.53-.55.77-.94,1.64-1.16,2.56-.11.48-.21.92-.29,1.33-.22,1.26-.36,2.53-.44,3.8-.46,7.73,1.86,14.21,6.89,19.33l-.45.03-.47.02c-.58.02-1.16.04-1.74.04-.02,0-.04,0-.06,0-7.07,0-14.04-1.71-20.31-4.98-.2-1.62-.11-3.26.26-4.84l1.68-7.39c.09-.39.2-.79.32-1.18l2.84-9.05h-.17c-.5,0-1.01,0-1.51,0-1.47,0-2.95.01-4.44.03h-1.07c-1.62,2.21-3.1,4.51-4.44,6.9-1.52,2.71-4.67,4.37-6.54,5.16-.88.38-1.48.56-1.48.56-1.74.67-2.96.89-3.82.89-1.85,0-2.01-1.05-2.01-1.05,1-1.96,2.16-3.83,3.47-5.59,1.76-2.37,4.13-4.97,6.93-6.59l.03-.02c-4.09.19-7.48.45-10.1.69-4.05.37-6.25.72-6.28.72-.03,0-.07,0-.1,0-1.13,0-2.12-.75-2.43-1.84-.38-1.34.4-2.74,1.74-3.13.27-.04,2.08-.32,5.26-.64,2.03-.2,4.62-.43,7.74-.63-.9-.17-1.94-.32-3.11-.44-2.71-.28-5.04-3.04-5.04-3.04-.27-.28-.53-.57-.77-.87-1.4-1.8-.52-2.36-.52-2.36h.49c.16.01.36.03.59.06,1.55.17,3.08.5,4.57.98h.04c.29.12.58.22.87.33-.47-1.2-.75-2.47-.83-3.77-.05-1.01.02-2.02.23-3-.55-.76-.78-1.7-.62-2.63v-.1c.53-6.05,3.51-11.08,8.27-14.08-.17-3.39,1.04-5.68,2.27-7.11-.02-.8.25-1.57.76-2.19.94-1.21,6.29-6.24,12.63-6.24,1.12,0,2.27.16,3.44.52,1.87.58,3.68,1.37,5.38,2.35.57-.61,1.17-1.2,1.79-1.78,1.68-1.55,3.76-3.19,5.86-3.19.53,0,1.06.11,1.59.34.17.08.34.17.5.27,1.15-1.37,2.37-2.07,3.63-2.1.03,0,.06,0,.09,0m-34.82,17.9c2.13-.76,5.12-1.47,8.8-1.47,2.01,0,4.22.21,6.62.75.78-2.98,2.12-5.78,3.94-8.27-1.37-.75-2.81-1.36-4.31-1.82-.68-.21-1.52-.38-2.52-.38-1.63,0-3.67.44-6.04,1.8-1.52.87-2.91,1.96-4.13,3.23-.04.04-.07.09-.09.14.14.07.29.1.45.11.16.01.31.11.38.25.11.23.02.5-.21.62-.12.06-2.63,1.39-2.89,5.03m34.82-20.9h-.17c-1.51.04-2.94.59-4.26,1.63-.45-.09-.91-.14-1.37-.14-3.17,0-5.88,2.13-7.89,3.98-.11.1-.22.2-.32.3-1.27-.6-2.58-1.11-3.92-1.53-1.39-.44-2.85-.66-4.33-.66-7.63,0-13.69,5.74-14.97,7.36-.69.85-1.14,1.85-1.32,2.91-1.1,1.52-2.16,3.72-2.35,6.68-4.72,3.57-7.7,9.08-8.26,15.37-.18,1.2-.01,2.44.47,3.55-.09.7-.13,1.41-.12,2.13-.44-.07-.87-.13-1.31-.18-.26-.03-.49-.05-.68-.07-.08,0-.16,0-.24,0h-.49c-.57,0-1.13.16-1.61.47-.84.53-1.42,1.43-1.6,2.47-.24,1.36.22,2.79,1.36,4.26.13.17.26.33.4.48-1.48.18-2.34.31-2.56.34-.12.02-.24.04-.36.08-2.93.83-4.64,3.9-3.81,6.83.67,2.37,2.86,4.02,5.32,4.02.06,0,.12,0,.18,0,.17,0,.3-.02.49-.05,2.14-.3,4.44-.54,5.99-.68.48-.04.96-.09,1.44-.13-.33.41-.66.83-.98,1.27-1.41,1.89-2.67,3.91-3.74,6.02-.29.56-.39,1.21-.29,1.83.27,1.72,1.95,3.58,4.98,3.58,1.35,0,2.93-.35,4.8-1.06.25-.08.86-.29,1.67-.63,2.61-1.1,6.11-3.12,7.98-6.46,1.03-1.84,2.16-3.64,3.37-5.37.52,0,1.03-.01,1.55-.02l-1.61,5.15c-.14.45-.27.91-.38,1.39l-1.69,7.41c-.45,1.92-.55,3.9-.31,5.87.12.98.71,1.84,1.59,2.3,6.67,3.48,14.17,5.32,21.7,5.32h.07c.55,0,1.14-.01,1.84-.04l.46-.02s.05,0,.07,0l.45-.03c1.17-.07,2.2-.82,2.62-1.92.42-1.1.16-2.34-.66-3.18-4.41-4.49-6.44-10.23-6.03-17.05.07-1.14.2-2.29.39-3.42.08-.37.16-.77.27-1.2.13-.55.36-1.06.68-1.52.6-.84,1.37-1.27,2.28-1.27,1.31,0,3.02.88,4.8,2.47.73.67,1.44,1.4,2.1,2.17-2.67,1.09-6.3,3.2-7.66,6.9-.01.03-.02.06-.03.09-.35,1.05-.27,2.18.22,3.17.5.99,1.35,1.73,2.4,2.08.42.14.87.21,1.31.21,1.7,0,3.21-1.02,3.85-2.6.01-.03.02-.06.03-.09.34-.93,2.9-2.24,4.75-2.66,1.73-.39,3.03-1.85,3.21-3.63,0,0,0-.02,0-.02,0-.07.03-.2.06-.38.25-1.44.66-2.52,1.04-3.17.34.41.77.76,1.26,1.02.59.31,1.26.48,1.93.48.44,0,.86-.07,1.27-.2.1.96.52,1.88,1.24,2.58.49.47,1.07.81,1.71,1-.36.8-.97,1.77-1.89,2.84-.68.77-1.03,1.79-.97,2.85.06,1.06.54,2.03,1.33,2.73.37.33.8.59,1.27.76.14.05.28.09.43.12.37.09.74.14,1.12.14,1.39,0,2.68-.62,3.55-1.71,2.24-2.74,3.62-5.73,3.86-8.4.22-2.45-.49-4.55-2.02-5.91-.39-.36-.83-.67-1.29-.93-.45-1.51-1.43-2.82-2.85-3.81-1.23-.88-2.72-1.36-4.27-1.36-.24,0-.48.01-.71.03-.92-.68-2.26-1.27-4.16-1.27,0,0-.02,0-.02,0-.48-.62-.98-1.23-1.51-1.81-3.86-4.24-8.3-6.38-13.2-6.38-1.57,0-3.18.23-4.8.68-1.25-.55-2.45-1.21-3.58-1.97-.58-.39-1.25-.59-1.94-.59-.96,0-1.87.4-2.52,1.06-2.4,2.47-5.62,3.96-9.05,4.19-1.31.08-2.5.9-3.02,2.11-.02.04-.04.09-.05.13-.04.12-.08.24-.12.36-2.02-.21-3.27-.89-3.97-1.43-.06-.05-.13-.1-.19-.15-.66-.56-1.49-.86-2.35-.86-.53,0-1.06.12-1.54.34-.52-.33-1-.75-1.43-1.24-2.9-3.33-2.37-5.91-1.79-7.16.54-1.13.45-2.47-.25-3.52-.11-.16-.23-.31-.36-.45.5-2.64,1.95-6.27,5.99-8.45l.07-.03h.03c.14-.08.29-.14.45-.2.71-.28,1.46-.52,2.21-.71,1.67-.43,3.45-.64,5.28-.64,2.11,0,4.28.29,6.43.87.38.1.76.15,1.15.15,2.03,0,3.8-1.37,4.32-3.33.04-.16.07-.32.1-.48,0-.04.47-2.94,2.56-6.19.21-.27.43-.55.67-.82.18-.21.36-.42.55-.64.82-.92,1.69-1.82,2.6-2.65.06-.06.12-.11.18-.17.45,1,1.35,1.78,2.49,2.04.25.06.53.09.8.09,1.3,0,2.49-.7,3.12-1.82.24,1.01.87,1.9,1.77,2.44.02.01.03.02.05.03.61.35,1.3.54,2.01.54.53,0,1.05-.1,1.54-.31.24-.1,1.05-.34,3.06-.34.33,0,.67,0,1.04.02.02,2.76,1.61,5.63,4.52,7.74,1.37.99,2.92,1.76,4.48,2.25-.22.25-.43.41-.64.47-.09.03-.21.04-.34.04-.51,0-1.04-.21-1.22-.31-.02-.01-.04-.02-.06-.03-.59-.32-1.25-.49-1.92-.49-1.48,0-2.84.81-3.55,2.11-1.01,1.85-.4,4.19,1.38,5.33.06.04.12.07.17.1,1.57.86,3.35,1.33,5.15,1.35.01,0,.05,0,.07,0,.88,0,1.76-.13,2.61-.38.58-.17,1.14-.4,1.67-.68-.84,2.51-2.45,5.32-5.46,7.83-1.51,1.28-1.69,3.52-.43,5,.22.25.46.47.73.65,5.44,3.55,9.49,7.85,12.07,12.8.38.72.72,1.46,1.04,2.2.45,1.07,1.48,1.78,2.64,1.83.04,0,.09,0,.13,0,1.11,0,2.14-.62,2.66-1.6.05-.1.11-.21.17-.31.05-.1.11-.19.16-.29l.04-.07c.03-.06.06-.11.09-.17.47-.94.91-1.91,1.32-2.88.34-.82.31-1.75-.1-2.54-2.45-4.74-5.85-8.98-10.12-12.64,5.26-7.2,5.69-15.44,4.12-21.37.34-1.93.08-4.06-.76-6.21-1.08-2.73-2.89-5.08-5.24-6.81-2.23-1.62-4.89-2.5-7.5-2.5-1.46,0-2.89.28-4.18.81-1.74-.17-3.28-.26-4.67-.26-.23,0-.46,0-.68,0-.21-.6-.47-1.18-.76-1.75-1.24-2.41-3.48-3.84-6-3.84h0Zm-28.68,15.36c.58-.45,1.19-.87,1.84-1.24,1.62-.94,3.15-1.41,4.55-1.41.57,0,1.12.08,1.62.24.27.09.55.18.82.27-.62,1.14-1.16,2.32-1.61,3.53-1.53-.22-3.05-.33-4.56-.33-.95,0-1.9.04-2.83.13.13-.38.19-.79.18-1.2h0Z"/></g></g></svg>
