<svg width="768" height="632" viewBox="0 0 768 632" fill="none" xmlns="http://www.w3.org/2000/svg">
<path d="M677.169 307.84L677.07 325.855C677.07 328.571 675.259 331.288 671.636 333.402L357.387 515.921C350.141 520.147 338.261 520.147 331.015 515.921L154.537 414.065C150.811 411.954 149 409.235 149 406.419L149.103 388.404C149.103 391.226 150.914 394.038 154.537 396.153L331.015 498.008C338.363 502.235 350.24 502.235 357.486 498.008L671.735 315.49C675.358 313.378 677.169 310.556 677.169 307.84Z" fill="#C0E1FF"/>
<path d="M671.616 300.16C678.943 304.39 678.981 311.212 671.701 315.442L357.445 497.995C350.23 502.187 338.381 502.225 331.053 497.995L154.564 396.139C147.301 391.947 147.264 385.049 154.479 380.857L468.735 198.305C476.011 194.078 487.864 194.113 495.127 198.305L671.616 300.16Z" fill="#E3F3FF"/>
<path d="M664.616 311.353L350.356 493.827C347.055 495.808 341.552 495.808 338.141 493.827L161.646 391.978C158.235 390.109 158.344 386.918 161.646 384.937L475.905 202.466C479.207 200.484 484.6 200.484 488.011 202.466L664.397 304.315C667.808 306.296 667.917 309.371 664.616 311.353Z" fill="white"/>
<path d="M646.952 314.81L368.83 476.369L191.829 374.219L469.948 212.657L646.952 314.81Z" fill="#001854"/>
<path d="M289.891 439.46C294.133 441.91 294.088 445.88 289.939 448.288C285.728 450.734 278.937 450.734 274.695 448.288L240.636 428.63C236.395 426.18 236.374 422.251 240.585 419.805C244.734 417.393 251.591 417.355 255.832 419.805L289.891 439.46ZM597.253 272.076C598.538 272.818 598.483 274.041 597.205 274.786C595.93 275.527 593.815 275.565 592.53 274.823L539.19 244.041C537.905 243.299 537.898 242.035 539.173 241.297C540.451 240.556 542.629 240.556 543.914 241.297L597.253 272.076Z" fill="#E3F3FF"/>
<path d="M449.929 235.79L262.777 344.503L402.274 425.009L589.426 316.296L449.929 235.79Z" fill="#C0E1FF"/>
<path d="M402.274 425.005L262.801 344.513H262.757V351.117L402.267 431.623L589.423 322.951V316.296L402.274 425.005Z" fill="#A0D2FF"/>
<path d="M445.322 236.73L273.53 336.525L402.274 410.827L574.066 311.031L445.322 236.73Z" fill="#C0E1FF"/>
<path d="M402.274 410.826L273.55 336.535H273.506V343.143L402.267 417.441L574.063 317.686V311.034L402.274 410.826Z" fill="#A0D2FF"/>
<path d="M557.989 216.545L557.585 309.682L437.246 379.586L437.646 262.616L557.989 216.545Z" fill="#A0D2FF"/>
<path d="M437.646 262.616L437.246 379.586L329.057 317.15L329.456 220.33L437.646 262.616Z" fill="#C0E1FF"/>
<path d="M337.249 230.976V321.875L421.848 370.703L422.162 278.995L337.249 230.976Z" fill="#A0D2FF"/>
<path d="M340.11 323.529L295.705 349.323L377.447 396.498L421.848 370.704L340.11 323.529Z" fill="#C0E1FF"/>
<path d="M298.675 331.021L305.873 326.839C306.164 326.672 306.564 326.696 306.998 326.949L299.8 331.13C299.362 330.877 298.962 330.854 298.675 331.021Z" fill="#C0E1FF"/>
<path d="M299.8 331.131L306.998 326.949L307.832 327.43L300.634 331.612L299.8 331.131Z" fill="#C0E1FF"/>
<path d="M302.913 332.928L310.115 328.746L311.742 329.689L304.544 333.87L302.913 332.928Z" fill="#C0E1FF"/>
<path d="M306.827 335.186L314.025 331.004L315.641 331.937L308.44 336.119L306.827 335.186Z" fill="#C0E1FF"/>
<path d="M310.723 337.434L317.921 333.252L318.755 333.734L311.554 337.915L310.723 337.434Z" fill="#C0E1FF"/>
<path d="M313.146 340.652L320.348 336.47L320.334 340.331L313.136 344.513L313.146 340.652Z" fill="#C0E1FF"/>
<path d="M311.553 337.915L318.752 333.734C319.633 334.243 320.348 335.459 320.344 336.474L313.146 340.655C313.15 339.641 312.435 338.421 311.553 337.915Z" fill="#C0E1FF"/>
<path d="M303.098 267.874L310.296 263.692L310.115 328.746L302.913 332.927L303.098 267.874Z" fill="#C0E1FF"/>
<path d="M307.011 270.133L314.209 265.951L314.025 331.004L306.827 335.186L307.011 270.133Z" fill="#C0E1FF"/>
<path d="M310.908 272.381L318.106 268.199L317.921 333.252L310.723 337.434L310.908 272.381Z" fill="#C0E1FF"/>
<path d="M320.074 268.79L312.876 272.972C313.163 272.804 313.341 272.452 313.344 271.95L320.542 267.768C320.539 268.271 320.361 268.622 320.074 268.79Z" fill="#C0E1FF"/>
<path d="M313.355 268.093L320.553 263.911L320.542 267.768L313.341 271.95L313.355 268.093Z" fill="#C0E1FF"/>
<path d="M311.738 272.862L310.907 272.384L310.723 337.437L311.553 337.916C312.435 338.425 313.15 339.641 313.146 340.656L313.136 344.513L298.203 335.893L298.213 332.036C298.217 331.025 298.935 330.632 299.799 331.13L300.63 331.612L300.814 266.559L299.984 266.081C299.119 265.582 298.405 264.345 298.408 263.334L298.419 259.477L313.351 268.096L313.341 271.954C313.341 272.958 312.62 273.368 311.738 272.862ZM304.543 333.87L304.728 268.817L303.098 267.878L302.913 332.931L304.543 333.87ZM308.44 336.118L308.624 271.065L307.011 270.133L306.827 335.186L308.44 336.118Z" fill="#A0D2FF"/>
<path d="M320.778 343.785L327.976 339.603C328.267 339.436 328.674 339.46 329.121 339.72L321.923 343.901C321.476 343.642 321.072 343.614 320.778 343.785Z" fill="#C0E1FF"/>
<path d="M321.924 343.898L329.122 339.716L329.938 340.187L322.74 344.369L321.924 343.898Z" fill="#C0E1FF"/>
<path d="M325.02 345.688L332.221 341.506L333.852 342.446L326.65 346.628L325.02 345.688Z" fill="#C0E1FF"/>
<path d="M328.933 347.943L336.131 343.761L337.748 344.694L330.547 348.876L328.933 347.943Z" fill="#C0E1FF"/>
<path d="M332.847 350.201L340.045 346.02L340.862 346.491L333.66 350.673L332.847 350.201Z" fill="#C0E1FF"/>
<path d="M335.253 353.413L342.455 349.231L342.441 353.088L335.243 357.27L335.253 353.413Z" fill="#C0E1FF"/>
<path d="M333.66 350.673L340.858 346.491C341.74 347 342.454 348.216 342.451 349.231L335.253 353.413C335.256 352.398 334.542 351.182 333.66 350.673Z" fill="#C0E1FF"/>
<path d="M325.204 280.635L332.406 276.453L332.221 341.506L325.02 345.688L325.204 280.635Z" fill="#C0E1FF"/>
<path d="M329.118 282.89L336.316 278.708L336.131 343.761L328.933 347.943L329.118 282.89Z" fill="#C0E1FF"/>
<path d="M333.031 285.148L340.23 280.966L340.045 346.02L332.847 350.201L333.031 285.148Z" fill="#C0E1FF"/>
<path d="M342.181 281.547L334.983 285.729C335.27 285.561 335.448 285.21 335.451 284.707L342.649 280.526C342.646 281.028 342.468 281.38 342.181 281.547Z" fill="#C0E1FF"/>
<path d="M335.461 280.85L342.659 276.668L342.649 280.525L335.448 284.707L335.461 280.85Z" fill="#C0E1FF"/>
<path d="M333.845 285.62L333.031 285.148L332.847 350.201L333.66 350.673C334.542 351.182 335.256 352.398 335.253 353.413L335.243 357.27L320.31 348.65L320.32 344.793C320.324 343.782 321.041 343.389 321.923 343.898L322.737 344.369L322.921 279.316L322.108 278.845C321.226 278.336 320.512 277.099 320.515 276.088L320.525 272.23L335.458 280.85L335.448 284.707C335.444 285.719 334.727 286.129 333.845 285.62ZM326.65 346.628L326.835 281.574L325.204 280.635L325.02 345.688L326.65 346.628ZM330.547 348.876L330.731 283.823L329.118 282.89L328.933 347.943L330.547 348.876Z" fill="#A0D2FF"/>
<path d="M368.543 371.339L375.741 367.157C376.028 366.99 376.425 367.017 376.869 367.273L369.671 371.455C369.227 371.199 368.83 371.172 368.543 371.339Z" fill="#C0E1FF"/>
<path d="M369.671 371.455L376.869 367.273L377.699 367.752L370.501 371.933L369.671 371.455Z" fill="#C0E1FF"/>
<path d="M372.785 373.252L379.983 369.07L381.596 370L374.398 374.181L372.785 373.252Z" fill="#C0E1FF"/>
<path d="M376.698 375.511L383.896 371.329L385.509 372.258L378.311 376.44L376.698 375.511Z" fill="#C0E1FF"/>
<path d="M383.001 380.967L390.199 376.785L390.188 380.642L382.99 384.824L383.001 380.967Z" fill="#C0E1FF"/>
<path d="M380.594 377.758L387.792 373.577L388.623 374.055L381.425 378.237L380.594 377.758Z" fill="#C0E1FF"/>
<path d="M381.425 378.237L388.623 374.055C389.505 374.564 390.202 375.774 390.198 376.785L383 380.967C383.004 379.955 382.303 378.746 381.425 378.237Z" fill="#C0E1FF"/>
<path d="M372.969 308.199L380.167 304.017L379.983 369.07L372.785 373.252L372.969 308.199Z" fill="#C0E1FF"/>
<path d="M376.883 310.457L384.081 306.276L383.896 371.329L376.698 375.51L376.883 310.457Z" fill="#C0E1FF"/>
<path d="M380.779 312.705L387.977 308.523L387.792 373.577L380.594 377.758L380.779 312.705Z" fill="#C0E1FF"/>
<path d="M389.928 309.111L382.73 313.293C383.018 313.125 383.195 312.767 383.199 312.261L390.397 308.079C390.393 308.588 390.216 308.944 389.928 309.111Z" fill="#C0E1FF"/>
<path d="M383.206 308.404L390.404 304.222L390.394 308.08L383.196 312.261L383.206 308.404Z" fill="#C0E1FF"/>
<path d="M381.609 313.184L380.779 312.705L380.594 377.759L381.425 378.237C382.307 378.746 383.004 379.955 383.001 380.967L382.99 384.824L368.071 376.214L368.082 372.357C368.085 371.346 368.789 370.946 369.667 371.455L370.498 371.933L370.683 306.88L369.852 306.402C368.97 305.893 368.273 304.666 368.276 303.655L368.287 299.798L383.206 308.407L383.195 312.265C383.192 313.272 382.488 313.693 381.609 313.184ZM378.311 376.44L378.496 311.387L376.883 310.454L376.698 375.507L378.311 376.44ZM374.398 374.182L374.582 309.128L372.969 308.196L372.785 373.249L374.398 374.182Z" fill="#A0D2FF"/>
<path d="M390.65 384.106L397.848 379.925C398.138 379.754 398.545 379.781 398.993 380.041L391.795 384.222C391.347 383.963 390.94 383.935 390.65 384.106Z" fill="#C0E1FF"/>
<path d="M391.791 384.222L398.993 380.041L399.806 380.509L392.608 384.69L391.791 384.222Z" fill="#C0E1FF"/>
<path d="M394.891 386.009L402.089 381.828L403.72 382.767L396.522 386.949L394.891 386.009Z" fill="#C0E1FF"/>
<path d="M398.805 388.268L406.003 384.086L407.616 385.018L400.418 389.197L398.805 388.268Z" fill="#C0E1FF"/>
<path d="M402.715 390.526L409.913 386.344L410.73 386.812L403.532 390.994L402.715 390.526Z" fill="#C0E1FF"/>
<path d="M405.125 393.734L412.323 389.552L412.312 393.409L405.114 397.591L405.125 393.734Z" fill="#C0E1FF"/>
<path d="M403.532 390.994L410.73 386.812C411.611 387.321 412.326 388.537 412.322 389.552L405.124 393.734C405.128 392.723 404.41 391.503 403.532 390.994Z" fill="#C0E1FF"/>
<path d="M395.076 320.956L402.274 316.774L402.089 381.828L394.891 386.009L395.076 320.956Z" fill="#C0E1FF"/>
<path d="M398.986 323.214L406.187 319.033L406.003 384.086L398.805 388.268L398.986 323.214Z" fill="#C0E1FF"/>
<path d="M402.899 325.473L410.097 321.291L409.913 386.344L402.715 390.526L402.899 325.473Z" fill="#C0E1FF"/>
<path d="M412.049 321.872L404.851 326.053C405.138 325.886 405.316 325.534 405.316 325.032L412.514 320.85C412.517 321.349 412.336 321.704 412.049 321.872Z" fill="#C0E1FF"/>
<path d="M405.33 321.171L412.528 316.99L412.517 320.847L405.319 325.029L405.33 321.171Z" fill="#C0E1FF"/>
<path d="M403.716 325.941L402.903 325.469L402.718 390.523L403.532 390.994C404.414 391.503 405.128 392.719 405.124 393.734L405.114 397.591L390.182 388.972L390.192 385.114C390.195 384.103 390.913 383.71 391.795 384.219L392.612 384.691L392.796 319.637L391.979 319.166C391.098 318.657 390.383 317.42 390.387 316.409L390.397 312.552L405.33 321.171L405.319 325.029C405.316 326.04 404.595 326.45 403.716 325.941ZM396.522 386.949L396.706 321.896L395.076 320.956L394.891 386.009L396.522 386.949ZM400.418 389.197L400.603 324.144L398.989 323.211L398.805 388.264L400.418 389.197Z" fill="#A0D2FF"/>
<path d="M290.455 249.668L454.912 154.136L454.882 165.728L290.424 261.263L290.455 249.668Z" fill="#2C98EA"/>
<path d="M290.455 249.699L454.912 154.164L509.065 139.292L344.608 234.827L290.455 249.699Z" fill="#C0E1FF"/>
<path d="M282.58 240.546L447.038 145.011L509.099 128L344.638 223.532L282.58 240.546Z" fill="#4AABF4"/>
<path d="M344.608 234.827L509.065 139.292L562.958 216.518L398.497 312.049L344.608 234.827Z" fill="#C0E1FF"/>
<path d="M344.608 234.826L398.497 312.049L398.484 317.222L290.441 254.868L290.455 249.698L344.608 234.826Z" fill="#C0E1FF"/>
<path d="M398.497 312.049L562.958 216.517L562.941 221.687L398.484 317.222L398.497 312.049Z" fill="#C0E1FF"/>
<path d="M344.638 223.532L509.099 128L570.884 216.483L406.426 312.019L344.638 223.532Z" fill="#2C98EA"/>
<path d="M406.427 312.019L570.884 216.484L570.836 232.65L406.379 328.182L406.427 312.019Z" fill="#4AABF4"/>
<path d="M344.639 223.532L406.427 312.019L406.379 328.182L398.466 323.618L398.484 317.222L398.497 312.049L344.608 234.827L290.455 249.668L290.424 261.263L282.532 256.709L282.58 240.546L344.639 223.532Z" fill="#2C98EA"/>
<path d="M255.043 244.071L254.992 252.605L108.355 337.785L108.41 329.25L255.043 244.071Z" fill="#A0D2FF"/>
<path d="M108.409 329.251L108.355 337.785L6 278.714L6.05468 270.18L108.409 329.251Z" fill="#C0E1FF"/>
<path d="M255.043 244.071L108.409 329.251L6.05457 270.18L152.688 185L255.043 244.071Z" fill="#C0E1FF"/>
<path d="M152.117 201.027L146.341 204.385L140.524 201.027L146.304 197.672L152.117 201.027Z" fill="#001854"/>
<path d="M225.954 243.64L220.177 246.995L158.44 211.365L164.217 208.01L225.954 243.64Z" fill="#001854"/>
<path d="M138.166 209.134L132.338 212.52L126.521 209.161L132.348 205.775L138.166 209.134Z" fill="#001854"/>
<path d="M151.263 265.225L145.487 268.581L102.576 243.818L108.352 240.459L151.263 265.225Z" fill="#001854"/>
<path d="M138.842 298.041L139.088 298.239L138.846 298.495C136.638 298.922 134.232 299.066 131.972 299.179C120.382 299.749 108.399 300.316 96.6112 300.033C94.0581 299.975 91.4024 299.862 89.0885 299.267L88.9415 299.237L88.8424 298.953L89.3825 298.868C91.6451 299.438 94.1504 299.52 96.6044 299.578C108.396 299.862 120.379 299.295 131.87 298.724C133.784 298.639 135.749 298.526 137.612 298.242C134.266 297.504 130.585 297.19 127.095 296.876C125.178 296.736 123.113 296.565 121.148 296.336C119.241 296.093 117.026 295.724 115.498 294.843C115.409 294.792 115.327 294.741 115.242 294.686C114.702 294.317 114.401 293.917 114.302 293.521L114.593 292.612C115.03 291.901 115.765 291.245 116.595 290.648C110.413 292.014 104.971 293.692 99.7249 295.311L99.2327 295.256L99.1815 295L99.865 294.317L98.638 294.457L98.2928 294.317L98.4398 294.061C99.0755 293.75 100.053 292.779 100.296 292.24L99.0721 292.721C97.4554 293.432 95.5414 294.201 94.27 294.655L93.8257 294.628L93.6787 294.372L93.9179 293.548L94.0136 293.207L93.5727 293.405C91.7579 294.231 89.7003 295.198 87.4411 295.54C86.1526 295.742 84.6692 295.694 83.8968 295.25C83.7019 295.137 83.5481 294.997 83.4593 294.829C83.0115 293.948 84.4812 293.207 85.0213 292.95C86.5388 292.24 88.2033 291.389 90.2677 290.989C91.0982 290.849 91.9356 290.76 92.7217 290.706C93.6514 290.62 94.5366 290.562 95.3227 290.395C97.0897 289.995 98.5594 289.199 99.8787 288.434C102.329 287.012 104.725 285.448 106.287 283.569C106.677 283.056 107.166 282.373 106.964 281.693C106.882 281.392 106.615 281.078 106.222 280.849C105.904 280.665 105.501 280.542 105.043 280.528C103.915 280.443 102.986 281.095 102.203 281.666C98.2894 284.508 93.9316 287.153 89.232 289.599C87.8615 290.34 86.4396 290.993 84.7239 291.307C80.7489 292.076 76.6646 290.682 73.1681 289.346L73.1168 289.035L73.609 288.977C76.9551 290.285 80.7933 291.594 84.4744 290.883C86.0432 290.6 87.3693 289.944 88.7399 289.26C93.3916 286.842 97.7494 284.197 101.615 281.382C102.493 280.699 103.573 280.019 105.094 280.046C105.761 280.07 106.325 280.248 106.762 280.501C107.295 280.808 107.644 281.232 107.757 281.638C107.959 282.434 107.47 283.176 106.981 283.743C105.47 285.704 102.924 287.299 100.426 288.748C99.0071 289.571 97.5375 290.426 95.6269 290.795C94.6938 290.996 93.7607 291.081 92.8789 291.136C92.0962 291.249 91.3067 291.307 90.5206 291.42C88.6066 291.789 86.9933 292.612 85.5202 293.295C84.3924 293.835 84.0027 294.29 84.2044 294.689C84.259 294.795 84.3513 294.877 84.471 294.949C85.1067 295.315 86.508 295.233 87.2497 295.089C89.3107 294.805 91.2725 293.893 93.084 293.07L94.3588 292.499L94.7998 292.472L94.9501 292.728L94.7075 293.61L94.6118 294.006C95.7875 293.552 97.3563 292.926 98.6312 292.356C99.2703 292.1 99.9026 291.843 100.395 291.618L100.74 291.591L100.986 291.734C101.43 292.274 100.504 293.271 99.7215 293.897L100.702 293.555L101.242 293.528L101.294 293.839L100.61 294.522C105.908 292.926 111.397 291.28 117.679 289.971L118.171 290.029L118.123 290.285C116.999 291.051 115.922 291.85 115.29 292.786L115.047 293.497L115.84 294.406C115.885 294.433 115.932 294.46 115.977 294.488C117.402 295.311 119.443 295.663 121.35 295.885C123.267 296.141 125.28 296.285 127.198 296.483C131.077 296.787 135.154 297.101 138.842 298.041Z" fill="#001854"/>
<path d="M184.044 267.986L178.264 271.341L116.53 235.711L122.307 232.356L184.044 267.986Z" fill="#001854"/>
<path d="M175.56 246.872L169.733 250.258L130.482 227.607L136.31 224.221L175.56 246.872Z" fill="#001854"/>
<path d="M211.998 251.744L206.171 255.13L144.434 219.499L150.265 216.114L211.998 251.744Z" fill="#001854"/>
<path d="M124.211 217.238L118.383 220.624L112.569 217.269L118.397 213.883L124.211 217.238Z" fill="#001854"/>
<path d="M110.207 225.372L104.431 228.727L98.614 225.372L104.394 222.017L110.207 225.372Z" fill="#001854"/>
<path d="M96.2556 233.48L90.476 236.834L84.6622 233.48L90.4384 230.121L96.2556 233.48Z" fill="#001854"/>
<path d="M78.1205 257.938C87.9263 263.599 88.0289 272.841 78.2367 278.529C68.4445 284.218 52.4831 284.187 42.6738 278.529C32.8167 272.841 32.7654 263.627 42.5576 257.938C52.3498 252.25 68.2633 252.25 78.1205 257.938ZM45.8524 276.681C53.8844 281.317 66.9987 281.345 75.0307 276.681C83.0593 272.018 82.9704 264.423 74.9384 259.787C66.8552 255.123 53.7887 255.123 45.7601 259.787C37.7282 264.45 37.7726 272.014 45.8524 276.681Z" fill="#2C98EA"/>
<path d="M70.7244 262.233C76.4425 265.533 76.4219 270.907 70.7449 274.207C65.0644 277.508 55.7814 277.535 50.0668 274.235C44.3008 270.907 44.3214 265.533 49.9984 262.233C55.6755 258.932 64.9584 258.905 70.7244 262.233ZM53.2454 272.386C57.1862 274.662 63.622 274.635 67.5389 272.359C71.4558 270.084 71.4831 266.36 67.5423 264.084C63.5503 261.782 57.1178 261.809 53.1975 264.084C49.2841 266.356 49.2533 270.084 53.2454 272.386Z" fill="#2C98EA"/>
<path d="M233.407 455L86 553" stroke="#C0E1FF" stroke-width="2" stroke-linecap="round" stroke-linejoin="round" stroke-dasharray="4 8"/>
<path d="M658 208L584 255" stroke="#C0E1FF" stroke-width="2" stroke-linecap="round" stroke-linejoin="round" stroke-dasharray="4 8"/>
<path d="M105 329L105.153 511.126" stroke="#C0E1FF" stroke-width="2" stroke-linecap="round" stroke-linejoin="round" stroke-dasharray="4 8"/>
<path d="M433 577.5L202 538" stroke="#C0E1FF" stroke-width="2" stroke-linecap="round" stroke-linejoin="round" stroke-dasharray="4 8"/>
<path d="M0.99795 527.814L7.46556 524.05L7.43324 534.97L0.965637 538.731L0.99795 527.814Z" fill="#E3F3FF"/>
<path d="M205.701 532.451L199.23 528.69L199.233 529.799L205.704 533.563L205.701 532.451Z" fill="#E3F3FF"/>
<path d="M200.27 522.41L193.802 518.646L193.831 529.566L200.299 533.327L200.27 522.41Z" fill="#E3F3FF"/>
<path d="M193.331 525.253L186.863 521.492L186.866 522.604L193.334 526.365L193.331 525.253Z" fill="#E3F3FF"/>
<path d="M187.9 515.212L181.432 511.451L181.461 522.368L187.932 526.132L187.9 515.212Z" fill="#E3F3FF"/>
<path d="M175.533 508.014L169.062 504.253L169.095 515.17L175.562 518.934L175.533 508.014Z" fill="#E3F3FF"/>
<path d="M163.164 500.819L156.696 497.055L156.725 507.975L163.193 511.736L163.164 500.819Z" fill="#E3F3FF"/>
<path d="M150.794 493.62L144.326 489.856L144.358 500.777L150.826 504.537L150.794 493.62Z" fill="#E3F3FF"/>
<path d="M143.854 496.466L137.387 492.702L137.39 493.815L143.857 497.575L143.854 496.466Z" fill="#E3F3FF"/>
<path d="M138.427 486.422L131.956 482.662L131.988 493.579L138.456 497.343L138.427 486.422Z" fill="#E3F3FF"/>
<path d="M131.488 489.268L125.017 485.504L125.02 486.616L131.491 490.381L131.488 489.268Z" fill="#E3F3FF"/>
<path d="M126.057 479.227L119.589 475.463L119.618 486.38L126.089 490.144L126.057 479.227Z" fill="#E3F3FF"/>
<path d="M127.02 477.556L120.552 473.792L112.65 478.309L119.118 482.07L127.02 477.556Z" fill="#C0E1FF"/>
<path d="M119.118 482.07L119.121 483.182L126.057 479.227L126.089 490.144L127.055 489.585L127.02 477.555L119.118 482.07Z" fill="#E3F3FF"/>
<path d="M139.39 484.754L132.922 480.99L125.017 485.504L131.488 489.268L139.39 484.754Z" fill="#C0E1FF"/>
<path d="M131.488 489.268L131.491 490.38L138.427 486.422L138.456 497.342L139.422 496.783L139.39 484.754L131.488 489.268Z" fill="#E3F3FF"/>
<path d="M151.759 491.949L145.289 488.188L137.387 492.702L143.854 496.466L151.759 491.949Z" fill="#C0E1FF"/>
<path d="M143.854 496.466L143.858 497.575L150.794 493.621L150.826 504.538L151.792 503.981L151.76 491.949L143.854 496.466Z" fill="#E3F3FF"/>
<path d="M164.126 499.147L157.659 495.386L149.757 499.9L156.224 503.661L164.126 499.147Z" fill="#C0E1FF"/>
<path d="M156.224 503.661L156.227 504.774L163.163 500.819L163.192 511.736L164.162 511.176L164.126 499.147L156.224 503.661Z" fill="#E3F3FF"/>
<path d="M176.496 506.345L170.028 502.581L162.123 507.095L168.594 510.859L176.496 506.345Z" fill="#C0E1FF"/>
<path d="M168.594 510.859L168.597 511.972L175.533 508.014L175.562 518.934L176.528 518.374L176.496 506.345L168.594 510.859Z" fill="#E3F3FF"/>
<path d="M188.863 513.543L182.395 509.779L174.493 514.294L180.961 518.058L188.863 513.543Z" fill="#C0E1FF"/>
<path d="M180.961 518.058L180.964 519.17L187.9 515.212L187.932 526.132L188.898 525.573L188.863 513.543L180.961 518.058Z" fill="#E3F3FF"/>
<path d="M201.233 520.738L194.765 516.978L186.863 521.492L193.331 525.253L201.233 520.738Z" fill="#C0E1FF"/>
<path d="M193.33 525.253L193.334 526.365L200.27 522.41L200.299 533.327L201.268 532.771L201.232 520.738L193.33 525.253Z" fill="#E3F3FF"/>
<path d="M212.636 529.609L206.169 525.845L206.201 536.762L212.669 540.526L212.636 529.609Z" fill="#E3F3FF"/>
<path d="M213.603 527.937L207.132 524.173L199.23 528.69L205.701 532.451L213.603 527.937Z" fill="#C0E1FF"/>
<path d="M205.7 532.451L205.704 533.563L212.636 529.608L212.669 540.525L213.635 539.966L213.602 527.937L205.7 532.451Z" fill="#E3F3FF"/>
<path d="M180.961 518.058L174.493 514.294L174.496 515.406L180.964 519.17L180.961 518.058Z" fill="#E3F3FF"/>
<path d="M168.594 510.86L162.123 507.096L162.126 508.208L168.597 511.972L168.594 510.86Z" fill="#E3F3FF"/>
<path d="M156.224 503.661L149.757 499.901L149.76 501.013L156.227 504.774L156.224 503.661Z" fill="#E3F3FF"/>
<path d="M106.031 590.457L105.998 599.961L4.30316 541.188L4.33546 531.684L106.031 590.457Z" fill="#04226D"/>
<path d="M207.093 531.668L207.061 541.172L105.999 599.961L106.031 590.457L207.093 531.668Z" fill="#04226D"/>
<path d="M119.118 482.07L112.65 478.309L112.653 479.421L119.121 483.182L119.118 482.07Z" fill="#E3F3FF"/>
<path d="M93.0506 595.971L86.5797 592.21L86.6153 604.239L93.0829 608L93.0506 595.971Z" fill="#E3F3FF"/>
<path d="M100.953 591.456L94.4849 587.692L86.5797 592.21L93.0506 595.971L100.953 591.456Z" fill="#C0E1FF"/>
<path d="M93.0502 595.971L93.0825 608L94.0484 607.444L94.0193 596.524L100.955 592.569L100.952 591.456L93.0502 595.971Z" fill="#E3F3FF"/>
<path d="M80.6805 588.772L74.2129 585.012L74.2452 597.041L80.716 600.805L80.6805 588.772Z" fill="#E3F3FF"/>
<path d="M88.5825 584.258L82.1149 580.497L74.2129 585.012L80.6805 588.772L88.5825 584.258Z" fill="#C0E1FF"/>
<path d="M80.6804 588.773L80.716 600.805L81.6819 600.246L81.6496 589.326L88.5856 585.371L88.5824 584.258L80.6804 588.773Z" fill="#E3F3FF"/>
<path d="M68.3104 581.577L61.8428 577.813L61.8784 589.843L68.346 593.607L68.3104 581.577Z" fill="#E3F3FF"/>
<path d="M76.2157 577.06L69.7448 573.299L61.8428 577.813L68.3104 581.577L76.2157 577.06Z" fill="#C0E1FF"/>
<path d="M68.3105 581.577L68.3461 593.607L69.312 593.047L69.2829 582.13L76.219 578.172L76.2158 577.06L68.3105 581.577Z" fill="#E3F3FF"/>
<path d="M55.9437 574.379L49.4761 570.615L49.5084 582.648L55.976 586.408L55.9437 574.379Z" fill="#E3F3FF"/>
<path d="M63.8457 569.865L57.3781 566.101L49.4761 570.615L55.9437 574.379L63.8457 569.865Z" fill="#C0E1FF"/>
<path d="M55.944 574.379L55.9763 586.409L56.9455 585.849L56.9132 574.932L63.8492 570.977L63.846 569.865L55.944 574.379Z" fill="#E3F3FF"/>
<path d="M43.5738 567.181L37.1062 563.42L37.1385 575.45L43.6093 579.214L43.5738 567.181Z" fill="#E3F3FF"/>
<path d="M51.4758 562.667L45.0082 558.903L37.1062 563.42L43.5738 567.181L51.4758 562.667Z" fill="#C0E1FF"/>
<path d="M43.5742 567.181L43.6097 579.214L44.5756 578.654L44.5433 567.734L51.4794 563.779L51.4762 562.667L43.5742 567.181Z" fill="#E3F3FF"/>
<path d="M31.204 559.986L24.7364 556.222L24.7719 568.251L31.2395 572.015L31.204 559.986Z" fill="#E3F3FF"/>
<path d="M39.1092 555.468L32.6384 551.708L24.7364 556.222L31.204 559.986L39.1092 555.468Z" fill="#C0E1FF"/>
<path d="M31.2043 559.986L31.2398 572.015L32.2058 571.456L32.1767 560.539L39.1127 556.581L39.1095 555.469L31.2043 559.986Z" fill="#E3F3FF"/>
<path d="M18.8375 552.787L12.3699 549.023L12.4022 561.056L18.8698 564.817L18.8375 552.787Z" fill="#E3F3FF"/>
<path d="M26.7395 548.273L20.2719 544.509L12.3699 549.024L18.8375 552.788L26.7395 548.273Z" fill="#C0E1FF"/>
<path d="M18.8376 552.788L18.8699 564.817L19.8391 564.258L19.8068 553.341L26.7428 549.386L26.7396 548.273L18.8376 552.788Z" fill="#E3F3FF"/>
<path d="M6.46761 545.589L0 541.829L0.0355414 553.858L6.50315 557.619L6.46761 545.589Z" fill="#E3F3FF"/>
<path d="M14.3696 541.075L7.90198 537.311L0 541.829L6.46761 545.59L14.3696 541.075Z" fill="#C0E1FF"/>
<path d="M6.46747 545.59L6.50301 557.619L7.46895 557.063L7.43665 546.143L14.3727 542.188L14.3695 541.075L6.46747 545.59Z" fill="#E3F3FF"/>
<path d="M7.93768 530.656L14.4053 526.895L14.4021 528.008L7.93445 531.769L7.93768 530.656Z" fill="#E3F3FF"/>
<path d="M13.3651 520.615L19.8359 516.855L19.8036 527.772L13.336 531.532L13.3651 520.615Z" fill="#E3F3FF"/>
<path d="M20.3044 523.461L26.7753 519.697L26.772 520.809L20.3012 524.57L20.3044 523.461Z" fill="#E3F3FF"/>
<path d="M25.7349 513.417L32.2025 509.657L32.1735 520.574L25.7059 524.338L25.7349 513.417Z" fill="#E3F3FF"/>
<path d="M32.6741 516.263L39.1417 512.499L39.1385 513.611L32.6708 517.375L32.6741 516.263Z" fill="#E3F3FF"/>
<path d="M38.1046 506.222L44.5722 502.458L44.5399 513.375L38.0723 517.139L38.1046 506.222Z" fill="#E3F3FF"/>
<path d="M45.0439 509.065L51.5115 505.304L51.5083 506.413L45.0407 510.177L45.0439 509.065Z" fill="#E3F3FF"/>
<path d="M50.4713 499.024L56.9422 495.26L56.9099 506.18L50.4423 509.941L50.4713 499.024Z" fill="#E3F3FF"/>
<path d="M57.4106 501.866L63.8782 498.106L63.875 499.218L57.4073 502.979L57.4106 501.866Z" fill="#E3F3FF"/>
<path d="M62.8412 491.826L69.3088 488.065L69.2797 498.982L62.8089 502.746L62.8412 491.826Z" fill="#E3F3FF"/>
<path d="M69.7805 494.671L76.2481 490.907L76.2448 492.02L69.7772 495.784L69.7805 494.671Z" fill="#E3F3FF"/>
<path d="M75.2111 484.631L81.6788 480.867L81.6464 491.784L75.1788 495.548L75.2111 484.631Z" fill="#E3F3FF"/>
<path d="M82.1469 487.473L88.6177 483.709L88.6145 484.822L82.1469 488.586V487.473Z" fill="#E3F3FF"/>
<path d="M87.5775 477.433L94.0484 473.669L94.0161 484.589L87.5485 488.35L87.5775 477.433Z" fill="#E3F3FF"/>
<path d="M94.5169 480.275L100.985 476.514L100.981 477.627L94.5137 481.387L94.5169 480.275Z" fill="#E3F3FF"/>
<path d="M86.615 475.761L93.0826 472L100.985 476.514L94.517 480.275L86.615 475.761Z" fill="#C0E1FF"/>
<path d="M94.5172 480.275L94.514 481.388L87.578 477.433L87.5489 488.35L86.5797 487.79L86.6153 475.761L94.5172 480.275Z" fill="#E3F3FF"/>
<path d="M74.2454 482.959L80.7162 479.195L88.6182 483.709L82.1474 487.473L74.2454 482.959Z" fill="#C0E1FF"/>
<path d="M82.1472 487.473V488.586L75.2111 484.631L75.1788 495.548L74.2129 494.988L74.2452 482.959L82.1472 487.473Z" fill="#E3F3FF"/>
<path d="M61.8787 490.157L68.3463 486.393L76.2483 490.907L69.7806 494.671L61.8787 490.157Z" fill="#C0E1FF"/>
<path d="M69.7803 494.672L69.7771 495.784L62.8411 491.826L62.8088 502.746L61.8428 502.187L61.8784 490.157L69.7803 494.672Z" fill="#E3F3FF"/>
<path d="M49.5084 497.352L55.976 493.591L63.878 498.106L57.4103 501.867L49.5084 497.352Z" fill="#C0E1FF"/>
<path d="M57.4104 501.867L57.4071 502.979L50.4711 499.024L50.442 509.941L49.4761 509.385L49.5084 497.352L57.4104 501.867Z" fill="#E3F3FF"/>
<path d="M37.1387 504.55L43.6095 500.786L51.5115 505.304L45.0439 509.065L37.1387 504.55Z" fill="#C0E1FF"/>
<path d="M45.0437 509.065L45.0405 510.177L38.1045 506.222L38.0721 517.139L37.1062 516.58L37.1385 504.55L45.0437 509.065Z" fill="#E3F3FF"/>
<path d="M24.772 511.749L31.2396 507.985L39.1416 512.499L32.674 516.263L24.772 511.749Z" fill="#C0E1FF"/>
<path d="M32.6739 516.263L32.6707 517.375L25.7346 513.417L25.7056 524.338L24.7364 523.778L24.7719 511.749L32.6739 516.263Z" fill="#E3F3FF"/>
<path d="M12.4021 518.944L18.8697 515.183L26.7749 519.697L20.3041 523.461L12.4021 518.944Z" fill="#C0E1FF"/>
<path d="M20.3042 523.461L20.3009 524.57L13.3649 520.615L13.3358 531.532L12.3699 530.976L12.4022 518.944L20.3042 523.461Z" fill="#E3F3FF"/>
<path d="M0.0355835 526.142L6.50319 522.381L14.4052 526.895L7.93757 530.656L0.0355835 526.142Z" fill="#C0E1FF"/>
<path d="M7.93752 530.656L7.93429 531.768L0.998254 527.814L0.965941 538.731L0 538.171L0.0355414 526.142L7.93752 530.656Z" fill="#E3F3FF"/>
<path d="M120.588 595.971L127.055 592.21L127.02 604.239L120.552 608L120.588 595.971Z" fill="#E3F3FF"/>
<path d="M112.682 591.456L119.153 587.692L127.055 592.21L120.588 595.971L112.682 591.456Z" fill="#C0E1FF"/>
<path d="M120.588 595.971L120.552 608L119.586 607.444L119.615 596.524L112.679 592.569L112.683 591.456L120.588 595.971Z" fill="#E3F3FF"/>
<path d="M132.954 588.772L139.422 585.012L139.39 597.041L132.922 600.805L132.954 588.772Z" fill="#E3F3FF"/>
<path d="M125.052 584.258L131.52 580.497L139.422 585.012L132.954 588.772L125.052 584.258Z" fill="#C0E1FF"/>
<path d="M132.954 588.773L132.922 600.805L131.953 600.246L131.985 589.326L125.049 585.371L125.052 584.258L132.954 588.773Z" fill="#E3F3FF"/>
<path d="M145.324 581.577L151.792 577.813L151.759 589.843L145.289 593.607L145.324 581.577Z" fill="#E3F3FF"/>
<path d="M137.422 577.06L143.889 573.299L151.791 577.813L145.324 581.577L137.422 577.06Z" fill="#C0E1FF"/>
<path d="M145.324 581.577L145.289 593.607L144.323 593.047L144.355 582.13L137.419 578.172L137.422 577.06L145.324 581.577Z" fill="#E3F3FF"/>
<path d="M157.691 574.379L164.162 570.615L164.126 582.648L157.659 586.408L157.691 574.379Z" fill="#E3F3FF"/>
<path d="M149.789 569.865L156.26 566.101L164.162 570.615L157.691 574.379L149.789 569.865Z" fill="#C0E1FF"/>
<path d="M157.691 574.379L157.659 586.409L156.693 585.849L156.722 574.932L149.786 570.977L149.789 569.865L157.691 574.379Z" fill="#E3F3FF"/>
<path d="M170.061 567.181L176.528 563.42L176.496 575.45L170.028 579.214L170.061 567.181Z" fill="#E3F3FF"/>
<path d="M162.159 562.667L168.626 558.903L176.528 563.42L170.061 567.181L162.159 562.667Z" fill="#C0E1FF"/>
<path d="M170.061 567.181L170.028 579.214L169.059 578.654L169.091 567.734L162.155 563.779L162.159 562.667L170.061 567.181Z" fill="#E3F3FF"/>
<path d="M182.43 559.986L188.898 556.222L188.862 568.251L182.395 572.015L182.43 559.986Z" fill="#E3F3FF"/>
<path d="M174.529 555.468L180.996 551.708L188.898 556.222L182.431 559.986L174.529 555.468Z" fill="#C0E1FF"/>
<path d="M182.43 559.986L182.395 572.015L181.429 571.456L181.458 560.539L174.525 556.581L174.528 555.469L182.43 559.986Z" fill="#E3F3FF"/>
<path d="M194.797 552.787L201.268 549.023L201.232 561.056L194.765 564.817L194.797 552.787Z" fill="#E3F3FF"/>
<path d="M186.895 548.273L193.363 544.509L201.268 549.024L194.797 552.788L186.895 548.273Z" fill="#C0E1FF"/>
<path d="M194.797 552.788L194.765 564.817L193.799 564.258L193.828 553.341L186.892 549.386L186.895 548.273L194.797 552.788Z" fill="#E3F3FF"/>
<path d="M207.167 545.589L213.634 541.829L213.602 553.858L207.131 557.619L207.167 545.589Z" fill="#E3F3FF"/>
<path d="M199.265 541.075L205.733 537.311L213.635 541.829L207.167 545.59L199.265 541.075Z" fill="#C0E1FF"/>
<path d="M207.167 545.59L207.132 557.619L206.166 557.063L206.198 546.143L199.262 542.188L199.265 541.075L207.167 545.59Z" fill="#E3F3FF"/>
<path d="M207.093 531.667L106.031 590.456L4.33563 531.684L105.401 472.895L207.093 531.667Z" fill="#001854"/>
<path d="M137.942 530.446L103.805 550.301L69.4474 530.446L103.582 510.588L137.942 530.446Z" fill="#E3F3FF"/>
<path d="M144.077 529.693L144.048 539.568L103.798 562.98L103.828 553.105L144.077 529.693Z" fill="#C0E1FF"/>
<path d="M103.827 553.105L103.798 562.98L63.2867 539.568L63.3158 529.693L103.827 553.105Z" fill="#C0E1FF"/>
<path d="M144.077 529.693L103.828 553.105L63.3161 529.693L103.566 506.281L144.077 529.693Z" fill="#E3F3FF"/>
<path d="M137.942 512.14L137.916 529.864L103.782 549.722L103.805 531.995L137.942 512.14Z" fill="#001854"/>
<path d="M103.805 531.995L103.782 549.722L69.4219 529.864L69.4477 512.14L103.805 531.995Z" fill="#001854"/>
<path d="M137.942 512.14L103.805 531.995L69.4474 512.14L103.582 492.285L137.942 512.14Z" fill="#E3F3FF"/>
<path d="M144.077 511.386L144.048 521.262L103.798 544.674L103.828 534.799L144.077 511.386Z" fill="#C0E1FF"/>
<path d="M103.827 534.799L103.798 544.674L63.2867 521.262L63.3158 511.386L103.827 534.799Z" fill="#C0E1FF"/>
<path d="M144.077 511.387L103.828 534.799L63.3161 511.387L103.566 487.975L144.077 511.387Z" fill="white"/>
<path d="M71.3018 511.377L103.572 492.608L136.091 511.393L103.821 530.161L71.3018 511.377Z" fill="#E3F3FF"/>
<path d="M741.353 100.098L731.162 106.03C729.509 106.989 727.226 106.863 724.7 105.403L734.891 99.4709C737.414 100.931 739.7 101.057 741.353 100.098Z" fill="#16388C"/>
<path d="M718.336 83.8654L728.528 77.9335C726.898 78.8813 725.875 80.8956 725.868 83.7736C725.852 89.5106 729.948 96.612 734.887 99.4671L724.696 105.399C719.756 102.544 715.661 95.4425 715.676 89.7055C715.687 86.8275 716.707 84.8132 718.336 83.8654Z" fill="#0A2873"/>
<path d="M643.984 43.821L633.793 49.7528C632.148 50.7084 629.88 50.586 627.38 49.1413L637.572 43.2094C640.068 44.6542 642.339 44.7765 643.984 43.821Z" fill="#16388C"/>
<path d="M621.017 27.589L631.209 21.6571C629.575 22.6088 628.563 24.6307 628.552 27.5126C628.537 33.2495 632.587 40.3242 637.572 43.206L627.38 49.1379C622.395 46.2561 618.345 39.1814 618.361 33.4444C618.368 30.5626 619.383 28.5369 621.017 27.589Z" fill="#0A2873"/>
<path d="M767.927 126.095L767.637 246.785C767.637 250.046 766.481 252.289 764.599 253.375L754.404 259.31C756.285 258.225 757.442 255.981 757.442 252.725L757.732 132.035L767.927 126.095Z" fill="#E3F3FF"/>
<path d="M757.728 132.054L757.423 252.717C757.404 259.249 752.82 261.867 747.14 258.584L604.214 175.958C598.58 172.702 593.981 164.775 594 158.243L594.305 37.5795L757.728 132.054Z" fill="#C0E1FF"/>
<path d="M747.583 90.0606C753.262 93.3438 757.816 101.298 757.797 107.776L757.728 132.054L594.305 37.5757L594.374 13.2978C594.393 6.81558 599.023 4.1745 604.657 7.43092L747.583 90.0606ZM724.696 105.399C729.727 108.307 733.803 105.93 733.818 100.193C733.834 94.4025 729.784 87.3814 724.753 84.4727C719.814 81.6177 715.691 83.9147 715.676 89.7051C715.661 95.4421 719.756 102.544 724.696 105.399ZM627.38 49.1414C632.365 52.0232 636.442 49.6459 636.457 43.9089C636.472 38.1185 632.422 31.0973 627.437 28.2154C622.452 25.3336 618.376 27.6574 618.36 33.4479C618.345 39.181 622.395 46.2557 627.38 49.1414Z" fill="#001854"/>
<path d="M768 101.837L767.928 126.091L757.732 132.027L757.805 107.772C757.805 101.332 753.251 93.3667 747.609 90.0339L604.661 7.42331C601.84 5.75688 599.237 5.61163 597.359 6.6971L607.554 0.830244C609.436 -0.255229 612.039 -0.110028 614.856 1.48378L757.805 84.0906C763.446 87.4311 768 95.3925 768 101.837Z" fill="#0A2873"/>
<path d="M748.445 137.39L748.201 248.502L603.192 164.702L603.44 53.5942L748.445 137.39Z" fill="white"/>
<path d="M735.057 151.443C736.922 151.443 738.209 149.965 738.216 147.406C738.209 149.965 736.922 151.443 735.057 151.443Z" fill="#2C98EA"/>
<path d="M732.545 137.569C734.197 138.646 735.572 140.098 736.557 141.807C737.543 143.517 738.111 145.435 738.216 147.406C738.206 150.88 735.837 152.363 732.865 150.857L732.659 223.874L731.948 223.464L732.154 150.446C731.429 149.965 730.768 149.394 730.187 148.747L715.064 159.075C715.526 160.236 715.773 161.471 715.794 162.72C715.784 166.194 713.414 167.676 710.441 166.169L710.315 210.952L709.605 210.542L709.731 165.758C708.178 164.66 706.894 163.225 705.973 161.559C705.053 159.894 704.521 158.041 704.417 156.14C704.416 155.736 704.453 155.333 704.53 154.936L691.621 139.072C691.056 139.292 690.448 139.378 689.844 139.324C689.241 139.27 688.658 139.077 688.14 138.761L687.972 198.031L687.262 197.62L687.429 138.351C686.637 137.825 685.921 137.193 685.3 136.472L670.43 145.492C670.838 146.585 671.056 147.74 671.073 148.906C671.063 152.379 668.694 153.862 665.721 152.357L665.629 185.108L664.919 184.697L665.011 151.946C663.458 150.848 662.173 149.412 661.253 147.746C660.333 146.08 659.801 144.228 659.696 142.327C659.696 141.922 659.733 141.518 659.807 141.121L646.902 125.258C646.336 125.477 645.728 125.563 645.124 125.509C644.521 125.455 643.937 125.263 643.419 124.948L643.286 172.186L642.575 171.776L642.709 124.537C641.894 123.995 641.159 123.341 640.525 122.595L625.739 131.186C626.13 132.255 626.337 133.382 626.353 134.519C626.343 137.993 623.975 139.476 621.002 137.969L620.942 159.264L620.23 158.853L620.291 137.557C618.738 136.46 617.454 135.025 616.534 133.359C615.613 131.694 615.081 129.841 614.977 127.941C614.987 124.331 617.548 122.87 620.683 124.684C621.643 125.258 622.501 125.989 623.222 126.844L638.009 118.254C637.618 117.186 637.41 116.058 637.394 114.919C637.404 111.309 639.964 109.849 643.1 111.662C644.752 112.739 646.127 114.191 647.112 115.9C648.098 117.61 648.666 119.528 648.771 121.499C648.771 121.904 648.733 122.308 648.658 122.706L661.566 138.568C662.58 138.088 663.927 138.216 665.402 139.069C666.338 139.629 667.177 140.337 667.886 141.166L682.758 132.148C682.348 131.055 682.131 129.9 682.114 128.733C682.124 125.122 684.685 123.66 687.821 125.474C689.473 126.551 690.847 128.003 691.833 129.713C692.818 131.423 693.386 133.341 693.491 135.313C693.492 135.717 693.454 136.12 693.378 136.518L706.286 152.381C707.301 151.902 708.647 152.03 710.123 152.884C710.99 153.4 711.773 154.046 712.445 154.8L727.569 144.473C727.107 143.312 726.86 142.076 726.839 140.826C726.85 137.218 729.41 135.756 732.545 137.569ZM710.096 162.214C711.43 162.985 712.518 162.362 712.523 160.828C712.478 159.99 712.236 159.175 711.817 158.449C711.398 157.723 710.814 157.106 710.112 156.649C708.779 155.878 707.692 156.499 707.688 158.032C707.732 158.87 707.974 159.685 708.392 160.412C708.811 161.138 709.395 161.756 710.096 162.214ZM732.519 146.899C733.854 147.671 734.941 147.051 734.945 145.514C734.9 144.677 734.659 143.862 734.24 143.135C733.821 142.409 733.237 141.792 732.534 141.335C731.202 140.564 730.115 141.185 730.11 142.718C730.155 143.556 730.397 144.371 730.815 145.098C731.234 145.824 731.817 146.441 732.519 146.899ZM687.794 134.804C689.129 135.575 690.216 134.955 690.22 133.421C690.176 132.583 689.934 131.768 689.515 131.041C689.096 130.314 688.512 129.697 687.809 129.239C686.477 128.468 685.39 129.089 685.385 130.625C685.43 131.462 685.671 132.277 686.09 133.003C686.508 133.729 687.092 134.346 687.794 134.804ZM665.376 148.4C666.71 149.171 667.797 148.549 667.802 147.014C667.757 146.177 667.516 145.361 667.097 144.635C666.678 143.909 666.093 143.292 665.391 142.835C664.059 142.064 662.972 142.685 662.967 144.219C663.012 145.056 663.253 145.871 663.672 146.598C664.09 147.324 664.674 147.942 665.376 148.4ZM620.657 134.014C621.99 134.784 623.079 134.163 623.083 132.629C623.038 131.791 622.796 130.976 622.377 130.25C621.959 129.523 621.374 128.906 620.672 128.449C619.341 127.678 618.253 128.299 618.248 129.833C618.293 130.67 618.535 131.486 618.953 132.212C619.372 132.939 619.956 133.556 620.657 134.014ZM643.074 120.99C644.406 121.761 645.495 121.141 645.5 119.608C645.455 118.77 645.213 117.954 644.795 117.228C644.376 116.501 643.791 115.884 643.089 115.426C641.757 114.655 640.67 115.276 640.665 116.811C640.71 117.649 640.951 118.464 641.37 119.19C641.788 119.916 642.372 120.533 643.074 120.99Z" fill="#2C98EA"/>
<path d="M619.59 128.118C619.974 128.132 620.347 128.246 620.673 128.449C620.347 128.246 619.974 128.132 619.59 128.118ZM625.739 131.186C626.13 132.255 626.337 133.382 626.353 134.519C626.337 133.382 626.13 132.255 625.739 131.186ZM620.683 124.684C621.643 125.259 622.501 125.989 623.222 126.844C622.501 125.989 621.643 125.259 620.683 124.684ZM729.999 136.791C728.134 136.791 726.847 138.27 726.839 140.826C726.847 138.27 728.134 136.791 729.999 136.791Z" fill="#2C98EA"/>
<path d="M707 516.006L520.178 624.678L429.021 571.997L615.805 463.347L707 516.006Z" fill="#A0D6FF"/>
<path d="M707 516.006L706.979 523.328L520.156 632L520.178 624.677L707 516.006Z" fill="#4AABF4"/>
<path d="M520.178 624.677L520.156 632L429 579.32L429.021 571.997L520.178 624.677Z" fill="#329AE9"/>
<path d="M707 499.556L520.178 608.228L429.021 555.548L615.805 446.898L707 499.556Z" fill="#A0D6FF"/>
<path d="M707 499.556L706.979 506.879L520.156 615.551L520.178 608.228L707 499.556Z" fill="#4AABF4"/>
<path d="M520.178 608.228L520.156 615.551L429 562.87L429.021 555.548L520.178 608.228Z" fill="#329AE9"/>
<path d="M707 483.108L520.178 591.779L429.021 539.099L615.805 430.449L707 483.108Z" fill="#A0D6FF"/>
<path d="M707 483.107L706.979 490.426L520.156 599.097L520.178 591.779L707 483.107Z" fill="#4AABF4"/>
<path d="M520.178 591.779L520.156 599.097L429 546.417L429.021 539.099L520.178 591.779Z" fill="#329AE9"/>
<path d="M707 466.659L520.178 575.33L429.021 522.65L615.805 414L707 466.659Z" fill="#A0D6FF"/>
<path d="M677.326 459.31C670.345 463.368 670.417 469.97 677.446 474.028L605.13 516.092C622.392 506.05 619.783 488.218 599.35 476.412C578.918 464.605 548.192 463.171 530.931 473.212L603.246 431.149C610.274 435.212 621.619 435.207 628.596 431.149L677.326 459.31ZM632.891 470.322L636.118 468.445L633.56 466.967C635.83 464.983 635.779 462.531 633.26 461.075C630.282 459.353 624.953 459.662 621.31 461.784C619.564 462.797 617.015 463.132 615.87 462.467C614.724 461.805 615.286 460.323 617.032 459.31C618.813 458.275 621.366 457.94 622.512 458.601L625.738 456.724C623.22 455.268 618.993 455.247 615.574 456.57L613.016 455.092L609.79 456.969L612.347 458.447C610.073 460.435 610.124 462.883 612.647 464.339C615.625 466.061 620.954 465.752 624.558 463.656C626.339 462.621 628.888 462.286 630.038 462.952C631.183 463.613 630.621 465.091 628.836 466.13C627.09 467.144 624.541 467.479 623.395 466.817L620.173 468.69C622.696 470.146 626.918 470.167 630.338 468.844L632.891 470.322Z" fill="#4AABF4"/>
<path d="M536.633 512.892C557.065 524.698 587.829 526.154 605.13 516.091L532.775 558.176C525.747 554.113 514.368 554.092 507.387 558.155L458.657 529.994C465.638 525.931 465.6 519.355 458.576 515.297L530.93 473.208C513.63 483.275 516.204 501.085 536.633 512.892ZM523.014 534.233L526.24 532.356L523.683 530.878C525.957 528.894 525.94 526.42 523.421 524.964C520.444 523.242 515.076 523.573 511.472 525.673C509.691 526.708 507.138 527.043 505.993 526.377C504.847 525.716 505.409 524.234 507.194 523.199C508.94 522.186 511.489 521.851 512.635 522.512L515.896 520.614C513.377 519.158 509.112 519.158 505.696 520.481L503.139 519.003L499.913 520.88L502.47 522.357C500.196 524.346 500.247 526.794 502.77 528.25C505.748 529.972 511.077 529.663 514.716 527.546C516.462 526.532 519.011 526.197 520.156 526.863C521.302 527.524 520.74 529.001 518.993 530.019C517.213 531.054 514.664 531.389 513.518 530.724L510.296 532.601C512.815 534.056 517.041 534.078 520.461 532.755L523.014 534.233Z" fill="#4AABF4"/>
<path d="M588.585 491.397C593.588 494.287 593.575 499.166 589.108 503.139L594.188 506.072L587.778 509.8L582.698 506.867C575.863 509.469 567.487 509.469 562.484 506.579L568.895 502.851C571.147 504.152 576.245 503.491 579.772 501.438C583.299 499.385 584.388 496.452 582.136 495.15C579.844 493.827 574.786 494.467 571.259 496.516C564.05 500.708 553.396 501.326 547.475 497.908C542.434 494.996 542.447 490.16 546.913 486.187L541.794 483.228L548.205 479.5L553.324 482.459C560.163 479.852 568.496 479.831 573.537 482.747L567.127 486.475C564.836 485.152 559.777 485.792 556.25 487.845C552.723 489.898 551.594 492.857 553.886 494.18C556.138 495.481 561.236 494.82 564.767 492.767C571.937 488.592 582.668 487.974 588.585 491.397Z" fill="#4AABF4"/>
<path d="M707 466.659L706.979 473.977L520.156 582.648L520.178 575.33L707 466.659Z" fill="#4AABF4"/>
<path d="M520.178 575.33L520.156 582.648L429 529.968L429.021 522.65L520.178 575.33Z" fill="#329AE9"/>
</svg>
