<svg width="908" height="200" viewBox="0 0 908 200" fill="none" xmlns="http://www.w3.org/2000/svg">
<path d="M70 170C108.66 170 140 138.66 140 100C140 61.3401 108.66 30 70 30C31.3401 30 0 61.3401 0 100C0 138.66 31.3401 170 70 170Z" fill="#E3F2FF"/>
<path d="M63.124 75.514H76.8762V97.5029H63.124V75.514Z" fill="#001854"/>
<path d="M81.2146 97.5168H58.7854C57.653 97.5168 56.739 98.4517 56.739 99.6097C56.739 100.768 57.653 101.703 58.7854 101.703H81.2283C82.3607 101.703 83.2748 100.768 83.2748 99.6097C83.2611 98.4517 82.347 97.5168 81.2146 97.5168Z" fill="#001854"/>
<path d="M93.0977 91.6012H46.9022C44.3646 91.6012 42.3181 89.5084 42.3181 86.9133V55.688C42.3181 53.0928 44.3646 51 46.9022 51H93.0977C95.6353 51 97.6818 53.0928 97.6818 55.688V86.9133C97.6818 89.4944 95.6353 91.6012 93.0977 91.6012Z" fill="white"/>
<path d="M97.6818 87.4156H42.3181C42.3181 89.7316 44.1463 91.6012 46.411 91.6012H93.6025C95.8536 91.6012 97.6818 89.7316 97.6818 87.4156ZM93.5888 51H46.411C44.1463 51 42.3181 52.8696 42.3181 55.1857H97.6818C97.6818 52.8696 95.8536 51 93.5888 51Z" fill="#4AABF4"/>
<path d="M87.6542 59.0501L92.3201 63.8218L93.9846 57.7526L87.6542 59.0501Z" fill="#001854"/>
<path d="M48.0892 85.1832C47.83 85.1832 47.5707 85.0855 47.3797 84.8762C46.9841 84.4716 46.9841 83.8158 47.3797 83.4252L53.1508 77.5233C53.5464 77.1187 54.1876 77.1187 54.5696 77.5233L59.181 82.2392L68.9631 72.2354C69.1541 72.0401 69.4133 71.9285 69.6725 71.9285C69.9454 71.9285 70.191 72.0401 70.382 72.2354L74.2566 76.1979L90.0826 60.0132C90.4782 59.6086 91.1195 59.6086 91.5015 60.0132C91.8971 60.4178 91.8971 61.0736 91.5015 61.4642L74.9797 78.3884C74.7887 78.5837 74.5295 78.6953 74.2703 78.6953C73.9974 78.6953 73.7518 78.5837 73.5608 78.3884L69.6862 74.4259L59.9041 84.4297C59.5084 84.8344 58.8672 84.8344 58.4852 84.4297L53.8738 79.7139L48.8123 84.8902C48.6076 85.0855 48.3484 85.1832 48.0892 85.1832Z" fill="#001854"/>
<path d="M49.7216 125.692C49.7216 123.221 45.4236 121.928 41.1769 121.928C36.9325 121.928 32.6356 123.221 32.6356 125.692C32.6356 125.899 32.6275 126.014 32.6473 126.24C32.6718 126.464 32.6787 126.582 32.7428 126.926C32.885 127.732 33.1995 129.233 33.8066 131.033C31.6861 130.3 30.535 129.574 30.4767 129.236C30.5548 129.087 30.9404 128.923 31.6255 128.804L31.2725 127.741C30.267 127.953 29.5307 128.345 29.4142 129.032C29.194 130.371 31.5766 131.527 34.2889 132.359C34.8283 133.75 35.5379 135.252 36.4595 136.716C33.9522 136.466 32.589 135.954 32.3525 135.637C32.4853 135.439 32.9898 135.188 33.8264 134.948L33.3289 133.947C32.0939 134.345 31.2422 134.898 31.2538 135.655C31.2783 137.215 34.8015 137.729 37.2599 137.897C38.0731 139.015 39.0215 140.084 40.1271 141.04C39.9314 141.07 39.7392 141.1 39.5504 141.124C37.543 141.382 36.6668 141.18 36.4233 141.048C36.5433 140.85 36.9395 140.544 37.5861 140.192L36.8043 139.408C35.8606 139.972 35.207 140.626 35.3759 141.319C35.5985 142.235 37.0478 142.527 39.6809 142.189C40.1784 142.126 40.7062 142.037 41.2468 141.929C42.1299 142.565 43.0981 143.129 44.1642 143.59C44.4321 143.704 45.4015 144.081 46.3848 144.081C46.9662 144.081 47.5522 143.95 48.0008 143.556C48.6521 142.987 48.8385 142.064 48.5589 140.811C48.4575 140.358 48.3713 139.84 48.2967 139.28C48.8874 138.82 49.237 138.315 49.1053 137.786C49.0086 137.385 48.6707 137.106 48.101 136.945C48.0963 136.843 48.0917 136.741 48.087 136.638C48.7092 136.298 49.0867 135.885 49.0808 135.377C49.075 134.867 48.6847 134.471 48.087 134.161C48.094 133.975 48.101 133.789 48.1103 133.601C48.7232 133.369 49.1391 133.023 49.223 132.521C49.3127 131.976 48.9678 131.462 48.3503 130.988C48.5705 129.372 48.934 127.862 49.4677 126.673C49.6296 126.371 49.7216 126.043 49.7216 125.692ZM41.1769 123.415C45.511 123.415 48.2758 124.763 48.2758 125.69C48.2758 125.752 48.2618 125.815 48.2373 125.88L48.235 125.878C48.2245 125.903 48.2105 125.929 48.1989 125.956C47.748 126.855 45.1126 127.968 41.1769 127.968C36.8451 127.968 34.078 126.618 34.078 125.69C34.078 124.763 36.8451 123.415 41.1769 123.415ZM34.4835 128.119C36.1321 129.001 38.6615 129.454 41.1769 129.454C43.4546 129.454 45.7452 129.083 47.381 128.356C47.0361 129.735 46.8229 131.26 46.7111 132.795C45.6007 132.945 43.8496 132.978 41.4169 132.697C40.6491 132.608 39.8534 132.492 39.0588 132.351C37.7527 132.121 36.5923 131.855 35.5693 131.575C35.0672 130.26 34.7177 129.058 34.4835 128.119ZM39.2009 137.976C39.2568 137.977 39.3116 137.977 39.3582 137.977C39.6355 137.978 39.9186 137.978 40.2029 137.973C42.1043 137.943 44.7584 137.731 46.6703 137.187C46.7017 137.808 46.7472 138.403 46.8101 138.962C45.8594 139.465 44.4019 140.054 42.483 140.547C42.3268 140.588 42.1742 140.624 42.0216 140.66C40.9474 139.87 40.0118 138.956 39.2009 137.976ZM47.1538 141.144C47.2959 141.785 47.2645 142.25 47.0676 142.423C46.6761 142.766 45.4458 142.523 44.7176 142.218C44.1945 141.992 43.7016 141.736 43.2286 141.457C44.0535 141.226 45.6368 140.737 46.9569 140.091C47.0163 140.466 47.0816 140.824 47.1538 141.144ZM46.6283 136.051C45.3234 136.445 43.1342 136.812 40.1877 136.859C39.9104 136.864 39.6355 136.865 39.3652 136.862C39.004 136.86 38.6615 136.85 38.3306 136.838C37.4113 135.538 36.6773 134.168 36.0983 132.861C37.0828 133.105 38.0405 133.304 38.8735 133.452C39.6914 133.594 40.5046 133.713 41.2957 133.804C42.589 133.954 44.8644 134.149 46.6505 133.929C46.6237 134.648 46.6155 135.359 46.6283 136.051Z" fill="#4AABF4"/>
<path d="M61.9224 129.853L53.2809 123.275C52.5166 122.695 51.2688 122.695 50.5033 123.275L49.8858 123.747C50.289 124.191 50.5231 124.633 50.5732 125.02C50.6455 125.558 50.5639 126.302 50.4649 126.583C49.8858 128.083 49.654 128.799 49.3953 130.67C49.866 131.15 50.2086 131.801 50.134 132.435C50.0326 133.31 49.5911 133.685 49.1041 133.948C49.3604 134.099 49.5317 134.285 49.6621 134.478C49.7006 134.474 49.739 134.465 49.7821 134.465H54.0044C54.1617 134.465 54.3132 134.499 54.4507 134.559C54.8631 134.74 55.1544 135.162 55.1544 135.65V144.081H55.1567H57.5964H60.4357C62.0237 144.081 63.3123 142.826 63.3123 141.278V133.208V132.578V132.516V131.745V131.744C63.3111 131.285 62.6843 130.434 61.9224 129.853Z" fill="#001854"/>
<path d="M65.6065 125.855L60.9834 122.35V118.172C60.9834 117.518 60.4673 116.986 59.8323 116.986H57.96C57.3251 116.986 56.8089 117.518 56.8089 118.172V119.187L53.2834 116.515C52.5191 115.936 51.2678 115.936 50.5011 116.515L44.1794 121.305C46.2474 121.568 47.8156 122.183 48.8793 122.897L50.5011 121.669C51.2678 121.089 52.5191 121.089 53.2834 121.669L63.2181 129.196C63.9847 129.775 65.0706 129.605 65.6333 128.818L65.9747 128.342C66.5386 127.552 66.372 126.433 65.6065 125.855Z" fill="#4AABF4"/>
<path d="M96.4076 149L95.9437 144.711C95.9194 144.471 95.728 144.14 95.5227 143.974L90.9309 140.32C90.7244 140.154 90.3243 140.022 90.0401 140.03C90.0401 140.03 87.8016 140.066 91.6465 143.911L88.2006 142.341C87.9512 142.227 87.7517 141.936 87.7587 141.693L87.8631 138.116C87.6995 136.324 86.2683 136.571 86.2683 136.571C85.9922 136.619 85.7452 136.854 85.7174 137.097L85.047 142.98C85.0203 143.221 85.1421 143.572 85.3207 143.758L90.3138 149H96.4076ZM105.327 149L110.32 143.758C110.499 143.572 110.624 143.221 110.596 142.98L109.928 137.097C109.901 136.854 109.652 136.619 109.375 136.571C109.375 136.571 107.943 136.324 107.778 138.116L107.884 141.693C107.894 141.936 107.692 142.227 107.442 142.341L103.994 143.911C107.84 140.066 105.603 140.03 105.603 140.03C105.318 140.022 104.916 140.154 104.71 140.32L100.118 143.974C99.9115 144.141 99.7213 144.471 99.6947 144.711L99.2354 149H105.327ZM89.379 138.476H106.263C106.263 136.094 104.387 134.162 102.077 134.162H99.4151C99.3223 133.8 99.2017 133.437 99.0509 133.084L98.9245 132.792C98.8793 132.695 98.8248 132.603 98.7772 132.509C98.6844 132.319 98.5684 132.138 98.4559 131.96C98.3423 131.783 98.2135 131.616 98.0894 131.45C97.9537 131.292 97.8285 131.133 97.6812 130.992C97.4051 130.701 97.0966 130.454 96.795 130.245C96.6002 130.114 96.4053 130.003 96.2128 129.906C96.4436 128.173 96.4691 124.168 92.2055 122.598C89.7258 121.682 88.3664 122.58 85.3508 121.617C83.7247 121.096 85.0423 133.298 94.8627 131.058C94.8697 131.07 94.8743 131.079 94.8813 131.09C95.0124 131.315 95.1504 131.55 95.2849 131.798C95.416 132.048 95.5563 132.3 95.6839 132.57C95.7547 132.699 95.8126 132.841 95.8811 132.975C95.9124 133.042 95.9449 133.112 95.9762 133.183C96.0098 133.252 96.0469 133.319 96.0736 133.391C96.1374 133.532 96.2024 133.673 96.2638 133.817C96.3137 133.931 96.3613 134.046 96.4111 134.162H93.5683C91.2545 134.162 89.379 136.094 89.379 138.476Z" fill="#001854"/>
<path d="M105.446 119.661C102.971 121.119 101.594 120.61 99.5821 121.913C95.1059 124.814 97.7501 129.817 97.7501 129.817C108.083 130.701 106.836 118.844 105.446 119.661ZM103.383 125.038C102.653 126.11 101.831 127.316 99.0138 128.147C99.0138 128.147 102.959 125.063 104.614 121.771C104.614 121.771 104.114 123.965 103.383 125.038ZM98.4969 116.243C97.5214 114.118 96.1421 113.805 94.8666 111.309C94.1513 109.907 87.1126 118.903 95.974 123.645C95.974 123.646 100.666 120.972 98.4969 116.243ZM93.8153 116.777C93.7628 115.517 94.4734 113.47 94.4734 113.47C94.1455 117.023 95.7932 121.623 95.7932 121.623C93.9203 119.457 93.8654 118.036 93.8153 116.777Z" fill="#4AABF4"/>
<path d="M799 97H503V103H799V97Z" fill="#E3F2FF"/>
<path d="M405 97H109V103H405V97Z" fill="#E3F2FF"/>
<path d="M454 200C509.228 200 554 155.228 554 100C554 44.7715 509.228 0 454 0C398.772 0 354 44.7715 354 100C354 155.228 398.772 200 454 200Z" fill="#4AABF4"/>
<path d="M454 165C489.899 165 519 135.899 519 100C519 64.1015 489.899 35 454 35C418.101 35 389 64.1015 389 100C389 135.899 418.101 165 454 165Z" fill="white"/>
<path d="M472.737 104.887C469.105 115.895 462.85 124.524 453.972 130.653C451.066 128.395 446.263 124.121 441.945 117.71C439.201 113.637 437.062 109.363 435.488 104.847H460.953V93.5968H432.825C432.058 87.7903 432.058 81.6613 432.906 75.25H476.127C476.409 79.4435 476.531 86.0968 475.401 93.5968H486.781C488.597 79.8871 486.821 69.1613 486.741 68.6774L485.934 64H423.462L422.574 68.5565C417.57 95.0081 425.44 113.597 432.946 124.524C441.138 136.46 450.582 142.065 450.985 142.306L453.85 144L456.716 142.306C470.437 134.202 479.92 121.339 484.481 104.927H472.737V104.887Z" fill="#0055B8"/>
<path d="M486.741 93.5969C486.7 93.9598 486.66 94.3631 486.579 94.726C486.095 98.3147 485.369 101.702 484.44 104.887L496.063 104.928C496.709 102.266 497.233 99.484 497.637 96.6614C497.758 95.6534 497.879 94.6453 498 93.6776L486.741 93.5969Z" fill="#8AB7E9"/>
<path d="M838 170C876.66 170 908 138.66 908 100C908 61.3401 876.66 30 838 30C799.34 30 768 61.3401 768 100C768 138.66 799.34 170 838 170Z" fill="#E3F2FF"/>
<path d="M850.876 91.0109C850.521 91.0109 850.151 90.9043 849.842 90.6757C849.085 90.112 848.931 89.0455 849.502 88.2989L866.779 65.7185C867.35 64.9719 868.431 64.8195 869.188 65.3833C869.944 65.947 870.099 67.0136 869.527 67.7602L852.251 90.3405C851.911 90.7824 851.401 91.0109 850.876 91.0109ZM800.374 112.007C799.571 112.007 798.845 111.443 798.691 110.635C798.506 109.721 799.108 108.822 800.05 108.639L841.335 100.579C842.261 100.397 843.172 100.991 843.357 101.92C843.543 102.834 842.941 103.733 841.999 103.916L800.714 111.976C800.59 111.992 800.482 112.007 800.374 112.007ZM863.537 134.343C862.996 134.343 862.472 134.1 862.132 133.627L846.909 112.601C846.353 111.839 846.538 110.773 847.31 110.239C848.082 109.691 849.163 109.874 849.703 110.635L864.926 131.662C865.482 132.424 865.297 133.49 864.525 134.023C864.232 134.237 863.877 134.343 863.537 134.343Z" fill="#4AABF4"/>
<path d="M872.152 70.4721C877.601 70.4721 882.018 66.1132 882.018 60.7361C882.018 55.359 877.601 51 872.152 51C866.703 51 862.286 55.359 862.286 60.7361C862.286 66.1132 866.703 70.4721 872.152 70.4721Z" fill="#4AABF4"/>
<path d="M872.152 66.404C875.324 66.404 877.896 63.8664 877.896 60.7361C877.896 57.6057 875.324 55.0681 872.152 55.0681C868.98 55.0681 866.409 57.6057 866.409 60.7361C866.409 63.8664 868.98 66.404 872.152 66.404Z" fill="#4AABF4"/>
<path d="M841.659 121.804C853.742 121.804 863.537 112.138 863.537 100.214C863.537 88.2898 853.742 78.6237 841.659 78.6237C829.577 78.6237 819.781 88.2898 819.781 100.214C819.781 112.138 829.577 121.804 841.659 121.804Z" fill="#001854"/>
<path d="M841.659 111.184C847.798 111.184 852.775 106.272 852.775 100.214C852.775 94.1551 847.798 89.2435 841.659 89.2435C835.519 89.2435 830.542 94.1551 830.542 100.214C830.542 106.272 835.519 111.184 841.659 111.184Z" fill="#E3F2FF"/>
<path d="M800.374 120.158C805.882 120.158 810.348 115.751 810.348 110.315C810.348 104.879 805.882 100.473 800.374 100.473C794.865 100.473 790.4 104.879 790.4 110.315C790.4 115.751 794.865 120.158 800.374 120.158Z" fill="#001854"/>
<path d="M863.537 139.844C867.562 139.844 870.824 136.624 870.824 132.652C870.824 128.68 867.562 125.46 863.537 125.46C859.512 125.46 856.249 128.68 856.249 132.652C856.249 136.624 859.512 139.844 863.537 139.844Z" fill="#4AABF4"/>
<path d="M878.868 108.898C882.586 108.898 885.6 105.924 885.6 102.255C885.6 98.5864 882.586 95.6122 878.868 95.6122C875.151 95.6122 872.137 98.5864 872.137 102.255C872.137 105.924 875.151 108.898 878.868 108.898Z" fill="#001854"/>
<path d="M878.868 103.947H859.307C858.365 103.947 857.593 103.185 857.593 102.255C857.593 101.311 858.365 100.564 859.307 100.564H878.868C879.826 100.564 880.582 101.326 880.582 102.255C880.598 103.185 879.826 103.947 878.868 103.947Z" fill="#001854"/>
<path d="M821.44 78.9879C824.069 76.3936 824.069 72.1874 821.44 69.5932C818.811 66.9989 814.549 66.999 811.92 69.5933C809.291 72.1877 809.292 76.3938 811.92 78.9881C814.549 81.5823 818.812 81.5822 821.44 78.9879Z" fill="#001854"/>
<path d="M830.28 89.411C829.833 89.411 829.4 89.2434 829.061 88.9082L815.458 75.4849C814.794 74.8298 814.794 73.748 815.458 73.0928C816.122 72.4376 817.218 72.4376 817.882 73.0928L831.485 86.5161C832.148 87.1713 832.148 88.2531 831.485 88.9082C831.16 89.2434 830.713 89.411 830.28 89.411Z" fill="#001854"/>
<path d="M818.744 76.3267C819.883 75.2021 819.883 73.3787 818.743 72.2542C817.604 71.1296 815.756 71.1296 814.617 72.2542C813.477 73.3789 813.477 75.2022 814.617 76.3267C815.756 77.4513 817.604 77.4513 818.744 76.3267Z" fill="#E3F2FF"/>
<path d="M817.45 141.535C817.126 141.535 816.817 141.443 816.524 141.261C815.721 140.758 815.489 139.707 815.999 138.914L831.824 114.49C832.334 113.698 833.399 113.469 834.202 113.972C835.005 114.475 835.236 115.526 834.727 116.319L818.901 140.743C818.562 141.245 818.006 141.535 817.45 141.535Z" fill="#001854"/>
<path d="M823.118 143.403C825.121 140.312 824.205 136.204 821.073 134.228C817.941 132.251 813.778 133.155 811.775 136.246C809.773 139.337 810.688 143.445 813.82 145.421C816.953 147.398 821.115 146.494 823.118 143.403Z" fill="#001854"/>
<path d="M819.905 141.376C820.773 140.036 820.377 138.255 819.019 137.398C817.661 136.542 815.857 136.933 814.988 138.273C814.12 139.613 814.517 141.394 815.875 142.251C817.233 143.107 819.037 142.716 819.905 141.376Z" fill="#4AABF4"/>
</svg>
