<svg width="162" height="50" viewBox="0 0 162 50" fill="none" xmlns="http://www.w3.org/2000/svg">
<path d="M72.3619 24.7H59.8705C60.1703 25.8 60.67 26.6 61.4694 27.2C62.2689 27.8 63.2682 28.1 64.3674 28.1C66.0662 28.1 67.4653 27.4 68.6644 26.1L71.7623 29C70.9629 30 69.8636 30.8 68.5645 31.4C67.2654 32 65.7664 32.3 64.0676 32.3C62.3688 32.3 60.7699 31.9 59.3709 31.2C57.9718 30.4 56.8726 29.4 56.0731 28C55.2737 26.6 54.874 25 54.874 23.2C54.874 21.9 55.0738 20.6 55.5735 19.5C56.0731 18.4 56.6727 17.4 57.3722 16.6C58.1717 15.8 59.0711 15.2 60.1703 14.7C61.2695 14.3 62.4687 14 63.6679 14C65.3667 14 66.9656 14.4 68.2647 15.2C69.5638 16 70.6631 17 71.3626 18.4C72.0621 19.8 72.4618 21.3 72.4618 23C72.4618 23.8 72.3619 24.4 72.3619 24.7ZM61.2695 19C60.57 19.5 60.0704 20.3 59.7706 21.3H67.6651C67.4653 20.3 66.9656 19.6 66.2661 19C65.5666 18.4 64.7671 18.2 63.7678 18.2C62.8684 18.2 62.069 18.4 61.2695 19Z" fill="white"/>
<path d="M88.5507 14.4C89.3502 14.7 89.9497 15.1 90.5493 15.7C91.1489 16.3 91.5486 17.1 91.8484 18C92.1482 19 92.3481 20.1 92.3481 21.5V32H87.5514V22.6C87.5514 21 87.2516 19.8 86.752 19.2C86.1524 18.5 85.3529 18.2 84.1537 18.2C82.9546 18.2 81.9553 18.6 81.1558 19.5C80.4563 20.3 80.0566 21.5 80.0566 23.1V32H75.2599V14.3H80.0566V16.6H80.1565C80.856 15.8 81.7554 15.1 82.7547 14.7C83.754 14.3 84.7533 14 85.8526 14C86.8519 14 87.7513 14.1 88.5507 14.4Z" fill="white"/>
<path d="M94.5466 29.7L96.845 26.4C98.344 27.8 99.9428 28.5 101.742 28.5C102.441 28.5 102.941 28.4 103.34 28.1C103.74 27.8 103.94 27.5 103.94 27C103.94 26.7 103.84 26.5 103.54 26.3C103.34 26.1 102.941 25.9 102.541 25.7C102.141 25.5 101.442 25.3 100.642 25C100.143 24.8 99.6431 24.6 99.2433 24.5C98.8436 24.3 98.3439 24.1 97.9442 23.9C97.5445 23.7 97.1448 23.4 96.845 23.1C96.5452 22.8 96.2454 22.5 95.9456 22.1C95.6458 21.7 95.5459 21.3 95.346 20.8C95.2461 20.3 95.1462 19.8 95.1462 19.3C95.1462 18.2 95.446 17.3 95.9456 16.5C96.5452 15.7 97.2447 15.1 98.244 14.6C99.2433 14.2 100.343 13.9 101.542 13.9C102.741 13.9 103.94 14.1 104.939 14.4C105.939 14.7 107.038 15.3 108.037 16.1L105.739 19.6C105.039 19 104.34 18.5 103.64 18.2C102.941 17.9 102.141 17.7 101.542 17.7C101.042 17.7 100.642 17.8 100.343 18C99.9428 18.2 99.8429 18.6 99.8429 19C99.8429 19.4 100.043 19.7 100.442 20C100.842 20.3 101.542 20.6 102.441 21C104.44 21.7 105.739 22.3 106.438 22.7C107.638 23.4 108.237 24.4 108.537 25.5C108.637 25.9 108.637 26.3 108.637 26.7C108.637 28.3 108.037 29.7 106.838 30.7C105.639 31.7 103.94 32.2 101.742 32.2C98.9435 32.3 96.5452 31.5 94.5466 29.7Z" fill="white"/>
<path d="M127.824 14.3V32H123.027V29.8H122.927C122.227 30.6 121.428 31.2 120.529 31.6C119.629 32 118.63 32.2 117.631 32.2C116.631 32.2 115.732 32.1 114.933 31.8C114.133 31.5 113.434 31.1 112.834 30.5C112.234 29.9 111.735 29.2 111.435 28.2C111.135 27.2 110.935 26.1 110.935 24.8V14.3H115.732V23.7C115.732 25.3 115.932 26.4 116.431 27.1C116.931 27.7 117.731 28.1 118.93 28.1C120.029 28.1 121.028 27.7 121.728 26.8C122.527 25.9 122.827 24.6 122.827 23V14.4H127.824V14.3Z" fill="white"/>
<path d="M142.214 14V19.2C141.714 19.2 141.314 19.1 140.915 19.1C139.516 19.1 138.416 19.5 137.617 20.4C136.817 21.3 136.418 22.4 136.418 23.7V32H131.621V14.3H136.418V16.9H136.518C137.217 16 138.017 15.2 138.916 14.7C139.815 14.2 140.815 13.9 141.914 13.9C142.014 14 142.114 14 142.214 14Z" fill="white"/>
<path d="M149.309 31.9C148.309 31.6 147.41 31.2 146.711 30.6C145.911 30.1 145.312 29.4 144.712 28.7C144.112 27.9 143.713 27.1 143.413 26.2C143.113 25.3 143.013 24.3 143.013 23.2C143.013 21.9 143.213 20.7 143.713 19.5C144.212 18.4 144.812 17.4 145.611 16.6C146.411 15.8 147.41 15.2 148.609 14.7C149.808 14.2 151.108 14 152.507 14C153.906 14 155.105 14.2 156.304 14.7C157.503 15.1 158.502 15.8 159.302 16.6C160.101 17.4 160.801 18.4 161.3 19.5C161.8 20.6 162 21.9 162 23.2C162 25 161.6 26.6 160.801 28C160.001 29.4 158.902 30.5 157.403 31.2C156.004 32 154.305 32.3 152.507 32.3C151.307 32.3 150.208 32.2 149.309 31.9ZM155.704 26.7C156.604 25.8 157.003 24.6 157.003 23.2C157.003 21.8 156.604 20.6 155.704 19.7C154.805 18.8 153.706 18.3 152.407 18.3C151.008 18.3 149.908 18.8 149.009 19.7C148.11 20.6 147.71 21.8 147.71 23.2C147.71 24.6 148.11 25.7 149.009 26.7C149.908 27.6 151.008 28.1 152.307 28.1C153.706 28.1 154.805 27.6 155.704 26.7Z" fill="white"/>
<path d="M32.3895 25.6C30.0911 32.5 26.1938 37.9 20.5976 41.7C18.7989 40.3 15.801 37.6 13.1028 33.6C11.404 31.1 10.005 28.4 9.10558 25.6H25.0945V18.6H7.40675C6.9071 14.9 6.9071 11 7.50669 7H34.588C34.7878 9.6 34.8878 13.8 34.0883 18.5H41.1834C42.2827 9.9 41.1834 3.2 41.1834 2.9L40.6838 0H1.51083L1.01117 2.9C-2.18662 19.4 2.80993 31 7.50669 37.9C12.6032 45.4 18.599 48.9 18.7989 49L20.5976 50L22.3964 48.9C30.9905 43.8 36.9863 35.8 39.7844 25.5H32.3895V25.6Z" fill="white"/>
<path d="M41.1834 18.5C41.1834 18.7 41.0835 19 41.0835 19.2C40.7837 21.4 40.284 23.6 39.7844 25.6H47.0794C47.4791 23.9 47.7789 22.2 48.0787 20.4C48.1786 19.8 48.2785 19.1 48.2785 18.5H41.1834Z" fill="white"/>
</svg>
