<?xml version="1.0" encoding="UTF-8"?><svg id="Capa_2" xmlns="http://www.w3.org/2000/svg" viewBox="0 0 142.58 91.1"><defs><style>.cls-1{fill:#fff;}.cls-2{fill:#738944;}.cls-3{fill:#0055b2;}.cls-4{fill:#84b1e3;}</style></defs><g id="Capa_1-2"><path class="cls-3" d="m115.74,43.41c-3.85,11.68-10.5,20.86-19.89,27.37-3.1-2.4-8.18-6.93-12.75-13.73-2.89-4.3-5.16-8.87-6.84-13.66h27v-11.95h-29.84c-.83-6.18-.81-12.68.1-19.49h45.85c.31,4.45.44,11.51-.78,19.48h12.08c1.94-14.55.04-25.96-.04-26.47l-.85-4.97H63.48l-.93,4.86c-5.34,28.05,3.02,47.78,10.98,59.4,8.67,12.66,18.72,18.63,19.15,18.88l3.04,1.78,3.03-1.8c14.54-8.62,24.61-22.25,29.47-39.7h-12.48Z"/><path class="cls-4" d="m130.63,31.43c-.05.4-.1.8-.15,1.2-.52,3.81-1.28,7.4-2.26,10.78l12.33.02c.68-2.83,1.23-5.77,1.65-8.8.15-1.08.27-2.14.38-3.19l-11.95-.02Z"/><path class="cls-1" d="m61.67,90.1c-.27,0-.54,0-.81-.02-2.08-.08-4.07-.68-5.92-1.8-2.24-1.35-3.59-3.39-4.13-6.26-.19-1-.37-1.99-.36-3.04.02-1.94.39-3.92,1.12-6.03,1.29-3.68,3.35-7.25,6.31-10.91,1.31-1.62,2.75-3.09,4.35-4.7,1.61-1.62,3.51-3.19,5.98-4.95.17-.12.33-.26.49-.4.26-.23.55-.48.9-.7,3.02-1.85,6.33-3.72,10.01-4.93,2.48-.81,4.65-1.19,6.82-1.19.19,0,.39,0,.58,0,.27-.02.53-.03.8-.03,1.66,0,3.44.43,5.28,1.27,1.53.7,2.74,1.67,3.7,2.97,1.48,1.99,2.21,4.22,2.3,7,.08,2.5-.5,5.04-1.81,7.99-1.45,3.25-3.46,6.39-6.32,9.88-1.25,1.52-2.62,2.87-3.93,4.12-.29.27-.57.55-.85.83-.76.75-1.55,1.53-2.44,2.22-1.61,1.26-3.3,2.34-4.6,3.13-1.91,1.18-4.02,2.23-6.65,3.3-2.17.89-4.39,1.51-6.6,1.86-1.52.24-2.9.36-4.22.36Z"/><path class="cls-1" d="m87.82,46.17c1.64,0,3.29.46,4.86,1.18,1.31.6,2.41,1.44,3.32,2.66,1.45,1.95,2.02,4.07,2.1,6.44.09,2.68-.65,5.15-1.73,7.55-1.57,3.52-3.74,6.67-6.18,9.65-1.18,1.44-2.5,2.74-3.85,4.03-1.06,1.01-2.05,2.08-3.21,2.99-1.44,1.12-2.96,2.12-4.51,3.07-2.07,1.28-4.26,2.31-6.51,3.23-2.05.84-4.17,1.45-6.38,1.8-1.35.21-2.7.34-4.07.34-.26,0-.51,0-.77-.01-1.96-.07-3.76-.64-5.45-1.65-2.14-1.28-3.21-3.21-3.66-5.58-.18-.94-.35-1.88-.34-2.84.02-1.97.42-3.86,1.07-5.71,1.37-3.92,3.54-7.39,6.14-10.61,1.32-1.64,2.8-3.13,4.28-4.62,1.8-1.8,3.79-3.37,5.85-4.84.46-.33.84-.76,1.33-1.06,3.12-1.91,6.3-3.69,9.8-4.83,2.08-.68,4.2-1.14,6.51-1.14.2,0,.41,0,.61.01.26-.02.51-.03.77-.03m0-2c-.28,0-.55.01-.82.03-.19,0-.37,0-.56,0-2.28,0-4.54.39-7.13,1.24-3.78,1.24-7.15,3.15-10.22,5.03-.43.26-.77.56-1.04.8-.15.13-.29.26-.41.34-2.52,1.8-4.46,3.41-6.11,5.06-1.62,1.63-3.08,3.11-4.42,4.77-3.03,3.75-5.15,7.41-6.47,11.21-.77,2.21-1.16,4.29-1.18,6.35-.01,1.15.18,2.18.37,3.19.59,3.16,2.14,5.49,4.6,6.97,2,1.2,4.16,1.86,6.4,1.94.28.01.56.02.85.02,1.37,0,2.81-.12,4.38-.37,2.29-.36,4.59-1.01,6.82-1.92,2.68-1.1,4.84-2.17,6.8-3.38,1.31-.81,3.03-1.9,4.69-3.2.93-.73,1.74-1.53,2.52-2.3.28-.27.55-.55.84-.82,1.32-1.27,2.72-2.63,4.01-4.2,2.92-3.56,4.97-6.77,6.46-10.11,1.38-3.09,1.98-5.77,1.9-8.43-.09-2.96-.91-5.43-2.49-7.56-1.06-1.43-2.4-2.51-4.09-3.28-1.97-.9-3.88-1.36-5.69-1.36h0Z"/><path class="cls-1" d="m46.21,79.63c-.72-1.08-.99-2.2-1.25-3.29l-.04-.17c-.48-1.98-.85-4.11-1.19-6.72-.28-2.13-.36-4.43-.28-7.24.04-1.18.18-2.35.32-3.48.05-.38.09-.76.13-1.14.31-2.78.94-5.41,1.52-7.61.75-2.86,1.78-5.67,3.05-8.35,1.52-3.19,2.91-5.5,4.51-7.5,1.17-1.47,2.33-2.49,3.64-3.22l.32-.18c.88-.5,1.8-1.01,2.91-1.23.65-.13,1.3-.19,1.91-.19,2.1,0,3.96.75,5.55,2.23.69.64,1.21,1.37,1.72,2.08,2.15,3,2.91,6.38,3.58,9.36.08.37.15.75.21,1.12.05.3.1.61.17.91.34,1.61-.32,2.28-1.58,2.89-1.07.52-2.08,1.14-3.14,1.79-.37.23-.75.46-1.12.68-1.33.79-2.69,1.76-4.03,2.86-.36.29-.72.58-1.08.87-.86.69-1.68,1.33-2.43,2.07-1.8,1.75-3.51,3.79-5.21,6.25-.18.26-.37.52-.55.77-.26.36-.53.73-.77,1.1-.11.16-.18.34-.26.52-.08.18-.16.35-.26.53-.79,1.45-1.79,3.37-2.55,5.39-.61,1.62-1.06,3.33-1.35,5.08-.13.8-.28,1.6-.42,2.4l-.62,3.47-1.38-2.06Z"/><path class="cls-1" d="m61.76,30.3c1.8,0,3.43.62,4.87,1.96.64.59,1.13,1.29,1.64,2,1.93,2.69,2.66,5.8,3.37,8.93.15.67.23,1.35.37,2.03.2.96.03,1.26-1.04,1.78-1.51.74-2.91,1.66-4.35,2.52-1.46.87-2.84,1.87-4.15,2.95-1.2.99-2.46,1.91-3.58,2.99-2.01,1.95-3.75,4.11-5.34,6.4-.44.64-.92,1.25-1.34,1.9-.23.35-.36.75-.56,1.11-.98,1.79-1.9,3.62-2.61,5.52-.64,1.69-1.11,3.47-1.4,5.27-.19,1.14-.4,2.27-.61,3.41-.66-.98-.89-2.07-1.15-3.14-.53-2.18-.88-4.39-1.17-6.62-.31-2.36-.34-4.72-.27-7.08.05-1.52.28-3.03.45-4.54.28-2.54.85-5.01,1.49-7.47.74-2.82,1.73-5.54,2.99-8.18,1.23-2.58,2.59-5.07,4.38-7.31.95-1.18,2.01-2.23,3.34-2.97.94-.52,1.86-1.09,2.94-1.3.59-.12,1.16-.18,1.72-.18m0-2h0c-.68,0-1.39.07-2.11.21-1.27.25-2.31.83-3.22,1.35l-.31.17c-1.42.79-2.67,1.89-3.93,3.47-1.65,2.06-3.08,4.44-4.63,7.7-1.3,2.73-2.35,5.6-3.11,8.53-.59,2.24-1.23,4.91-1.54,7.75-.04.38-.09.76-.13,1.14-.14,1.15-.29,2.34-.32,3.56-.09,2.86,0,5.21.29,7.4.34,2.65.73,4.81,1.21,6.83l.04.17c.27,1.11.57,2.38,1.39,3.61l2.76,4.13.88-4.88.19-1.04c.15-.8.29-1.6.42-2.4.28-1.69.72-3.33,1.3-4.89.74-1.97,1.72-3.85,2.49-5.27.1-.19.2-.39.29-.59.07-.15.14-.31.19-.39.23-.35.48-.7.75-1.07.19-.26.38-.52.56-.79,1.66-2.4,3.33-4.4,5.09-6.11.72-.7,1.51-1.33,2.36-2,.37-.29.74-.59,1.1-.88,1.3-1.07,2.61-2.01,3.9-2.78.38-.23.76-.46,1.14-.69,1.04-.64,2.03-1.24,3.06-1.75,1.33-.65,2.62-1.63,2.12-4-.06-.29-.11-.58-.16-.87-.06-.38-.13-.77-.22-1.17-.69-3.08-1.48-6.56-3.69-9.65l-.05-.07c-.54-.75-1.09-1.53-1.86-2.24-1.78-1.66-3.87-2.5-6.23-2.5h0Z"/><path class="cls-1" d="m44.43,83.55c-.61-.19-.97-.55-1.24-.82-.07-.07-.13-.14-.21-.2-1.98-1.57-3.87-3.45-5.95-5.89-1.69-1.99-3.33-4.13-4.86-6.37-.9-1.31-1.82-2.79-2.89-4.65-2.04-3.55-3.71-7.21-4.98-10.88-.92-2.66-1.53-5.05-1.86-7.3l-.02-.13c-.19-1.26-.38-2.57-.3-3.92.1-1.59.36-3.44,1.56-5.1,1.17-1.62,2.74-2.56,4.67-2.77.14-.02.27-.02.41-.02.6,0,1.15.14,1.65.26l.15.04c1.35.33,2.7.9,4,1.7,2.06,1.27,3.93,2.8,5.64,4.27.47.41.94.83,1.4,1.25.77.7,1.5,1.37,2.29,1.97.8.61,1.09,1.46.84,2.45-.18.72-.39,1.44-.6,2.15-.27.92-.55,1.88-.76,2.82l-.09.41c-.37,1.64-.75,3.33-.95,5.01-.08.69-.18,1.39-.28,2.08-.14,1-.29,2.04-.39,3.05-.06.69-.06,1.39-.05,2.13,0,.4,0,.81,0,1.21-.1,5.14,1.13,10.14,3.65,14.88.12.23.24.46.35.69.1.21.11.41.11.52v.13s.13,1.49.13,1.49l-1.42-.45Z"/><path class="cls-1" d="m28.77,36.49c.53,0,1.05.14,1.56.27,1.32.32,2.55.86,3.71,1.58,1.98,1.21,3.76,2.67,5.52,4.18,1.25,1.07,2.42,2.25,3.73,3.25.46.35.64.77.48,1.41-.43,1.68-.99,3.31-1.37,5-.41,1.83-.83,3.65-1.06,5.52-.21,1.72-.51,3.43-.67,5.15-.11,1.13-.04,2.28-.06,3.42-.11,5.46,1.21,10.56,3.77,15.37.11.21.22.43.32.64.02.05.01.11.03.31-.54-.17-.78-.58-1.12-.85-2.15-1.71-4.03-3.67-5.81-5.76-1.71-2.02-3.31-4.11-4.8-6.29-1.02-1.48-1.95-3.02-2.85-4.59-1.96-3.42-3.61-6.98-4.9-10.71-.8-2.32-1.46-4.68-1.82-7.12-.19-1.28-.39-2.55-.31-3.84.1-1.63.38-3.2,1.37-4.58.99-1.37,2.3-2.18,3.97-2.36.1-.01.2-.02.3-.02m0-2h0c-.17,0-.35,0-.52.03-2.22.25-4.03,1.32-5.37,3.18-1.36,1.88-1.65,4-1.75,5.63-.09,1.46.11,2.82.31,4.14l.02.12c.34,2.31.97,4.76,1.91,7.48,1.29,3.73,2.99,7.45,5.05,11.05,1.08,1.89,2.02,3.39,2.93,4.72,1.55,2.26,3.21,4.43,4.93,6.45,2.12,2.5,4.06,4.41,6.09,6.03.04.03.08.08.12.12.3.3.8.8,1.64,1.07l2.83.9-.24-2.96v-.09c-.01-.17-.02-.52-.21-.92-.12-.25-.24-.49-.37-.73-2.44-4.58-3.63-9.42-3.53-14.39,0-.41,0-.83,0-1.24,0-.72-.01-1.39.05-2.03.09-.99.23-1.97.38-3.01.1-.7.2-1.39.28-2.09.2-1.64.56-3.24.94-4.94l.09-.38c.2-.91.47-1.81.75-2.76.21-.71.42-1.44.61-2.18.36-1.39-.07-2.63-1.2-3.5-.76-.58-1.47-1.23-2.23-1.92-.47-.42-.93-.85-1.41-1.26-1.75-1.5-3.66-3.07-5.77-4.37-1.39-.85-2.83-1.47-4.29-1.82l-.14-.04c-.52-.13-1.17-.29-1.89-.29h0Z"/><path class="cls-1" d="m42.56,86.09c-.64,0-1.18-.19-1.65-.35-.12-.04-.25-.09-.37-.12l-1.47-.45c-2.75-.84-5.59-1.7-8.36-2.69-3.01-1.08-6.95-2.57-10.74-4.56-3.21-1.69-5.96-3.51-8.43-5.57-.62-.52-1.19-1.1-1.73-1.66-.34-.35-.67-.69-1.03-1.02-1.81-1.71-3.14-3.29-4.21-4.98-.74-1.18-1.1-2.3-1.13-3.52-.04-1.33.43-3.13,2.88-4.16.96-.4,2.06-.66,3.36-.78.25-.02.49-.05.74-.08.51-.07,1.04-.13,1.59-.13.14,0,.29,0,.43.01h.18c1.63.12,3.32.24,4.99.48.76.11,1.52.24,2.27.37.43.07.86.15,1.29.22.48.08.89.25,1.26.39.18.07.36.15.55.21.6.18.83.66.92.86.72,1.2,1.3,2.4,1.87,3.57.19.4.39.8.58,1.2,1.54,3.1,3.27,6.1,5.16,8.93,1.99,2.98,4.42,5.81,7.21,8.39,1.17,1.08,2.52,2.12,4,3.08.28.16.88.5.92,1.32l.05,1.01-1.14.04Z"/><path class="cls-1" d="m12.01,57.01c.12,0,.24,0,.36.01,1.7.12,3.4.23,5.1.47,1.19.17,2.36.39,3.55.59.6.1,1.11.4,1.68.57.24.07.28.3.39.47.91,1.49,1.61,3.08,2.38,4.64,1.55,3.12,3.29,6.13,5.22,9.04,2.11,3.16,4.58,6,7.37,8.57,1.28,1.18,2.67,2.23,4.13,3.19.19.13.45.2.46.53-.03,0-.06,0-.09,0-.62,0-1.17-.26-1.73-.43-3.27-1-6.56-1.97-9.78-3.13-3.62-1.3-7.2-2.71-10.61-4.51-2.93-1.54-5.71-3.33-8.25-5.45-.97-.81-1.79-1.78-2.71-2.64-1.53-1.44-2.92-3-4.04-4.78-.58-.92-.95-1.87-.98-3.02-.05-1.83,1.09-2.71,2.27-3.21.98-.41,2.02-.61,3.06-.7.74-.07,1.49-.21,2.24-.21m0-2h0c-.62,0-1.2.07-1.72.14-.23.03-.47.06-.7.08-1.4.13-2.6.41-3.65.85-3.13,1.32-3.53,3.77-3.49,5.11.04,1.41.45,2.68,1.29,4.02,1.09,1.74,2.52,3.44,4.37,5.18.34.32.67.66.99.99.56.58,1.14,1.17,1.81,1.73,2.52,2.1,5.33,3.96,8.6,5.68,3.85,2.03,7.83,3.53,10.87,4.62,2.78.99,5.62,1.86,8.37,2.7l1.5.46c.11.03.23.07.34.11.5.17,1.17.41,1.98.41.06,0,.11,0,.17,0l2.02-.08-.1-2.01c-.03-.63-.29-1.5-1.36-2.11-1.44-.93-2.74-1.94-3.87-2.98-2.74-2.53-5.11-5.29-7.06-8.21-1.86-2.79-3.57-5.76-5.09-8.82-.2-.39-.39-.79-.58-1.19-.57-1.17-1.15-2.39-1.86-3.56-.15-.31-.54-1.08-1.53-1.38-.16-.05-.32-.11-.47-.18-.39-.16-.88-.36-1.47-.45-.42-.07-.84-.14-1.25-.21-.76-.13-1.54-.27-2.33-.38-1.7-.25-3.4-.36-5.04-.48h-.21c-.17-.03-.33-.03-.5-.03h0Z"/><path class="cls-1" d="m29.7,89.38c-.57,0-1.14-.01-1.72-.05-.84-.06-1.72-.06-2.57-.07-1.08,0-2.2-.01-3.32-.12-.77-.08-1.54-.14-2.32-.21-1.72-.14-3.5-.29-5.26-.6-2.3-.41-4.75-.91-7.14-1.76-1.93-.69-3.59-1.71-5.06-3.13-.89-.86-1.33-1.8-1.31-2.79.02-1.06.6-2.12,1.67-3.06,1.29-1.13,2.78-1.75,4.33-2.35,1.04-.4,2.14-.75,3.36-1.08.24-.06.47-.1.7-.1.57,0,1.09.2,1.6.6,2.53,2,5.25,3.81,8.34,5.52,3.2,1.78,6.6,3.23,10.41,4.45,2.47.79,5.13,1.41,7.9,1.86.27.04.54.12.81.19l.32.08,1.05.27-.35,1.02c-.29.84-.93.93-1.19.93h-.22c-.54,0-1.07.05-1.64.1-.59.05-1.21.11-1.83.11h-.7c-.95,0-1.93.04-2.88.08-.97.05-1.97.09-2.97.09Z"/><path class="cls-1" d="m11.05,75.06c.36,0,.67.14.98.38,2.66,2.11,5.5,3.96,8.47,5.61,3.37,1.88,6.92,3.36,10.59,4.53,2.63.84,5.32,1.46,8.05,1.9.35.06.69.17,1.05.26-.07.22-.16.26-.24.26,0,0,0,0,0,0-.07,0-.14,0-.21,0-1.16,0-2.31.22-3.48.22-.06,0-.11,0-.17,0-.18,0-.36,0-.54,0-1.95,0-3.89.18-5.84.18-.55,0-1.1-.01-1.65-.05-1.95-.13-3.92,0-5.85-.19-2.5-.25-5.02-.35-7.51-.8-2.37-.43-4.71-.91-6.98-1.72-1.77-.63-3.32-1.58-4.71-2.91-1.77-1.7-.91-3.3.32-4.38,1.17-1.03,2.6-1.62,4.03-2.17,1.06-.41,2.15-.75,3.26-1.05.16-.04.3-.06.44-.06m0-2c-.31,0-.63.04-.95.13-1.24.33-2.37.7-3.46,1.11-1.57.6-3.22,1.29-4.63,2.53C.73,77.95.03,79.26,0,80.62c-.02.88.24,2.22,1.62,3.54,1.58,1.52,3.35,2.61,5.42,3.35,2.45.87,4.95,1.38,7.3,1.8,1.81.32,3.61.47,5.35.62.77.06,1.54.13,2.3.2,1.17.12,2.31.12,3.42.13.87,0,1.69,0,2.5.06.56.04,1.14.06,1.78.06,1.02,0,2.03-.05,3.01-.09.98-.05,1.9-.09,2.83-.09.17,0,.33,0,.5,0h.21c.68,0,1.31-.06,1.93-.11.55-.05,1.06-.1,1.55-.1h.16s.02,0,.02,0h.03c.77,0,1.74-.43,2.14-1.62l.68-2.04-2.09-.53c-.1-.03-.2-.05-.29-.08-.27-.08-.58-.16-.92-.22-2.73-.44-5.34-1.06-7.76-1.83-3.74-1.19-7.08-2.62-10.22-4.37-3.04-1.69-5.72-3.47-8.2-5.43-.68-.54-1.43-.82-2.22-.82h0Z"/><path class="cls-2" d="m87.05,47.08c1.89-.17,3.81.31,5.63,1.14,1.31.6,2.41,1.44,3.32,2.66,1.45,1.95,2.02,4.07,2.1,6.44.09,2.68-.65,5.15-1.73,7.55-1.57,3.52-3.74,6.67-6.18,9.65-1.18,1.44-2.5,2.74-3.85,4.03-1.06,1.01-2.05,2.08-3.21,2.99-1.44,1.12-2.96,2.12-4.51,3.07-2.07,1.28-4.26,2.31-6.51,3.23-2.05.84-4.17,1.45-6.38,1.8-1.61.25-3.21.39-4.84.33-1.96-.07-3.76-.64-5.45-1.65-2.14-1.28-3.21-3.21-3.66-5.58-.18-.94-.35-1.88-.34-2.84.02-1.97.42-3.86,1.07-5.71,1.37-3.92,3.54-7.39,6.14-10.61,1.32-1.64,2.8-3.13,4.28-4.62,1.8-1.8,3.79-3.37,5.85-4.84.46-.33.84-.76,1.33-1.06,3.12-1.91,6.3-3.69,9.8-4.83,2.27-.74,4.58-1.22,7.12-1.13Z"/><path class="cls-2" d="m47.04,79.95c-.66-.98-.89-2.07-1.15-3.14-.53-2.18-.88-4.39-1.17-6.62-.31-2.36-.34-4.72-.27-7.08.05-1.52.28-3.03.45-4.54.28-2.54.85-5.01,1.49-7.47.74-2.82,1.73-5.54,2.99-8.18,1.23-2.58,2.59-5.07,4.38-7.31.95-1.18,2.01-2.23,3.34-2.97.94-.52,1.86-1.09,2.94-1.3,2.49-.49,4.71.03,6.59,1.78.64.59,1.13,1.29,1.64,2,1.93,2.69,2.66,5.8,3.37,8.93.15.67.23,1.35.37,2.03.2.96.03,1.26-1.04,1.78-1.51.74-2.91,1.66-4.35,2.52-1.46.87-2.84,1.87-4.15,2.95-1.2.99-2.46,1.91-3.58,2.99-2.01,1.95-3.75,4.11-5.34,6.4-.44.64-.92,1.25-1.34,1.9-.23.35-.36.75-.56,1.11-.98,1.79-1.9,3.62-2.61,5.52-.64,1.69-1.11,3.47-1.4,5.27-.19,1.14-.4,2.27-.61,3.41Z"/><path class="cls-2" d="m44.73,83.47c-.54-.17-.78-.58-1.12-.85-2.15-1.71-4.03-3.67-5.81-5.76-1.71-2.02-3.31-4.11-4.8-6.29-1.02-1.48-1.95-3.02-2.85-4.59-1.96-3.42-3.61-6.98-4.9-10.71-.8-2.32-1.46-4.68-1.82-7.12-.19-1.28-.39-2.55-.31-3.84.1-1.63.38-3.2,1.37-4.58.99-1.37,2.3-2.18,3.97-2.36.63-.07,1.26.1,1.86.25,1.32.32,2.55.86,3.71,1.58,1.98,1.21,3.76,2.67,5.52,4.18,1.25,1.07,2.42,2.25,3.73,3.25.46.35.64.77.48,1.41-.43,1.68-.99,3.31-1.37,5-.41,1.83-.83,3.65-1.06,5.52-.21,1.72-.51,3.43-.67,5.15-.11,1.13-.04,2.28-.06,3.42-.11,5.46,1.21,10.56,3.77,15.37.11.21.22.43.32.64.02.05.01.11.03.31Z"/><path class="cls-2" d="m42.64,85.97c-.65.03-1.24-.25-1.82-.43-3.27-1-6.56-1.97-9.78-3.13-3.62-1.3-7.2-2.71-10.61-4.51-2.93-1.54-5.71-3.33-8.25-5.45-.97-.81-1.79-1.78-2.71-2.64-1.53-1.44-2.92-3-4.04-4.78-.58-.92-.95-1.87-.98-3.02-.05-1.83,1.09-2.71,2.27-3.21.98-.41,2.02-.61,3.06-.7.86-.08,1.72-.26,2.6-.2,1.7.12,3.4.23,5.1.47,1.19.17,2.36.39,3.55.59.6.1,1.11.4,1.68.57.24.07.28.3.39.47.91,1.49,1.61,3.08,2.38,4.64,1.55,3.12,3.29,6.13,5.22,9.04,2.11,3.16,4.58,6,7.37,8.57,1.28,1.18,2.67,2.23,4.13,3.19.19.13.45.2.46.53Z"/><path class="cls-2" d="m40.19,88.62c-.08.23-.16.26-.25.26-1.29-.03-2.57.24-3.87.21-2.67-.05-5.35.31-8.02.13-1.95-.13-3.92,0-5.85-.19-2.5-.25-5.02-.35-7.51-.8-2.37-.43-4.71-.91-6.98-1.72-1.77-.63-3.32-1.58-4.71-2.91-1.77-1.7-.91-3.3.32-4.38,1.17-1.03,2.6-1.62,4.03-2.17,1.06-.41,2.15-.75,3.26-1.05.56-.15.99-.02,1.42.32,2.66,2.11,5.5,3.96,8.47,5.61,3.37,1.88,6.92,3.36,10.59,4.53,2.63.84,5.32,1.46,8.05,1.9.35.06.69.17,1.05.26Z"/></g></svg>